<?xml version="1.0" encoding="utf-8"?>
<!-- Generator: Adobe Illustrator 16.0.0, SVG Export Plug-In . SVG Version: 6.00 Build 0)  -->
<!DOCTYPE svg PUBLIC "-//W3C//DTD SVG 1.1//EN" "http://www.w3.org/Graphics/SVG/1.1/DTD/svg11.dtd">
<svg version="1.1" id="Warstwa_1" xmlns="http://www.w3.org/2000/svg" xmlns:xlink="http://www.w3.org/1999/xlink" x="0px" y="0px"
	 width="368.411px" height="61.665px" viewBox="0 0 368.411 61.665" enable-background="new 0 0 368.411 61.665"
	 xml:space="preserve">
<g>
	<g>
		<path fill="#656665" d="M154.79,59.223L139.735,6.167c-1.384-4.964-5.207-6.104-8.22-6.104c-3.09,0-6.914,1.221-8.298,6.187
			l-15.055,52.974c-0.081,0.161-0.081,0.406-0.081,0.569c0,0.733,0.57,1.301,1.383,1.301h4.801c0.651,0,1.302-0.567,1.465-1.222
			l5.21-18.713l1.543-6.428l7.404-26.773c0.245-0.895,0.734-1.467,1.627-1.467c0.815,0,1.301,0.572,1.546,1.467l7.408,26.773
			l1.543,6.428l5.291,18.713c0.161,0.654,0.651,1.222,1.381,1.222h4.804c0.893,0,1.382-0.567,1.382-1.301
			C154.87,59.629,154.87,59.384,154.79,59.223z"/>
	</g>
	<path fill="#656665" d="M59.48,60.442c-3.989,0.65-8.545,1.223-16.195,1.223c-10.17,0-21.075-6.676-21.075-25.309V25.451
		c0-19.771,11.393-25.389,21.81-25.389c7.566,0,12.368,0.652,15.461,1.141c0.73,0.083,1.381,0.406,1.381,1.22v4.071
		c0,0.568-0.323,0.813-1.058,0.813c-0.079,0-0.244,0-0.323,0C54.676,6.9,50.935,6.738,44.019,6.738
		c-7.571,0-14.405,4.068-14.405,18.713v10.905c0,13.425,6.103,18.715,13.67,18.715c4.963,0,8.301-0.326,10.254-0.487V31.311
		c0-0.893,0.568-1.627,1.463-1.627h4.396c0.813,0,1.546,0.734,1.546,1.627v27.341C60.943,59.547,60.372,60.279,59.48,60.442z"/>
	<path fill="#656665" d="M194.864,32.857h-24.979v26.607c0,0.897-0.734,1.628-1.63,1.628h-4.15c-0.896,0-1.626-0.73-1.626-1.628
		V15.197c0-10.818,5.938-15.135,17.333-15.135c4.801,0,12.451,0.166,15.867,0.49c0.488,0.08,0.814,0.65,0.814,1.14V5.76
		c0,0.568-0.326,0.979-0.896,0.979H179.89c-8.625,0-10.005,2.276-10.005,8.459v11.314h24.979c0.895,0,1.629,0.73,1.629,1.627v3.092
		C196.493,32.123,195.759,32.857,194.864,32.857z"/>
	<path fill="#656665" d="M250.739,61.093h-3.988c-0.897,0-1.631-0.73-1.631-1.628V11.212c0-0.164,0-0.245-0.08-0.245
		c-0.082,0-0.082,0-0.164,0.163l-11.635,24.087c-0.813,1.628-1.628,2.358-3.661,2.358h-3.745c-2.031,0-2.846-0.73-3.661-2.358
		L210.54,11.13c-0.082-0.163-0.082-0.163-0.165-0.163c-0.079,0-0.079,0.081-0.079,0.245v48.253c0,0.897-0.734,1.628-1.627,1.628
		h-3.988c-0.896,0-1.628-0.73-1.628-1.628V2.994c0-1.302,1.056-2.361,2.36-2.361h5.288c1.465,0,2.115,0.326,2.604,1.383
		l13.425,27.912c0.324,0.731,0.573,0.894,0.975,0.894c0.41,0,0.655-0.162,0.979-0.894L242.11,2.016
		c0.489-1.057,1.139-1.383,2.604-1.383h5.29c1.304,0,2.36,1.06,2.36,2.361v56.471C252.364,60.362,251.63,61.093,250.739,61.093z"/>
	<path fill="#656665" d="M343.732,60.442c-3.985,0.65-8.544,1.223-16.192,1.223c-10.171,0-21.075-6.676-21.075-25.309V25.451
		c0-19.771,11.394-25.389,21.81-25.389c7.567,0,12.366,0.652,15.458,1.141c0.732,0.083,1.382,0.406,1.382,1.22v4.071
		c0,0.568-0.322,0.813-1.058,0.813c-0.079,0-0.245,0-0.324,0c-4.799-0.406-8.544-0.568-15.458-0.568
		c-7.566,0-14.407,4.068-14.407,18.713v10.905c0,13.425,6.106,18.715,13.673,18.715c4.965,0,8.302-0.326,10.251-0.487V31.311
		c0-0.893,0.57-1.627,1.468-1.627h4.395c0.812,0,1.547,0.734,1.547,1.627v27.341C345.2,59.547,344.632,60.279,343.732,60.442z"/>
	<path fill="#656665" d="M101.394,59.313l-14.81-24.736c4.911-1.293,8.881-4.128,11.03-8.524c1.094-2.23,1.745-4.84,1.745-7.912
		v-0.571c0-13.179-9.927-17.493-22.785-17.493c-2.154,0-4.589,0.055-6.943,0.146c0,2.188,0,4.389,0,6.627
		c2.189-0.099,5.092-0.099,6.943-0.099c10.172,0,15.462,2.683,15.462,10.818v0.571c0,1.04-0.089,1.979-0.242,2.846
		c-1.125,6.492-6.394,8.465-15.22,8.465c-1.516,0-4.113-0.055-6.943-0.115c0,2.1,0,4.195,0,6.296c2.977,0.11,4.72,0.165,6.943,0.165
		c0.49,0,0.896,0,1.385,0c0.245,0,0.485,0,0.73,0l14.566,24.251c0.654,1.058,1.14,1.058,2.115,1.058h5.208
		c0.653,0,1.06-0.489,1.06-1.058C101.639,59.803,101.557,59.56,101.394,59.313z"/>
	<circle fill="#656665" cx="132.029" cy="42.494" r="3.325"/>
	<path fill="#656665" d="M13.133,6.564c0,3.627-2.951,6.564-6.569,6.568C2.934,13.133,0,10.191,0,6.564
		C0.001,2.937,2.934,0.002,6.564,0C10.183-0.004,13.133,2.937,13.133,6.564z"/>
	<path fill="#656665" d="M368.411,6.564c-0.005,3.627-2.951,6.564-6.569,6.568c-3.632,0-6.565-2.941-6.565-6.568
		c0-3.628,2.934-6.563,6.565-6.564C365.46-0.004,368.411,2.937,368.411,6.564z"/>
	<path fill="#656665" d="M368.411,54.507c-0.005,3.63-2.951,6.565-6.569,6.568c-3.632,0-6.565-2.938-6.565-6.568
		c0-3.624,2.934-6.562,6.565-6.565C365.46,47.941,368.411,50.883,368.411,54.507z"/>
	<path fill="#656665" d="M13.133,54.51c0,3.627-2.951,6.565-6.569,6.565C2.934,61.075,0,58.137,0,54.51
		c0.001-3.625,2.934-6.564,6.564-6.564C10.183,47.945,13.133,50.885,13.133,54.51z"/>
	<g>
		<path fill="#656665" d="M304.565,59.221L289.512,6.167c-1.38-4.964-5.209-6.104-8.221-6.104c-3.087,0-6.913,1.224-8.295,6.187
			L257.94,59.221c-0.085,0.163-0.085,0.408-0.085,0.571c0,0.73,0.574,1.301,1.389,1.301h4.798c0.654,0,1.303-0.57,1.466-1.219
			l5.209-18.716l1.546-6.431l7.402-26.771c0.244-0.895,0.733-1.463,1.626-1.463c0.818,0,1.301,0.568,1.548,1.463l7.405,26.771
			l1.548,6.431l5.287,18.716c0.165,0.648,0.654,1.219,1.383,1.219h4.803c0.891,0,1.382-0.57,1.382-1.301
			C304.646,59.629,304.646,59.384,304.565,59.221z"/>
		<path fill="#656665" d="M284.146,42.494c0,1.836-1.494,3.324-3.325,3.324c-1.841,0-3.326-1.488-3.326-3.324
			c0-1.838,1.485-3.326,3.326-3.326C282.651,39.168,284.146,40.656,284.146,42.494z"/>
	</g>
</g>
</svg>
