<?xml version="1.0" encoding="utf-8"?>
<!-- Generator: Adobe Illustrator 19.0.0, SVG Export Plug-In . SVG Version: 6.00 Build 0)  -->
<svg version="1.1" id="Layer_1" xmlns="http://www.w3.org/2000/svg" xmlns:xlink="http://www.w3.org/1999/xlink" x="0px" y="0px"
	 viewBox="-1414 786 50 50" style="enable-background:new -1414 786 50 50;" xml:space="preserve">
<style type="text/css">
	.st0{fill:#0F1942;}
</style>
<path id="XMLID_6_" class="st0" d="M-1378.9,794.5h-20.2c-3.5,0-6.4,2.9-6.4,6.4v6.7v13.5c0,3.5,2.9,6.4,6.4,6.4h20.2
	c3.5,0,6.4-2.9,6.4-6.4v-13.5v-6.7C-1372.5,797.4-1375.4,794.5-1378.9,794.5z M-1377,798.3h0.7v0.7v4.9h-5.6v-5.6H-1377z
	 M-1393.7,807.6c1.1-1.5,2.8-2.4,4.7-2.4s3.7,1,4.7,2.4c0.7,1,1.1,2.1,1.1,3.4c0,3.2-2.6,5.8-5.8,5.8s-5.8-2.6-5.8-5.8
	C-1394.8,809.7-1394.4,808.6-1393.7,807.6z M-1375.7,821.1c0,1.7-1.4,3.2-3.2,3.2h-20.2c-1.7,0-3.2-1.4-3.2-3.2v-13.5h4.9
	c-0.4,1-0.7,2.2-0.7,3.4c0,5,4,9,9,9s9-4,9-9c0-1.2-0.2-2.3-0.7-3.4h4.9v13.5H-1375.7z"/>
</svg>
