<?xml version="1.0" encoding="utf-8"?>
<!-- Generator: Adobe Illustrator 19.0.0, SVG Export Plug-In . SVG Version: 6.00 Build 0)  -->
<svg version="1.1" id="Layer_1" xmlns="http://www.w3.org/2000/svg" xmlns:xlink="http://www.w3.org/1999/xlink" x="0px" y="0px"
	 viewBox="0 0 544 346.6" style="enable-background:new 0 0 544 346.6;" xml:space="preserve">
<style type="text/css">
	.st0{fill:#F4D4DE;}
</style>
<g>
	<path id="XMLID_8_" class="st0" d="M87.8,126.8c-46.4,10.4-74.9,58.3-84.9,104.8c-2.6,11.9-4.3,24.4-1.3,36.3
		c3.3,13.1,12.2,24.2,22.6,32.9c37,31,90.2,32.9,138,26.5s95.8-19.6,143.6-13.3c37.2,4.9,72,21.4,108.8,29.1s79.7,4.5,105.1-23.3
		c15-16.4,21.5-39.1,23.6-61.2c7.9-82.1-47.3-169.2-127.9-186.3c-10.9-2.3-22.2-3.5-32.4-8c-12.2-5.5-21.8-15.4-32-24.1
		c-35.1-29.9-83.1-47-128.2-37.4c-20.2,4.3-39,13.6-56.8,24.2C91.8,70.9,30.2,143.1,17.7,228.4"/>
</g>
</svg>
