<?xml version="1.0" encoding="utf-8"?>
<!-- Generator: Adobe Illustrator 19.0.0, SVG Export Plug-In . SVG Version: 6.00 Build 0)  -->
<svg version="1.1" id="Layer_1" xmlns="http://www.w3.org/2000/svg" xmlns:xlink="http://www.w3.org/1999/xlink" x="0px" y="0px"
	 viewBox="279 173.3 1400 250" style="enable-background:new 279 173.3 1400 250;" xml:space="preserve">
<style type="text/css">
	.st0{opacity:0.6;}
	.st1{fill:#F07E86;}
</style>
<g id="XMLID_117_" class="st0">
	<path id="XMLID_43_" class="st1" d="M298.8,302.3c-7.4,0-13.4-6-13.4-13.4s6-13.4,13.4-13.4c7.4,0,13.4,6,13.4,13.4
		C312.1,296.3,306.1,302.3,298.8,302.3z M298.8,280.5c-4.7,0-8.4,3.8-8.4,8.4c0,4.7,3.8,8.4,8.4,8.4c4.6,0,8.4-3.8,8.4-8.4
		S303.4,280.5,298.8,280.5z"/>
</g>
<g id="XMLID_115_" class="st0">
	<path id="XMLID_42_" class="st1" d="M312.4,227.4c-1.2,0-2.2-0.9-2.4-2.1l-1.7-10.2l-10.2-1.7c-1-0.2-1.9-1-2-2l-1.7-10.2
		l-10.3-1.7c-1-0.2-1.9-1-2-2l-2-11.9c-0.2-1.3,0.7-2.6,2-2.8c1.3-0.2,2.6,0.7,2.8,2l1.7,10.2l10.2,1.7c1,0.2,1.9,1,2,2l1.7,10.2
		l10.2,1.7c1,0.2,1.9,1,2,2l2,11.9c0.2,1.3-0.7,2.6-2,2.8C312.7,227.4,312.5,227.4,312.4,227.4z"/>
</g>
<g id="XMLID_113_" class="st0">
	<path id="XMLID_41_" class="st1" d="M354,319.6c-1.3,0-2.4-1-2.5-2.3c-0.1-1.4,1-2.5,2.3-2.6l10.3-0.5l2.8-10
		c0.3-1,1.2-1.7,2.2-1.8l10.3-0.5l2.8-10c0.3-1,1.2-1.7,2.2-1.8l12.1-0.6c1.4-0.1,2.5,1,2.6,2.3c0.1,1.4-1,2.5-2.3,2.6l-10.3,0.5
		l-2.8,10c-0.3,1-1.2,1.7-2.2,1.8l-10.3,0.5l-2.8,10c-0.3,1-1.2,1.7-2.2,1.8l-12.1,0.6C354.1,319.6,354.1,319.6,354,319.6z"/>
</g>
<g id="XMLID_107_" class="st0">
	<path id="XMLID_37_" class="st1" d="M401.7,228.1c-5.9,0-11.4-4-13-10c-1.9-7.1,2.5-14.5,9.6-16.3l0,0c3.5-0.9,7.1-0.4,10.1,1.4
		c3.1,1.8,5.3,4.7,6.2,8.2c0.9,3.5,0.4,7.1-1.4,10.1c-1.8,3.1-4.7,5.3-8.2,6.2C403.9,228,402.8,228.1,401.7,228.1z M399.6,206.6
		c-4.5,1.2-7.2,5.8-6.1,10.3c1.2,4.5,5.8,7.2,10.3,6.1c2.2-0.6,4-1.9,5.2-3.9c1.1-1.9,1.5-4.2,0.9-6.4s-1.9-4-3.9-5.2
		S401.7,206,399.6,206.6L399.6,206.6z"/>
</g>
<g id="XMLID_105_" class="st0">
	<path id="XMLID_36_" class="st1" d="M451.2,223.3c-0.9,0-1.8-0.5-2.3-1.5c-0.6-1.2,0-2.7,1.2-3.3l9.5-4.2l-0.9-10.3
		c-0.1-1,0.5-2,1.5-2.5l9.5-4.2l-0.9-10.3c-0.1-1,0.5-2,1.5-2.5l11.1-4.9c1.2-0.6,2.7,0,3.3,1.2s0,2.7-1.2,3.3l-9.5,4.2l0.9,10.3
		c0.1,1-0.5,2-1.5,2.5l-9.5,4.2l0.9,10.3c0.1,1-0.5,2-1.5,2.5l-11.1,4.9C451.8,223.2,451.5,223.3,451.2,223.3z"/>
</g>
<g id="XMLID_101_" class="st0">
	<path id="XMLID_34_" class="st1" d="M450.6,300.8c-0.4,0-0.9-0.1-1.2-0.3c-1.2-0.7-1.6-2.2-0.9-3.4l13.6-23.1
		c0.7-1.2,2.2-1.6,3.4-0.9c1.2,0.7,1.6,2.2,0.9,3.4l-13.6,23.1C452.3,300.4,451.5,300.8,450.6,300.8z"/>
</g>
<g id="XMLID_97_" class="st0">
	<path id="XMLID_31_" class="st1" d="M378.1,396.3L378.1,396.3c-7.4,0-13.4-6.1-13.4-13.4c0-3.6,1.4-6.9,4-9.4
		c2.5-2.5,5.9-3.9,9.5-3.9c7.4,0,13.3,6.1,13.3,13.4c0,3.6-1.4,6.9-4,9.4C385,394.9,381.7,396.3,378.1,396.3z M378.1,374.5
		c-2.2,0-4.3,0.9-5.9,2.4c-1.6,1.6-2.5,3.7-2.5,6c0,4.7,3.7,8.5,8.4,8.5l0,0c2.2,0,4.3-0.9,5.9-2.4c1.6-1.6,2.5-3.7,2.5-6l0,0
		C386.6,378.3,382.8,374.5,378.1,374.5L378.1,374.5z"/>
</g>
<g id="XMLID_95_" class="st0">
	<path id="XMLID_30_" class="st1" d="M542.1,340.7c-1.2,0-2.2-0.9-2.4-2.1l-1.6-10.2l-10.2-1.8c-1-0.2-1.8-1-2-2l-1.6-10.2
		l-10.2-1.8c-1-0.2-1.8-1-2-2l-1.9-12c-0.2-1.3,0.7-2.6,2-2.8c1.3-0.2,2.6,0.7,2.8,2l1.6,10.2l10.2,1.8c1,0.2,1.8,1,2,2l1.6,10.2
		l10.2,1.8c1,0.2,1.8,1,2,2l1.9,12c0.2,1.3-0.7,2.6-2,2.8C542.3,340.7,542.2,340.7,542.1,340.7z"/>
</g>
<g id="XMLID_93_" class="st0">
	<path id="XMLID_29_" class="st1" d="M586.9,404.7c-1.3,0-2.4-1-2.5-2.3c-0.1-1.4,1-2.5,2.3-2.6l10.3-0.5l2.9-9.9
		c0.3-1,1.2-1.7,2.3-1.8l10.3-0.5l2.9-9.9c0.3-1,1.2-1.7,2.3-1.8l12.1-0.6c1.4-0.1,2.5,1,2.6,2.3c0.1,1.4-1,2.5-2.3,2.6l-10.3,0.5
		l-2.9,9.9c-0.3,1-1.2,1.7-2.3,1.8l-10.3,0.5l-2.9,9.9c-0.3,1-1.2,1.7-2.3,1.8L586.9,404.7C586.9,404.7,586.9,404.7,586.9,404.7z"/>
</g>
<g id="XMLID_87_" class="st0">
	<path id="XMLID_25_" class="st1" d="M676.4,300.2L676.4,300.2c-7.4,0-13.4-6.1-13.4-13.4c0-3.6,1.4-6.9,4-9.4
		c2.5-2.5,5.9-3.9,9.4-3.9c0,0,0,0,0.1,0c7.4,0,13.3,6.1,13.3,13.4l0,0C689.8,294.2,683.8,300.2,676.4,300.2z M676.4,278.3
		c-2.2,0-4.3,0.9-5.9,2.4c-1.6,1.6-2.5,3.7-2.5,6c0,4.7,3.7,8.5,8.4,8.5l0,0c4.6,0,8.4-3.8,8.4-8.4
		C684.9,282.2,681.1,278.4,676.4,278.3L676.4,278.3z"/>
</g>
<g id="XMLID_85_" class="st0">
	<path id="XMLID_24_" class="st1" d="M578.6,274c-1.1,0-2.1-0.8-2.4-1.9c-0.3-1.3,0.5-2.7,1.8-3l10.1-2.4l1-10.3
		c0.1-1,0.9-1.9,1.9-2.2l10.1-2.4l1-10.3c0.1-1,0.9-1.9,1.9-2.2l11.8-2.8c1.3-0.3,2.7,0.5,3,1.8s-0.5,2.7-1.8,3l-10.1,2.4l-1,10.3
		c-0.1,1-0.9,1.9-1.9,2.2l-10.1,2.4l-1,10.3c-0.1,1-0.9,1.9-1.9,2.2l-11.8,2.8C579,274,578.8,274,578.6,274z"/>
</g>
<g id="XMLID_83_" class="st0">
	<path id="XMLID_23_" class="st1" d="M325.6,225.7c-0.3,0-0.6-0.1-1-0.2c-1.3-0.5-1.8-2-1.3-3.2l10.5-24.6c0.5-1.3,2-1.8,3.2-1.3
		c1.3,0.5,1.8,2,1.3,3.2l-10.5,24.6C327.4,225.2,326.5,225.7,325.6,225.7z"/>
</g>
<g id="XMLID_81_" class="st0">
	<path id="XMLID_22_" class="st1" d="M438.5,382.8c-1.1,0-2.1-0.8-2.4-1.9c-0.3-1.3,0.5-2.7,1.8-3l10.1-2.4l1-10.3
		c0.1-1,0.9-1.9,1.9-2.2l10.1-2.4l1-10.3c0.1-1,0.9-1.9,1.9-2.2l11.8-2.8c1.3-0.3,2.7,0.5,3,1.8c0.3,1.3-0.5,2.7-1.8,3l-10.1,2.4
		l-1,10.3c-0.1,1-0.9,1.9-1.9,2.2l-10.1,2.4l-1,10.3c-0.1,1-0.9,1.9-1.9,2.2l-11.8,2.8C438.9,382.8,438.7,382.8,438.5,382.8z"/>
</g>
<g id="XMLID_79_" class="st0">
	<path id="XMLID_21_" class="st1" d="M541.8,378.4c-0.4,0-0.9-0.1-1.2-0.3c-1.2-0.7-1.6-2.2-0.9-3.4l13.6-23.1
		c0.7-1.2,2.2-1.6,3.4-0.9c1.2,0.7,1.6,2.2,0.9,3.4L544,377.2C543.4,378,542.6,378.4,541.8,378.4z"/>
</g>
<g id="XMLID_77_" class="st0">
	<path id="XMLID_20_" class="st1" d="M305.3,424.1c-0.4,0-0.9-0.1-1.2-0.3c-1.2-0.7-1.6-2.2-0.9-3.4l13.6-23.1
		c0.7-1.2,2.2-1.6,3.4-0.9c1.2,0.7,1.6,2.2,0.9,3.4l-13.6,23.1C307,423.6,306.2,424.1,305.3,424.1z"/>
</g>
<g id="XMLID_75_" class="st0">
	<path id="XMLID_19_" class="st1" d="M486.9,415.3c-0.4-0.2-0.7-0.5-1-0.9c-0.8-1.1-0.4-2.7,0.7-3.4l22.3-14.8
		c1.1-0.8,2.7-0.4,3.4,0.7c0.8,1.1,0.4,2.7-0.7,3.4l-22.3,14.8C488.5,415.6,487.6,415.6,486.9,415.3z"/>
</g>
<g id="XMLID_71_" class="st0">
	<path id="XMLID_16_" class="st1" d="M541.8,239C541.8,239,541.7,239,541.8,239c-3.6,0-7-1.4-9.5-4c-2.5-2.5-3.9-5.9-3.9-9.5
		c0-3.6,1.4-6.9,4-9.4c2.5-2.5,5.9-3.9,9.4-3.9c0,0,0,0,0.1,0c3.6,0,6.9,1.4,9.4,4c2.5,2.5,3.9,5.9,3.9,9.5c0,3.6-1.4,6.9-4,9.4
		C548.7,237.7,545.3,239,541.8,239z M541.8,217.2c-2.2,0-4.3,0.9-5.9,2.4c-1.6,1.6-2.5,3.7-2.5,6s0.9,4.4,2.4,6
		c1.6,1.6,3.7,2.5,6,2.5s4.4-0.9,6-2.4c1.6-1.6,2.5-3.7,2.5-6l0,0c0-2.3-0.9-4.4-2.4-6C546.2,218.1,544.1,217.2,541.8,217.2
		L541.8,217.2z"/>
</g>
<g id="XMLID_67_" class="st0">
	<path id="XMLID_14_" class="st1" d="M696,235.9c-0.1,0-0.2,0-0.3,0c-1.4-0.2-2.3-1.4-2.2-2.7l1.2-10.3l-9.4-4.4
		c-1-0.5-1.5-1.5-1.4-2.5l1.2-10.3l-9.4-4.4c-1-0.5-1.5-1.5-1.4-2.5l1.4-12c0.2-1.4,1.4-2.3,2.7-2.2c1.4,0.2,2.3,1.4,2.2,2.7
		l-1.2,10.3l9.4,4.4c1,0.5,1.5,1.5,1.4,2.5l-1.2,10.3l9.4,4.4c1,0.5,1.5,1.5,1.4,2.5l-1.4,12C698.3,235,697.2,235.9,696,235.9z"/>
</g>
<g id="XMLID_65_" class="st0">
	<path id="XMLID_13_" class="st1" d="M691,352.7L691,352.7l-12.2-0.5c-1.4-0.1-2.4-1.2-2.4-2.6c0.1-1.4,1.2-2.4,2.6-2.4l10.3,0.4
		l3.8-9.6c0.4-1,1.3-1.6,2.4-1.6l10.3,0.4l3.8-9.6c0.4-1,1.3-1.6,2.4-1.6l12.1,0.5c1.4,0.1,2.4,1.2,2.4,2.6
		c-0.1,1.4-1.2,2.4-2.6,2.4l-10.3-0.4l-3.8,9.6c-0.4,1-1.3,1.6-2.4,1.6l-10.3-0.4l-3.8,9.6C692.9,352,692,352.7,691,352.7z"/>
</g>
<g id="XMLID_63_" class="st0">
	<path id="XMLID_12_" class="st1" d="M615.3,342.3c-0.6,0-1.3-0.3-1.8-0.8c-0.9-1-0.9-2.5,0.1-3.5l19.3-18.6c1-0.9,2.5-0.9,3.5,0.1
		c0.9,1,0.9,2.5-0.1,3.5L617,341.6C616.6,342.1,615.9,342.3,615.3,342.3z"/>
</g>
<g id="XMLID_55_" class="st0">
	<path id="XMLID_6_" class="st1" d="M756.5,377.5L756.5,377.5c-3.6,0-7-1.4-9.5-4c-2.5-2.5-3.9-5.9-3.9-9.5s1.4-6.9,4-9.4
		c2.5-2.5,5.9-3.9,9.4-3.9c0,0,0,0,0.1,0c3.6,0,6.9,1.4,9.4,4c2.5,2.5,3.9,5.9,3.9,9.5h-2.5h2.5c0,3.6-1.4,6.9-4,9.4
		C763.4,376.1,760.1,377.5,756.5,377.5z M756.5,355.7c-2.2,0-4.3,0.9-5.9,2.4c-1.6,1.6-2.5,3.7-2.5,6c0,2.3,0.9,4.4,2.4,6
		c1.6,1.6,3.7,2.5,6,2.5l0,0c2.2,0,4.3-0.9,5.9-2.4c1.6-1.6,2.5-3.7,2.5-6c0-2.3-0.9-4.4-2.4-6C760.9,356.6,758.8,355.7,756.5,355.7
		L756.5,355.7z"/>
</g>
<g id="XMLID_144_" class="st0">
	<path id="XMLID_145_" class="st1" d="M838.7,218.5c-7.4,0-13.4-6-13.4-13.4s6-13.4,13.4-13.4s13.4,6,13.4,13.4
		S846,218.5,838.7,218.5z M838.7,196.7c-4.7,0-8.4,3.8-8.4,8.4s3.8,8.4,8.4,8.4s8.4-3.8,8.4-8.4
		C847.1,200.5,843.3,196.7,838.7,196.7z"/>
</g>
<g id="XMLID_140_" class="st0">
	<path id="XMLID_141_" class="st1" d="M893.9,235.9c-1.3,0-2.4-1-2.5-2.3c-0.1-1.4,1-2.5,2.3-2.6l10.3-0.5l2.8-10
		c0.3-1,1.2-1.7,2.2-1.8l10.3-0.5l2.8-10c0.3-1,1.2-1.7,2.2-1.8l12.1-0.6c1.4-0.1,2.5,1,2.6,2.3c0.1,1.4-1,2.5-2.3,2.6l-10.3,0.5
		l-2.8,10c-0.3,1-1.2,1.7-2.2,1.8l-10.3,0.5l-2.8,10c-0.3,1-1.2,1.7-2.2,1.8L893.9,235.9C894,235.9,894,235.9,893.9,235.9z"/>
</g>
<g id="XMLID_138_" class="st0">
	<path id="XMLID_139_" class="st1" d="M764.4,253c-0.6,0-1.3-0.2-1.7-0.7l-19-19c-1-1-1-2.5,0-3.5s2.5-1,3.5,0l18.9,18.9
		c1,1,1,2.5,0,3.5C765.7,252.7,765,253,764.4,253z"/>
</g>
<g id="XMLID_128_" class="st0">
	<path id="XMLID_129_" class="st1" d="M990.5,217c-0.4,0-0.9-0.1-1.2-0.3c-1.2-0.7-1.6-2.2-0.9-3.4l13.6-23.1
		c0.7-1.2,2.2-1.6,3.4-0.9s1.6,2.2,0.9,3.4l-13.6,23.1C992.2,216.6,991.4,217,990.5,217z"/>
</g>
<g id="XMLID_124_" class="st0">
	<path id="XMLID_125_" class="st1" d="M913.8,325.9L913.8,325.9c-7.4,0-13.4-6.1-13.4-13.4c0-3.6,1.4-6.9,4-9.4
		c2.5-2.5,5.9-3.9,9.5-3.9c7.4,0,13.3,6.1,13.3,13.4c0,3.6-1.4,6.9-4,9.4C920.7,324.5,917.3,325.9,913.8,325.9z M913.8,304.1
		c-2.2,0-4.3,0.9-5.9,2.4c-1.6,1.6-2.5,3.7-2.5,6c0,4.7,3.7,8.5,8.4,8.5l0,0c2.2,0,4.3-0.9,5.9-2.4c1.6-1.6,2.5-3.7,2.5-6l0,0
		C922.3,307.9,918.5,304.1,913.8,304.1L913.8,304.1z"/>
</g>
<g id="XMLID_122_" class="st0">
	<path id="XMLID_123_" class="st1" d="M1064.7,263.5c-1.2,0-2.2-0.9-2.4-2.1l-1.6-10.2l-10.2-1.8c-1-0.2-1.8-1-2-2l-1.6-10.2
		l-10.2-1.8c-1-0.2-1.8-1-2-2l-1.9-12c-0.2-1.3,0.7-2.6,2-2.8c1.3-0.2,2.6,0.7,2.8,2l1.6,10.2l10.2,1.8c1,0.2,1.8,1,2,2l1.6,10.2
		l10.2,1.8c1,0.2,1.8,1,2,2l1.9,12c0.2,1.3-0.7,2.6-2,2.8C1064.9,263.5,1064.8,263.5,1064.7,263.5z"/>
</g>
<g id="XMLID_120_" class="st0">
	<path id="XMLID_121_" class="st1" d="M1126.8,361.6c-1.3,0-2.4-1-2.5-2.3c-0.1-1.4,1-2.5,2.3-2.6l10.3-0.5l2.9-9.9
		c0.3-1,1.2-1.7,2.3-1.8l10.3-0.5l2.9-9.9c0.3-1,1.2-1.7,2.3-1.8l12.1-0.6c1.4-0.1,2.5,1,2.6,2.3c0.1,1.4-1,2.5-2.3,2.6l-10.3,0.5
		l-2.9,9.9c-0.3,1-1.2,1.7-2.3,1.8l-10.3,0.5l-2.9,9.9c-0.3,1-1.2,1.7-2.3,1.8L1126.8,361.6C1126.9,361.6,1126.8,361.6,1126.8,361.6
		z"/>
</g>
<g id="XMLID_118_" class="st0">
	<path id="XMLID_119_" class="st1" d="M997.4,378.4c-0.6,0-1.3-0.2-1.8-0.7l-18.8-19c-1-1-0.9-2.5,0-3.5c1-1,2.5-0.9,3.5,0l18.8,19
		c1,1,0.9,2.5,0,3.5C998.7,378.2,998.1,378.4,997.4,378.4z"/>
</g>
<g id="XMLID_110_" class="st0">
	<path id="XMLID_112_" class="st1" d="M1077.6,362.9C1077.5,362.9,1077.5,362.9,1077.6,362.9c-7.4,0-13.4-6.1-13.4-13.4
		c0-3.6,1.4-6.9,4-9.4c2.5-2.5,5.9-3.9,9.4-3.9c0,0,0,0,0.1,0c7.4,0,13.3,6.1,13.3,13.4l0,0C1090.9,356.9,1084.9,362.9,1077.6,362.9
		z M1077.6,341.1c-2.2,0-4.3,0.9-5.9,2.4c-1.6,1.6-2.5,3.7-2.5,6c0,4.7,3.7,8.5,8.4,8.5l0,0c4.6,0,8.4-3.8,8.4-8.4
		C1086,344.9,1082.3,341.1,1077.6,341.1L1077.6,341.1z"/>
</g>
<g id="XMLID_108_" class="st0">
	<path id="XMLID_109_" class="st1" d="M1118.5,211.9c-1.1,0-2.1-0.8-2.4-1.9c-0.3-1.3,0.5-2.7,1.8-3l10.1-2.4l1-10.3
		c0.1-1,0.9-1.9,1.9-2.2l10.1-2.4l1-10.3c0.1-1,0.9-1.9,1.9-2.2l11.8-2.8c1.3-0.3,2.7,0.5,3,1.8s-0.5,2.7-1.8,3l-10.1,2.4l-1,10.3
		c-0.1,1-0.9,1.9-1.9,2.2l-10.1,2.4l-1,10.3c-0.1,1-0.9,1.9-1.9,2.2l-11.8,2.8C1118.9,211.9,1118.7,211.9,1118.5,211.9z"/>
</g>
<g id="XMLID_100_" class="st0">
	<path id="XMLID_102_" class="st1" d="M976.7,304.4c-1,0.4-2.3,0-2.9-1c-0.7-1.1-0.4-2.7,0.7-3.4l8.6-5.7l-2.6-10
		c-0.3-1,0.2-2.1,1-2.7l8.6-5.7l-2.6-10c-0.3-1,0.2-2.1,1-2.7l10.1-6.7c1.1-0.7,2.7-0.4,3.4,0.7s0.4,2.7-0.7,3.4l-8.6,5.7l2.6,10
		c0.3,1-0.2,2.1-1,2.7l-8.6,5.7l2.6,10c0.3,1-0.2,2.1-1,2.7l-10.1,6.7C977.1,304.2,976.9,304.3,976.7,304.4z"/>
</g>
<g id="XMLID_98_" class="st0">
	<path id="XMLID_99_" class="st1" d="M1081.7,294.6c-0.4,0-0.9-0.1-1.2-0.3c-1.2-0.7-1.6-2.2-0.9-3.4l13.6-23.1
		c0.7-1.2,2.2-1.6,3.4-0.9c1.2,0.7,1.6,2.2,0.9,3.4l-13.6,23.1C1083.3,294.2,1082.5,294.6,1081.7,294.6z"/>
</g>
<g id="XMLID_94_" class="st0">
	<path id="XMLID_96_" class="st1" d="M818.6,352.4c-0.4,0-0.9-0.1-1.2-0.3c-1.2-0.7-1.6-2.2-0.9-3.4l13.6-23.1
		c0.7-1.2,2.2-1.6,3.4-0.9c1.2,0.7,1.6,2.2,0.9,3.4l-13.6,23.1C820.2,352,819.4,352.4,818.6,352.4z"/>
</g>
<g id="XMLID_90_" class="st0">
	<path id="XMLID_92_" class="st1" d="M1032.2,354.3c-0.4,0-0.9-0.1-1.2-0.3c-1.2-0.7-1.6-2.2-0.9-3.4l13.6-23.1
		c0.7-1.2,2.2-1.6,3.4-0.9c1.2,0.7,1.6,2.2,0.9,3.4l-13.6,23.1C1033.9,353.9,1033.1,354.3,1032.2,354.3z"/>
</g>
<g id="XMLID_80_" class="st0">
	<path id="XMLID_82_" class="st1" d="M1222.2,357.8c-0.6,0-1.3-0.3-1.8-0.8c-0.9-1-0.9-2.5,0.1-3.5l19.3-18.6c1-0.9,2.5-0.9,3.5,0.1
		c0.9,1,0.9,2.5-0.1,3.5l-19.3,18.6C1223.4,357.5,1222.8,357.8,1222.2,357.8z"/>
</g>
<g id="XMLID_76_" class="st0">
	<path id="XMLID_78_" class="st1" d="M1281.7,222.4c-0.1,0-0.2,0-0.3,0c-1.4-0.2-2.3-1.4-2.2-2.7l1.2-10.3l-9.4-4.4
		c-1-0.5-1.5-1.5-1.4-2.5l1.2-10.3l-9.4-4.4c-1-0.5-1.5-1.5-1.4-2.5l1.4-12c0.2-1.4,1.4-2.3,2.7-2.2c1.4,0.2,2.3,1.4,2.2,2.7
		l-1.2,10.3l9.4,4.4c1,0.5,1.5,1.5,1.4,2.5l-1.2,10.3l9.4,4.4c1,0.5,1.5,1.5,1.4,2.5l-1.4,12C1284,221.5,1282.9,222.4,1281.7,222.4z
		"/>
</g>
<g id="XMLID_73_" class="st0">
	<path id="XMLID_74_" class="st1" d="M1230.9,268.9L1230.9,268.9l-12.2-0.5c-1.4-0.1-2.4-1.2-2.4-2.6c0.1-1.4,1.2-2.4,2.6-2.4
		l10.3,0.4l3.8-9.6c0.4-1,1.3-1.6,2.4-1.6l10.3,0.4l3.8-9.6c0.4-1,1.3-1.6,2.4-1.6l12.1,0.5c1.4,0.1,2.4,1.2,2.4,2.6
		c-0.1,1.4-1.2,2.4-2.6,2.4l-10.3-0.4l-3.8,9.6c-0.4,1-1.3,1.6-2.4,1.6l-10.3-0.4l-3.8,9.6C1232.8,268.3,1231.9,268.9,1230.9,268.9z
		"/>
</g>
<g id="XMLID_70_" class="st0">
	<path id="XMLID_72_" class="st1" d="M1156.9,262.8c-0.6,0-1.3-0.3-1.8-0.8c-0.9-1-0.9-2.5,0.1-3.5l19.3-18.6c1-0.9,2.5-0.9,3.5,0.1
		c0.9,1,0.9,2.5-0.1,3.5l-19.3,18.6C1158.2,262.5,1157.6,262.8,1156.9,262.8z"/>
</g>
<g id="XMLID_62_" class="st0">
	<path id="XMLID_64_" class="st1" d="M1164.9,412.2C1164.9,412.2,1164.8,412.2,1164.9,412.2c-3.6,0-7-1.4-9.5-4
		c-2.5-2.5-3.9-5.9-3.9-9.5s1.4-6.9,4-9.4c2.5-2.5,5.9-3.9,9.4-3.9c0,0,0,0,0.1,0c3.6,0,6.9,1.4,9.4,4c2.5,2.5,3.9,5.9,3.9,9.5
		s-1.4,6.9-4,9.4C1171.8,410.8,1168.4,412.2,1164.9,412.2z M1164.9,390.3c-2.2,0-4.3,0.9-5.9,2.4c-1.6,1.6-2.5,3.7-2.5,6
		c0,2.3,0.9,4.4,2.4,6c1.6,1.6,3.7,2.5,6,2.5l0,0c2.2,0,4.3-0.9,5.9-2.4c1.6-1.6,2.5-3.7,2.5-6c0-2.3-0.9-4.4-2.4-6
		C1169.3,391.2,1167.2,390.3,1164.9,390.3L1164.9,390.3z"/>
</g>
<g id="XMLID_57_" class="st0">
	<path id="XMLID_58_" class="st1" d="M1296.4,293.7L1296.4,293.7c-3.6,0-7-1.4-9.5-4c-2.5-2.5-3.9-5.9-3.9-9.5c0-3.6,1.4-6.9,4-9.4
		c2.5-2.5,5.9-3.9,9.4-3.9c0,0,0,0,0.1,0c3.6,0,6.9,1.4,9.4,4c2.5,2.5,3.9,5.9,3.9,9.5h-2.5h2.5c0,3.6-1.4,6.9-4,9.4
		C1303.3,292.3,1300,293.7,1296.4,293.7z M1296.4,271.9c-2.2,0-4.3,0.9-5.9,2.4c-1.6,1.6-2.5,3.7-2.5,6c0,2.3,0.9,4.4,2.4,6
		c1.6,1.6,3.7,2.5,6,2.5l0,0c2.2,0,4.3-0.9,5.9-2.4c1.6-1.6,2.5-3.7,2.5-6c0-2.3-0.9-4.4-2.4-6
		C1300.8,272.8,1298.7,271.9,1296.4,271.9C1296.5,271.9,1296.4,271.9,1296.4,271.9z"/>
</g>
<g id="XMLID_54_" class="st0">
	<path id="XMLID_56_" class="st1" d="M904.2,403.7c-0.6,0-1.3-0.3-1.8-0.8c-0.9-1-0.9-2.5,0.1-3.5l19.3-18.6c1-0.9,2.5-0.9,3.5,0.1
		c0.9,1,0.9,2.5-0.1,3.5L905.9,403C905.4,403.5,904.8,403.7,904.2,403.7z"/>
</g>
<g id="XMLID_2_" class="st0">
	<path id="XMLID_50_" class="st1" d="M825.3,294C825.3,294,825.2,294,825.3,294c-3.6,0-7-1.4-9.5-4c-2.5-2.5-3.9-5.9-3.9-9.5
		c0-3.6,1.4-6.9,4-9.4c2.5-2.5,5.9-3.9,9.5-3.9s6.9,1.4,9.4,4c2.5,2.5,3.9,5.9,3.9,9.5s-1.4,6.9-4,9.4
		C832.2,292.6,828.8,294,825.3,294z M825.3,272.2c-2.2,0-4.3,0.9-5.9,2.4c-1.6,1.6-2.5,3.7-2.5,6c0,2.3,0.9,4.4,2.4,6
		c1.6,1.6,3.7,2.5,6,2.5l0,0c2.2,0,4.3-0.9,5.9-2.4c1.6-1.6,2.5-3.7,2.5-6l0,0c0-2.3-0.9-4.4-2.4-6
		C829.7,273.1,827.6,272.2,825.3,272.2L825.3,272.2z"/>
</g>
<g id="XMLID_151_" class="st0">
	<path id="XMLID_152_" class="st1" d="M831.8,413.7c-1.2,0-2.2-0.9-2.4-2.1l-1.7-10.2l-10.2-1.7c-1-0.2-1.9-1-2-2l-1.7-10.2
		l-10.2-1.7c-1-0.2-1.9-1-2-2l-2-11.9c-0.2-1.3,0.7-2.6,2-2.8c1.3-0.2,2.6,0.7,2.8,2l1.6,10.2l10.2,1.7c1,0.2,1.9,1,2,2l1.7,10.2
		l10.2,1.7c1,0.2,1.9,1,2,2l2,11.9c0.2,1.3-0.7,2.6-2,2.8C832,413.7,831.9,413.7,831.8,413.7z"/>
</g>
<g id="XMLID_153_" class="st0">
	<path id="XMLID_154_" class="st1" d="M1080,416.6c-1,0.6-2.4,0.3-3.1-0.7l-6.3-8.2l-9.8,3.2c-1,0.3-2.1,0-2.7-0.8l-6.3-8.2
		l-9.8,3.2c-1,0.3-2.1,0-2.7-0.8l-7.3-9.6c-0.8-1.1-0.6-2.6,0.5-3.5c1.1-0.8,2.6-0.6,3.5,0.5l6.3,8.2l9.8-3.2c1-0.3,2.1,0,2.7,0.8
		l6.3,8.2l9.8-3.2c1-0.3,2.1,0,2.7,0.8l7.3,9.6c0.8,1.1,0.6,2.6-0.5,3.5C1080.3,416.5,1080.1,416.5,1080,416.6z"/>
</g>
<g id="XMLID_298_" class="st0">
	<path id="XMLID_299_" class="st1" d="M1463,403c0.1,1.3-0.8,2.5-2.1,2.6c-1.3,0.2-2.6-0.8-2.8-2.1l-1.4-10.3l-10.1-2
		c-1-0.2-1.8-1-2-2.1l-1.4-10.3l-10.1-2c-1-0.2-1.8-1-2-2.1l-1.6-12c-0.2-1.3,0.8-2.6,2.1-2.8c1.3-0.2,2.6,0.8,2.8,2.1l1.4,10.3
		l10.1,2c1,0.2,1.8,1,2,2.1l1.4,10.3l10.1,2c1,0.2,1.8,1,2,2.1l1.6,12C1463,402.9,1463,402.9,1463,403z"/>
</g>
<g id="XMLID_292_" class="st0">
	<path id="XMLID_293_" class="st1" d="M1186.7,193.2c5.9,0,11.4,4,13,10c1.9,7.1-2.5,14.5-9.6,16.3l0,0c-3.5,0.9-7.1,0.4-10.1-1.4
		s-5.3-4.7-6.2-8.2s-0.4-7.1,1.4-10.1c1.8-3.1,4.7-5.3,8.2-6.2C1184.5,193.4,1185.6,193.2,1186.7,193.2z M1188.8,214.8
		c4.5-1.2,7.2-5.8,6.1-10.3c-1.2-4.5-5.8-7.2-10.3-6.1c-2.2,0.6-4,1.9-5.2,3.9c-1.1,1.9-1.5,4.2-0.9,6.4c0.6,2.2,1.9,4,3.9,5.2
		C1184.4,215,1186.6,215.3,1188.8,214.8L1188.8,214.8z"/>
</g>
<g id="XMLID_290_" class="st0">
	<path id="XMLID_291_" class="st1" d="M1255.5,386.2c0.8,0.4,1.4,1.3,1.4,2.3c-0.1,1.4-1.2,2.4-2.6,2.3l-10.3-0.5l-3.8,9.6
		c-0.4,1-1.4,1.6-2.4,1.6l-10.3-0.5l-3.8,9.6c-0.4,1-1.4,1.6-2.4,1.6l-12.1-0.6c-1.4-0.1-2.4-1.2-2.3-2.6c0.1-1.4,1.2-2.4,2.6-2.3
		l10.3,0.5l3.8-9.6c0.4-1,1.4-1.6,2.4-1.6l10.3,0.5l3.8-9.6c0.4-1,1.4-1.6,2.4-1.6l12.1,0.6C1254.9,386,1255.2,386,1255.5,386.2z"/>
</g>
<g id="XMLID_286_" class="st0">
	<path id="XMLID_287_" class="st1" d="M1426.4,175c0.4,0,0.9,0.1,1.2,0.3c1.2,0.7,1.6,2.2,0.9,3.4l-13.6,23.1
		c-0.7,1.2-2.2,1.6-3.4,0.9c-1.2-0.7-1.6-2.2-0.9-3.4l13.6-23.1C1424.7,175.4,1425.5,175,1426.4,175z"/>
</g>
<g id="XMLID_280_" class="st0">
	<path id="XMLID_281_" class="st1" d="M1290,344.8c1.2,0,2.2,0.9,2.4,2.1l1.6,10.2l10.2,1.8c1,0.2,1.8,1,2,2l1.6,10.2l10.2,1.8
		c1,0.2,1.8,1,2,2l1.9,12c0.2,1.3-0.7,2.6-2,2.8c-1.3,0.2-2.6-0.7-2.8-2l-1.6-10.2l-10.2-1.8c-1-0.2-1.8-1-2-2l-1.6-10.2l-10.2-1.8
		c-1-0.2-1.8-1-2-2l-1.9-12c-0.2-1.3,0.7-2.6,2-2.8C1289.8,344.8,1289.9,344.8,1290,344.8z"/>
</g>
<g id="XMLID_270_" class="st0">
	<path id="XMLID_271_" class="st1" d="M330,335.6c1.1,0,2.1,0.8,2.4,1.9c0.3,1.3-0.5,2.7-1.8,3l-10.1,2.4l-1,10.3
		c-0.1,1-0.9,1.9-1.9,2.2l-10.1,2.4l-1,10.3c-0.1,1-0.9,1.9-1.9,2.2l-11.8,2.8c-1.3,0.3-2.7-0.5-3-1.8c-0.3-1.3,0.5-2.7,1.8-3
		l10.1-2.4l1-10.3c0.1-1,0.9-1.9,1.9-2.2l10.1-2.4l1-10.3c0.1-1,0.9-1.9,1.9-2.2l11.8-2.8C329.7,335.7,329.8,335.6,330,335.6z"/>
</g>
<g id="XMLID_268_" class="st0">
	<path id="XMLID_269_" class="st1" d="M1341.3,217.2c0.3,0,0.6,0.1,1,0.2c1.3,0.5,1.8,2,1.3,3.2l-10.5,24.7c-0.5,1.3-2,1.8-3.2,1.3
		c-1.3-0.5-1.8-2-1.3-3.2l10.5-24.6C1339.4,217.7,1340.3,217.2,1341.3,217.2z"/>
</g>
<g id="XMLID_256_" class="st0">
	<path id="XMLID_257_" class="st1" d="M1383.3,366.8L1383.3,366.8c3.6,0,7,1.4,9.5,4c2.5,2.5,3.9,5.9,3.9,9.5s-1.4,6.9-4,9.4
		c-2.5,2.5-5.9,3.9-9.4,3.9c0,0,0,0-0.1,0c-3.6,0-6.9-1.4-9.4-4c-2.5-2.5-3.9-5.9-3.9-9.5s1.4-6.9,4-9.4
		C1376.4,368.2,1379.7,366.8,1383.3,366.8z M1383.3,388.7c2.2,0,4.3-0.9,5.9-2.4c1.6-1.6,2.5-3.7,2.5-6c0-2.3-0.9-4.4-2.4-6
		c-1.6-1.6-3.7-2.5-6-2.5s-4.4,0.9-6,2.4c-1.6,1.6-2.5,3.7-2.5,6l0,0c0,2.3,0.9,4.4,2.4,6C1378.9,387.8,1381,388.7,1383.3,388.7
		C1383.2,388.7,1383.3,388.7,1383.3,388.7z"/>
</g>
<g id="XMLID_248_" class="st0">
	<path id="XMLID_249_" class="st1" d="M661.5,383.2c-0.1-0.6,0.1-1.3,0.5-1.9c0.9-1.1,2.4-1.2,3.5-0.3l20.7,17
		c1.1,0.9,1.2,2.4,0.3,3.5s-2.4,1.2-3.5,0.3l-20.7-17C661.9,384.4,661.6,383.8,661.5,383.2z"/>
</g>
<g id="XMLID_211_" class="st0">
	<path id="XMLID_212_" class="st1" d="M1674.1,350.4c0.4,0,0.9,0.1,1.2,0.3c1.2,0.7,1.6,2.2,0.9,3.4l-13.6,23.1
		c-0.7,1.2-2.2,1.6-3.4,0.9c-1.2-0.7-1.6-2.2-0.9-3.4l13.6-23.1C1672.4,350.8,1673.2,350.4,1674.1,350.4z"/>
</g>
<g id="XMLID_207_" class="st0">
	<path id="XMLID_208_" class="st1" d="M1369.9,185.2L1369.9,185.2c7.4,0,13.4,6.1,13.4,13.4c0,3.6-1.4,6.9-4,9.4
		c-2.5,2.5-5.9,3.9-9.5,3.9c-7.4,0-13.3-6.1-13.3-13.4c0-3.6,1.4-6.9,4-9.4C1363,186.6,1366.3,185.2,1369.9,185.2z M1369.9,207
		c2.2,0,4.3-0.9,5.9-2.4c1.6-1.6,2.5-3.7,2.5-6c0-4.7-3.7-8.5-8.4-8.5l0,0c-2.2,0-4.3,0.9-5.9,2.4c-1.6,1.6-2.5,3.7-2.5,6l0,0
		C1361.4,203.2,1365.2,207,1369.9,207L1369.9,207z"/>
</g>
<g id="XMLID_205_" class="st0">
	<path id="XMLID_206_" class="st1" d="M1604,316.1c1.2,0,2.2,0.9,2.4,2.1l1.6,10.2l10.2,1.8c1,0.2,1.8,1,2,2l1.6,10.2l10.2,1.8
		c1,0.2,1.8,1,2,2l1.9,12c0.2,1.3-0.7,2.6-2,2.8c-1.3,0.2-2.6-0.7-2.8-2l-1.6-10.2l-10.2-1.8c-1-0.2-1.8-1-2-2l-1.6-10.2l-10.2-1.8
		c-1-0.2-1.8-1-2-2l-1.9-12c-0.2-1.3,0.7-2.6,2-2.8C1603.7,316.1,1603.9,316.1,1604,316.1z"/>
</g>
<g id="XMLID_203_" class="st0">
	<path id="XMLID_204_" class="st1" d="M1559.2,211.4c1.3,0,2.4,1,2.5,2.3c0.1,1.4-1,2.5-2.3,2.6l-10.3,0.5l-2.9,9.9
		c-0.3,1-1.2,1.7-2.3,1.8l-10.3,0.5l-2.9,9.9c-0.3,1-1.2,1.7-2.3,1.8l-12.1,0.6c-1.4,0.1-2.5-1-2.6-2.3c-0.1-1.4,1-2.5,2.3-2.6
		l10.3-0.5l2.9-9.9c0.3-1,1.2-1.7,2.3-1.8l10.3-0.5l2.9-9.9c0.3-1,1.2-1.7,2.3-1.8L1559.2,211.4
		C1559.1,211.4,1559.1,211.4,1559.2,211.4z"/>
</g>
<g id="XMLID_197_" class="st0">
	<path id="XMLID_198_" class="st1" d="M1608.4,210.1L1608.4,210.1c7.4,0,13.4,6.1,13.4,13.4c0,3.6-1.4,6.9-4,9.4
		c-2.5,2.5-5.9,3.9-9.4,3.9c0,0,0,0-0.1,0c-7.4,0-13.3-6.1-13.3-13.4l0,0C1595.1,216.1,1601,210.1,1608.4,210.1z M1608.4,232
		c2.2,0,4.3-0.9,5.9-2.4c1.6-1.6,2.5-3.7,2.5-6c0-4.7-3.7-8.5-8.4-8.5l0,0c-4.6,0-8.4,3.8-8.4,8.4
		C1599.9,228.1,1603.7,231.9,1608.4,232L1608.4,232z"/>
</g>
<g id="XMLID_195_" class="st0">
	<path id="XMLID_196_" class="st1" d="M1568.5,372.5c1.1,0,2.1,0.8,2.4,1.9c0.3,1.3-0.5,2.7-1.8,3l-10.1,2.4l-1,10.3
		c-0.1,1-0.9,1.9-1.9,2.2l-10.1,2.4l-1,10.3c-0.1,1-0.9,1.9-1.9,2.2l-11.8,2.8c-1.3,0.3-2.7-0.5-3-1.8c-0.3-1.3,0.5-2.7,1.8-3
		l10.1-2.4l1-10.3c0.1-1,0.9-1.9,1.9-2.2l10.1-2.4l1-10.3c0.1-1,0.9-1.9,1.9-2.2l11.8-2.8C1568.1,372.5,1568.3,372.5,1568.5,372.5z"
		/>
</g>
<g id="XMLID_189_" class="st0">
	<path id="XMLID_190_" class="st1" d="M1604.3,278.4c0.4,0,0.9,0.1,1.2,0.3c1.2,0.7,1.6,2.2,0.9,3.4l-13.6,23.1
		c-0.7,1.2-2.2,1.6-3.4,0.9c-1.2-0.7-1.6-2.2-0.9-3.4l13.6-23.1C1602.6,278.8,1603.4,278.4,1604.3,278.4z"/>
</g>
<g id="XMLID_185_" class="st0">
	<path id="XMLID_186_" class="st1" d="M1653.7,218.7c0.4,0,0.9,0.1,1.2,0.3c1.2,0.7,1.6,2.2,0.9,3.4l-13.6,23.1
		c-0.7,1.2-2.2,1.6-3.4,0.9c-1.2-0.7-1.6-2.2-0.9-3.4l13.6-23.1C1652.1,219.2,1652.9,218.7,1653.7,218.7z"/>
</g>
<g id="XMLID_181_" class="st0">
	<path id="XMLID_182_" class="st1" d="M1606.7,375.1C1606.8,375.1,1606.8,375.1,1606.7,375.1c3.6,0,7,1.4,9.5,4
		c2.5,2.5,3.9,5.9,3.9,9.5s-1.4,6.9-4,9.4c-2.5,2.5-5.9,3.9-9.4,3.9c0,0,0,0-0.1,0c-3.6,0-6.9-1.4-9.4-4c-2.5-2.5-3.9-5.9-3.9-9.5
		s1.4-6.9,4-9.4C1599.8,376.5,1603.2,375.1,1606.7,375.1z M1606.7,396.9c2.2,0,4.3-0.9,5.9-2.4c1.6-1.6,2.5-3.7,2.5-6
		c0-2.3-0.9-4.4-2.4-6c-1.6-1.6-3.7-2.5-6-2.5s-4.4,0.9-6,2.4c-1.6,1.6-2.5,3.7-2.5,6l0,0c0,2.3,0.9,4.4,2.4,6
		C1602.3,396,1604.4,396.9,1606.7,396.9L1606.7,396.9z"/>
</g>
<g id="XMLID_179_" class="st0">
	<path id="XMLID_180_" class="st1" d="M1463.8,215.3c0.6,0,1.3,0.3,1.8,0.8c0.9,1,0.9,2.5-0.1,3.5l-19.3,18.6
		c-1,0.9-2.5,0.9-3.5-0.1c-0.9-1-0.9-2.5,0.1-3.5l19.3-18.6C1462.6,215.5,1463.2,215.3,1463.8,215.3z"/>
</g>
<g id="XMLID_175_" class="st0">
	<path id="XMLID_176_" class="st1" d="M1455.1,304.1L1455.1,304.1l12.2,0.5c1.4,0.1,2.4,1.2,2.4,2.6c-0.1,1.4-1.2,2.4-2.6,2.4
		l-10.3-0.4l-3.8,9.6c-0.4,1-1.3,1.6-2.4,1.6l-10.3-0.4l-3.8,9.6c-0.4,1-1.3,1.6-2.4,1.6l-12.1-0.5c-1.4-0.1-2.4-1.2-2.4-2.6
		c0.1-1.4,1.2-2.4,2.6-2.4l10.3,0.4l3.8-9.6c0.4-1,1.3-1.6,2.4-1.6l10.3,0.4l3.8-9.6C1453.1,304.8,1454.1,304.1,1455.1,304.1z"/>
</g>
<g id="XMLID_173_" class="st0">
	<path id="XMLID_174_" class="st1" d="M1530.7,314.5c0.6,0,1.3,0.3,1.8,0.8c0.9,1,0.9,2.5-0.1,3.5l-19.3,18.6
		c-1,0.9-2.5,0.9-3.5-0.1c-0.9-1-0.9-2.5,0.1-3.5l19.3-18.6C1529.5,314.7,1530.1,314.5,1530.7,314.5z"/>
</g>
<g id="XMLID_169_" class="st0">
	<path id="XMLID_170_" class="st1" d="M1513.6,174.3C1513.7,174.3,1513.7,174.3,1513.6,174.3c3.6,0,7,1.4,9.5,4
		c2.5,2.5,3.9,5.9,3.9,9.5s-1.4,6.9-4,9.4c-2.5,2.5-5.9,3.9-9.4,3.9c0,0,0,0-0.1,0c-3.6,0-6.9-1.4-9.4-4c-2.5-2.6-3.9-5.9-3.9-9.5
		c0-3.6,1.4-6.9,4-9.4C1506.7,175.7,1510.1,174.3,1513.6,174.3z M1513.6,196.1c2.2,0,4.3-0.9,5.9-2.4c1.6-1.6,2.5-3.7,2.5-6
		c0-2.3-0.9-4.4-2.4-6c-1.6-1.6-3.7-2.5-6-2.5l0,0c-2.2,0-4.3,0.9-5.9,2.4c-1.6,1.6-2.5,3.7-2.5,6s0.9,4.4,2.4,6
		C1509.2,195.2,1511.3,196.1,1513.6,196.1L1513.6,196.1z"/>
</g>
<g id="XMLID_165_" class="st0">
	<path id="XMLID_166_" class="st1" d="M1389.5,279.3C1389.6,279.3,1389.6,279.3,1389.5,279.3c3.6,0,7,1.4,9.5,4
		c2.5,2.5,3.9,5.9,3.9,9.5s-1.4,6.9-4,9.4c-2.5,2.5-5.9,3.9-9.4,3.9c0,0,0,0-0.1,0c-3.6,0-6.9-1.4-9.4-4c-2.5-2.5-3.9-5.9-3.9-9.5
		h2.5h-2.5c0-3.6,1.4-6.9,4-9.4C1382.6,280.7,1386,279.3,1389.5,279.3z M1389.5,301.1c2.2,0,4.3-0.9,5.9-2.4c1.6-1.6,2.5-3.7,2.5-6
		c0-2.3-0.9-4.4-2.4-6c-1.6-1.6-3.7-2.5-6-2.5l0,0c-2.2,0-4.3,0.9-5.9,2.4c-1.6,1.6-2.5,3.7-2.5,6c0,2.3,0.9,4.4,2.4,6
		C1385.1,300.2,1387.2,301.1,1389.5,301.1L1389.5,301.1z"/>
</g>
<g id="XMLID_163_" class="st0">
	<path id="XMLID_164_" class="st1" d="M766.2,186.8c0.6,0,1.3,0.3,1.8,0.8c0.9,1,0.9,2.5-0.1,3.5l-19.3,18.6c-1,0.9-2.5,0.9-3.5-0.1
		c-0.9-1-0.9-2.5,0.1-3.5l19.3-18.6C764.9,187,765.5,186.8,766.2,186.8z"/>
</g>
<g id="XMLID_157_" class="st0">
	<path id="XMLID_158_" class="st1" d="M1472.1,253.3c1.2,0,2.2,0.9,2.4,2.1l1.7,10.2l10.2,1.7c1,0.2,1.9,1,2,2l1.7,10.2l10.2,1.7
		c1,0.2,1.9,1,2,2l2,11.9c0.2,1.3-0.7,2.6-2,2.8c-1.3,0.2-2.6-0.7-2.8-2l-1.7-10.2l-10.2-1.7c-1-0.2-1.9-1-2-2l-1.7-10.2l-10.2-1.7
		c-1-0.2-1.9-1-2-2l-2-11.9c-0.2-1.3,0.7-2.6,2-2.8C1471.8,253.3,1472,253.3,1472.1,253.3z"/>
</g>
</svg>
