<?xml version="1.0" encoding="utf-8"?>
<!-- Generator: Adobe Illustrator 19.0.0, SVG Export Plug-In . SVG Version: 6.00 Build 0)  -->
<svg version="1.1" id="Layer_1" xmlns="http://www.w3.org/2000/svg" xmlns:xlink="http://www.w3.org/1999/xlink" x="0px" y="0px"
	 viewBox="0 0 1400 250" style="enable-background:new 0 0 1400 250;" xml:space="preserve">
<style type="text/css">
	.st0{fill:#F07E86;}
</style>
<g id="XMLID_117_">
	<path id="XMLID_43_" class="st0" d="M19.8,129c-7.4,0-13.4-6-13.4-13.4c0-7.4,6-13.4,13.4-13.4s13.4,6,13.4,13.4
		C33.1,123,27.1,129,19.8,129z M19.8,107.2c-4.7,0-8.4,3.8-8.4,8.4c0,4.7,3.8,8.4,8.4,8.4s8.4-3.8,8.4-8.4
		C28.2,111,24.4,107.2,19.8,107.2z"/>
</g>
<g id="XMLID_115_">
	<path id="XMLID_42_" class="st0" d="M33.4,54.1c-1.2,0-2.2-0.9-2.4-2.1l-1.7-10.2l-10.2-1.7c-1-0.2-1.9-1-2-2l-1.7-10.2L5.1,26.2
		c-1-0.2-1.9-1-2-2l-2-11.9c-0.2-1.3,0.7-2.6,2-2.8c1.3-0.2,2.6,0.7,2.8,2l1.7,10.2l10.2,1.7c1,0.2,1.9,1,2,2l1.7,10.2l10.2,1.7
		c1,0.2,1.9,1,2,2l2,11.9c0.2,1.3-0.7,2.6-2,2.8C33.7,54.1,33.5,54.1,33.4,54.1z"/>
</g>
<g id="XMLID_113_">
	<path id="XMLID_41_" class="st0" d="M75,146.3c-1.3,0-2.4-1-2.5-2.3c-0.1-1.4,1-2.5,2.3-2.6l10.3-0.5l2.8-10c0.3-1,1.2-1.7,2.2-1.8
		l10.3-0.5l2.8-10c0.3-1,1.2-1.7,2.2-1.8l12.1-0.6c1.4-0.1,2.5,1,2.6,2.3c0.1,1.4-1,2.5-2.3,2.6l-10.3,0.5l-2.8,10
		c-0.3,1-1.2,1.7-2.2,1.8l-10.3,0.5l-2.8,10c-0.3,1-1.2,1.7-2.2,1.8l-12.1,0.6C75.1,146.3,75.1,146.3,75,146.3z"/>
</g>
<g id="XMLID_107_">
	<path id="XMLID_37_" class="st0" d="M122.7,54.8c-5.9,0-11.4-4-13-10c-1.9-7.1,2.5-14.5,9.6-16.3l0,0c3.5-0.9,7.1-0.4,10.1,1.4
		c3.1,1.8,5.3,4.7,6.2,8.2c0.9,3.5,0.4,7.1-1.4,10.1c-1.8,3.1-4.7,5.3-8.2,6.2C124.9,54.7,123.8,54.8,122.7,54.8z M120.6,33.3
		c-4.5,1.2-7.2,5.8-6.1,10.3c1.2,4.5,5.8,7.2,10.3,6.1c2.2-0.6,4-1.9,5.2-3.9c1.1-1.9,1.5-4.2,0.9-6.4c-0.6-2.2-1.9-4-3.9-5.2
		C125,33,122.7,32.7,120.6,33.3L120.6,33.3z"/>
</g>
<g id="XMLID_105_">
	<path id="XMLID_36_" class="st0" d="M172.2,50c-0.9,0-1.8-0.5-2.3-1.5c-0.6-1.2,0-2.7,1.2-3.3l9.5-4.2l-0.9-10.3
		c-0.1-1,0.5-2,1.5-2.5l9.5-4.2l-0.9-10.3c-0.1-1,0.5-2,1.5-2.5l11.1-4.9c1.2-0.6,2.7,0,3.3,1.2c0.6,1.2,0,2.7-1.2,3.3l-9.5,4.2
		l0.9,10.3c0.1,1-0.5,2-1.5,2.5l-9.5,4.2l0.9,10.3c0.1,1-0.5,2-1.5,2.5l-11.1,4.9C172.8,49.9,172.5,50,172.2,50z"/>
</g>
<g id="XMLID_101_">
	<path id="XMLID_34_" class="st0" d="M171.6,127.5c-0.4,0-0.9-0.1-1.2-0.3c-1.2-0.7-1.6-2.2-0.9-3.4l13.6-23.1
		c0.7-1.2,2.2-1.6,3.4-0.9c1.2,0.7,1.6,2.2,0.9,3.4l-13.6,23.1C173.3,127.1,172.5,127.5,171.6,127.5z"/>
</g>
<g id="XMLID_97_">
	<path id="XMLID_31_" class="st0" d="M99.1,223C99.1,223,99.1,223,99.1,223c-7.4,0-13.4-6.1-13.4-13.4c0-3.6,1.4-6.9,4-9.4
		c2.5-2.5,5.9-3.9,9.5-3.9c7.4,0,13.3,6.1,13.3,13.4c0,3.6-1.4,6.9-4,9.4C106,221.6,102.7,223,99.1,223z M99.1,201.2
		c-2.2,0-4.3,0.9-5.9,2.4c-1.6,1.6-2.5,3.7-2.5,6c0,4.7,3.7,8.5,8.4,8.5c0,0,0,0,0,0c2.2,0,4.3-0.9,5.9-2.4c1.6-1.6,2.5-3.7,2.5-6v0
		C107.6,205,103.8,201.2,99.1,201.2C99.1,201.2,99.1,201.2,99.1,201.2z"/>
</g>
<g id="XMLID_95_">
	<path id="XMLID_30_" class="st0" d="M263.1,167.4c-1.2,0-2.2-0.9-2.4-2.1l-1.6-10.2l-10.2-1.8c-1-0.2-1.8-1-2-2l-1.6-10.2
		l-10.2-1.8c-1-0.2-1.8-1-2-2l-1.9-12c-0.2-1.3,0.7-2.6,2-2.8c1.3-0.2,2.6,0.7,2.8,2l1.6,10.2l10.2,1.8c1,0.2,1.8,1,2,2l1.6,10.2
		l10.2,1.8c1,0.2,1.8,1,2,2l1.9,12c0.2,1.3-0.7,2.6-2,2.8C263.3,167.4,263.2,167.4,263.1,167.4z"/>
</g>
<g id="XMLID_93_">
	<path id="XMLID_29_" class="st0" d="M307.9,231.4c-1.3,0-2.4-1-2.5-2.3c-0.1-1.4,1-2.5,2.3-2.6l10.3-0.5l2.9-9.9
		c0.3-1,1.2-1.7,2.3-1.8l10.3-0.5l2.9-9.9c0.3-1,1.2-1.7,2.3-1.8l12.1-0.6c1.4-0.1,2.5,1,2.6,2.3c0.1,1.4-1,2.5-2.3,2.6l-10.3,0.5
		l-2.9,9.9c-0.3,1-1.2,1.7-2.3,1.8l-10.3,0.5l-2.9,9.9c-0.3,1-1.2,1.7-2.3,1.8l-12.1,0.6C307.9,231.4,307.9,231.4,307.9,231.4z"/>
</g>
<g id="XMLID_87_">
	<path id="XMLID_25_" class="st0" d="M397.4,126.9C397.4,126.9,397.4,126.9,397.4,126.9c-7.4,0-13.4-6.1-13.4-13.4
		c0-3.6,1.4-6.9,4-9.4c2.5-2.5,5.9-3.9,9.4-3.9c0,0,0,0,0.1,0c7.4,0,13.3,6.1,13.3,13.4v0C410.8,120.9,404.8,126.9,397.4,126.9z
		 M397.4,105c-2.2,0-4.3,0.9-5.9,2.4c-1.6,1.6-2.5,3.7-2.5,6c0,4.7,3.7,8.5,8.4,8.5c0,0,0,0,0,0c4.6,0,8.4-3.8,8.4-8.4
		C405.9,108.9,402.1,105.1,397.4,105C397.4,105,397.4,105,397.4,105z"/>
</g>
<g id="XMLID_85_">
	<path id="XMLID_24_" class="st0" d="M299.6,100.7c-1.1,0-2.1-0.8-2.4-1.9c-0.3-1.3,0.5-2.7,1.8-3l10.1-2.4l1-10.3
		c0.1-1,0.9-1.9,1.9-2.2l10.1-2.4l1-10.3c0.1-1,0.9-1.9,1.9-2.2l11.8-2.8c1.3-0.3,2.7,0.5,3,1.8c0.3,1.3-0.5,2.7-1.8,3l-10.1,2.4
		l-1,10.3c-0.1,1-0.9,1.9-1.9,2.2l-10.1,2.4l-1,10.3c-0.1,1-0.9,1.9-1.9,2.2l-11.8,2.8C300,100.7,299.8,100.7,299.6,100.7z"/>
</g>
<g id="XMLID_83_">
	<path id="XMLID_23_" class="st0" d="M46.6,52.4c-0.3,0-0.6-0.1-1-0.2c-1.3-0.5-1.8-2-1.3-3.2l10.5-24.6c0.5-1.3,2-1.8,3.2-1.3
		c1.3,0.5,1.8,2,1.3,3.2L48.8,50.9C48.4,51.9,47.5,52.4,46.6,52.4z"/>
</g>
<g id="XMLID_81_">
	<path id="XMLID_22_" class="st0" d="M159.5,209.5c-1.1,0-2.1-0.8-2.4-1.9c-0.3-1.3,0.5-2.7,1.8-3l10.1-2.4l1-10.3
		c0.1-1,0.9-1.9,1.9-2.2l10.1-2.4l1-10.3c0.1-1,0.9-1.9,1.9-2.2l11.8-2.8c1.3-0.3,2.7,0.5,3,1.8c0.3,1.3-0.5,2.7-1.8,3l-10.1,2.4
		l-1,10.3c-0.1,1-0.9,1.9-1.9,2.2l-10.1,2.4l-1,10.3c-0.1,1-0.9,1.9-1.9,2.2l-11.8,2.8C159.9,209.5,159.7,209.5,159.5,209.5z"/>
</g>
<g id="XMLID_79_">
	<path id="XMLID_21_" class="st0" d="M262.8,205.1c-0.4,0-0.9-0.1-1.2-0.3c-1.2-0.7-1.6-2.2-0.9-3.4l13.6-23.1
		c0.7-1.2,2.2-1.6,3.4-0.9c1.2,0.7,1.6,2.2,0.9,3.4l-13.6,23.1C264.4,204.7,263.6,205.1,262.8,205.1z"/>
</g>
<g id="XMLID_77_">
	<path id="XMLID_20_" class="st0" d="M26.3,250.8c-0.4,0-0.9-0.1-1.2-0.3c-1.2-0.7-1.6-2.2-0.9-3.4L37.8,224
		c0.7-1.2,2.2-1.6,3.4-0.9c1.2,0.7,1.6,2.2,0.9,3.4l-13.6,23.1C28,250.3,27.2,250.8,26.3,250.8z"/>
</g>
<g id="XMLID_75_">
	<path id="XMLID_19_" class="st0" d="M207.9,242c-0.4-0.2-0.7-0.5-1-0.9c-0.8-1.1-0.4-2.7,0.7-3.4l22.3-14.8
		c1.1-0.8,2.7-0.4,3.4,0.7c0.8,1.1,0.4,2.7-0.7,3.4l-22.3,14.8C209.5,242.3,208.6,242.3,207.9,242z"/>
</g>
<g id="XMLID_71_">
	<path id="XMLID_16_" class="st0" d="M262.8,65.7C262.8,65.7,262.7,65.7,262.8,65.7c-3.6,0-7-1.4-9.5-4c-2.5-2.5-3.9-5.9-3.9-9.5
		c0-3.6,1.4-6.9,4-9.4c2.5-2.5,5.9-3.9,9.4-3.9c0,0,0,0,0.1,0c3.6,0,6.9,1.4,9.4,4c2.5,2.5,3.9,5.9,3.9,9.5c0,3.6-1.4,6.9-4,9.4
		C269.7,64.4,266.3,65.7,262.8,65.7z M262.8,43.9c-2.2,0-4.3,0.9-5.9,2.4c-1.6,1.6-2.5,3.7-2.5,6c0,2.3,0.9,4.4,2.4,6
		c1.6,1.6,3.7,2.5,6,2.5c2.3,0,4.4-0.9,6-2.4c1.6-1.6,2.5-3.7,2.5-6v0c0-2.3-0.9-4.4-2.4-6C267.2,44.8,265.1,43.9,262.8,43.9
		C262.8,43.9,262.8,43.9,262.8,43.9z"/>
</g>
<g id="XMLID_67_">
	<path id="XMLID_14_" class="st0" d="M417,62.6c-0.1,0-0.2,0-0.3,0c-1.4-0.2-2.3-1.4-2.2-2.7l1.2-10.3l-9.4-4.4
		c-1-0.5-1.5-1.5-1.4-2.5l1.2-10.3l-9.4-4.4c-1-0.5-1.5-1.5-1.4-2.5l1.4-12c0.2-1.4,1.4-2.3,2.7-2.2c1.4,0.2,2.3,1.4,2.2,2.7
		l-1.2,10.3l9.4,4.4c1,0.5,1.5,1.5,1.4,2.5L410,41.5l9.4,4.4c1,0.5,1.5,1.5,1.4,2.5l-1.4,12C419.3,61.7,418.2,62.6,417,62.6z"/>
</g>
<g id="XMLID_65_">
	<path id="XMLID_13_" class="st0" d="M412,179.4c0,0-0.1,0-0.1,0l-12.1-0.5c-1.4-0.1-2.4-1.2-2.4-2.6c0.1-1.4,1.2-2.4,2.6-2.4
		l10.3,0.4l3.8-9.6c0.4-1,1.3-1.6,2.4-1.6l10.3,0.4l3.8-9.6c0.4-1,1.3-1.6,2.4-1.6l12.1,0.5c1.4,0.1,2.4,1.2,2.4,2.6
		c-0.1,1.4-1.2,2.4-2.6,2.4l-10.3-0.4l-3.8,9.6c-0.4,1-1.3,1.6-2.4,1.6l-10.3-0.4l-3.8,9.6C413.9,178.7,413,179.4,412,179.4z"/>
</g>
<g id="XMLID_63_">
	<path id="XMLID_12_" class="st0" d="M336.3,169c-0.6,0-1.3-0.3-1.8-0.8c-0.9-1-0.9-2.5,0.1-3.5l19.3-18.6c1-0.9,2.5-0.9,3.5,0.1
		c0.9,1,0.9,2.5-0.1,3.5L338,168.3C337.6,168.8,336.9,169,336.3,169z"/>
</g>
<g id="XMLID_55_">
	<path id="XMLID_6_" class="st0" d="M477.5,204.2C477.5,204.2,477.5,204.2,477.5,204.2c-3.6,0-7-1.4-9.5-4c-2.5-2.5-3.9-5.9-3.9-9.5
		c0-3.6,1.4-6.9,4-9.4c2.5-2.5,5.9-3.9,9.4-3.9c0,0,0,0,0.1,0c3.6,0,6.9,1.4,9.4,4c2.5,2.5,3.9,5.9,3.9,9.5l-2.5,0l2.5,0
		c0,3.6-1.4,6.9-4,9.4C484.4,202.8,481.1,204.2,477.5,204.2z M477.5,182.4c-2.2,0-4.3,0.9-5.9,2.4c-1.6,1.6-2.5,3.7-2.5,6
		c0,2.3,0.9,4.4,2.4,6c1.6,1.6,3.7,2.5,6,2.5c0,0,0,0,0,0c2.2,0,4.3-0.9,5.9-2.4c1.6-1.6,2.5-3.7,2.5-6c0-2.3-0.9-4.4-2.4-6
		C481.9,183.3,479.8,182.4,477.5,182.4C477.5,182.4,477.5,182.4,477.5,182.4z"/>
</g>
<g id="XMLID_144_">
	<path id="XMLID_145_" class="st0" d="M559.7,45.2c-7.4,0-13.4-6-13.4-13.4s6-13.4,13.4-13.4s13.4,6,13.4,13.4S567,45.2,559.7,45.2z
		 M559.7,23.4c-4.7,0-8.4,3.8-8.4,8.4s3.8,8.4,8.4,8.4s8.4-3.8,8.4-8.4S564.3,23.4,559.7,23.4z"/>
</g>
<g id="XMLID_140_">
	<path id="XMLID_141_" class="st0" d="M614.9,62.6c-1.3,0-2.4-1-2.5-2.3c-0.1-1.4,1-2.5,2.3-2.6l10.3-0.5l2.8-10
		c0.3-1,1.2-1.7,2.2-1.8l10.3-0.5l2.8-10c0.3-1,1.2-1.7,2.2-1.8l12.1-0.6c1.4-0.1,2.5,1,2.6,2.3c0.1,1.4-1,2.5-2.3,2.6l-10.3,0.5
		l-2.8,10c-0.3,1-1.2,1.7-2.2,1.8l-10.3,0.5l-2.8,10c-0.3,1-1.2,1.7-2.2,1.8l-12.1,0.6C615,62.6,615,62.6,614.9,62.6z"/>
</g>
<g id="XMLID_138_">
	<path id="XMLID_139_" class="st0" d="M485.4,79.7c-0.6,0-1.3-0.2-1.7-0.7L464.7,60c-1-1-1-2.5,0-3.5c1-1,2.5-1,3.5,0l18.9,18.9
		c1,1,1,2.5,0,3.5C486.7,79.4,486,79.7,485.4,79.7z"/>
</g>
<g id="XMLID_128_">
	<path id="XMLID_129_" class="st0" d="M711.5,43.7c-0.4,0-0.9-0.1-1.2-0.3c-1.2-0.7-1.6-2.2-0.9-3.4L723,16.9
		c0.7-1.2,2.2-1.6,3.4-0.9c1.2,0.7,1.6,2.2,0.9,3.4l-13.6,23.1C713.2,43.3,712.4,43.7,711.5,43.7z"/>
</g>
<g id="XMLID_124_">
	<path id="XMLID_125_" class="st0" d="M634.8,152.6C634.8,152.6,634.8,152.6,634.8,152.6c-7.4,0-13.4-6.1-13.4-13.4
		c0-3.6,1.4-6.9,4-9.4c2.5-2.5,5.9-3.9,9.5-3.9c7.4,0,13.3,6.1,13.3,13.4c0,3.6-1.4,6.9-4,9.4C641.7,151.2,638.3,152.6,634.8,152.6z
		 M634.8,130.8c-2.2,0-4.3,0.9-5.9,2.4c-1.6,1.6-2.5,3.7-2.5,6c0,4.7,3.7,8.5,8.4,8.5c0,0,0,0,0,0c2.2,0,4.3-0.9,5.9-2.4
		c1.6-1.6,2.5-3.7,2.5-6v0C643.3,134.6,639.5,130.8,634.8,130.8C634.8,130.8,634.8,130.8,634.8,130.8z"/>
</g>
<g id="XMLID_122_">
	<path id="XMLID_123_" class="st0" d="M785.7,90.2c-1.2,0-2.2-0.9-2.4-2.1l-1.6-10.2l-10.2-1.8c-1-0.2-1.8-1-2-2l-1.6-10.2
		l-10.2-1.8c-1-0.2-1.8-1-2-2l-1.9-12c-0.2-1.3,0.7-2.6,2-2.8c1.3-0.2,2.6,0.7,2.8,2l1.6,10.2l10.2,1.8c1,0.2,1.8,1,2,2l1.6,10.2
		l10.2,1.8c1,0.2,1.8,1,2,2l1.9,12c0.2,1.3-0.7,2.6-2,2.8C785.9,90.2,785.8,90.2,785.7,90.2z"/>
</g>
<g id="XMLID_120_">
	<path id="XMLID_121_" class="st0" d="M847.8,188.3c-1.3,0-2.4-1-2.5-2.3c-0.1-1.4,1-2.5,2.3-2.6l10.3-0.5l2.9-9.9
		c0.3-1,1.2-1.7,2.3-1.8l10.3-0.5l2.9-9.9c0.3-1,1.2-1.7,2.3-1.8l12.1-0.6c1.4-0.1,2.5,1,2.6,2.3c0.1,1.4-1,2.5-2.3,2.6l-10.3,0.5
		l-2.9,9.9c-0.3,1-1.2,1.7-2.3,1.8l-10.3,0.5l-2.9,9.9c-0.3,1-1.2,1.7-2.3,1.8l-12.1,0.6C847.9,188.3,847.8,188.3,847.8,188.3z"/>
</g>
<g id="XMLID_118_">
	<path id="XMLID_119_" class="st0" d="M718.4,205.1c-0.6,0-1.3-0.2-1.8-0.7l-18.8-19c-1-1-0.9-2.5,0-3.5c1-1,2.5-0.9,3.5,0l18.8,19
		c1,1,0.9,2.5,0,3.5C719.7,204.9,719.1,205.1,718.4,205.1z"/>
</g>
<g id="XMLID_110_">
	<path id="XMLID_112_" class="st0" d="M798.6,189.6C798.5,189.6,798.5,189.6,798.6,189.6c-7.4,0-13.4-6.1-13.4-13.4
		c0-3.6,1.4-6.9,4-9.4c2.5-2.5,5.9-3.9,9.4-3.9c0,0,0,0,0.1,0c7.4,0,13.3,6.1,13.3,13.4v0C811.9,183.6,805.9,189.6,798.6,189.6z
		 M798.6,167.8c-2.2,0-4.3,0.9-5.9,2.4c-1.6,1.6-2.5,3.7-2.5,6c0,4.7,3.7,8.5,8.4,8.5c0,0,0,0,0,0c4.6,0,8.4-3.8,8.4-8.4
		C807,171.6,803.3,167.8,798.6,167.8C798.6,167.8,798.6,167.8,798.6,167.8z"/>
</g>
<g id="XMLID_108_">
	<path id="XMLID_109_" class="st0" d="M839.5,38.6c-1.1,0-2.1-0.8-2.4-1.9c-0.3-1.3,0.5-2.7,1.8-3l10.1-2.4l1-10.3
		c0.1-1,0.9-1.9,1.9-2.2l10.1-2.4l1-10.3c0.1-1,0.9-1.9,1.9-2.2l11.8-2.8c1.3-0.3,2.7,0.5,3,1.8c0.3,1.3-0.5,2.7-1.8,3l-10.1,2.4
		l-1,10.3c-0.1,1-0.9,1.9-1.9,2.2l-10.1,2.4l-1,10.3c-0.1,1-0.9,1.9-1.9,2.2l-11.8,2.8C839.9,38.6,839.7,38.6,839.5,38.6z"/>
</g>
<g id="XMLID_100_">
	<path id="XMLID_102_" class="st0" d="M697.7,131.1c-1,0.4-2.3,0-2.9-1c-0.7-1.1-0.4-2.7,0.7-3.4l8.6-5.7l-2.6-10
		c-0.3-1,0.2-2.1,1-2.7l8.6-5.7l-2.6-10c-0.3-1,0.2-2.1,1-2.7l10.1-6.7c1.1-0.7,2.7-0.4,3.4,0.7c0.7,1.1,0.4,2.7-0.7,3.4l-8.6,5.7
		l2.6,10c0.3,1-0.2,2.1-1,2.7l-8.6,5.7l2.6,10c0.3,1-0.2,2.1-1,2.7l-10.1,6.7C698.1,130.9,697.9,131,697.7,131.1z"/>
</g>
<g id="XMLID_98_">
	<path id="XMLID_99_" class="st0" d="M802.7,121.3c-0.4,0-0.9-0.1-1.2-0.3c-1.2-0.7-1.6-2.2-0.9-3.4l13.6-23.1
		c0.7-1.2,2.2-1.6,3.4-0.9c1.2,0.7,1.6,2.2,0.9,3.4l-13.6,23.1C804.3,120.9,803.5,121.3,802.7,121.3z"/>
</g>
<g id="XMLID_94_">
	<path id="XMLID_96_" class="st0" d="M539.6,179.1c-0.4,0-0.9-0.1-1.2-0.3c-1.2-0.7-1.6-2.2-0.9-3.4l13.6-23.1
		c0.7-1.2,2.2-1.6,3.4-0.9c1.2,0.7,1.6,2.2,0.9,3.4l-13.6,23.1C541.2,178.7,540.4,179.1,539.6,179.1z"/>
</g>
<g id="XMLID_90_">
	<path id="XMLID_92_" class="st0" d="M753.2,181c-0.4,0-0.9-0.1-1.2-0.3c-1.2-0.7-1.6-2.2-0.9-3.4l13.6-23.1
		c0.7-1.2,2.2-1.6,3.4-0.9c1.2,0.7,1.6,2.2,0.9,3.4l-13.6,23.1C754.9,180.6,754.1,181,753.2,181z"/>
</g>
<g id="XMLID_80_">
	<path id="XMLID_82_" class="st0" d="M943.2,184.5c-0.6,0-1.3-0.3-1.8-0.8c-0.9-1-0.9-2.5,0.1-3.5l19.3-18.6c1-0.9,2.5-0.9,3.5,0.1
		c0.9,1,0.9,2.5-0.1,3.5l-19.3,18.6C944.4,184.2,943.8,184.5,943.2,184.5z"/>
</g>
<g id="XMLID_76_">
	<path id="XMLID_78_" class="st0" d="M1002.7,49.1c-0.1,0-0.2,0-0.3,0c-1.4-0.2-2.3-1.4-2.2-2.7l1.2-10.3l-9.4-4.4
		c-1-0.5-1.5-1.5-1.4-2.5l1.2-10.3l-9.4-4.4c-1-0.5-1.5-1.5-1.4-2.5l1.4-12c0.2-1.4,1.4-2.3,2.7-2.2c1.4,0.2,2.3,1.4,2.2,2.7
		l-1.2,10.3l9.4,4.4c1,0.5,1.5,1.5,1.4,2.5l-1.2,10.3l9.4,4.4c1,0.5,1.5,1.5,1.4,2.5l-1.4,12C1005,48.2,1003.9,49.1,1002.7,49.1z"/>
</g>
<g id="XMLID_73_">
	<path id="XMLID_74_" class="st0" d="M951.9,95.6c0,0-0.1,0-0.1,0l-12.1-0.5c-1.4-0.1-2.4-1.2-2.4-2.6c0.1-1.4,1.2-2.4,2.6-2.4
		l10.3,0.4l3.8-9.6c0.4-1,1.3-1.6,2.4-1.6l10.3,0.4l3.8-9.6c0.4-1,1.3-1.6,2.4-1.6l12.1,0.5c1.4,0.1,2.4,1.2,2.4,2.6
		c-0.1,1.4-1.2,2.4-2.6,2.4l-10.3-0.4l-3.8,9.6c-0.4,1-1.3,1.6-2.4,1.6l-10.3-0.4l-3.8,9.6C953.8,95,952.9,95.6,951.9,95.6z"/>
</g>
<g id="XMLID_70_">
	<path id="XMLID_72_" class="st0" d="M877.9,89.5c-0.6,0-1.3-0.3-1.8-0.8c-0.9-1-0.9-2.5,0.1-3.5l19.3-18.6c1-0.9,2.5-0.9,3.5,0.1
		c0.9,1,0.9,2.5-0.1,3.5l-19.3,18.6C879.2,89.2,878.6,89.5,877.9,89.5z"/>
</g>
<g id="XMLID_62_">
	<path id="XMLID_64_" class="st0" d="M885.9,238.9C885.9,238.9,885.8,238.9,885.9,238.9c-3.6,0-7-1.4-9.5-4
		c-2.5-2.5-3.9-5.9-3.9-9.5c0-3.6,1.4-6.9,4-9.4c2.5-2.5,5.9-3.9,9.4-3.9c0,0,0,0,0.1,0c3.6,0,6.9,1.4,9.4,4
		c2.5,2.5,3.9,5.9,3.9,9.5c0,3.6-1.4,6.9-4,9.4C892.8,237.5,889.4,238.9,885.9,238.9z M885.9,217c-2.2,0-4.3,0.9-5.9,2.4
		c-1.6,1.6-2.5,3.7-2.5,6c0,2.3,0.9,4.4,2.4,6c1.6,1.6,3.7,2.5,6,2.5c0,0,0,0,0,0c2.2,0,4.3-0.9,5.9-2.4c1.6-1.6,2.5-3.7,2.5-6
		c0-2.3-0.9-4.4-2.4-6C890.3,217.9,888.2,217,885.9,217C885.9,217,885.9,217,885.9,217z"/>
</g>
<g id="XMLID_57_">
	<path id="XMLID_58_" class="st0" d="M1017.4,120.4C1017.4,120.4,1017.4,120.4,1017.4,120.4c-3.6,0-7-1.4-9.5-4
		c-2.5-2.5-3.9-5.9-3.9-9.5s1.4-6.9,4-9.4c2.5-2.5,5.9-3.9,9.4-3.9c0,0,0,0,0.1,0c3.6,0,6.9,1.4,9.4,4c2.5,2.5,3.9,5.9,3.9,9.5
		l-2.5,0l2.5,0c0,3.6-1.4,6.9-4,9.4C1024.3,119,1021,120.4,1017.4,120.4z M1017.4,98.6c-2.2,0-4.3,0.9-5.9,2.4
		c-1.6,1.6-2.5,3.7-2.5,6c0,2.3,0.9,4.4,2.4,6c1.6,1.6,3.7,2.5,6,2.5c0,0,0,0,0,0c2.2,0,4.3-0.9,5.9-2.4c1.6-1.6,2.5-3.7,2.5-6
		c0-2.3-0.9-4.4-2.4-6C1021.8,99.5,1019.7,98.6,1017.4,98.6C1017.5,98.6,1017.4,98.6,1017.4,98.6z"/>
</g>
<g id="XMLID_54_">
	<path id="XMLID_56_" class="st0" d="M625.2,230.4c-0.6,0-1.3-0.3-1.8-0.8c-0.9-1-0.9-2.5,0.1-3.5l19.3-18.6c1-0.9,2.5-0.9,3.5,0.1
		c0.9,1,0.9,2.5-0.1,3.5l-19.3,18.6C626.4,230.2,625.8,230.4,625.2,230.4z"/>
</g>
<g id="XMLID_2_">
	<path id="XMLID_50_" class="st0" d="M546.3,120.7C546.3,120.7,546.2,120.7,546.3,120.7c-3.6,0-7-1.4-9.5-4
		c-2.5-2.5-3.9-5.9-3.9-9.5c0-3.6,1.4-6.9,4-9.4c2.5-2.5,5.9-3.9,9.5-3.9c3.6,0,6.9,1.4,9.4,4c2.5,2.5,3.9,5.9,3.9,9.5
		c0,3.6-1.4,6.9-4,9.4C553.2,119.3,549.8,120.7,546.3,120.7z M546.3,98.9c-2.2,0-4.3,0.9-5.9,2.4c-1.6,1.6-2.5,3.7-2.5,6
		c0,2.3,0.9,4.4,2.4,6c1.6,1.6,3.7,2.5,6,2.5c0,0,0,0,0,0c2.2,0,4.3-0.9,5.9-2.4c1.6-1.6,2.5-3.7,2.5-6v0c0-2.3-0.9-4.4-2.4-6
		C550.7,99.8,548.6,98.9,546.3,98.9C546.3,98.9,546.3,98.9,546.3,98.9z"/>
</g>
<g id="XMLID_151_">
	<path id="XMLID_152_" class="st0" d="M552.8,240.4c-1.2,0-2.2-0.9-2.4-2.1l-1.7-10.2l-10.2-1.7c-1-0.2-1.9-1-2-2l-1.7-10.2
		l-10.2-1.7c-1-0.2-1.9-1-2-2l-2-11.9c-0.2-1.3,0.7-2.6,2-2.8c1.3-0.2,2.6,0.7,2.8,2L527,208l10.2,1.7c1,0.2,1.9,1,2,2l1.7,10.2
		l10.2,1.7c1,0.2,1.9,1,2,2l2,11.9c0.2,1.3-0.7,2.6-2,2.8C553,240.4,552.9,240.4,552.8,240.4z"/>
</g>
<g id="XMLID_153_">
	<path id="XMLID_154_" class="st0" d="M801,243.3c-1,0.6-2.4,0.3-3.1-0.7l-6.3-8.2l-9.8,3.2c-1,0.3-2.1,0-2.7-0.8l-6.3-8.2l-9.8,3.2
		c-1,0.3-2.1,0-2.7-0.8l-7.3-9.6c-0.8-1.1-0.6-2.6,0.5-3.5c1.1-0.8,2.6-0.6,3.5,0.5l6.3,8.2l9.8-3.2c1-0.3,2.1,0,2.7,0.8l6.3,8.2
		l9.8-3.2c1-0.3,2.1,0,2.7,0.8l7.3,9.6c0.8,1.1,0.6,2.6-0.5,3.5C801.3,243.2,801.1,243.2,801,243.3z"/>
</g>
<g id="XMLID_298_">
	<path id="XMLID_299_" class="st0" d="M1184,229.7c0.1,1.3-0.8,2.5-2.1,2.6c-1.3,0.2-2.6-0.8-2.8-2.1l-1.4-10.3l-10.1-2
		c-1-0.2-1.8-1-2-2.1l-1.4-10.3l-10.1-2c-1-0.2-1.8-1-2-2.1l-1.6-12c-0.2-1.3,0.8-2.6,2.1-2.8c1.3-0.2,2.6,0.8,2.8,2.1l1.4,10.3
		l10.1,2c1,0.2,1.8,1,2,2.1l1.4,10.3l10.1,2c1,0.2,1.8,1,2,2.1l1.6,12C1184,229.6,1184,229.6,1184,229.7z"/>
</g>
<g id="XMLID_292_">
	<path id="XMLID_293_" class="st0" d="M907.7,19.9c5.9,0,11.4,4,13,10c1.9,7.1-2.5,14.5-9.6,16.3l0,0c-3.5,0.9-7.1,0.4-10.1-1.4
		s-5.3-4.7-6.2-8.2c-0.9-3.5-0.4-7.1,1.4-10.1c1.8-3.1,4.7-5.3,8.2-6.2C905.5,20.1,906.6,19.9,907.7,19.9z M909.8,41.5
		c4.5-1.2,7.2-5.8,6.1-10.3c-1.2-4.5-5.8-7.2-10.3-6.1c-2.2,0.6-4,1.9-5.2,3.9c-1.1,1.9-1.5,4.2-0.9,6.4c0.6,2.2,1.9,4,3.9,5.2
		C905.4,41.7,907.6,42,909.8,41.5L909.8,41.5z"/>
</g>
<g id="XMLID_290_">
	<path id="XMLID_291_" class="st0" d="M976.5,212.9c0.8,0.4,1.4,1.3,1.4,2.3c-0.1,1.4-1.2,2.4-2.6,2.3l-10.3-0.5l-3.8,9.6
		c-0.4,1-1.4,1.6-2.4,1.6l-10.3-0.5l-3.8,9.6c-0.4,1-1.4,1.6-2.4,1.6l-12.1-0.6c-1.4-0.1-2.4-1.2-2.3-2.6c0.1-1.4,1.2-2.4,2.6-2.3
		l10.3,0.5l3.8-9.6c0.4-1,1.4-1.6,2.4-1.6l10.3,0.5l3.8-9.6c0.4-1,1.4-1.6,2.4-1.6l12.1,0.6C975.9,212.7,976.2,212.7,976.5,212.9z"
		/>
</g>
<g id="XMLID_286_">
	<path id="XMLID_287_" class="st0" d="M1147.4,1.7c0.4,0,0.9,0.1,1.2,0.3c1.2,0.7,1.6,2.2,0.9,3.4l-13.6,23.1
		c-0.7,1.2-2.2,1.6-3.4,0.9c-1.2-0.7-1.6-2.2-0.9-3.4l13.6-23.1C1145.7,2.1,1146.5,1.7,1147.4,1.7z"/>
</g>
<g id="XMLID_280_">
	<path id="XMLID_281_" class="st0" d="M1011,171.5c1.2,0,2.2,0.9,2.4,2.1l1.6,10.2l10.2,1.8c1,0.2,1.8,1,2,2l1.6,10.2l10.2,1.8
		c1,0.2,1.8,1,2,2l1.9,12c0.2,1.3-0.7,2.6-2,2.8c-1.3,0.2-2.6-0.7-2.8-2l-1.6-10.2l-10.2-1.8c-1-0.2-1.8-1-2-2l-1.6-10.2l-10.2-1.8
		c-1-0.2-1.8-1-2-2l-1.9-12c-0.2-1.3,0.7-2.6,2-2.8C1010.8,171.5,1010.9,171.5,1011,171.5z"/>
</g>
<g id="XMLID_270_">
	<path id="XMLID_271_" class="st0" d="M51,162.3c1.1,0,2.1,0.8,2.4,1.9c0.3,1.3-0.5,2.7-1.8,3l-10.1,2.4l-1,10.3
		c-0.1,1-0.9,1.9-1.9,2.2l-10.1,2.4l-1,10.3c-0.1,1-0.9,1.9-1.9,2.2l-11.8,2.8c-1.3,0.3-2.7-0.5-3-1.8c-0.3-1.3,0.5-2.7,1.8-3
		l10.1-2.4l1-10.3c0.1-1,0.9-1.9,1.9-2.2l10.1-2.4l1-10.3c0.1-1,0.9-1.9,1.9-2.2l11.8-2.8C50.7,162.4,50.8,162.3,51,162.3z"/>
</g>
<g id="XMLID_268_">
	<path id="XMLID_269_" class="st0" d="M1062.3,43.9c0.3,0,0.6,0.1,1,0.2c1.3,0.5,1.8,2,1.3,3.2L1054.1,72c-0.5,1.3-2,1.8-3.2,1.3
		c-1.3-0.5-1.8-2-1.3-3.2l10.5-24.6C1060.4,44.4,1061.3,43.9,1062.3,43.9z"/>
</g>
<g id="XMLID_256_">
	<path id="XMLID_257_" class="st0" d="M1104.3,193.5C1104.3,193.5,1104.3,193.5,1104.3,193.5c3.6,0,7,1.4,9.5,4
		c2.5,2.5,3.9,5.9,3.9,9.5c0,3.6-1.4,6.9-4,9.4c-2.5,2.5-5.9,3.9-9.4,3.9c0,0,0,0-0.1,0c-3.6,0-6.9-1.4-9.4-4
		c-2.5-2.5-3.9-5.9-3.9-9.5c0-3.6,1.4-6.9,4-9.4C1097.4,194.9,1100.7,193.5,1104.3,193.5z M1104.3,215.4c2.2,0,4.3-0.9,5.9-2.4
		c1.6-1.6,2.5-3.7,2.5-6s-0.9-4.4-2.4-6c-1.6-1.6-3.7-2.5-6-2.5c-2.3,0-4.4,0.9-6,2.4c-1.6,1.6-2.5,3.7-2.5,6v0c0,2.3,0.9,4.4,2.4,6
		C1099.9,214.5,1102,215.4,1104.3,215.4C1104.2,215.4,1104.3,215.4,1104.3,215.4z"/>
</g>
<g id="XMLID_248_">
	<path id="XMLID_249_" class="st0" d="M382.5,209.9c-0.1-0.6,0.1-1.3,0.5-1.9c0.9-1.1,2.4-1.2,3.5-0.3l20.7,17
		c1.1,0.9,1.2,2.4,0.3,3.5c-0.9,1.1-2.4,1.2-3.5,0.3l-20.7-17C382.9,211.1,382.6,210.5,382.5,209.9z"/>
</g>
<g id="XMLID_211_">
	<path id="XMLID_212_" class="st0" d="M1395.1,177.1c0.4,0,0.9,0.1,1.2,0.3c1.2,0.7,1.6,2.2,0.9,3.4l-13.6,23.1
		c-0.7,1.2-2.2,1.6-3.4,0.9c-1.2-0.7-1.6-2.2-0.9-3.4l13.6-23.1C1393.4,177.5,1394.2,177.1,1395.1,177.1z"/>
</g>
<g id="XMLID_207_">
	<path id="XMLID_208_" class="st0" d="M1090.9,11.9C1090.9,11.9,1090.9,11.9,1090.9,11.9c7.4,0,13.4,6.1,13.4,13.4
		c0,3.6-1.4,6.9-4,9.4c-2.5,2.5-5.9,3.9-9.5,3.9c-7.4,0-13.3-6.1-13.3-13.4c0-3.6,1.4-6.9,4-9.4C1084,13.3,1087.3,11.9,1090.9,11.9z
		 M1090.9,33.7c2.2,0,4.3-0.9,5.9-2.4c1.6-1.6,2.5-3.7,2.5-6c0-4.7-3.7-8.5-8.4-8.5c0,0,0,0,0,0c-2.2,0-4.3,0.9-5.9,2.4
		c-1.6,1.6-2.5,3.7-2.5,6v0C1082.4,29.9,1086.2,33.7,1090.9,33.7C1090.9,33.7,1090.9,33.7,1090.9,33.7z"/>
</g>
<g id="XMLID_205_">
	<path id="XMLID_206_" class="st0" d="M1325,142.8c1.2,0,2.2,0.9,2.4,2.1l1.6,10.2l10.2,1.8c1,0.2,1.8,1,2,2l1.6,10.2l10.2,1.8
		c1,0.2,1.8,1,2,2l1.9,12c0.2,1.3-0.7,2.6-2,2.8c-1.3,0.2-2.6-0.7-2.8-2l-1.6-10.2l-10.2-1.8c-1-0.2-1.8-1-2-2l-1.6-10.2l-10.2-1.8
		c-1-0.2-1.8-1-2-2l-1.9-12c-0.2-1.3,0.7-2.6,2-2.8C1324.7,142.8,1324.9,142.8,1325,142.8z"/>
</g>
<g id="XMLID_203_">
	<path id="XMLID_204_" class="st0" d="M1280.2,38.1c1.3,0,2.4,1,2.5,2.3c0.1,1.4-1,2.5-2.3,2.6l-10.3,0.5l-2.9,9.9
		c-0.3,1-1.2,1.7-2.3,1.8l-10.3,0.5l-2.9,9.9c-0.3,1-1.2,1.7-2.3,1.8l-12.1,0.6c-1.4,0.1-2.5-1-2.6-2.3c-0.1-1.4,1-2.5,2.3-2.6
		l10.3-0.5l2.9-9.9c0.3-1,1.2-1.7,2.3-1.8l10.3-0.5l2.9-9.9c0.3-1,1.2-1.7,2.3-1.8l12.1-0.6C1280.1,38.1,1280.1,38.1,1280.2,38.1z"
		/>
</g>
<g id="XMLID_197_">
	<path id="XMLID_198_" class="st0" d="M1329.4,36.8C1329.4,36.8,1329.4,36.8,1329.4,36.8c7.4,0,13.4,6.1,13.4,13.4
		c0,3.6-1.4,6.9-4,9.4c-2.5,2.5-5.9,3.9-9.4,3.9c0,0,0,0-0.1,0c-7.4,0-13.3-6.1-13.3-13.4v0C1316.1,42.8,1322,36.8,1329.4,36.8z
		 M1329.4,58.7c2.2,0,4.3-0.9,5.9-2.4c1.6-1.6,2.5-3.7,2.5-6c0-4.7-3.7-8.5-8.4-8.5c0,0,0,0,0,0c-4.6,0-8.4,3.8-8.4,8.4
		C1320.9,54.8,1324.7,58.6,1329.4,58.7C1329.4,58.7,1329.4,58.7,1329.4,58.7z"/>
</g>
<g id="XMLID_195_">
	<path id="XMLID_196_" class="st0" d="M1289.5,199.2c1.1,0,2.1,0.8,2.4,1.9c0.3,1.3-0.5,2.7-1.8,3l-10.1,2.4l-1,10.3
		c-0.1,1-0.9,1.9-1.9,2.2l-10.1,2.4l-1,10.3c-0.1,1-0.9,1.9-1.9,2.2l-11.8,2.8c-1.3,0.3-2.7-0.5-3-1.8c-0.3-1.3,0.5-2.7,1.8-3
		l10.1-2.4l1-10.3c0.1-1,0.9-1.9,1.9-2.2l10.1-2.4l1-10.3c0.1-1,0.9-1.9,1.9-2.2l11.8-2.8C1289.1,199.2,1289.3,199.2,1289.5,199.2z"
		/>
</g>
<g id="XMLID_189_">
	<path id="XMLID_190_" class="st0" d="M1325.3,105.1c0.4,0,0.9,0.1,1.2,0.3c1.2,0.7,1.6,2.2,0.9,3.4l-13.6,23.1
		c-0.7,1.2-2.2,1.6-3.4,0.9c-1.2-0.7-1.6-2.2-0.9-3.4l13.6-23.1C1323.6,105.5,1324.4,105.1,1325.3,105.1z"/>
</g>
<g id="XMLID_185_">
	<path id="XMLID_186_" class="st0" d="M1374.7,45.4c0.4,0,0.9,0.1,1.2,0.3c1.2,0.7,1.6,2.2,0.9,3.4l-13.6,23.1
		c-0.7,1.2-2.2,1.6-3.4,0.9c-1.2-0.7-1.6-2.2-0.9-3.4l13.6-23.1C1373.1,45.9,1373.9,45.4,1374.7,45.4z"/>
</g>
<g id="XMLID_181_">
	<path id="XMLID_182_" class="st0" d="M1327.7,201.8C1327.8,201.8,1327.8,201.8,1327.7,201.8c3.6,0,7,1.4,9.5,4
		c2.5,2.5,3.9,5.9,3.9,9.5c0,3.6-1.4,6.9-4,9.4c-2.5,2.5-5.9,3.9-9.4,3.9c0,0,0,0-0.1,0c-3.6,0-6.9-1.4-9.4-4
		c-2.5-2.5-3.9-5.9-3.9-9.5c0-3.6,1.4-6.9,4-9.4C1320.8,203.2,1324.2,201.8,1327.7,201.8z M1327.7,223.6c2.2,0,4.3-0.9,5.9-2.4
		c1.6-1.6,2.5-3.7,2.5-6c0-2.3-0.9-4.4-2.4-6c-1.6-1.6-3.7-2.5-6-2.5c-2.3,0-4.4,0.9-6,2.4c-1.6,1.6-2.5,3.7-2.5,6v0
		c0,2.3,0.9,4.4,2.4,6C1323.3,222.7,1325.4,223.6,1327.7,223.6C1327.7,223.6,1327.7,223.6,1327.7,223.6z"/>
</g>
<g id="XMLID_179_">
	<path id="XMLID_180_" class="st0" d="M1184.8,42c0.6,0,1.3,0.3,1.8,0.8c0.9,1,0.9,2.5-0.1,3.5l-19.3,18.6c-1,0.9-2.5,0.9-3.5-0.1
		c-0.9-1-0.9-2.5,0.1-3.5l19.3-18.6C1183.6,42.2,1184.2,42,1184.8,42z"/>
</g>
<g id="XMLID_175_">
	<path id="XMLID_176_" class="st0" d="M1176.1,130.8c0,0,0.1,0,0.1,0l12.1,0.5c1.4,0.1,2.4,1.2,2.4,2.6c-0.1,1.4-1.2,2.4-2.6,2.4
		l-10.3-0.4l-3.8,9.6c-0.4,1-1.3,1.6-2.4,1.6l-10.3-0.4l-3.8,9.6c-0.4,1-1.3,1.6-2.4,1.6l-12.1-0.5c-1.4-0.1-2.4-1.2-2.4-2.6
		c0.1-1.4,1.2-2.4,2.6-2.4l10.3,0.4l3.8-9.6c0.4-1,1.3-1.6,2.4-1.6l10.3,0.4l3.8-9.6C1174.1,131.5,1175.1,130.8,1176.1,130.8z"/>
</g>
<g id="XMLID_173_">
	<path id="XMLID_174_" class="st0" d="M1251.7,141.2c0.6,0,1.3,0.3,1.8,0.8c0.9,1,0.9,2.5-0.1,3.5l-19.3,18.6
		c-1,0.9-2.5,0.9-3.5-0.1c-0.9-1-0.9-2.5,0.1-3.5l19.3-18.6C1250.5,141.4,1251.1,141.2,1251.7,141.2z"/>
</g>
<g id="XMLID_169_">
	<path id="XMLID_170_" class="st0" d="M1234.6,1C1234.7,1,1234.7,1,1234.6,1c3.6,0,7,1.4,9.5,4c2.5,2.5,3.9,5.9,3.9,9.5
		c0,3.6-1.4,6.9-4,9.4c-2.5,2.5-5.9,3.9-9.4,3.9c0,0,0,0-0.1,0c-3.6,0-6.9-1.4-9.4-4s-3.9-5.9-3.9-9.5c0-3.6,1.4-6.9,4-9.4
		C1227.7,2.4,1231.1,1,1234.6,1z M1234.6,22.8c2.2,0,4.3-0.9,5.9-2.4c1.6-1.6,2.5-3.7,2.5-6c0-2.3-0.9-4.4-2.4-6
		c-1.6-1.6-3.7-2.5-6-2.5c0,0,0,0,0,0c-2.2,0-4.3,0.9-5.9,2.4c-1.6,1.6-2.5,3.7-2.5,6c0,2.3,0.9,4.4,2.4,6
		C1230.2,21.9,1232.3,22.8,1234.6,22.8C1234.6,22.8,1234.6,22.8,1234.6,22.8z"/>
</g>
<g id="XMLID_165_">
	<path id="XMLID_166_" class="st0" d="M1110.5,106C1110.6,106,1110.6,106,1110.5,106c3.6,0,7,1.4,9.5,4c2.5,2.5,3.9,5.9,3.9,9.5
		c0,3.6-1.4,6.9-4,9.4c-2.5,2.5-5.9,3.9-9.4,3.9c0,0,0,0-0.1,0c-3.6,0-6.9-1.4-9.4-4c-2.5-2.5-3.9-5.9-3.9-9.5l2.5,0l-2.5,0
		c0-3.6,1.4-6.9,4-9.4C1103.6,107.4,1107,106,1110.5,106z M1110.5,127.8c2.2,0,4.3-0.9,5.9-2.4c1.6-1.6,2.5-3.7,2.5-6
		c0-2.3-0.9-4.4-2.4-6c-1.6-1.6-3.7-2.5-6-2.5c0,0,0,0,0,0c-2.2,0-4.3,0.9-5.9,2.4c-1.6,1.6-2.5,3.7-2.5,6c0,2.3,0.9,4.4,2.4,6
		C1106.1,126.9,1108.2,127.8,1110.5,127.8C1110.5,127.8,1110.5,127.8,1110.5,127.8z"/>
</g>
<g id="XMLID_163_">
	<path id="XMLID_164_" class="st0" d="M487.2,13.5c0.6,0,1.3,0.3,1.8,0.8c0.9,1,0.9,2.5-0.1,3.5l-19.3,18.6c-1,0.9-2.5,0.9-3.5-0.1
		c-0.9-1-0.9-2.5,0.1-3.5l19.3-18.6C485.9,13.7,486.5,13.5,487.2,13.5z"/>
</g>
<g id="XMLID_157_">
	<path id="XMLID_158_" class="st0" d="M1193.1,80c1.2,0,2.2,0.9,2.4,2.1l1.7,10.2l10.2,1.7c1,0.2,1.9,1,2,2l1.7,10.2l10.2,1.7
		c1,0.2,1.9,1,2,2l2,11.9c0.2,1.3-0.7,2.6-2,2.8c-1.3,0.2-2.6-0.7-2.8-2l-1.7-10.2l-10.2-1.7c-1-0.2-1.9-1-2-2l-1.7-10.2l-10.2-1.7
		c-1-0.2-1.9-1-2-2l-2-11.9c-0.2-1.3,0.7-2.6,2-2.8C1192.8,80,1193,80,1193.1,80z"/>
</g>
</svg>
