<?xml version="1.0" encoding="utf-8"?>
<!-- Generator: Adobe Illustrator 19.0.0, SVG Export Plug-In . SVG Version: 6.00 Build 0)  -->
<svg version="1.1" id="Layer_1" xmlns="http://www.w3.org/2000/svg" xmlns:xlink="http://www.w3.org/1999/xlink" x="0px" y="0px"
	 viewBox="0 0 106.2 26.5" style="enable-background:new 0 0 106.2 26.5;" xml:space="preserve">
<style type="text/css">
	.st0{fill:#393b5d;stroke:#393b5d;stroke-width:2;stroke-miterlimit:10;}
</style>
<g>
	<path class="st0" d="M1.1,2.9C0.8,2.2,1.1,1.6,2,1.6h3.1c0.4,0,0.9,0.3,1,0.7L10,15.1h0.1l6.2-13.6c0.1-0.3,0.5-0.6,1-0.6h0.3
		c0.5,0,0.9,0.3,1,0.6l6.2,13.6h0.1l3.8-12.9c0.3-0.7,1.2-0.7,1.8-0.7h2.3c0.8,0,1.2,0.6,0.9,1.3l-6.8,22c-0.1,0.3-0.5,0.6-1,0.6
		h-0.2c-0.5,0-0.9-0.2-1-0.5L17.4,9.4h-0.1l-7.1,15.5c-0.1,0.3-0.5,0.5-0.9,0.5H9.1c-0.5,0-0.9-0.2-1-0.6L1.1,2.9z"/>
	<path class="st0" d="M36.8,2.9c-0.3-0.8,0-1.3,0.8-1.3h3.1c0.4,0,0.9,0.3,1,0.7l3.9,12.9h0.1L52,1.6C52.1,1.3,52.5,1,53,1h0.3
		c0.5,0,0.9,0.3,1,0.6l6.2,13.6h0.1l3.8-12.9c0.3-0.7,1.2-0.7,1.8-0.7h2.3c0.8,0,1.2,0.6,0.9,1.3l-6.8,22c-0.1,0.3-0.5,0.6-1,0.6
		h-0.2c-0.5,0-0.9-0.2-1-0.5L53.1,9.4h-0.1L46,24.9c-0.1,0.3-0.5,0.5-0.9,0.5h-0.3c-0.5,0-0.9-0.2-1-0.6L36.8,2.9z"/>
	<path class="st0" d="M72.5,2.9c-0.3-0.8,0-1.3,0.8-1.3h3.1c0.4,0,0.9,0.3,1,0.7l3.9,12.9h0.1l6.2-13.6c0.1-0.3,0.5-0.6,1-0.6h0.3
		c0.5,0,0.9,0.3,1,0.6l6.2,13.6h0.1l3.8-12.9c0.3-0.7,1.2-0.7,1.8-0.7h2.3c0.8,0,1.2,0.6,0.9,1.3l-6.8,22c-0.1,0.3-0.5,0.6-1,0.6H97
		c-0.5,0-0.9-0.2-1-0.5L88.8,9.4h-0.1l-7.1,15.5c-0.1,0.3-0.5,0.5-0.9,0.5h-0.3c-0.5,0-0.9-0.2-1-0.6L72.5,2.9z"/>
</g>
</svg>
