<?xml version="1.0" encoding="utf-8"?>
<!-- Generator: Adobe Illustrator 19.0.0, SVG Export Plug-In . SVG Version: 6.00 Build 0)  -->
<svg version="1.1" id="Layer_1" xmlns="http://www.w3.org/2000/svg" xmlns:xlink="http://www.w3.org/1999/xlink" x="0px" y="0px"
	 viewBox="0 0 370.8 293.7" style="enable-background:new 0 0 370.8 293.7;" xml:space="preserve">
<style type="text/css">
	.st0{fill:none;stroke:#193154;stroke-miterlimit:10;}
</style>
<g id="XMLID_1500_">
	<g id="XMLID_1502_">
		<path id="XMLID_38_" class="st0" d="M369.8,289.7c0,1.7-1.4,3-3,3H4c-1.7,0-3-1.3-3-3V4c0-1.7,1.3-3,3-3h362.8c1.6,0,3,1.3,3,3
			V289.7z"/>
	</g>
	<line id="XMLID_1501_" class="st0" x1="1" y1="38" x2="369.8" y2="38"/>
</g>
<g id="XMLID_28_">
	<polygon id="XMLID_2_" class="st0" points="37.5,17.9 44.9,17.9 44.9,12.5 33.7,12.5 33.7,20.1 37.5,20.1 	"/>
	<rect id="XMLID_1494_" x="37.4" y="17.9" class="st0" width="11.2" height="7.6"/>
	<g id="XMLID_1490_">
		<line id="XMLID_1492_" class="st0" x1="11.4" y1="13.4" x2="23.5" y2="25.4"/>
		<line id="XMLID_1491_" class="st0" x1="23.5" y1="13.4" x2="11.4" y2="25.4"/>
	</g>
	<line id="XMLID_1489_" class="st0" x1="59.1" y1="25.4" x2="71.7" y2="25.4"/>
</g>
</svg>
