<?xml version="1.0" encoding="utf-8"?>
<!-- Generator: Adobe Illustrator 19.0.0, SVG Export Plug-In . SVG Version: 6.00 Build 0)  -->
<svg version="1.1" id="Layer_1" xmlns="http://www.w3.org/2000/svg" xmlns:xlink="http://www.w3.org/1999/xlink" x="0px" y="0px"
	 viewBox="-50 303.1 598.9 95.9" style="enable-background:new -50 303.1 598.9 95.9;" xml:space="preserve">
<style type="text/css">
	.st0{fill:#141933;}
</style>
<path class="st0" d="M131.6,307.3c0-0.7,0.3-1.4,0.8-1.9s1.2-0.8,2.1-0.8h12.7c1.7,0,2.6,0.9,2.7,2.7v73h36.5c0.7,0,1.4,0.3,1.9,0.8
	s0.8,1.2,0.8,2.1v11.4c0,1.7-0.9,2.6-2.7,2.7h-52.1c-1.8,0-2.7-0.9-2.7-2.7L131.6,307.3L131.6,307.3z M193.9,351.1
	c0-4.4,0.6-8.6,1.7-12.7s2.7-7.9,4.8-11.4c2.1-3.6,4.6-6.8,7.5-9.7c2.9-2.9,6.1-5.4,9.6-7.5c3.5-2.1,7.3-3.7,11.4-4.8
	s8.3-1.7,12.7-1.7s8.6,0.6,12.7,1.7s7.9,2.7,11.4,4.8c3.5,2.1,6.8,4.5,9.7,7.5c5.9,5.8,10.1,13.1,12.3,21.1
	c1.1,4.1,1.7,8.3,1.7,12.7s-0.6,8.6-1.7,12.7s-2.7,7.8-4.8,11.3c-2.1,3.5-4.5,6.7-7.5,9.6c-2.9,2.9-6.1,5.4-9.7,7.5
	c-3.5,2.1-7.3,3.7-11.4,4.8c-4.1,1.1-8.3,1.7-12.7,1.7c-4.4,0-8.6-0.6-12.7-1.7c-4.1-1.1-7.8-2.7-11.4-4.8c-3.5-2.1-6.7-4.6-9.6-7.5
	s-5.4-6.1-7.5-9.6s-3.7-7.3-4.8-11.3C194.4,359.8,193.9,355.5,193.9,351.1z M212.4,351.1c0,4.2,0.7,8.1,2.2,11.8
	c1.5,3.7,3.4,6.9,6,9.6s5.6,4.9,9.2,6.5c3.5,1.6,7.4,2.4,11.7,2.4c4.2,0,8.1-0.8,11.6-2.4c3.6-1.6,6.6-3.7,9.2-6.5
	c2.6-2.7,4.6-6,6-9.6c1.5-3.7,2.2-7.6,2.2-11.8c0-4.2-0.7-8.2-2.2-11.9s-3.5-6.9-6-9.7c-2.6-2.7-5.6-4.9-9.2-6.5
	c-3.6-1.6-7.4-2.4-11.6-2.4s-8.1,0.8-11.7,2.4c-3.5,1.6-6.6,3.8-9.2,6.5c-2.6,2.7-4.6,6-6,9.7C213.1,342.9,212.4,346.9,212.4,351.1z
	 M318.9,360.7c0,2.9,0.5,5.7,1.4,8.2c1,2.6,2.3,4.8,4.1,6.8c1.7,1.9,3.8,3.5,6.3,4.6c2.4,1.1,5.1,1.7,8,1.7s5.6-0.6,8-1.7
	c2.4-1.1,4.5-2.7,6.2-4.6c1.7-1.9,3.1-4.2,4.1-6.8s1.4-5.3,1.4-8.2v-53.2c0-0.7,0.3-1.4,0.8-1.9c0.6-0.5,1.3-0.8,2.1-0.8h12.3
	c0.7,0,1.5,0.2,2.1,0.7c0.7,0.5,1,1.2,1,2v53.3c0,5.2-1,10.2-3,14.8s-4.7,8.7-8.2,12.1c-3.5,3.5-7.5,6.2-12.1,8.2s-9.5,3-14.8,3
	c-3.5,0-6.9-0.5-10.1-1.4s-6.3-2.2-9.1-3.9c-2.8-1.7-5.4-3.6-7.7-6s-4.3-4.9-6-7.7c-1.7-2.8-3-5.9-3.9-9.1
	c-0.9-3.2-1.4-6.6-1.4-10.1v-53.2c0-0.6,0.2-1.2,0.7-1.8s1.1-0.9,1.9-0.9h13c0.6,0,1.2,0.3,1.9,0.8s1,1.2,1,1.9L318.9,360.7
	L318.9,360.7z M472.7,351.1c0,4.4-0.6,8.6-1.7,12.6s-2.7,7.7-4.8,11.1c-2.1,3.4-4.6,6.5-7.5,9.3s-6.1,5.2-9.6,7.1
	c-3.5,2-7.3,3.5-11.4,4.5c-4.1,1.1-8.3,1.6-12.7,1.6h-28.7c-0.3,0-0.7,0-1-0.1c-0.3,0-0.7-0.1-1-0.3c-0.3-0.2-0.6-0.4-0.7-0.7
	c-0.2-0.3-0.3-0.8-0.3-1.4v-87.1c0-2.1,1-3.1,3-3.1H425c4.4,0,8.6,0.6,12.6,1.7c4.1,1.1,7.8,2.6,11.3,4.6s6.7,4.4,9.6,7.2
	s5.4,5.9,7.5,9.4s3.7,7.2,4.8,11.2C472.1,342.6,472.7,346.7,472.7,351.1z M411.9,321.5v58.8h11.9c4.2,0,8.1-0.7,11.8-2.2
	c3.7-1.4,6.9-3.4,9.6-6s4.9-5.7,6.5-9.2c1.6-3.6,2.4-7.5,2.4-11.8s-0.8-8.2-2.4-11.8c-1.6-3.6-3.8-6.7-6.5-9.4
	c-2.7-2.6-6-4.7-9.6-6.1c-3.7-1.5-7.6-2.2-11.8-2.3C423.8,321.5,411.9,321.5,411.9,321.5z M535,329.4c-0.5,0-1-0.1-1.5-0.4
	c-0.5-0.3-1-0.6-1.6-1.1l-0.1-0.1c-0.8-0.8-1.8-1.7-3.1-2.6c-1.2-1-2.6-1.8-4.2-2.7c-1.5-0.8-3.2-1.5-5-2.1s-3.6-0.9-5.4-0.9
	c-2.3,0-4.4,0.3-6.2,0.8s-3.3,1.2-4.5,2.1s-2.1,1.9-2.7,3.1c-0.6,1.2-0.9,2.5-0.9,3.9c0,1.5,0.5,2.8,1.4,3.9c0.9,1.1,2.2,2.1,3.8,3
	c1.6,0.9,3.4,1.7,5.5,2.4c2.1,0.7,4.3,1.4,6.5,2.1c3.9,1.2,7.8,2.5,11.6,4s7.2,3.3,10.2,5.4c3,2.1,5.4,4.7,7.3,7.6
	c1.8,3,2.8,6.6,2.8,10.8c0,4.5-0.9,8.6-2.7,12.3c-1.8,3.7-4.4,6.8-7.6,9.4c-3.2,2.6-7,4.6-11.3,6s-9,2.1-14,2.1
	c-3.2,0-6.4-0.4-9.5-1.1c-3.2-0.7-6.2-1.8-9.1-3.2c-2.9-1.4-5.7-3-8.3-5c-2.6-1.9-4.9-4.1-7-6.5v0.1l-0.1-0.2c-0.9-1-1.4-2-1.4-2.9
	c0-0.8,0.5-1.7,1.5-2.7l0.9-0.9l1.2-1.1c0.6-0.5,1.3-1.1,2-1.8c0.7-0.7,1.4-1.3,2.1-1.8c0.7-0.5,1.4-1,2-1.4
	c0.6-0.4,1.1-0.6,1.5-0.6c0.6,0,1.1,0.2,1.6,0.6c0.5,0.4,0.9,0.7,1.2,1.1l0.2,0.2H492c1.5,1.4,3.1,2.7,4.9,3.9
	c1.8,1.2,3.7,2.4,5.6,3.3c1.9,1,3.8,1.7,5.7,2.3s3.7,0.8,5.3,0.8c2.3,0,4.4-0.3,6.4-0.9s3.7-1.4,5.2-2.5s2.6-2.3,3.4-3.8
	c0.8-1.5,1.2-3.2,1.2-5c0-1.8-0.5-3.4-1.6-4.7c-1.1-1.3-2.5-2.5-4.2-3.4c-1.7-1-3.7-1.8-5.9-2.5s-4.4-1.4-6.6-2
	c-5.1-1.5-9.5-3.2-13.3-5s-7-3.8-9.5-6s-4.4-4.7-5.7-7.5s-1.9-5.9-1.9-9.3c0-3.9,0.8-7.4,2.3-10.6c1.6-3.2,3.8-5.9,6.6-8.2
	c2.9-2.3,6.3-4,10.4-5.3c4.2-1.1,8.7-1.7,13.7-1.7c3.8,0,7.6,0.6,11.5,1.8c3.9,1.2,7.5,2.8,10.9,4.9c1,0.6,2,1.3,3.1,2.1
	c1,0.8,2,1.6,2.9,2.4c0.9,0.8,1.6,1.6,2.2,2.4c0.6,0.8,0.8,1.4,0.8,2c0,0.5-0.1,1.1-0.4,1.5c-0.2,0.5-0.6,0.9-0.9,1.4l-1.9,2v-0.1
	c-0.6,0.7-1.3,1.4-1.9,2.1c-0.7,0.7-1.3,1.3-2,1.9s-1.3,1-1.8,1.4C535.8,329.2,535.3,329.4,535,329.4L535,329.4z"/>
<path class="st0" d="M31.8,304c-18.6,0-34.6,10.6-42.4,26.1v-22.6c0-0.8-0.3-1.5-0.9-2c-0.6-0.5-1.3-0.7-2.1-0.7H-29
	c-1.6,0-3,0.1-4,0.2s-2.1,0.5-3.2,1.2l-11.1,6.7c-1.8,1-2.7,2.3-2.7,3.9v17.3c0,0.8,0.2,1.5,0.7,2.1c0.4,0.6,1,0.9,1.8,0.9
	c0,0,0.7-0.1,1.1-0.3l11.1-6.8v65c0,0.6,0.2,1.2,0.6,1.8c0.4,0.6,1.1,0.8,2.2,0.8h19c2,0,2.9-0.9,2.9-2.7v-22.1
	c7.8,15.5,23.9,26.2,42.4,26.2c26.2,0,47.5-21.3,47.5-47.5C79.3,325.2,58,304,31.8,304z"/>
<path class="st0" d="M68.8,372.8c-2.6-2.7-4.6-6-6-9.6c-1.4-3.7-2.2-7.6-2.2-11.8c0-4.2,0.7-8.2,2.2-11.9c1.4-3.7,3.4-6.9,6-9.7
	c1.1-1.2,2.3-2.2,3.5-3.1c-3.1-5-7.1-9.5-11.8-13c-1.6,1.2-3,2.5-4.4,3.9c-5.9,5.8-10.1,13.1-12.3,21.1c-1.1,4.1-1.7,8.3-1.7,12.7
	c0,4.4,0.6,8.6,1.7,12.7s2.7,7.8,4.8,11.3c2.1,3.5,4.6,6.7,7.5,9.6c1.5,1.5,3.1,2.9,4.7,4.1c4.7-3.6,8.6-8,11.7-13.1
	C71.2,375.1,69.9,374,68.8,372.8z"/>
<path class="st0" d="M72.3,326.7c1.7-1.3,3.6-2.5,5.7-3.4c3.5-1.6,7.4-2.4,11.7-2.4c3.4,0,6.6,0.5,9.6,1.6c3,1,5.8,2.5,8.4,4.4
	c0.9,0.5,1.6,0.7,2.2,0.6c0.6-0.1,1.2-0.6,1.9-1.4l6-10.3c0.5-0.9,0.5-1.7,0.2-2.4c-0.3-0.7-0.9-1.2-1.6-1.6
	c-3.9-2.6-8.1-4.6-12.5-6c-4.4-1.4-9.1-2.1-14.1-2.1c-4.4,0-8.6,0.6-12.7,1.7c-4.1,1.1-7.9,2.7-11.4,4.7c-1.8,1.1-3.5,2.2-5.2,3.5
	C65.2,317.2,69.2,321.6,72.3,326.7z M118,386.8l-6.2-10.4c-0.6-0.8-1.2-1.3-1.8-1.4s-1.4,0.1-2.3,0.7c-2.5,1.9-5.3,3.3-8.4,4.4
	c-3.1,1-6.3,1.6-9.7,1.6c-4.2,0-8.1-0.8-11.7-2.4c-2-0.9-3.8-2-5.5-3.2c-3.1,5.1-7,9.5-11.7,13.1c1.6,1.2,3.2,2.3,4.9,3.3
	c3.5,2.1,7.3,3.7,11.4,4.8c4.1,1.1,8.3,1.7,12.7,1.7c4.9,0,9.7-0.7,14.2-2.2c4.6-1.4,8.8-3.5,12.6-6.1c0.7-0.4,1.2-0.9,1.6-1.6
	C118.5,388.5,118.4,387.8,118,386.8L118,386.8z"/>
<path class="st0" d="M131.6,307.3c0-0.7,0.3-1.4,0.8-1.9s1.2-0.8,2.1-0.8h12.7c1.7,0,2.6,0.9,2.7,2.7v73h36.5c0.7,0,1.4,0.3,1.9,0.8
	s0.8,1.2,0.8,2.1v11.4c0,1.7-0.9,2.6-2.7,2.7h-52.1c-1.8,0-2.7-0.9-2.7-2.7L131.6,307.3L131.6,307.3z M193.9,351.1
	c0-4.4,0.6-8.6,1.7-12.7s2.7-7.9,4.8-11.4c2.1-3.6,4.6-6.8,7.5-9.7c2.9-2.9,6.1-5.4,9.6-7.5c3.5-2.1,7.3-3.7,11.4-4.8
	s8.3-1.7,12.7-1.7s8.6,0.6,12.7,1.7s7.9,2.7,11.4,4.8c3.5,2.1,6.8,4.5,9.7,7.5c5.9,5.8,10.1,13.1,12.3,21.1
	c1.1,4.1,1.7,8.3,1.7,12.7s-0.6,8.6-1.7,12.7s-2.7,7.8-4.8,11.3c-2.1,3.5-4.5,6.7-7.5,9.6c-2.9,2.9-6.1,5.4-9.7,7.5
	c-3.5,2.1-7.3,3.7-11.4,4.8c-4.1,1.1-8.3,1.7-12.7,1.7c-4.4,0-8.6-0.6-12.7-1.7c-4.1-1.1-7.8-2.7-11.4-4.8c-3.5-2.1-6.7-4.6-9.6-7.5
	s-5.4-6.1-7.5-9.6s-3.7-7.3-4.8-11.3C194.4,359.8,193.9,355.5,193.9,351.1z M212.4,351.1c0,4.2,0.7,8.1,2.2,11.8
	c1.5,3.7,3.4,6.9,6,9.6s5.6,4.9,9.2,6.5c3.5,1.6,7.4,2.4,11.7,2.4c4.2,0,8.1-0.8,11.6-2.4c3.6-1.6,6.6-3.7,9.2-6.5
	c2.6-2.7,4.6-6,6-9.6c1.5-3.7,2.2-7.6,2.2-11.8c0-4.2-0.7-8.2-2.2-11.9s-3.5-6.9-6-9.7c-2.6-2.7-5.6-4.9-9.2-6.5
	c-3.6-1.6-7.4-2.4-11.6-2.4s-8.1,0.8-11.7,2.4c-3.5,1.6-6.6,3.8-9.2,6.5c-2.6,2.7-4.6,6-6,9.7C213.1,342.9,212.4,346.9,212.4,351.1z
	 M318.9,360.7c0,2.9,0.5,5.7,1.4,8.2c1,2.6,2.3,4.8,4.1,6.8c1.7,1.9,3.8,3.5,6.3,4.6c2.4,1.1,5.1,1.7,8,1.7s5.6-0.6,8-1.7
	c2.4-1.1,4.5-2.7,6.2-4.6c1.7-1.9,3.1-4.2,4.1-6.8s1.4-5.3,1.4-8.2v-53.2c0-0.7,0.3-1.4,0.8-1.9c0.6-0.5,1.3-0.8,2.1-0.8h12.3
	c0.7,0,1.5,0.2,2.1,0.7c0.7,0.5,1,1.2,1,2v53.3c0,5.2-1,10.2-3,14.8s-4.7,8.7-8.2,12.1c-3.5,3.5-7.5,6.2-12.1,8.2s-9.5,3-14.8,3
	c-3.5,0-6.9-0.5-10.1-1.4s-6.3-2.2-9.1-3.9c-2.8-1.7-5.4-3.6-7.7-6s-4.3-4.9-6-7.7c-1.7-2.8-3-5.9-3.9-9.1
	c-0.9-3.2-1.4-6.6-1.4-10.1v-53.2c0-0.6,0.2-1.2,0.7-1.8s1.1-0.9,1.9-0.9h13c0.6,0,1.2,0.3,1.9,0.8s1,1.2,1,1.9L318.9,360.7
	L318.9,360.7z M472.7,351.1c0,4.4-0.6,8.6-1.7,12.6s-2.7,7.7-4.8,11.1c-2.1,3.4-4.6,6.5-7.5,9.3s-6.1,5.2-9.6,7.1
	c-3.5,2-7.3,3.5-11.4,4.5c-4.1,1.1-8.3,1.6-12.7,1.6h-28.7c-0.3,0-0.7,0-1-0.1c-0.3,0-0.7-0.1-1-0.3c-0.3-0.2-0.6-0.4-0.7-0.7
	c-0.2-0.3-0.3-0.8-0.3-1.4v-87.1c0-2.1,1-3.1,3-3.1H425c4.4,0,8.6,0.6,12.6,1.7c4.1,1.1,7.8,2.6,11.3,4.6s6.7,4.4,9.6,7.2
	s5.4,5.9,7.5,9.4s3.7,7.2,4.8,11.2C472.1,342.6,472.7,346.7,472.7,351.1z M411.9,321.5v58.8h11.9c4.2,0,8.1-0.7,11.8-2.2
	c3.7-1.4,6.9-3.4,9.6-6s4.9-5.7,6.5-9.2c1.6-3.6,2.4-7.5,2.4-11.8s-0.8-8.2-2.4-11.8c-1.6-3.6-3.8-6.7-6.5-9.4
	c-2.7-2.6-6-4.7-9.6-6.1c-3.7-1.5-7.6-2.2-11.8-2.3C423.8,321.5,411.9,321.5,411.9,321.5z M535,329.4c-0.5,0-1-0.1-1.5-0.4
	c-0.5-0.3-1-0.6-1.6-1.1l-0.1-0.1c-0.8-0.8-1.8-1.7-3.1-2.6c-1.2-1-2.6-1.8-4.2-2.7c-1.5-0.8-3.2-1.5-5-2.1s-3.6-0.9-5.4-0.9
	c-2.3,0-4.4,0.3-6.2,0.8s-3.3,1.2-4.5,2.1s-2.1,1.9-2.7,3.1c-0.6,1.2-0.9,2.5-0.9,3.9c0,1.5,0.5,2.8,1.4,3.9c0.9,1.1,2.2,2.1,3.8,3
	c1.6,0.9,3.4,1.7,5.5,2.4c2.1,0.7,4.3,1.4,6.5,2.1c3.9,1.2,7.8,2.5,11.6,4s7.2,3.3,10.2,5.4c3,2.1,5.4,4.7,7.3,7.6
	c1.8,3,2.8,6.6,2.8,10.8c0,4.5-0.9,8.6-2.7,12.3c-1.8,3.7-4.4,6.8-7.6,9.4c-3.2,2.6-7,4.6-11.3,6s-9,2.1-14,2.1
	c-3.2,0-6.4-0.4-9.5-1.1c-3.2-0.7-6.2-1.8-9.1-3.2c-2.9-1.4-5.7-3-8.3-5c-2.6-1.9-4.9-4.1-7-6.5v0.1l-0.1-0.2c-0.9-1-1.4-2-1.4-2.9
	c0-0.8,0.5-1.7,1.5-2.7l0.9-0.9l1.2-1.1c0.6-0.5,1.3-1.1,2-1.8c0.7-0.7,1.4-1.3,2.1-1.8c0.7-0.5,1.4-1,2-1.4
	c0.6-0.4,1.1-0.6,1.5-0.6c0.6,0,1.1,0.2,1.6,0.6c0.5,0.4,0.9,0.7,1.2,1.1l0.2,0.2H492c1.5,1.4,3.1,2.7,4.9,3.9
	c1.8,1.2,3.7,2.4,5.6,3.3c1.9,1,3.8,1.7,5.7,2.3s3.7,0.8,5.3,0.8c2.3,0,4.4-0.3,6.4-0.9s3.7-1.4,5.2-2.5s2.6-2.3,3.4-3.8
	c0.8-1.5,1.2-3.2,1.2-5c0-1.8-0.5-3.4-1.6-4.7c-1.1-1.3-2.5-2.5-4.2-3.4c-1.7-1-3.7-1.8-5.9-2.5s-4.4-1.4-6.6-2
	c-5.1-1.5-9.5-3.2-13.3-5s-7-3.8-9.5-6s-4.4-4.7-5.7-7.5s-1.9-5.9-1.9-9.3c0-3.9,0.8-7.4,2.3-10.6c1.6-3.2,3.8-5.9,6.6-8.2
	c2.9-2.3,6.3-4,10.4-5.3c4.2-1.1,8.7-1.7,13.7-1.7c3.8,0,7.6,0.6,11.5,1.8c3.9,1.2,7.5,2.8,10.9,4.9c1,0.6,2,1.3,3.1,2.1
	c1,0.8,2,1.6,2.9,2.4c0.9,0.8,1.6,1.6,2.2,2.4c0.6,0.8,0.8,1.4,0.8,2c0,0.5-0.1,1.1-0.4,1.5c-0.2,0.5-0.6,0.9-0.9,1.4l-1.9,2v-0.1
	c-0.6,0.7-1.3,1.4-1.9,2.1c-0.7,0.7-1.3,1.3-2,1.9s-1.3,1-1.8,1.4C535.8,329.2,535.3,329.4,535,329.4L535,329.4z"/>
<path class="st0" d="M72.3,326.7c1.7-1.3,3.6-2.5,5.7-3.4c3.5-1.6,7.4-2.4,11.7-2.4c3.4,0,6.6,0.5,9.6,1.6c3,1,5.8,2.5,8.4,4.4
	c0.9,0.5,1.6,0.7,2.2,0.6c0.6-0.1,1.2-0.6,1.9-1.4l6-10.3c0.5-0.9,0.5-1.7,0.2-2.4c-0.3-0.7-0.9-1.2-1.6-1.6
	c-3.9-2.6-8.1-4.6-12.5-6c-4.4-1.4-9.1-2.1-14.1-2.1c-4.4,0-8.6,0.6-12.7,1.7c-4.1,1.1-7.9,2.7-11.4,4.7c-1.8,1.1-3.5,2.2-5.2,3.5
	C65.2,317.2,69.2,321.6,72.3,326.7z M118,386.8l-6.2-10.4c-0.6-0.8-1.2-1.3-1.8-1.4s-1.4,0.1-2.3,0.7c-2.5,1.9-5.3,3.3-8.4,4.4
	c-3.1,1-6.3,1.6-9.7,1.6c-4.2,0-8.1-0.8-11.7-2.4c-2-0.9-3.8-2-5.5-3.2c-3.1,5.1-7,9.5-11.7,13.1c1.6,1.2,3.2,2.3,4.9,3.3
	c3.5,2.1,7.3,3.7,11.4,4.8c4.1,1.1,8.3,1.7,12.7,1.7c4.9,0,9.7-0.7,14.2-2.2c4.6-1.4,8.8-3.5,12.6-6.1c0.7-0.4,1.2-0.9,1.6-1.6
	C118.5,388.5,118.4,387.8,118,386.8L118,386.8z"/>
</svg>
