<?xml version="1.0" encoding="utf-8"?>
<!-- Generator: Adobe Illustrator 16.0.0, SVG Export Plug-In . SVG Version: 6.00 Build 0)  -->
<!DOCTYPE svg PUBLIC "-//W3C//DTD SVG 1.1//EN" "http://www.w3.org/Graphics/SVG/1.1/DTD/svg11.dtd">
<svg version="1.1" id="Warstwa_1" xmlns="http://www.w3.org/2000/svg" xmlns:xlink="http://www.w3.org/1999/xlink" x="0px" y="0px"
	 width="171px" height="40.9px" viewBox="0 0 171 40.9" enable-background="new 0 0 171 40.9" xml:space="preserve">
<g>
	<g>
		<g>
			<g>
				<defs>
					<rect id="SVGID_1_" width="171" height="40.9"/>
				</defs>
				<clipPath id="SVGID_2_">
					<use xlink:href="#SVGID_1_"  overflow="visible"/>
				</clipPath>
				<path clip-path="url(#SVGID_2_)" fill="#4A4A49" d="M0,17.3C0,20.9,0.3,27.8,11.1,27.8c2.9,0,5.1-0.3,7.1-0.7V23.2
					c-1.7,0.3-4.5,0.6-7.1,0.6c-5.6,0-6.6-2.8-6.6-6.5v-6.6C4.5,6.9,5.6,4,11.1,4c2.7,0,5.4,0.3,7.1,0.6V0.7C16.2,0.3,14,0,11.1,0
					C0.3,0,0,6.9,0,10.5V17.3z"/>
			</g>
		</g>
		<g>
			<g>
				<defs>
					<rect id="SVGID_3_" width="171" height="40.9"/>
				</defs>
				<clipPath id="SVGID_4_">
					<use xlink:href="#SVGID_3_"  overflow="visible"/>
				</clipPath>
				<path clip-path="url(#SVGID_4_)" fill="#4A4A49" d="M37.6,15.5c0-2.7-0.2-7.9-8.6-7.9s-8.6,5.2-8.6,7.9v4.4
					c0,2.699,0.2,7.899,8.6,7.899s8.6-5.2,8.6-7.899V15.5z M33.2,19.9c0,3.3-1.3,4.1-4.2,4.1c-2.8,0-4.2-0.7-4.2-4.1v-4.4
					c0-3.4,1.3-4.1,4.2-4.1s4.2,0.699,4.2,4.1V19.9z"/>
			</g>
		</g>
		<g>
			<g>
				<defs>
					<rect id="SVGID_5_" width="171" height="40.9"/>
				</defs>
				<clipPath id="SVGID_6_">
					<use xlink:href="#SVGID_5_"  overflow="visible"/>
				</clipPath>
				<path clip-path="url(#SVGID_6_)" fill="#4A4A49" d="M52.6,23.4c-1,0.3-2.8,0.5-3.7,0.5C45.8,23.9,45,22.8,45,19.8v-4.3
					c0-3.4,1.2-4.1,3.9-4.1c1.5,0,2.8,0.199,3.7,0.5V23.4z M48.3,7.6c-6.2,0.101-7.7,3.7-7.7,8V19.7c0,3.8,1,8.2,7.4,8.2
					c0.6,0,3-0.101,5.3-1.301l0.3,1h3.5V0.3h-4.4v7.9C51.6,7.9,50.3,7.6,48.3,7.6"/>
			</g>
		</g>
		<g>
			<g>
				<defs>
					<rect id="SVGID_7_" width="171" height="40.9"/>
				</defs>
				<clipPath id="SVGID_8_">
					<use xlink:href="#SVGID_7_"  overflow="visible"/>
				</clipPath>
				<path clip-path="url(#SVGID_8_)" fill="#4A4A49" d="M76.3,18.9c0.1-1.2,0.2-2.2,0.2-3.101c0-6.399-2.9-8.2-7.7-8.2
					c-5.3,0-8.5,1.7-8.5,10.2c0,7.3,2.2,10,9.3,10c2,0,4.2-0.399,5.5-0.7v-3.6c-1.4,0.3-4.3,0.6-5.1,0.6c-2.9,0-5.3-0.3-5.3-5.1
					L76.3,18.9L76.3,18.9z M64.8,15.7c0.3-3.5,1.8-4.3,4.1-4.3c2.1,0,3.5,0.8,3.5,3.5c0,0.3,0,0.5,0,0.8H64.8z"/>
			</g>
		</g>
		<g>
			<g>
				<defs>
					<rect id="SVGID_9_" width="171" height="40.9"/>
				</defs>
				<clipPath id="SVGID_10_">
					<use xlink:href="#SVGID_9_"  overflow="visible"/>
				</clipPath>
				<path clip-path="url(#SVGID_10_)" fill="#4A4A49" d="M83,8.3h-3.6v19.5h4.4V13.3c2-0.8,5.3-1,6.7-1V8c-2.399,0.1-4.8,1.2-7,2.1
					L83,8.3z"/>
			</g>
		</g>
		<g>
			<g>
				<defs>
					<rect id="SVGID_11_" width="171" height="40.9"/>
				</defs>
				<clipPath id="SVGID_12_">
					<use xlink:href="#SVGID_11_"  overflow="visible"/>
				</clipPath>
				<path clip-path="url(#SVGID_12_)" fill="#4A4A49" d="M92.3,26.6C94.5,27.4,96.5,27.7,98.3,27.7c5.899,0,7.899-1.5,7.899-5.601
					c0-2.699-0.899-4-3.5-5.3l-4.3-2.2c-1-0.5-1.3-0.699-1.3-1.699c0-0.9,0.5-1.5,3.2-1.5c0.199,0,3.1,0,5.1,0.8V8.3
					c-1.9-0.7-4.1-0.8-5-0.8c-6.1,0-7.8,1.7-7.8,5.2c0,2.899,1.1,4.2,3.899,5.6l3.4,1.7c1,0.5,1.8,1,1.8,2.1
					c0,1.5-0.6,1.801-3.5,1.801c-1.5,0-3.8-0.301-6-1.301L92.3,26.6L92.3,26.6z"/>
			</g>
		</g>
	</g>
	<polygon fill="#FABA20" points="117.7,0.4 117.7,27.5 133,27.5 133,23.5 122.2,23.5 122.2,0.4 	"/>
	<g>
		<g>
			<g>
				<defs>
					<rect id="SVGID_13_" width="171" height="40.9"/>
				</defs>
				<clipPath id="SVGID_14_">
					<use xlink:href="#SVGID_13_"  overflow="visible"/>
				</clipPath>
				<path clip-path="url(#SVGID_14_)" fill="#FABA20" d="M134.5,19.8c0,3.7,0.9,8,7.4,8c0.6,0,2.9-0.2,5.1-1.3l0.301,1h3.5V8.8
					c-2.7-0.8-5-1.1-7.801-1.1c-8.199,0-8.399,5.2-8.399,8v4.1H134.5z M138.9,15.7c0-3,0.7-4.3,3.9-4.3c0.899,0,2.399,0.1,3.5,0.3
					v11.6c-1,0.3-2.601,0.601-3.5,0.601c-3.101,0-3.801-1.101-3.9-4.101V15.7z"/>
			</g>
		</g>
		<g>
			<g>
				<defs>
					<rect id="SVGID_15_" width="171" height="40.9"/>
				</defs>
				<clipPath id="SVGID_16_">
					<use xlink:href="#SVGID_15_"  overflow="visible"/>
				</clipPath>
				<path clip-path="url(#SVGID_16_)" fill="#FABA20" d="M159,12c0.9-0.3,2.4-0.5,3.7-0.5c2.7,0,3.9,0.8,3.9,4.1V19.9
					c0,3-0.8,4.1-3.9,4.1c-0.6,0-2.6,0-3.7-0.2V12z M163.3,7.7C161.3,7.7,160,8,159,8.3V0.4H154.6V27.3c3.2,0.5,6.6,0.601,8,0.601
					c7.5,0,8.399-4.301,8.399-8.2V15.6C171,11.4,169.5,7.8,163.3,7.7"/>
			</g>
		</g>
		<g>
			<g>
				<defs>
					<rect id="SVGID_17_" width="171" height="40.9"/>
				</defs>
				<clipPath id="SVGID_18_">
					<use xlink:href="#SVGID_17_"  overflow="visible"/>
				</clipPath>
				<path clip-path="url(#SVGID_18_)" fill="#4A4A49" d="M42,34.3c0.1-0.3,0.2-0.6,0.3-1c0.1,0.4,0.2,0.7,0.3,1l1.1,3h-3L42,34.3z
					 M45.1,40.8h0.7L42.5,32.4h-0.4L38.8,40.8h0.6l1.2-2.899H44L45.1,40.8z M37.6,40.8v-0.5h-4V37.4l2.1-1.301L35.4,35.7l-1.8,1.2
					v-4.4H33v4.6L32,37.7l0.2,0.399l0.8-0.5V40.7L37.6,40.8L37.6,40.8z M24.2,33.9c0.5-0.601,1.3-1,2.3-1s1.8,0.3,2.3,1
					c0.5,0.699,0.8,1.6,0.8,2.8s-0.3,2.1-0.8,2.8s-1.3,1-2.3,1s-1.8-0.3-2.3-1c-0.5-0.6-0.8-1.6-0.8-2.8
					C23.4,35.4,23.7,34.5,24.2,33.9 M29.2,33.5c-0.7-0.8-1.6-1.1-2.7-1.1c-1.2,0-2.1,0.399-2.7,1.1c-0.7,0.8-1,1.8-1,3.1
					c0,1.301,0.3,2.4,1,3.101c0.7,0.8,1.6,1.2,2.7,1.2c1.2,0,2.1-0.4,2.7-1.2c0.7-0.8,1-1.8,1-3.101C30.2,35.3,29.9,34.2,29.2,33.5
					 M17.6,36l3.4-3.5h-0.7L17,35.9L16.1,36.8v-4.3h-0.6v8.3h0.6V37.4l1.1-1l3.2,4.399h0.7L17.6,36z M12.9,40.2h-5l4.9-7.3v-0.4H7.4
					V33H12l-4.9,7.3v0.4h5.8V40.2z M4.9,37.7c-0.1-0.3-0.4-0.5-0.7-0.7c-0.3-0.2-0.8-0.4-1.5-0.7c-0.6-0.2-1.1-0.399-1.3-0.6
					c-0.3-0.2-0.4-0.3-0.5-0.5s-0.2-0.4-0.2-0.8c0-0.5,0.2-0.9,0.5-1.2c0.4-0.3,0.9-0.4,1.5-0.4c0.6,0,1.3,0.101,2,0.4l0.2-0.5
					c-0.7-0.3-1.4-0.4-2.2-0.4c-0.8,0-1.4,0.2-1.9,0.601C0.3,33.3,0.1,33.8,0.1,34.4c0,0.6,0.2,1,0.5,1.399c0.3,0.3,0.9,0.7,1.8,0.9
					c0.6,0.2,1,0.399,1.3,0.6C4,37.5,4.2,37.7,4.3,37.9c0.1,0.199,0.2,0.5,0.2,0.8c0,0.5-0.2,0.899-0.6,1.2
					c-0.4,0.3-0.9,0.5-1.6,0.5C1.4,40.4,0.6,40.3,0,40v0.6C0.5,40.8,1.3,40.9,2.3,40.9c0.8,0,1.5-0.2,2-0.601
					c0.5-0.399,0.8-1,0.8-1.7C5.2,38.2,5.1,37.9,4.9,37.7"/>
			</g>
		</g>
		<g>
			<g>
				<defs>
					<rect id="SVGID_19_" width="171" height="40.9"/>
				</defs>
				<clipPath id="SVGID_20_">
					<use xlink:href="#SVGID_19_"  overflow="visible"/>
				</clipPath>
				<path clip-path="url(#SVGID_20_)" fill="#4A4A49" d="M167.2,34.3c0.101-0.3,0.2-0.6,0.3-1c0.101,0.4,0.2,0.7,0.301,1l1.1,3h-3
					L167.2,34.3z M170.3,40.8H171l-3.3-8.399h-0.3l-3.3,8.399h0.6l1.2-2.899h3.4L170.3,40.8z M161.9,32.5h-0.6v8.3h0.6V32.5z
					 M158,32.5h-0.6v5.4c0,0.6,0,1.3,0.1,1.899l0,0L152.6,32.4H152v8.3h0.601v-5.4c0-0.399,0-1.1-0.101-2l0,0l4.9,7.4h0.6V32.5z
					 M146.1,34.3c0.1-0.3,0.2-0.6,0.3-1c0.1,0.4,0.2,0.7,0.3,1l1.101,3h-3L146.1,34.3z M149.2,40.8h0.7l-3.3-8.399h-0.4l-3.3,8.399
					h0.6l1.2-2.899h3.4L149.2,40.8z M141.7,32.5h-0.6c-1.101,4.1-1.7,6.2-1.8,6.5c-0.101,0.3-0.101,0.6-0.2,0.9
					c-0.101-0.4-0.2-0.9-0.4-1.601l-1.7-5.8h-0.6l-1.4,5c-0.3,1.1-0.5,1.8-0.6,2.4c0-0.2-0.1-0.301-0.1-0.5
					c0-0.2-0.101-0.301-0.101-0.5c0-0.2-0.1-0.301-0.1-0.5c0-0.2-0.101-0.4-0.2-0.601l-1.5-5.3h-0.6l2.3,8.3h0.5
					c1.1-4,1.7-6.1,1.8-6.6c0.1-0.4,0.2-0.8,0.3-1.101C136.8,33.4,136.9,33.9,137,34.4L138.8,40.8h0.5L141.7,32.5z M123.9,33.9
					c0.5-0.601,1.3-1,2.3-1s1.8,0.3,2.3,1c0.5,0.6,0.801,1.6,0.801,2.8S129,38.8,128.5,39.5c-0.5,0.6-1.3,1-2.3,1s-1.8-0.3-2.3-1
					s-0.8-1.6-0.8-2.8C123.1,35.4,123.3,34.5,123.9,33.9 M128.9,33.5c-0.7-0.8-1.6-1.1-2.7-1.1c-1.2,0-2.1,0.399-2.7,1.1
					c-0.699,0.8-1,1.8-1,3.1c0,1.301,0.301,2.4,1,3.101c0.7,0.8,1.601,1.2,2.7,1.2c1.2,0,2.101-0.4,2.7-1.2c0.7-0.8,1-1.8,1-3.101
					C129.9,35.3,129.5,34.2,128.9,33.5 M115.9,40.8l3.1-7.7l0,0c0,0.5-0.1,0.9-0.1,1.4v6.3h0.6v-8.3H118.6l-2.9,7.3l0,0l-2.899-7.3
					h-0.9v8.3h0.6v-6.3c0-0.5,0-1,0-1.4l0,0l3.101,7.7H115.9z M106,34.3c0.101-0.3,0.2-0.6,0.301-1c0.1,0.4,0.199,0.7,0.3,1l1.1,3
					h-3L106,34.3z M109.1,40.8h0.7L106.5,32.4H106.1l-3.3,8.399h0.6l1.2-2.899H108L109.1,40.8z M96.7,33h1.4
					C99,33,99.6,33.1,100,33.4c0.4,0.3,0.601,0.699,0.601,1.399c0,0.601-0.2,1.101-0.601,1.4c-0.399,0.3-0.899,0.5-1.6,0.5h-1.6V33
					H96.7z M98.8,37.1l2.1,3.601h0.7l-2.3-3.8c0.6-0.2,1-0.4,1.3-0.801C100.9,35.7,101,35.2,101,34.7c0-0.8-0.199-1.3-0.699-1.7
					S99,32.4,98,32.4h-2v8.3H96.6V37.1H98.8z M90,37.1h2.5V40c-0.5,0.2-1.199,0.3-2,0.3C89.3,40.3,88.4,40,87.8,39.4
					C87.2,38.8,86.9,37.8,86.9,36.6c0-1.1,0.3-2.1,1-2.699c0.6-0.7,1.5-1,2.6-1c0.801,0,1.5,0.199,2.2,0.5l0.2-0.5
					c-0.7-0.301-1.5-0.5-2.4-0.5c-0.8,0-1.6,0.199-2.199,0.5C87.7,33.3,87.2,33.8,86.8,34.4C86.5,35.1,86.3,35.8,86.3,36.7
					c0,1.399,0.3,2.399,1,3.1C88,40.5,89,40.9,90.3,40.9c1,0,1.899-0.2,2.699-0.5V36.6h-3.1v0.5H90L90,37.1z M77.9,33.9
					c0.5-0.601,1.3-1,2.3-1s1.8,0.3,2.3,1c0.5,0.6,0.8,1.6,0.8,2.8s-0.3,2.1-0.8,2.8c-0.5,0.6-1.3,1-2.3,1s-1.8-0.3-2.3-1
					s-0.8-1.6-0.8-2.8C77.1,35.4,77.4,34.5,77.9,33.9 M82.9,33.5c-0.7-0.8-1.6-1.1-2.7-1.1c-1.2,0-2.1,0.399-2.7,1.1
					c-0.7,0.8-1,1.8-1,3.1c0,1.301,0.3,2.4,1,3.101c0.7,0.8,1.6,1.2,2.7,1.2c1.2,0,2.1-0.4,2.7-1.2c0.7-0.8,1-1.8,1-3.101
					C83.9,35.3,83.6,34.2,82.9,33.5 M69.6,33H71c0.9,0,1.5,0.1,1.9,0.4c0.4,0.3,0.6,0.699,0.6,1.399c0,0.601-0.2,1.101-0.6,1.4
					s-0.9,0.5-1.6,0.5h-1.6V33H69.6z M71.7,37.1l2.1,3.601h0.7l-2.3-3.8c0.6-0.2,1-0.4,1.3-0.801c0.3-0.399,0.4-0.899,0.4-1.399
					c0-0.8-0.2-1.3-0.7-1.7s-1.3-0.6-2.3-0.6h-2v8.3h0.6V37.1H71.7z M61.9,33h1.4c0.8,0,1.4,0.2,1.8,0.5c0.4,0.3,0.6,0.8,0.6,1.4
					c0,0.699-0.2,1.199-0.6,1.5c-0.4,0.3-1.1,0.5-2,0.5H62V33H61.9z M63.3,32.5h-2v8.3h0.6V37.4h1.3c1,0,1.8-0.2,2.3-0.601
					c0.5-0.399,0.8-1,0.8-1.8C66.3,33.2,65.3,32.5,63.3,32.5"/>
			</g>
		</g>
	</g>
</g>
</svg>
