<?xml version="1.0" encoding="utf-8"?>
<!-- Generator: Adobe Illustrator 19.0.0, SVG Export Plug-In . SVG Version: 6.00 Build 0)  -->
<svg version="1.1" id="Layer_2" xmlns="http://www.w3.org/2000/svg" xmlns:xlink="http://www.w3.org/1999/xlink" x="0px" y="0px"
	 viewBox="0 0 2657.2 230.8" style="enable-background:new 0 0 2657.2 230.8;" xml:space="preserve">
<style type="text/css">
	.st0{fill:#183154;}
</style>
<path class="st0" d="M2657.2,174.5c0,34.6-28.2,56.3-73.7,56.3c-43.3,0-70.8-19.4-75.8-52.5h45.8c4,12,13.9,17.5,30.9,17.5
	c15.3,0,25.1-6.1,25.1-16c0-7.8-5.4-11.9-18.3-14.9l-29.9-6.8c-36-7.8-49.9-21-49.9-47.2c0-32.9,26.1-52.9,69.9-52.9
	c42.1,0,67.5,19,72,53.6h-45.1c-2-12.2-11.9-18.7-27.8-18.7c-13.9,0-23.1,5.4-23.1,13.6c0,6.1,4.8,9.2,20,12.6l30.2,6.4
	c20,4.1,30.2,8.5,37.3,16C2652.8,149,2657.2,161.2,2657.2,174.5z M100.8,64.5H71.3V12.6H23.1v51.9H0v33.9h23.1v74.7
	c-1,42.1,9.2,53.6,48.2,53.3h29.5v-36.3H83.5c-11.9-0.7-12.2-1.7-12.2-27.8V98.4h29.5V64.5z M178.3,0h-48.2v226.4h48.2v-92
	c0-17,1-21.7,6.4-27.5c5.1-5.1,12.9-8.1,21-8.1c8.1,0,14.9,3.1,19,8.5c4.1,5.8,5.4,11.9,5.4,27.2v92h48.2V125.6
	c0-24.4-4.1-38.4-14.6-49.9C253.3,64.1,238.4,58,221.7,58c-17,0-29.9,5.4-43.4,18.3V0z M461.2,158.5c0-22.7-2.4-38-8.1-52.3
	C440.8,75.4,414.7,58,380,58c-49.6,0-83.8,35.3-83.8,86.6c0,51.6,33.6,86.2,84.2,86.2c39,0,69.6-20.4,78.7-52.3h-48.9
	c-6.4,10.2-15.6,14.6-28.5,14.6c-20.7,0-33.9-12.2-37-34.6H461.2z M345.1,124.6c3.7-19.3,16-29.9,34.6-29.9
	c18.7,0,29.9,10.5,31.9,29.9H345.1z M667.4,114c2-13.2,11.5-19.3,29.2-19.3c15.6,0,25.1,5.8,25.1,14.9c0,6.8-3.7,9.5-14.6,11.2
	l-26.1,4.4c-45.8,7.5-65.2,23.4-65.2,54.3c0,30.9,24.1,51.3,60.4,51.3c19.3,0,30.9-4.1,46.8-17.3c1.7,6.1,1.7,7.1,3.7,12.9H776
	c-5.4-7.5-6.4-11.9-6.1-28.2v-75.4c0-24.1-4.4-37.3-16.3-47.9c-12.9-11.2-31.9-17-56.7-17c-46.2,0-69.6,18.3-72.6,56H667.4z
	 M723.1,173.4c-7.8,13.9-19.3,20.7-35.3,20.7c-15.3,0-24.4-6.4-24.4-17.3c0-9.8,7.5-15.6,24.8-19.7l17.3-3.7
	c8.1-1.7,12.6-3.1,17.6-5.1V173.4z M879.7,226.4l13.6-57.4c1-5.4,2.4-10.5,3.7-15.6l3.4-16c1-5.1,2.4-10.2,3.4-15.6l1.7-7.8
	c4.4,21.4,7.5,35.3,12.2,55l15.3,57.4h46.2l46.5-163.9h-49.9l-12.9,53.6c-4.8,21-7.8,36-10.5,52.9c-2.4-13.6-5.4-27.8-11.5-52.9
	l-14.6-53.6h-41.7l-13.9,53.6c-2.4,9.5-6.4,28.5-11.2,52.9c-2-13.6-7.1-38.4-10.9-52.9l-13.9-53.6h-48.9l48.9,163.9H879.7z
	 M1121.4,226.4L1135,169c1-5.4,2.4-10.5,3.7-15.6l3.4-16c1-5.1,2.4-10.2,3.4-15.6l1.7-7.8c4.4,21.4,7.5,35.3,12.2,55l15.3,57.4h46.2
	l46.5-163.9h-49.9l-12.9,53.6c-4.8,21-7.8,36-10.5,52.9c-2.4-13.6-5.4-27.8-11.5-52.9l-14.6-53.6h-41.7l-13.9,53.6
	c-2.4,9.5-6.4,28.5-11.2,52.9c-2-13.6-7.1-38.4-10.9-52.9l-13.9-53.6h-48.9l48.9,163.9H1121.4z M1363,226.4l13.6-57.4
	c1-5.4,2.4-10.5,3.7-15.6l3.4-16c1-5.1,2.4-10.2,3.4-15.6l1.7-7.8c4.4,21.4,7.5,35.3,12.2,55l15.3,57.4h46.2L1509,62.5h-49.9
	l-12.9,53.6c-4.8,21-7.8,36-10.5,52.9c-2.4-13.6-5.4-27.8-11.5-52.9l-14.6-53.6h-41.7l-13.9,53.6c-2.4,9.5-6.4,28.5-11.2,52.9
	c-2-13.6-7.1-38.4-10.9-52.9l-13.9-53.6H1269l48.9,163.9H1363z M1680.6,158.5c0-22.7-2.4-38-8.1-52.3c-12.2-30.9-38.4-48.2-73-48.2
	c-49.6,0-83.8,35.3-83.8,86.6c0,51.6,33.6,86.2,84.2,86.2c39,0,69.6-20.4,78.7-52.3h-48.9c-6.4,10.2-15.6,14.6-28.5,14.6
	c-20.7,0-33.9-12.2-37-34.6H1680.6z M1564.5,124.6c3.7-19.3,16-29.9,34.6-29.9s29.9,10.5,31.9,29.9H1564.5z M1950.5,58
	c-50.9,0-86.9,35.6-86.9,86.2c0,50.9,36,86.6,86.9,86.6c50.6,0,87.2-35.6,87.2-85.2C2037.7,93.3,2002.4,58,1950.5,58z M1950.5,96.4
	c25.1,0,38.7,17.3,38.7,48.9c0,29.9-14.3,47.2-38.4,47.2c-24.8,0-38.7-17.3-38.7-48.2C1912.2,113.7,1926.1,96.4,1950.5,96.4z
	 M2060.5,62.5v163.9h48.2v-90.3c0-25.1,7.8-36.3,24.4-36.3c17,0,24.4,11.2,24.4,36.3v90.3h48.2v-90.3c0-25.1,7.5-36.3,24.4-36.3
	c16.6,0,24.1,11.2,24.1,36.3v90.3h48.2v-109c0-21-3.7-34.3-12.9-44.1c-9.5-9.8-23.8-15.3-40.7-15.3c-21,0-33.3,6.4-50.9,26.5
	c-9.5-18-24.4-26.5-45.5-26.5c-19.7,0-29.9,5.4-45.1,24.1V62.5H2060.5z M2492.2,158.5c0-22.7-2.4-38-8.1-52.3
	c-12.2-30.9-38.4-48.2-73-48.2c-49.6,0-83.8,35.3-83.8,86.6c0,51.6,33.6,86.2,84.2,86.2c39,0,69.6-20.4,78.7-52.3h-48.9
	c-6.4,10.2-15.6,14.6-28.5,14.6c-20.7,0-33.9-12.2-37-34.6H2492.2z M2376.1,124.6c3.7-19.3,16-29.9,34.6-29.9
	c18.7,0,29.9,10.5,31.9,29.9H2376.1z M1833.6,141.5c-7.1-7.5-17.3-11.9-37.3-16l-30.2-6.4c-15.3-3.4-20-6.4-20-12.6
	c0-8.1,9.2-13.6,23.1-13.6c16,0,25.8,6.4,27.8,18.7h45.1c-4.4-34.6-29.9-53.6-72-53.6c-43.8,0-69.9,20-69.9,52.9
	c0,26.1,13.9,39.4,49.9,47.2l29.9,6.8c12.9,3.1,18.3,7.1,18.3,14.9c0,9.8-9.8,16-25.1,16c-17,0-27-5.5-30.9-17.5h-45.8
	c4.9,33.1,32.5,52.5,75.8,52.5c45.5,0,73.7-21.7,73.7-56.3C1845.8,161.2,1841.4,149,1833.6,141.5z M2492,158.5
	c0-22.7-2.4-38-8.1-52.3c-12.2-30.9-38.4-48.2-73-48.2c-49.6,0-83.8,35.3-83.8,86.6c0,51.6,33.6,86.2,84.2,86.2
	c39,0,69.6-20.4,78.7-52.3h-48.9c-6.4,10.2-15.6,14.6-28.5,14.6c-20.7,0-33.9-12.2-37-34.6H2492z M2376,124.6
	c3.7-19.3,16-29.9,34.6-29.9c18.7,0,29.9,10.5,31.9,29.9H2376z"/>
</svg>
