<?xml version="1.0" encoding="utf-8"?>
<!-- Generator: Adobe Illustrator 19.0.0, SVG Export Plug-In . SVG Version: 6.00 Build 0)  -->
<svg version="1.1" id="Layer_1" xmlns="http://www.w3.org/2000/svg" xmlns:xlink="http://www.w3.org/1999/xlink" x="0px" y="0px"
	 viewBox="0 0 380.4 135.8" style="enable-background:new 0 0 380.4 135.8;" xml:space="preserve">
<style type="text/css">
	.st0{fill:#193154;}
</style>
<g id="XMLID_23_">
</g>
<g id="XMLID_22_">
	<path id="XMLID_33_" class="st0" d="M203.9,28.5h-5V10.7h-6.7V6.5h18.3v4.2h-6.7V28.5z"/>
	<path id="XMLID_35_" class="st0" d="M221.5,19v9.5h-5v-22h5v8.3h8.1V6.5h5v22h-5V19H221.5z"/>
	<path id="XMLID_37_" class="st0" d="M258.9,10.7h-11.5V15h10v3.9h-10v5.4h11.7v4.2h-16.6v-22h16.4V10.7z"/>
</g>
<g id="XMLID_18_">
	<g id="XMLID_19_">
		<path class="st0" d="M375,91.4c2.9,0,5.4,2.5,5.4,5.4c0,2.9-2.5,5.3-5.4,5.3s-5.3-2.4-5.3-5.3C369.7,93.9,372.1,91.4,375,91.4z"/>
	</g>
</g>
<g id="XMLID_17_">
	<path id="XMLID_30_" class="st0" d="M70.6,96.8H57.2l-5.8-15.6H20.9l-5.8,15.6H1.8l27.7-74.9h13.4L70.6,96.8z M46.9,68.6L36.2,39.9
		L25.6,68.6H46.9z"/>
</g>
<g id="XMLID_14_">
	<path id="XMLID_28_" class="st0" d="M98.3,96.8L79.6,21.9h12.8l12.3,49.2l12.3-49.2h14.4l12.3,49.2l12.3-49.2h12.8l-18.7,74.9
		h-12.8l-13.2-52.3l-13,52.3H98.3z"/>
</g>
<g id="XMLID_13_">
	<path id="XMLID_26_" class="st0" d="M201.9,114.9L183.2,40h12.8l12.3,49.2L220.7,40h14.4l12.3,49.2L259.7,40h12.8l-18.7,74.9H241
		l-13.2-52.3l-13,52.3H201.9z"/>
</g>
<g id="XMLID_12_">
	<path id="XMLID_24_" class="st0" d="M300.4,96.8l-18.7-74.9h12.8l12.3,49.2l12.3-49.2h14.4l12.3,49.2l12.3-49.2H371l-18.7,74.9
		h-12.8l-13.2-52.3l-13,52.3H300.4z"/>
</g>
</svg>
