<?xml version="1.0" encoding="utf-8"?>
<!-- Generator: Adobe Illustrator 19.0.0, SVG Export Plug-In . SVG Version: 6.00 Build 0)  -->
<svg version="1.1" id="Layer_1" xmlns="http://www.w3.org/2000/svg" xmlns:xlink="http://www.w3.org/1999/xlink" x="0px" y="0px"
	 viewBox="0 0 875.5 752.9" style="enable-background:new 0 0 875.5 752.9;" xml:space="preserve">
<style type="text/css">
	.st0{fill:#EE757C;}
</style>
<path id="XMLID_24_" class="st0" d="M871.8,410.2c-6.8-35-28.3-65.4-53.7-89.6c-17.5-16.7-37-31.4-52.8-49.9
	c-2.9-4.2-5.5-8.6-7.8-13.1c-5.1-14.7-7.6-30.2-10.3-45.5c-2.8-16.3-6.2-32.5-10.8-48.4C725,124.4,706.8,87.4,679.1,57
	c-5-5.5-10.5-10.5-16.3-15.1c-9-7.1-17.9-14.1-27.9-19.6c-16.3-9-34.7-16.6-53.2-19.5c-23.1-3.6-44.8-4.3-67.7,1.8
	C491,10.7,471.7,23,453.8,38.2c-13.2,11.2-24.1,24.8-35.2,38c-10.3,12.2-21,23.9-33.2,34.1c-10.5,7.5-21.6,13.9-33.3,19.3
	c-12.4,4.7-25.1,8.2-38.2,10.5c-15.8,1.4-31.4,0.6-47.2-0.2c-9-0.5-18.1-0.8-27.2-0.1c-12.6,1-26,2.4-37.9,7
	c-16.5,6.4-29.9,14-42.9,26.4c-9.5,9.1-17.2,20.1-24.8,30.7c-12.2,16.7-23.9,33.8-35,51.2c-2.8,4.4-5.6,8.8-8.4,13.3
	c-1.2,0.8-2.4,1.6-3.6,2.5c-21.5,15.4-39.3,33-53.5,55.4C6.3,369.4,3.3,421.5,0.9,470.9c-1.1,22.3-1.7,44.6,1.2,66.8
	c1.9,15.1,3.9,30,8.7,44.4c4.5,13.8,10.4,27.3,17.2,40.2c11.6,22.1,26.5,42.8,42.2,62.1c8.5,10.5,19.1,19.6,30.6,26.7
	c15.6,9.5,32.5,13.5,50.4,15.2c14.7,1.4,30.2-0.9,44.4-4.6c14.6-3.8,28.8-10,42.2-16.8c18.3-9.3,35.2-21.1,53.7-30
	c4.6-1.6,9.2-3,14-4.1c3-0.1,5.9-0.1,8.9,0c4.8,1,9.5,2.4,14.1,4.1c20.6,9.9,39.1,23.7,58.2,36.2c25.3,16.6,53.2,30.3,83,36.4
	c36.2,7.5,71.6,6.9,107.9,0.3c31.3-5.6,61.7-17.8,89.8-32.6c28.2-14.8,54-33.9,78.7-54.1c21.5-17.6,42.2-36.6,60.7-57.3
	c12-13.3,23.2-27.6,33.1-42.5c9.7-14.7,16.8-30.3,23.3-46.6C876.4,481.8,878.5,444.9,871.8,410.2z"/>
</svg>
