<?xml version="1.0" encoding="utf-8"?>
<!-- Generator: Adobe Illustrator 19.0.0, SVG Export Plug-In . SVG Version: 6.00 Build 0)  -->
<svg version="1.1" id="Layer_1" xmlns="http://www.w3.org/2000/svg" xmlns:xlink="http://www.w3.org/1999/xlink" x="0px" y="0px"
	 viewBox="-14 -26.4 370.7 393.4" style="enable-background:new -14 -26.4 370.7 393.4;" xml:space="preserve">
<style type="text/css">
	.st0{fill:#F4D4DE;}
</style>
<g id="XMLID_16_">
	<path id="XMLID_23_" class="st0" d="M27.3,62.4c-32.4,42.9-41.9,85-41.3,138.7c0.1,7.8,0.7,16.2,5.5,22.4
		c11.3,14.7,34.9,7.1,52.4,13.1c11.8,4.1,20.5,14.5,25.7,25.9c5.2,11.4,7.4,23.9,10.4,36c3.9,16.1,9.3,32.1,19.3,45.3
		c10,13.1,25.4,23.1,41.9,23.2c22.7,0.2,41.3-17.1,56.8-33.7s32.4-34.8,54.9-37.6c13.2-1.6,26.4,2.5,39.5,4.9s27.8,2.7,38.5-5.3
		c10.5-7.8,14.4-21.6,17.1-34.5c8.7-42,10.9-85.3,6.7-128c-1.9-18.6-5.7-38.6-19.5-51.2c-26.1-23.9-70-7.9-101.5-24
		c-36-18.4-46.1-73.4-85.5-82.8c-15-3.6-30.9,0.9-44.6,8C71.1-0.4,49.2,33.1,27.3,62.4"/>
</g>
</svg>
