<?xml version="1.0" encoding="utf-8"?>
<!-- Generator: Adobe Illustrator 19.0.0, SVG Export Plug-In . SVG Version: 6.00 Build 0)  -->
<svg version="1.1" id="Layer_1" xmlns="http://www.w3.org/2000/svg" xmlns:xlink="http://www.w3.org/1999/xlink" x="0px" y="0px"
	 viewBox="0 0 392.6 32" style="enable-background:new 0 0 392.6 32;" xml:space="preserve">
<style type="text/css">
	.st0{fill:#091932;}
</style>
<g>
	<path class="st0" d="M0,16V9.7h3.8V3.6h8.4v6.2h5.6V16h-5.6v5.7c0,1.5,0.2,2.5,0.6,3.1c0.4,0.6,1,0.9,1.9,0.9
		c0.9,0,1.8-0.1,2.6-0.4l1.6,5.6c-1.6,0.7-3.4,1.1-5.3,1.1c-3.7,0-6.3-0.8-7.6-2.5c-1.4-1.7-2.1-4.2-2.1-7.6V16H0z"/>
	<path class="st0" d="M37,19.4c0-2.7-1.2-4-3.6-4c-1.3,0-2.2,0.3-2.8,1c-0.6,0.7-0.9,1.7-0.9,3v12h-8.4V0h8.4v12
		c0.5-0.9,1.3-1.6,2.4-2.1s2.3-0.7,3.5-0.7c3.2,0,5.6,0.9,7.3,2.8c1.7,1.9,2.5,4.4,2.5,7.5v12H37V19.4z"/>
	<path class="st0" d="M60.4,32c-2.1,0-3.9-0.3-5.5-1c-1.6-0.6-2.9-1.5-3.9-2.6c-1.9-2.2-2.8-4.8-2.8-7.9c0-3.1,1-5.7,3.1-8
		c1-1.1,2.3-1.9,3.8-2.5c1.6-0.6,3.3-0.9,5.3-0.9c4,0,7,1.3,9,3.8c2,2.5,2.9,6.1,2.7,10.7H56.6c0,0.5,0.4,1,1.2,1.5
		c0.8,0.5,2.2,0.7,4.1,0.7s3.7-0.4,5.4-1.3l3.9,4.4C68.5,31,64.9,32,60.4,32z M56.6,18.4h7.7c0-0.8-0.3-1.4-1-2.1
		c-0.7-0.6-1.6-0.9-2.9-0.9c-1.2,0-2.2,0.3-2.9,0.9C56.9,16.9,56.6,17.6,56.6,18.4z"/>
	<path class="st0" d="M90.7,11.2c2.5-1.4,5.8-2.1,9.9-2.1s7,0.7,8.8,2.1c1.8,1.4,2.7,3.8,2.7,7.3v12.9h-8.4v-2.5c-1.2,2-3.4,3-6.6,3
		c-2.5,0-4.4-0.6-5.8-1.9c-1.4-1.3-2.2-3-2.2-5.1c0-2.1,0.8-3.8,2.3-5c1.5-1.2,3.5-1.9,5.9-2.3c2.4-0.3,4.5-0.4,6.4-0.2
		c0-0.5-0.1-0.9-0.2-1.1c-0.3-0.6-1.6-0.8-3.8-0.8c-2.2,0-4.3,0.3-6.4,1L90.7,11.2z M97.5,24.1c0,1.1,0.7,1.6,2.2,1.6
		c1.4,0,2.5-0.3,3.1-0.9c0.6-0.6,1-1.2,1-1.8v-1c-0.9,0-1.8,0-2.8,0c-0.9,0-1.7,0.2-2.4,0.6C97.9,22.9,97.5,23.4,97.5,24.1z"/>
	<path class="st0" d="M132.8,31.4l-1.3-9.8l-4.7,9.8h-8l-4-21.7h8.7l1.1,12.1l5.8-12.1h5.6l1.6,12.1L143,9.7h9.6l-11.6,21.7H132.8z"
		/>
	<path class="st0" d="M170.5,31.4l-1.3-9.8l-4.7,9.8h-8l-4-21.7h8.7l1.1,12.1l5.8-12.1h5.6l1.6,12.1l5.3-12.1h9.6l-11.6,21.7H170.5z
		"/>
	<path class="st0" d="M208.2,31.4l-1.3-9.8l-4.7,9.8h-8l-4-21.7h8.7l1.1,12.1l5.8-12.1h5.6l1.6,12.1l5.3-12.1h9.6l-11.6,21.7H208.2z
		"/>
	<path class="st0" d="M239.4,32c-2.1,0-3.9-0.3-5.5-1c-1.6-0.6-2.9-1.5-3.9-2.6c-1.9-2.2-2.8-4.8-2.8-7.9c0-3.1,1-5.7,3.1-8
		c1-1.1,2.3-1.9,3.8-2.5c1.6-0.6,3.3-0.9,5.3-0.9c4,0,7,1.3,9,3.8c2,2.5,2.9,6.1,2.7,10.7h-15.6c0,0.5,0.4,1,1.2,1.5
		c0.8,0.5,2.2,0.7,4.1,0.7s3.7-0.4,5.4-1.3l3.9,4.4C247.5,31,243.9,32,239.4,32z M235.6,18.4h7.7c0-0.8-0.3-1.4-1-2.1
		c-0.7-0.6-1.6-0.9-2.9-0.9c-1.2,0-2.2,0.3-2.9,0.9C235.9,16.9,235.6,17.6,235.6,18.4z"/>
	<path class="st0" d="M264.3,15.4c-0.7,0-1.2,0.1-1.5,0.2c-0.3,0.1-0.5,0.4-0.5,0.7c0,0.5,0.8,0.8,2.3,1.2c0.1,0,0.5,0.1,1.2,0.2
		c0.6,0.1,1.4,0.3,2.3,0.6c2.1,0.6,3.8,1.4,4.8,2.5c1.1,1.1,1.6,2.5,1.6,4.3c0,4.6-3.7,6.9-11.2,6.9c-1.8,0-3.6-0.2-5.4-0.7
		c-1.9-0.4-3.5-1.1-4.8-2l3-5.3c2.2,1.1,4.4,1.7,6.7,1.7c2.3,0,3.4-0.4,3.4-1.2c0-0.3-0.2-0.6-0.6-0.8c-0.4-0.2-1.1-0.4-2.2-0.6
		c-3.2-0.6-5.6-1.5-7.1-2.6c-1.5-1.1-2.3-2.7-2.3-4.7c0-2.1,0.8-3.7,2.5-4.9c1.7-1.2,4-1.8,7-1.8c4.3,0,7.6,0.8,10.2,2.3l-3,5.3
		C268.6,15.8,266.5,15.4,264.3,15.4z"/>
	<path class="st0" d="M299.5,29c-2.4,2-5.7,3-9.8,3s-7.4-1-9.8-3c-2.4-2-3.6-4.8-3.6-8.4s1.2-6.4,3.6-8.4c2.4-2,5.7-3,9.8-3
		s7.4,1,9.8,3s3.6,4.8,3.6,8.4S301.9,27,299.5,29z M285.9,24.4c0.9,0.9,2.2,1.4,3.7,1.4c1.5,0,2.8-0.5,3.7-1.4
		c0.9-0.9,1.4-2.2,1.4-3.8c0-1.6-0.5-2.9-1.4-3.8c-0.9-0.9-2.2-1.4-3.7-1.4c-1.5,0-2.8,0.5-3.7,1.4c-0.9,0.9-1.4,2.2-1.4,3.8
		C284.5,22.2,285,23.5,285.9,24.4z"/>
	<path class="st0" d="M306,31.4V9.7h8.4v2.1c0.4-0.8,1.1-1.4,2.1-1.9c0.9-0.5,2.1-0.7,3.4-0.7c3.2,0,5.5,1.1,6.9,3.2
		c0.7-1,1.7-1.7,3-2.3c1.3-0.6,2.7-0.9,4.3-0.9c2.8,0,5,0.9,6.4,2.7c1.5,1.8,2.2,4.2,2.2,7.3v12.3h-8.4V18.5c0-0.9-0.2-1.6-0.7-2.2
		c-0.4-0.6-1.2-0.9-2.2-0.9c-1,0-1.8,0.3-2.2,0.9c-0.4,0.6-0.7,1.3-0.7,2.2v12.9h-8.4V18.5c0-0.9-0.2-1.6-0.7-2.2
		c-0.4-0.6-1.2-0.9-2.2-0.9c-1,0-1.8,0.3-2.2,0.9c-0.4,0.6-0.7,1.3-0.7,2.2v12.9H306z"/>
	<path class="st0" d="M357.7,32c-2.1,0-3.9-0.3-5.5-1c-1.6-0.6-2.9-1.5-3.9-2.6c-1.9-2.2-2.8-4.8-2.8-7.9c0-3.1,1-5.7,3.1-8
		c1-1.1,2.3-1.9,3.8-2.5c1.6-0.6,3.3-0.9,5.3-0.9c4,0,7,1.3,9,3.8c2,2.5,2.9,6.1,2.7,10.7h-15.6c0,0.5,0.4,1,1.2,1.5
		c0.8,0.5,2.2,0.7,4.1,0.7s3.7-0.4,5.4-1.3l3.9,4.4C365.8,31,362.2,32,357.7,32z M353.9,18.4h7.7c0-0.8-0.3-1.4-1-2.1
		c-0.7-0.6-1.6-0.9-2.9-0.9c-1.2,0-2.2,0.3-2.9,0.9C354.2,16.9,353.9,17.6,353.9,18.4z"/>
	<path class="st0" d="M382.4,15.4c-0.7,0-1.2,0.1-1.5,0.2c-0.3,0.1-0.5,0.4-0.5,0.7c0,0.5,0.8,0.8,2.3,1.2c0.1,0,0.5,0.1,1.2,0.2
		c0.6,0.1,1.4,0.3,2.3,0.6c2.1,0.6,3.8,1.4,4.8,2.5c1.1,1.1,1.6,2.5,1.6,4.3c0,4.6-3.7,6.9-11.2,6.9c-1.8,0-3.6-0.2-5.4-0.7
		c-1.9-0.4-3.5-1.1-4.8-2l3-5.3c2.2,1.1,4.4,1.7,6.7,1.7c2.3,0,3.4-0.4,3.4-1.2c0-0.3-0.2-0.6-0.6-0.8c-0.4-0.2-1.1-0.4-2.2-0.6
		c-3.2-0.6-5.6-1.5-7.1-2.6c-1.5-1.1-2.3-2.7-2.3-4.7c0-2.1,0.8-3.7,2.5-4.9c1.7-1.2,4-1.8,7-1.8c4.3,0,7.6,0.8,10.2,2.3l-3,5.3
		C386.7,15.8,384.6,15.4,382.4,15.4z"/>
</g>
</svg>
