<?xml version="1.0" encoding="utf-8"?>
<!-- Generator: Adobe Illustrator 19.0.0, SVG Export Plug-In . SVG Version: 6.00 Build 0)  -->
<svg version="1.1" id="Layer_1" xmlns="http://www.w3.org/2000/svg" xmlns:xlink="http://www.w3.org/1999/xlink" x="0px" y="0px"
	 viewBox="-153 335 392.6 32" style="enable-background:new -153 335 392.6 32;" xml:space="preserve">
<style type="text/css">
	.st0{fill:#193154;}
</style>
<g>
	<path class="st0" d="M-153,351v-6.3h3.8v-6.1h8.4v6.2h5.6v6.2h-5.6v5.7c0,1.5,0.2,2.5,0.6,3.1c0.4,0.6,1,0.9,1.9,0.9
		c0.9,0,1.8-0.1,2.6-0.4l1.6,5.6c-1.6,0.7-3.4,1.1-5.3,1.1c-3.7,0-6.3-0.8-7.6-2.5c-1.4-1.7-2.1-4.2-2.1-7.6V351H-153z"/>
	<path class="st0" d="M-116,354.4c0-2.7-1.2-4-3.6-4c-1.3,0-2.2,0.3-2.8,1c-0.6,0.7-0.9,1.7-0.9,3v12h-8.4V335h8.4v12
		c0.5-0.9,1.3-1.6,2.4-2.1c1.1-0.5,2.3-0.7,3.5-0.7c3.2,0,5.6,0.9,7.3,2.8s2.5,4.4,2.5,7.5v12h-8.4V354.4z"/>
	<path class="st0" d="M-92.6,367c-2.1,0-3.9-0.3-5.5-1c-1.6-0.6-2.9-1.5-3.9-2.6c-1.9-2.2-2.8-4.8-2.8-7.9s1-5.7,3.1-8
		c1-1.1,2.3-1.9,3.8-2.5c1.6-0.6,3.3-0.9,5.3-0.9c4,0,7,1.3,9,3.8s2.9,6.1,2.7,10.7h-15.5c0,0.5,0.4,1,1.2,1.5
		c0.8,0.5,2.2,0.7,4.1,0.7c1.9,0,3.7-0.4,5.4-1.3l3.9,4.4C-84.5,366-88.1,367-92.6,367z M-96.4,353.4h7.7c0-0.8-0.3-1.4-1-2.1
		c-0.7-0.6-1.6-0.9-2.9-0.9c-1.2,0-2.2,0.3-2.9,0.9C-96.1,351.9-96.4,352.6-96.4,353.4z"/>
	<path class="st0" d="M-62.3,346.2c2.5-1.4,5.8-2.1,9.9-2.1s7,0.7,8.8,2.1c1.8,1.4,2.7,3.8,2.7,7.3v12.9h-8.4v-2.5
		c-1.2,2-3.4,3-6.6,3c-2.5,0-4.4-0.6-5.8-1.9s-2.2-3-2.2-5.1s0.8-3.8,2.3-5c1.5-1.2,3.5-1.9,5.9-2.3c2.4-0.3,4.5-0.4,6.4-0.2
		c0-0.5-0.1-0.9-0.2-1.1c-0.3-0.6-1.6-0.8-3.8-0.8c-2.2,0-4.3,0.3-6.4,1L-62.3,346.2z M-55.5,359.1c0,1.1,0.7,1.6,2.2,1.6
		c1.4,0,2.5-0.3,3.1-0.9c0.6-0.6,1-1.2,1-1.8v-1c-0.9,0-1.8,0-2.8,0c-0.9,0-1.7,0.2-2.4,0.6C-55.1,357.9-55.5,358.4-55.5,359.1z"/>
	<path class="st0" d="M-20.2,366.4l-1.3-9.8l-4.7,9.8h-8l-4-21.7h8.7l1.1,12.1l5.8-12.1h5.6l1.6,12.1l5.4-12.1h9.6L-12,366.4
		C-12,366.4-20.2,366.4-20.2,366.4z"/>
	<path class="st0" d="M17.5,366.4l-1.3-9.8l-4.7,9.8h-8l-4-21.7h8.7l1.1,12.1l5.8-12.1h5.6l1.6,12.1l5.3-12.1h9.6l-11.6,21.7
		C25.6,366.4,17.5,366.4,17.5,366.4z"/>
	<path class="st0" d="M55.2,366.4l-1.3-9.8l-4.7,9.8h-8l-4-21.7h8.7l1.1,12.1l5.8-12.1h5.6l1.6,12.1l5.3-12.1h9.6l-11.6,21.7
		C63.3,366.4,55.2,366.4,55.2,366.4z"/>
	<path class="st0" d="M86.4,367c-2.1,0-3.9-0.3-5.5-1c-1.6-0.6-2.9-1.5-3.9-2.6c-1.9-2.2-2.8-4.8-2.8-7.9s1-5.7,3.1-8
		c1-1.1,2.3-1.9,3.8-2.5c1.6-0.6,3.3-0.9,5.3-0.9c4,0,7,1.3,9,3.8s2.9,6.1,2.7,10.7H82.5c0,0.5,0.4,1,1.2,1.5s2.2,0.7,4.1,0.7
		s3.7-0.4,5.4-1.3l3.9,4.4C94.5,366,90.9,367,86.4,367z M82.6,353.4h7.7c0-0.8-0.3-1.4-1-2.1c-0.7-0.6-1.6-0.9-2.9-0.9
		c-1.2,0-2.2,0.3-2.9,0.9C82.9,351.9,82.6,352.6,82.6,353.4z"/>
	<path class="st0" d="M111.3,350.4c-0.7,0-1.2,0.1-1.5,0.2s-0.5,0.4-0.5,0.7c0,0.5,0.8,0.8,2.3,1.2c0.1,0,0.5,0.1,1.2,0.2
		c0.6,0.1,1.4,0.3,2.3,0.6c2.1,0.6,3.8,1.4,4.8,2.5c1.1,1.1,1.6,2.5,1.6,4.3c0,4.6-3.7,6.9-11.2,6.9c-1.8,0-3.6-0.2-5.4-0.7
		c-1.9-0.4-3.5-1.1-4.8-2l3-5.3c2.2,1.1,4.4,1.7,6.7,1.7c2.3,0,3.4-0.4,3.4-1.2c0-0.3-0.2-0.6-0.6-0.8c-0.4-0.2-1.1-0.4-2.2-0.6
		c-3.2-0.6-5.6-1.5-7.1-2.6s-2.3-2.7-2.3-4.7c0-2.1,0.8-3.7,2.5-4.9c1.7-1.2,4-1.8,7-1.8c4.3,0,7.6,0.8,10.2,2.3l-3,5.3
		C115.6,350.8,113.5,350.4,111.3,350.4z"/>
	<path class="st0" d="M146.5,364c-2.4,2-5.7,3-9.8,3s-7.4-1-9.8-3s-3.6-4.8-3.6-8.4s1.2-6.4,3.6-8.4s5.7-3,9.8-3s7.4,1,9.8,3
		s3.6,4.8,3.6,8.4S148.9,362,146.5,364z M132.9,359.4c0.9,0.9,2.2,1.4,3.7,1.4s2.8-0.5,3.7-1.4c0.9-0.9,1.4-2.2,1.4-3.8
		s-0.5-2.9-1.4-3.8c-0.9-0.9-2.2-1.4-3.7-1.4s-2.8,0.5-3.7,1.4c-0.9,0.9-1.4,2.2-1.4,3.8S132,358.5,132.9,359.4z"/>
	<path class="st0" d="M153,366.4v-21.7h8.4v2.1c0.4-0.8,1.1-1.4,2.1-1.9c0.9-0.5,2.1-0.7,3.4-0.7c3.2,0,5.5,1.1,6.9,3.2
		c0.7-1,1.7-1.7,3-2.3s2.7-0.9,4.3-0.9c2.8,0,5,0.9,6.4,2.7c1.5,1.8,2.2,4.2,2.2,7.3v12.3h-8.4v-13c0-0.9-0.2-1.6-0.7-2.2
		c-0.4-0.6-1.2-0.9-2.2-0.9s-1.8,0.3-2.2,0.9c-0.4,0.6-0.7,1.3-0.7,2.2v12.9h-8.4v-12.9c0-0.9-0.2-1.6-0.7-2.2
		c-0.4-0.6-1.2-0.9-2.2-0.9s-1.8,0.3-2.2,0.9c-0.4,0.6-0.7,1.3-0.7,2.2v12.9H153z"/>
	<path class="st0" d="M204.7,367c-2.1,0-3.9-0.3-5.5-1c-1.6-0.6-2.9-1.5-3.9-2.6c-1.9-2.2-2.8-4.8-2.8-7.9s1-5.7,3.1-8
		c1-1.1,2.3-1.9,3.8-2.5c1.6-0.6,3.3-0.9,5.3-0.9c4,0,7,1.3,9,3.8s2.9,6.1,2.7,10.7h-15.6c0,0.5,0.4,1,1.2,1.5
		c0.8,0.5,2.2,0.7,4.1,0.7s3.7-0.4,5.4-1.3l3.9,4.4C212.8,366,209.2,367,204.7,367z M200.9,353.4h7.7c0-0.8-0.3-1.4-1-2.1
		c-0.7-0.6-1.6-0.9-2.9-0.9c-1.2,0-2.2,0.3-2.9,0.9C201.2,351.9,200.9,352.6,200.9,353.4z"/>
	<path class="st0" d="M229.4,350.4c-0.7,0-1.2,0.1-1.5,0.2s-0.5,0.4-0.5,0.7c0,0.5,0.8,0.8,2.3,1.2c0.1,0,0.5,0.1,1.2,0.2
		c0.6,0.1,1.4,0.3,2.3,0.6c2.1,0.6,3.8,1.4,4.8,2.5c1.1,1.1,1.6,2.5,1.6,4.3c0,4.6-3.7,6.9-11.2,6.9c-1.8,0-3.6-0.2-5.4-0.7
		c-1.9-0.4-3.5-1.1-4.8-2l3-5.3c2.2,1.1,4.4,1.7,6.7,1.7c2.3,0,3.4-0.4,3.4-1.2c0-0.3-0.2-0.6-0.6-0.8c-0.4-0.2-1.1-0.4-2.2-0.6
		c-3.2-0.6-5.6-1.5-7.1-2.6s-2.3-2.7-2.3-4.7c0-2.1,0.8-3.7,2.5-4.9c1.7-1.2,4-1.8,7-1.8c4.3,0,7.6,0.8,10.2,2.3l-3,5.3
		C233.7,350.8,231.6,350.4,229.4,350.4z"/>
</g>
</svg>
