<?xml version="1.0" encoding="utf-8"?>
<!-- Generator: Adobe Illustrator 19.0.0, SVG Export Plug-In . SVG Version: 6.00 Build 0)  -->
<svg version="1.1" id="Layer_1" xmlns="http://www.w3.org/2000/svg" xmlns:xlink="http://www.w3.org/1999/xlink" x="0px" y="0px"
	 viewBox="-324 326 50 50" style="enable-background:new -324 326 50 50;" xml:space="preserve">
<style type="text/css">
	.st0{fill-rule:evenodd;clip-rule:evenodd;fill:#0F1942;}
</style>
<path id="XMLID_15_" class="st0" d="M-292.6,350.7l-10.7,5.8v-8.9v-2.7l4.8,2.6L-292.6,350.7z M-279.7,342.8c0,0-0.4-2.9-1.6-4.1
	c-1.5-1.7-3.2-1.7-4-1.8c-5.6-0.4-13.9-0.4-13.9-0.4h0c0,0-8.3,0-13.9,0.4c-0.8,0.1-2.5,0.1-4,1.8c-1.2,1.3-1.6,4.1-1.6,4.1
	s-0.4,3.4-0.4,6.7v0.4v2.7c0,3.4,0.4,6.7,0.4,6.7s0.4,2.9,1.6,4.1c1.5,1.7,3.5,1.6,4.4,1.8c3.2,0.3,13.5,0.4,13.5,0.4
	s8.4,0,13.9-0.4c0.8-0.1,2.5-0.1,4-1.8c1.2-1.3,1.6-4.1,1.6-4.1s0.4-3.4,0.4-6.7v-2.6v-0.6C-279.3,346.1-279.7,342.8-279.7,342.8
	L-279.7,342.8z"/>
</svg>
