<?xml version="1.0" encoding="utf-8"?>
<!-- Generator: Adobe Illustrator 19.0.0, SVG Export Plug-In . SVG Version: 6.00 Build 0)  -->
<svg version="1.1" id="Layer_1" xmlns="http://www.w3.org/2000/svg" xmlns:xlink="http://www.w3.org/1999/xlink" x="0px" y="0px"
	 viewBox="0 0 228 228" style="enable-background:new 0 0 228 228;" xml:space="preserve">
<style type="text/css">
	.st0{opacity:0.8;}
	.st1{fill:#68637E;}
</style>
<g id="XMLID_13_" class="st0">
	<path id="XMLID_11_" class="st1" d="M114,228C51.1,228,0,176.9,0,114C0,51.1,51.1,0,114,0c62.9,0,114,51.1,114,114
		C228,176.9,176.9,228,114,228z M114,10C56.7,10,10,56.7,10,114s46.7,104,104,104s104-46.7,104-104S171.3,10,114,10z"/>
</g>
<g id="XMLID_12_" class="st0">
	<path id="XMLID_10_" class="st1" d="M114,50c-2.8,0-5-2.2-5-5V5c0-2.8,2.2-5,5-5c2.8,0,5,2.2,5,5v40C119,47.8,116.8,50,114,50z"/>
</g>
<g id="XMLID_4_" class="st0">
	<g id="XMLID_6_">
		<path id="XMLID_9_" class="st1" d="M221.4,119h-40c-2.8,0-5-2.2-5-5c0-2.8,2.2-5,5-5h40c2.8,0,5,2.2,5,5
			C226.4,116.8,224.2,119,221.4,119z"/>
	</g>
	<g id="XMLID_5_">
		<path id="XMLID_8_" class="st1" d="M45.9,119h-40c-2.8,0-5-2.2-5-5c0-2.8,2.2-5,5-5h40c2.8,0,5,2.2,5,5
			C50.9,116.8,48.7,119,45.9,119z"/>
	</g>
</g>
<g id="XMLID_3_" class="st0">
	<path id="XMLID_7_" class="st1" d="M133.4,136.9c-1.1,0-2.2-0.4-3.1-1.1l-23.1-18.5c-2.1-1.7-2.5-4.9-0.8-7L142.3,65
		c1.7-2.2,4.9-2.5,7-0.8c2.2,1.7,2.5,4.9,0.8,7l-32.8,41.4l19.2,15.4c2.2,1.7,2.5,4.9,0.8,7C136.3,136.3,134.9,136.9,133.4,136.9z"
		/>
</g>
</svg>
