<?xml version="1.0" encoding="utf-8"?>
<!-- Generator: Adobe Illustrator 19.0.0, SVG Export Plug-In . SVG Version: 6.00 Build 0)  -->
<svg version="1.1" id="Layer_1" xmlns="http://www.w3.org/2000/svg" xmlns:xlink="http://www.w3.org/1999/xlink" x="0px" y="0px"
	 viewBox="0 0 280 80" enable-background="new 0 0 280 80" xml:space="preserve">
<polygon fill="#FABA20" points="186.2,11.3 186.2,50.2 208.1,50.2 208.1,44.4 192.6,44.4 192.6,11.3 "/>
<g>
	<defs>
		<rect id="SVGID_1_" x="17.3" y="10.6" width="245.4" height="58.7"/>
	</defs>
	<clipPath id="SVGID_2_">
		<use xlink:href="#SVGID_1_"  overflow="visible"/>
	</clipPath>
	<path clip-path="url(#SVGID_2_)" fill="#FABA20" d="M210.3,39.1c0,5.4,1.3,11.5,10.6,11.5c0.9,0,4.2-0.2,7.3-1.9l0.4,1.4h5V23.2
		c-3.9-1.2-7.2-1.6-11.2-1.6c-11.7,0-12.1,7.4-12.1,11.4V39.1z M216.7,33.2c0-4.3,1-6.1,5.6-6.1c1.3,0,3.5,0.2,5,0.4v16.7
		c-1.4,0.5-3.7,0.9-5,0.9c-4.5,0-5.5-1.6-5.6-5.9V33.2z"/>
	<path clip-path="url(#SVGID_2_)" fill="#FABA20" d="M245.4,27.8c1.3-0.4,3.5-0.7,5.4-0.7c3.9,0,5.6,1.1,5.6,5.9v6.2
		c0,4.3-1.1,5.9-5.6,5.9c-0.8,0-3.7-0.1-5.4-0.3V27.8z M251.7,21.7c-2.9,0-4.8,0.5-6.2,0.9V11.2h-6.3v38.6c4.5,0.7,9.4,0.8,11.6,0.8
		c10.8,0,12-6.2,12-11.7v-5.9C262.7,27,260.5,21.8,251.7,21.7"/>
	<path clip-path="url(#SVGID_2_)" fill="#4A4A49" d="M77.5,59.9c0.2-0.4,0.3-0.9,0.5-1.4c0.2,0.6,0.4,1.1,0.5,1.4l1.6,4.3h-4.3
		L77.5,59.9z M82,69.2H83l-4.7-12h-0.5l-4.8,12h0.9l1.7-4.2h4.9L82,69.2z M71.2,69.2v-0.8h-5.7v-4.2l3-1.9l-0.4-0.6l-2.6,1.7v-6.1
		h-0.8v6.6l-1.5,0.9l0.3,0.6l1.1-0.7v4.5H71.2z M52,59.3c0.8-0.9,1.9-1.4,3.3-1.4c1.4,0,2.5,0.5,3.3,1.4c0.8,0.9,1.1,2.2,1.1,4
		c0,1.7-0.4,3.1-1.1,4c-0.8,0.9-1.9,1.4-3.3,1.4c-1.4,0-2.5-0.5-3.3-1.4c-0.8-0.9-1.1-2.3-1.1-4C50.8,61.5,51.2,60.2,52,59.3
		 M59.2,58.7c-0.9-1.1-2.2-1.6-3.9-1.6c-1.7,0-3,0.5-3.9,1.6c-1,1.1-1.4,2.6-1.4,4.5c0,1.9,0.5,3.4,1.4,4.5c0.9,1.1,2.3,1.7,3.9,1.7
		c1.7,0,3-0.6,3.9-1.7c0.9-1.1,1.4-2.6,1.4-4.5C60.6,61.3,60.1,59.8,59.2,58.7 M42.5,62.3l4.9-5h-1.1l-4.7,4.9l-1.3,1.3v-6.2h-0.8
		v11.9h0.8v-4.9l1.6-1.4l4.6,6.3h1L42.5,62.3z M35.8,68.4h-7.2l7-10.5v-0.6h-7.8V58h6.7l-7,10.5v0.6h8.3V68.4z M24.4,64.7
		c-0.2-0.4-0.6-0.7-1-1c-0.5-0.3-1.2-0.6-2.1-0.9c-0.9-0.3-1.5-0.6-1.9-0.8c-0.4-0.2-0.6-0.5-0.8-0.8c-0.2-0.3-0.2-0.6-0.2-1.1
		c0-0.7,0.3-1.3,0.8-1.7c0.5-0.4,1.2-0.6,2.1-0.6c0.9,0,1.9,0.2,2.8,0.6l0.3-0.7c-1-0.4-2-0.6-3.2-0.6c-1.1,0-2,0.3-2.7,0.8
		c-0.7,0.6-1.1,1.3-1.1,2.2c0,0.8,0.2,1.5,0.7,1.9c0.5,0.5,1.3,0.9,2.5,1.4c0.8,0.3,1.5,0.5,1.9,0.8c0.4,0.2,0.7,0.5,0.9,0.8
		c0.2,0.3,0.3,0.7,0.3,1.1c0,0.7-0.3,1.3-0.9,1.8c-0.6,0.4-1.4,0.7-2.3,0.7c-1.3,0-2.4-0.2-3.3-0.5v0.8c0.8,0.3,1.9,0.5,3.4,0.5
		c1.2,0,2.2-0.3,2.9-0.9c0.7-0.6,1.1-1.4,1.1-2.4C24.7,65.6,24.6,65.1,24.4,64.7"/>
	<path clip-path="url(#SVGID_2_)" fill="#4A4A49" d="M257.2,59.9c0.2-0.4,0.3-0.9,0.5-1.4c0.2,0.6,0.4,1.1,0.5,1.4l1.6,4.3h-4.3
		L257.2,59.9z M261.8,69.2h0.9l-4.7-12h-0.5l-4.8,12h0.9l1.7-4.2h4.9L261.8,69.2z M249.6,57.2h-0.8v11.9h0.8V57.2z M244.1,57.2h-0.8
		V65c0,0.9,0,1.8,0.1,2.8h-0.1l-7.1-10.6h-0.8v11.9h0.8v-7.7c0-0.6,0-1.6-0.1-2.9h0.1l7.1,10.6h0.8V57.2z M226.9,59.9
		c0.2-0.4,0.3-0.9,0.5-1.4c0.2,0.6,0.4,1.1,0.5,1.4l1.6,4.3h-4.3L226.9,59.9z M231.4,69.2h0.9l-4.7-12h-0.5l-4.8,12h0.9l1.7-4.2h4.9
		L231.4,69.2z M220.6,57.2h-0.8c-1.6,5.8-2.4,8.9-2.5,9.4c-0.1,0.4-0.2,0.9-0.3,1.3c-0.1-0.6-0.3-1.4-0.6-2.3l-2.4-8.3H213l-2,7.2
		c-0.4,1.5-0.7,2.6-0.8,3.4c0-0.2-0.1-0.4-0.1-0.6c0-0.2-0.1-0.4-0.2-0.7c-0.1-0.2-0.1-0.5-0.2-0.7c-0.1-0.3-0.1-0.6-0.2-0.9
		l-2.1-7.7h-0.9l3.3,11.9h0.7c1.6-5.7,2.5-8.8,2.6-9.4c0.2-0.6,0.3-1.2,0.4-1.6c0.1,0.5,0.3,1.1,0.5,1.9l2.6,9.2h0.7L220.6,57.2z
		 M195.1,59.3c0.8-0.9,1.9-1.4,3.3-1.4c1.4,0,2.5,0.5,3.3,1.4c0.8,0.9,1.1,2.2,1.1,4c0,1.7-0.4,3.1-1.1,4c-0.8,0.9-1.9,1.4-3.3,1.4
		c-1.4,0-2.5-0.5-3.3-1.4c-0.8-0.9-1.1-2.3-1.1-4C193.9,61.5,194.3,60.2,195.1,59.3 M202.3,58.7c-0.9-1.1-2.2-1.6-3.9-1.6
		c-1.7,0-3,0.5-3.9,1.6c-1,1.1-1.4,2.6-1.4,4.5c0,1.9,0.5,3.4,1.4,4.5c0.9,1.1,2.3,1.7,3.9,1.7c1.7,0,3-0.6,3.9-1.7
		c0.9-1.1,1.4-2.6,1.4-4.5C203.7,61.3,203.2,59.8,202.3,58.7 M183.7,69.2l4.5-11h0.1c-0.1,0.7-0.1,1.3-0.1,2v9h0.8V57.2h-1.3
		l-4.2,10.5h0l-4.2-10.5h-1.3v11.9h0.8v-9c0-0.7,0-1.4-0.1-2.1h0.1l4.5,11H183.7z M169.4,59.9c0.2-0.4,0.3-0.9,0.5-1.4
		c0.2,0.6,0.4,1.1,0.5,1.4l1.6,4.3h-4.3L169.4,59.9z M173.9,69.2h0.9l-4.7-12h-0.5l-4.8,12h0.9l1.7-4.2h4.9L173.9,69.2z M156,58h2
		c1.2,0,2.1,0.2,2.7,0.6c0.5,0.4,0.8,1.1,0.8,2c0,0.9-0.3,1.5-0.8,2c-0.6,0.4-1.3,0.7-2.3,0.7H156V58z M159,64l3.1,5.2h1l-3.2-5.4
		c0.9-0.2,1.5-0.6,1.9-1.2c0.4-0.5,0.6-1.2,0.6-2c0-1.1-0.4-1.9-1.1-2.5c-0.7-0.5-1.8-0.8-3.3-0.8h-2.8v11.9h0.8V64H159z M146.5,64
		h3.6v4.2c-0.8,0.3-1.7,0.5-2.8,0.5c-1.7,0-3-0.5-3.9-1.4c-0.9-0.9-1.3-2.3-1.3-4.1c0-1.7,0.5-3,1.4-3.9c0.9-1,2.2-1.5,3.7-1.5
		c1.1,0,2.2,0.2,3.2,0.7l0.3-0.8c-1-0.5-2.2-0.7-3.5-0.7c-1.2,0-2.3,0.3-3.2,0.8c-0.9,0.5-1.6,1.2-2.1,2.2c-0.5,0.9-0.7,2-0.7,3.2
		c0,1.9,0.5,3.5,1.5,4.5c1,1.1,2.4,1.6,4.3,1.6c1.4,0,2.7-0.2,3.9-0.7v-5.4h-4.4V64z M129.1,59.3c0.8-0.9,1.9-1.4,3.3-1.4
		c1.4,0,2.5,0.5,3.3,1.4c0.8,0.9,1.1,2.2,1.1,4c0,1.7-0.4,3.1-1.1,4c-0.8,0.9-1.9,1.4-3.3,1.4c-1.4,0-2.5-0.5-3.3-1.4
		c-0.8-0.9-1.1-2.3-1.1-4C127.9,61.5,128.3,60.2,129.1,59.3 M136.3,58.7c-0.9-1.1-2.2-1.6-3.9-1.6c-1.7,0-3,0.5-3.9,1.6
		c-1,1.1-1.4,2.6-1.4,4.5c0,1.9,0.5,3.4,1.4,4.5c0.9,1.1,2.3,1.7,3.9,1.7c1.7,0,3-0.6,3.9-1.7c0.9-1.1,1.4-2.6,1.4-4.5
		C137.7,61.3,137.2,59.8,136.3,58.7 M117.2,58h2c1.2,0,2.1,0.2,2.7,0.6c0.5,0.4,0.8,1.1,0.8,2c0,0.9-0.3,1.5-0.8,2
		c-0.6,0.4-1.3,0.7-2.3,0.7h-2.3V58z M120.2,64l3.1,5.2h1l-3.2-5.4c0.9-0.2,1.5-0.6,1.9-1.2c0.4-0.5,0.6-1.2,0.6-2
		c0-1.1-0.4-1.9-1.1-2.5c-0.7-0.5-1.8-0.8-3.3-0.8h-2.8v11.9h0.8V64H120.2z M106.1,58h2c1.2,0,2.1,0.2,2.6,0.7
		c0.6,0.4,0.8,1.1,0.8,2c0,1-0.3,1.7-0.9,2.2c-0.6,0.4-1.6,0.7-2.9,0.7h-1.6V58z M108.2,57.2h-2.9v11.9h0.8v-4.9h1.8
		c1.4,0,2.5-0.3,3.3-0.9c0.8-0.6,1.2-1.5,1.2-2.7C112.4,58.4,111,57.2,108.2,57.2"/>
	<path clip-path="url(#SVGID_2_)" fill="#4A4A49" d="M17.3,35.5c0,5.2,0.4,15.1,15.9,15.1c4.1,0,7.4-0.5,10.2-1v-5.6
		c-2.5,0.4-6.4,0.9-10.2,0.9c-8.1,0-9.5-4.1-9.5-9.4V26c0-5.5,1.5-9.6,9.5-9.6c3.9,0,7.7,0.5,10.2,0.9v-5.6c-2.8-0.5-6-1-10.2-1
		c-15.5,0-15.9,9.9-15.9,15.1V35.5z"/>
	<path clip-path="url(#SVGID_2_)" fill="#4A4A49" d="M71.2,32.9c0-3.9-0.3-11.4-12.3-11.4c-12.1,0-12.4,7.5-12.4,11.4v6.2
		c0,3.9,0.3,11.4,12.4,11.4c12.1,0,12.3-7.4,12.3-11.4V32.9z M64.9,39.2c-0.1,4.8-1.8,5.9-6,5.9c-4,0-6.1-1-6.1-5.9v-6.2
		c0-4.8,1.9-5.9,6.1-5.9c4.1,0,6,1,6,5.9V39.2z"/>
	<path clip-path="url(#SVGID_2_)" fill="#4A4A49" d="M92.8,44.3c-1.5,0.4-4,0.8-5.4,0.8c-4.5,0-5.6-1.6-5.6-5.9V33
		c0-4.8,1.7-5.9,5.6-5.9c2.2,0,4,0.3,5.4,0.7V44.3z M86.5,21.5c-8.9,0.2-11.1,5.4-11.1,11.4v5.9c0,5.5,1.4,11.7,10.6,11.7
		c0.8,0,4.3-0.2,7.6-1.9l0.4,1.4h5V11.1h-6.3v11.3C91.3,22,89.5,21.5,86.5,21.5"/>
	<path clip-path="url(#SVGID_2_)" fill="#4A4A49" d="M126.9,37.8c0.2-1.7,0.3-3.2,0.3-4.5c0-9.3-4.2-11.8-11-11.8
		c-7.6,0-12.2,2.4-12.2,14.6c0,10.5,3.1,14.4,13.4,14.4c2.9,0,6-0.5,7.9-1v-5.3c-2,0.5-6.2,0.8-7.4,0.8c-4.2,0-7.6-0.4-7.6-7.3
		H126.9z M110.2,33.2c0.4-5,2.5-6.2,5.8-6.2c3,0,5,1.2,5,5c0,0.4,0,0.8-0.1,1.2H110.2z"/>
	<path clip-path="url(#SVGID_2_)" fill="#4A4A49" d="M136.4,22.5h-5.1v28h6.3V29.7c2.9-1.1,7.6-1.4,9.6-1.5V22
		c-3.5,0.1-6.9,1.8-10.1,3L136.4,22.5z"/>
	<path clip-path="url(#SVGID_2_)" fill="#4A4A49" d="M149.7,48.8c3.1,1.1,6.1,1.6,8.6,1.6c8.5,0,11.3-2.2,11.3-8.1
		c0-3.9-1.3-5.8-5-7.7l-6.2-3.2c-1.4-0.8-1.9-1-1.9-2.4c0-1.3,0.7-2.1,4.6-2.1c0.3,0,4.5,0.1,7.3,1.1v-5.5c-2.7-1-5.8-1.2-7.1-1.2
		c-8.8,0-11.1,2.5-11.1,7.5c0,4.2,1.5,6,5.6,8l4.9,2.5c1.4,0.7,2.6,1.4,2.6,3c0,2.1-0.9,2.6-5,2.6c-2.1,0-5.4-0.5-8.6-1.9V48.8z"/>
</g>
</svg>
