<svg xmlns="http://www.w3.org/2000/svg" viewBox="0 0 2415 710.9">
  <style>
    .st0{fill:none;stroke:#F15F5F;stroke-width:4;stroke-miterlimit:10;} .st1{fill:#F15F5F;}
  </style>
  <g id="Layer_1">
    <path class="st0" d="M1208.3 546.7H963.1v-93.6h245.2z"/>
    <path class="st0" d="M975.9 465.7H996v14.2h-20.1zM1009 465.7h20.1v14.2H1009zM1042.2 465.7h20.1v14.2h-20.1zM1075.3 465.7h20.1v14.2h-20.1zM1108.4 465.7h20.1v14.2h-20.1zM1141.6 465.7h20.1v14.2h-20.1zM1174.7 465.7h20.1v14.2h-20.1zM975.9 491.3H996v14.2h-20.1zM1009 491.3h20.1v14.2H1009zM1042.2 491.3h20.1v14.2h-20.1zM1075.3 491.3h20.1v14.2h-20.1zM1108.4 491.3h20.1v14.2h-20.1zM1141.6 491.3h20.1v14.2h-20.1zM1174.7 491.3h20.1v14.2h-20.1zM976.2 516.8h86.1V531h-86.1zM1075.7 516.8h20.1V531h-20.1zM1108.8 516.8h20.1V531h-20.1zM1141.9 516.8h20.1V531h-20.1zM1175.1 516.8h20.1V531h-20.1z"/>
    <path id="XMLID_71_" class="st0" d="M1004.1 162h96.3v120.7h-96.3z"/>
    <path id="XMLID_70_" class="st0" d="M1017.3 175.7h70v75.8h-70z"/>
    <path id="XMLID_69_" class="st0" d="M1017.3 249.6l19.8-31.7 15.1 13.4 16-28.7 19.1 18.7"/>
    <circle id="XMLID_68_" class="st0" cx="1034.8" cy="192.7" r="6.4"/>
    <path id="XMLID_96_" class="st0" d="M1234.3 536.2h42.3"/>
    <path id="XMLID_95_" class="st0" d="M1234.3 547.4h42.3"/>
    <path id="XMLID_94_" class="st0" d="M1234.3 558.5h42.3"/>
    <path id="XMLID_93_" class="st0" d="M1234.3 569.7h42.3"/>
    <path id="XMLID_92_" class="st0" d="M1299.5 536.8h26.7"/>
    <path id="XMLID_91_" class="st0" d="M1299.5 547.9h26.7"/>
    <path id="XMLID_90_" class="st0" d="M1299.5 559.1h26.7"/>
    <path id="XMLID_89_" class="st0" d="M1299.5 570.2h41"/>
    <path id="XMLID_88_" class="st0" d="M1223.4 514.7h63.4v88.7h-63.4z"/>
    <path id="XMLID_87_" class="st0" d="M1286.7 514.7h63.4v88.7h-63.4z"/>
    <path id="XMLID_86_" class="st0" d="M1248 514.7c-13.6 0-24.7 9.5-24.7 21.3"/>
    <path id="XMLID_81_" class="st0" d="M1326.2 514.9h14.3v46.6h-14.3z"/>
    <path id="XMLID_79_" class="st0" d="M1349.4 521.1h11.2v93.7h-133.7v-6.1"/>
    <path id="XMLID_78_" class="st0" d="M1226.9 610.3v-6.9"/>
    <path class="st0" d="M1241.7 297l-16.2 16.3 16.6 16.6M1253.8 338.2l24.5-49.6M1289.9 329.9l16.3-16.3-16.7-16.6"/>
    <path id="XMLID_113_" class="st0" d="M817.9 609.7l-3.7 9.7-89.8-34.4 18.7-48.6 8.2 3.2"/>
    <path id="XMLID_112_" class="st0" d="M751.3 539.6l81.5 31.2-14.9 38.9"/>
    <circle id="XMLID_111_" class="st0" cx="778.6" cy="577.9" r="13.5"/>
    <path id="XMLID_109_" class="st0" d="M740.5 548.9c5.6 2.1 11.9-.6 14-6.3"/>
    <path id="XMLID_108_" class="st0" d="M816.9 605.9c-5.6-2.1-11.9.6-14 6.3"/>
    <path id="XMLID_107_" class="st0" d="M752 539.8l3.7-9.7 89.7 34.4-18.6 48.6-8.9-3.4"/>
    <path id="XMLID_106_" class="st0" d="M766 533.8l3.8-9.7 89.7 34.4-18.6 48.6-8.9-3.4"/>
    <path id="XMLID_118_" class="st0" d="M873 287.9l-13.1-24c3.2-6 5-12.7 5-19.7 0-26.5-25.6-48-57.1-48-31.6 0-57.1 21.5-57.1 48s25.6 48 57.1 48c14.7 0 28.2-4.7 38.3-12.4l26.9 8.1z"/>
    <g id="XMLID_114_">
      <circle id="XMLID_117_" class="st0" cx="781.1" cy="244.9" r="5.5"/>
      <circle id="XMLID_116_" class="st0" cx="806.3" cy="244.9" r="5.5"/>
      <circle id="XMLID_115_" class="st0" cx="831.4" cy="244.9" r="5.5"/>
    </g>
    <path id="XMLID_128_" class="st0" d="M1593.8 607.2h77v14h-77z"/>
    <path id="XMLID_127_" class="st0" d="M1670.8 607.2l16.9 7-16.9 7"/>
    <path id="XMLID_126_" class="st0" d="M1592.3 621.2h-4.9c-2.1 0-3.8-1.7-3.8-3.8V611c0-2.1 1.7-3.8 3.8-3.8h4.9"/>
    <path class="st0" d="M731.7 403.9c-3-7.7-10-12.6-17.5-13.2l7.5 19.2c.6 1.4-.2 3.1-1.6 3.6l-10.6 4.1c-1.4.6-3.1-.2-3.6-1.6l-7.5-19.2c-5.1 5.5-6.9 13.9-3.9 21.5 3.6 9.3 11.7 15 20.9 13.5l25.9 66.3 10.1-4-25.9-66.1c7.8-5.1 9.8-14.8 6.2-24.1zM776.8 398v42.5M771.3 440.1h10.9v47.6h-10.9zM780.1 376.2h-7.8l-2.9 20.4h14.7z"/>
    <path id="XMLID_174_" class="st0" d="M1082.7 62.9c-28.8-1.7-53.3 16.6-54.7 40.7-.3 4.4.3 8.8 1.5 12.9l-14.7 19.3 25.1-2c9 9.3 22.5 15.6 37.8 16.5 28.8 1.7 53.3-16.6 54.7-40.7 1.4-24.1-20.8-45-49.7-46.7z"/>
    <path id="XMLID_173_" class="st0" d="M1058.9 91.3l12.4 1.8"/>
    <path id="XMLID_172_" class="st0" d="M1077.9 94.1l29.9 4.3"/>
    <path id="XMLID_171_" class="st0" d="M1052.3 102.6l29.7 4.3"/>
    <path id="XMLID_169_" class="st0" d="M1108.9 110.8l-20-2.9"/>
    <path id="XMLID_168_" class="st0" d="M1055.4 114.9l34 4.9"/>
    <path id="XMLID_167_" class="st0" d="M1096 120.8l6.8 1"/>
    <path id="XMLID_176_" class="st0" d="M953.6 359.5h100.9v64.3H953.6z"/>
    <path id="XMLID_175_" class="st0" d="M953.6 359.5l50.5 26.2 50.4-26.2"/>
    <circle id="XMLID_180_" class="st0" cx="815.8" cy="345.7" r="26.2"/>
    <path id="XMLID_179_" class="st0" d="M842 345.7c3.6-4.2 9-6.8 15-6.8 5.4 0 10.3 2.2 13.9 5.6"/>
    <circle id="XMLID_178_" class="st0" cx="897.1" cy="345.7" r="26.2"/>
    <path id="XMLID_177_" class="st0" d="M815.4 331.7c-7.9 0-14.4 6.4-14.4 14.4"/>
    <path id="XMLID_190_" class="st0" d="M744.1 350.2v-65.9h-3.2c-7.2 3-16.3 4.7-26.2 4.7-9.9 0-19-1.8-26.2-4.7h-3.2v64.8"/>
    <path id="XMLID_189_" class="st0" d="M744.1 339.7c1.9.4 3.9.9 5.9 1.4.4.1 1.2.3 2.2.7 6.1 2.2 13.9 7.2 13.9 10.7 0 8.7-23.1 15.7-51.5 15.7s-51.5-7-51.5-15.7c0-4.2 6.7-8.6 15.5-11.4 2.9-1.1 5.3-1.8 6.5-2.1"/>
    <path id="XMLID_188_" class="st0" d="M744.1 313.3v-31.4c-7.7-3.9-18.1-6.2-29.5-6.2s-21.8 2.4-29.5 6.2v31.4"/>
    <path id="XMLID_187_" class="st0" d="M745 302.9c1.1-.7 2.4-1 3.7-1 5.2 0 9.5 5.8 9.5 12.9s-4.2 12.9-9.5 12.9c-1.7 0-3.3-.6-4.6-1.6"/>
    <path id="XMLID_186_" class="st0" d="M685.1 317.7v31.4c7.7 3.9 18.1 6.2 29.5 6.2 11.4 0 21.8-2.4 29.5-6.2v-31.4"/>
    <path class="st0" d="M731 214.1c0 6.4-12 6.4-12 12.9 0 6.4 12 6.4 12 12.9 0 6.4-12 6.4-12 12.9 0 6.4 12 6.4 12 12.9" id="XMLID_184_"/>
    <path id="XMLID_183_" class="st0" d="M696.1 326.1v-28.2"/>
    <path class="st0" d="M706.1 192.5c0 8.2-12 8.2-12 16.4s12 8.2 12 16.4-12 8.2-12 16.4 12 8.2 12 16.4" id="XMLID_181_"/>
    <path class="st0" d="M638.9 134l-16.3 16.3 16.7 16.6M650.9 175.2l24.5-49.6M687.1 166.9l16.3-16.3-16.7-16.6M631.6 252.7H647V346h-15.4zM639.3 239.7l6 11.4h-12zM631.6 335.3H647M639.3 239.7v-7"/>
    <path id="XMLID_212_" class="st0" d="M973 595.5h72.1v53.2H973z"/>
    <path id="XMLID_209_" class="st0" d="M991.9 595.7v-13.5c0-9.5 7.7-17.1 17.1-17.1s17.1 7.7 17.1 17.1v13.5"/>
    <path id="XMLID_208_" class="st0" d="M1015.2 635l-5-17.4c1.8-.5 3.1-2.2 3.1-4.1 0-2.4-1.9-4.3-4.3-4.3s-4.3 1.9-4.3 4.3c0 2 1.3 3.6 3.1 4.1l-5 17.4h12.4z"/>
    <path class="st0" d="M896.4 217.2H986v89.6h-89.6zM910.6 235.5h61.1M910.6 251.1h61.1M910.6 266.8h61.1M1402.8 567.7h-18.2v-16.9h18.2zM1394 562.3v-11.5"/>
    <path id="XMLID_218_" class="st0" d="M622.3 587.8V703h79v-93.9l-24.2-21.3z"/>
    <path id="XMLID_217_" class="st0" d="M677.1 587.8v23.3h24.2"/>
    <path id="XMLID_216_" class="st0" d="M701.3 691.8h10.9v-93.9l-24.1-21.3h-54.9v13"/>
    <path class="st0" d="M752 52.3h215.1V182H752z"/>
    <path class="st0" d="M859.8 66.1h94.8v101h-94.8zM765.5 66.1h80.3v101.4h-80.3zM767.2 67.4l77.2 100.1M765.5 167.5l80.3-101.4"/>
    <g>
      <path class="st0" d="M752 50.4V39.7c0-4.4 3.6-8 8-8h199c4.4 0 8 3.6 8 8v13.2"/>
    </g>
    <circle class="st1" cx="765.6" cy="42.5" r="4.2"/>
    <circle class="st1" cx="779" cy="42.5" r="4.2"/>
    <circle class="st1" cx="792.4" cy="42.5" r="4.2"/>
    <path class="st0" d="M930.6 478.1H946v93.3h-15.4zM930.5 560.7h15.4"/>
    <g>
      <path class="st0" d="M938 465.7l6.3 12.5h-11.8zM938 465v-7"/>
    </g>
    <g>
      <path class="st0" d="M1090.9 453.1V347c0-4.4 3.6-8 8-8h61.5c4.4 0 8-3.6 8-8v-61c0-4.4 3.6-8 8-8h23.9c4.4 0 8-3.6 8-8v-93c0-4.4-3.6-8-8-8h-19.1c-4.4 0-8-3.6-8-8v-15.6c0-4.4 3.6-8 8-8h5.9c4.4 0 8 3.6 8 8v38.3c0 4.4-3.6 8-8 8h-37.3c-4.4 0-8-3.6-8-8V15.4"/>
    </g>
    <path id="XMLID_312_" class="st0" d="M574.3 457.5h134.6v102.6H574.3z"/>
    <path id="XMLID_286_" class="st0" d="M589.5 470.5h54.2V545h-54.2z"/>
    <path id="XMLID_239_" class="st0" d="M589.5 470.5l54.2 74.5"/>
    <path id="XMLID_235_" class="st0" d="M643.7 470.5L589.5 545"/>
    <path id="XMLID_227_" class="st0" d="M654.4 529.9h42.2v14.9h-42.2z"/>
    <path id="XMLID_225_" class="st0" d="M654.4 470.7h42.2"/>
    <path id="XMLID_222_" class="st0" d="M654.4 481.8h42.2"/>
    <path id="XMLID_221_" class="st0" d="M654.4 493h42.2"/>
    <path id="XMLID_48_" class="st0" d="M654.4 504.1h42.2"/>
    <g>
      <path class="st0" d="M888.1 465.6c5.8 15.6-2.3 33-17.8 38.8l-5 1.8c-15.6 5.8-33-2.3-38.8-17.8l-11.4-30.9c-5.8-15.6 2.3-33 17.8-38.8l5-1.8c15.6-5.8 33 2.3 38.8 17.8l11.4 30.9z"/>
      <path class="st0" d="M835.14 433.223l10.693-3.953 6.138 16.602-10.692 3.954zM846.6 447.8l4.4 12M820.2 471.2l61.6-22.7M835.5 417.8l4.4 12"/>
    </g>
    <path class="st0" d="M1360.5 94.3l-16.3 16.3 16.7 16.7M1372.5 135.6l24.6-49.6"/>
    <g>
      <path class="st0" d="M1125.6 289.1l-4.5-19.1c-1.6-7 1.1-13.6 6.2-14.8 5-1.2 10.2 2.4 11.5 7.9s2.4 10.1 2.4 10.1M1143.4 282.7s.9 3.8 1.9 8.4-2.2 9.3-7.2 10.5-9.9-1.2-10.8-5.2c-.9-4-1.7-7.3-1.7-7.3"/>
      <path class="st0" d="M1126.1 251.9s-.7-3-1.6-6.6 2.5-7.6 7.6-8.8c5-1.2 9.9 1.1 10.9 5.2 1 4 2.3 9.6 3 12.3.7 2.7 2.2 8.7 3.3 13.3s-2.1 9.4-7.1 10.6c-5 1.2-9.9-1.1-10.9-5.2-1-4-2-8.3-2.3-9.6-.3-1.2-.5-2.3-.5-2.3"/>
    </g>
    <path class="st0" d="M1326.1 172.8h28.7v51.7h-28.7zM1349.6 172.8h-18.3v-16.9H1349.6zM1340.7 167.4v-11.5M880.8 584.2h31.1v61.1h-31.1zM906.3 584.2h-19.8v-18.3h19.8zM617 217.6v-12.5"/>
  </g>
  <g id="Layer_2">
    <path class="st0" d="M1295 193.7c0 5.5-4.5 10-10 10h-42.6c-5.5 0-10-4.5-10-10V97.8c0-5.5 4.5-10 10-10h42.6c5.5 0 10 4.5 10 10v95.9z" id="XMLID_34_"/>
    <path id="XMLID_29_" class="st0" d="M1295 180.3h-62.6"/>
    <circle id="XMLID_28_" class="st0" cx="1263.8" cy="192.3" r="2.8"/>
    <path id="XMLID_27_" class="st0" d="M1258.8 204.5h10v16.7h-10z"/>
    <path id="XMLID_24_" class="st0" d="M1261.1 109.8l14.7 27.3"/>
    <path id="XMLID_22_" class="st0" d="M1245.7 104.3L1272 153"/>
    <path id="XMLID_21_" class="st0" d="M1312.5 87.7c0-10-8.1-18.1-18.1-18.1"/>
    <path id="XMLID_7_" class="st0" d="M1325.8 82.9c0-14.7-11.9-26.6-26.6-26.6"/>
    <path class="st0" d="M1263.8 220.2v13.4c0 7.4 9 13.4 20 13.4h61.1c11 0 20 9 20 20v180c0 11-9 20-20 20h-136M1499.4 236.1h16.4v99h-16.4zM1507.6 222.3l6.4 12.2h-12.8zM1499.4 323.9h16.4M1507.6 222.3v-7.4M1610.2 206.6c0 16.6-13.6 30.2-30.2 30.2h-9.3c-16.6 0-30.2-13.6-30.2-30.2v-38.7c0-16.6 13.6-30.2 30.2-30.2h9.3c16.6 0 30.2 13.6 30.2 30.2v38.7z"/>
    <path class="st0" d="M1569.3 153h12.2v18.8h-12.2zM1575.4 171.8v13.5M1540.5 185.3h69.7M1575.4 137.7v13.6"/>
    <path id="XMLID_49_" class="st0" d="M1711.4 128.5l-13.1-24c3.2-6 5-12.7 5-19.7 0-26.5-25.6-48-57.1-48-31.6 0-57.1 21.5-57.1 48s25.6 48 57.1 48c14.7 0 28.2-4.7 38.3-12.4l26.9 8.1z"/>
    <g id="XMLID_35_">
      <circle id="XMLID_42_" class="st0" cx="1619.5" cy="85.5" r="5.5"/>
      <circle id="XMLID_37_" class="st0" cx="1644.7" cy="85.5" r="5.5"/>
      <circle id="XMLID_36_" class="st0" cx="1669.8" cy="85.5" r="5.5"/>
    </g>
    <path id="XMLID_62_" class="st0" d="M1435 442.7c-28.8 2.5-50.4 24.1-48.3 48.2.4 4.4 1.6 8.6 3.4 12.5l-11.8 21.3 24.5-5.6c10.3 7.9 24.5 12.3 39.8 10.9 28.8-2.5 50.4-24.1 48.3-48.2-2.1-24.1-27.2-41.6-55.9-39.1z"/>
    <path id="XMLID_61_" class="st0" d="M1408.4 474.2h12.6"/>
    <path id="XMLID_60_" class="st0" d="M1434.6 474.2h30.3"/>
    <path id="XMLID_55_" class="st0" d="M1410.5 486.3h30"/>
    <path id="XMLID_52_" class="st0" d="M1467.7 486.3h-20.2"/>
    <path id="XMLID_51_" class="st0" d="M1415.4 498h34.4"/>
    <path id="XMLID_50_" class="st0" d="M1456.5 498h6.8"/>
    <circle id="XMLID_67_" class="st0" cx="1594.5" cy="564.4" r="26.2"/>
    <path id="XMLID_65_" class="st0" d="M1620.7 564.4c3.6-4.2 9-6.8 15-6.8 5.4 0 10.3 2.2 13.9 5.6"/>
    <circle id="XMLID_64_" class="st0" cx="1675.9" cy="564.4" r="26.2"/>
    <path id="XMLID_63_" class="st0" d="M1594.1 550.4c-7.9 0-14.4 6.4-14.4 14.4"/>
    <path id="XMLID_122_" class="st0" d="M1613.83 280.563l64.146-9.208 9.364 65.234-64.145 9.207z"/>
    <path id="XMLID_121_" class="st0" d="M1679.4 281.8l10.1-1.4 9.4 65.2-64.1 9.2-1.5-10.6"/>
    <path id="XMLID_120_" class="st0" d="M1627.7 292.2l40.9-5.8"/>
    <path id="XMLID_119_" class="st0" d="M1629.4 304.7l41-5.9"/>
    <path class="st0" d="M1994.5 450.5c-1.2-8.2-6.8-14.5-14-16.8l2.9 20.4c.2 1.5-.8 2.9-2.4 3.2l-11.3 1.6c-1.5.2-3-.8-3.2-2.4l-2.9-20.4c-6.3 4.2-9.9 11.9-8.7 20.1 1.4 9.9 8 17.3 17.3 17.9l10.1 70.5 10.7-1.5-10.1-70.5c8.8-3.3 13-12.3 11.6-22.1zM1935.6 364.1l-16.3 16.3 16.7 16.7M1947.6 405.4l24.5-49.6M1983.8 397.1l16.3-16.3-16.7-16.7"/>
    <path id="XMLID_131_" class="st0" d="M1451.9 137h72.1v53.2h-72.1z"/>
    <path id="XMLID_130_" class="st0" d="M1470.9 137.1v-13.5c0-9.5 7.7-17.1 17.1-17.1 9.5 0 17.1 7.7 17.1 17.1v13.5"/>
    <path id="XMLID_129_" class="st0" d="M1494.2 176.5l-5-17.4c1.8-.5 3.1-2.2 3.1-4.1 0-2.4-1.9-4.3-4.3-4.3s-4.3 1.9-4.3 4.3c0 2 1.3 3.6 3.1 4.1l-5 17.4h12.4z"/>
    <path id="XMLID_138_" class="st0" d="M1546.8 518.6l-6.3 26.6c4.7 4.9 8.2 10.9 10 17.7 7 25.6-12 53-42.4 61.4-30.4 8.3-60.8-5.6-67.8-31.2s12-53 42.4-61.4c14.2-3.9 28.4-2.9 40.2 1.8l23.9-14.9z"/>
    <g id="XMLID_132_">
      <circle id="XMLID_135_" class="st0" cx="1469.5" cy="584.3" r="5.5"/>
      <circle id="XMLID_134_" class="st0" cx="1493.7" cy="577.7" r="5.5"/>
      <circle id="XMLID_133_" class="st0" cx="1518" cy="571" r="5.5"/>
    </g>
    <path id="XMLID_150_" class="st0" d="M1720.5 336.7h134.6v102.6h-134.6z"/>
    <path id="XMLID_147_" class="st0" d="M1735.7 349.6h54.2v74.5h-54.2z"/>
    <path id="XMLID_146_" class="st0" d="M1735.7 349.6l54.2 74.5"/>
    <path id="XMLID_145_" class="st0" d="M1789.9 349.6l-54.2 74.5"/>
    <path id="XMLID_144_" class="st0" d="M1800.6 409h42.2v14.9h-42.2z"/>
    <path id="XMLID_143_" class="st0" d="M1800.6 349.8h42.2"/>
    <path id="XMLID_142_" class="st0" d="M1800.6 361h42.2"/>
    <path id="XMLID_140_" class="st0" d="M1800.6 372.1h42.2"/>
    <path id="XMLID_139_" class="st0" d="M1800.6 383.3h42.2"/>
    <path id="XMLID_160_" class="st0" d="M1972.5 310l3.7 9.7-90.1 33.6-18.2-48.7 8.3-3.1"/>
    <path id="XMLID_159_" class="st0" d="M1876.2 301.5L1958 271l14.5 39"/>
    <circle id="XMLID_155_" class="st0" cx="1922" cy="312.2" r="13.5"/>
    <path id="XMLID_154_" class="st0" d="M1874.3 315.6c5.6-2.1 8.5-8.3 6.4-14"/>
    <path id="XMLID_153_" class="st0" d="M1969.2 307.8c-5.6 2.1-8.5 8.3-6.4 14"/>
    <path id="XMLID_152_" class="st0" d="M1876.8 301.2l-3.6-9.7 90.1-33.6 18.1 48.8-8.9 3.3"/>
    <path id="XMLID_151_" class="st0" d="M1883.4 287.4l-3.6-9.7 90-33.6 18.2 48.8-8.9 3.3"/>
    <path id="XMLID_166_" class="st0" d="M1512.5 360.9h96.3v120.7h-96.3z"/>
    <path id="XMLID_165_" class="st0" d="M1525.8 374.6h70v75.8h-70z"/>
    <path id="XMLID_164_" class="st0" d="M1525.8 448.5l19.7-31.6 15.2 13.3 15.9-28.7 19.1 18.7"/>
    <circle id="XMLID_163_" class="st0" cx="1543.3" cy="391.7" r="6.4"/>
    <path class="st0" d="M1649.7 158.1h244v93.2h-244z"/>
    <path class="st0" d="M1662.4 170.7h20v14.1h-20zM1695.4 170.7h20v14.1h-20zM1728.4 170.7h20v14.1h-20zM1761.4 170.7h20v14.1h-20zM1794.3 170.7h20v14.1h-20zM1827.3 170.7h20v14.1h-20zM1860.3 170.7h20v14.1h-20zM1662.4 196.2h20v14.1h-20zM1695.4 196.2h20v14.1h-20zM1728.4 196.2h20v14.1h-20zM1761.4 196.2h20v14.1h-20zM1794.3 196.2h20v14.1h-20zM1827.3 196.2h20v14.1h-20zM1860.3 196.2h20v14.1h-20zM1662.8 221.5h85.6v14.1h-85.6zM1761.7 221.5h20v14.1h-20zM1794.7 221.5h20v14.1h-20zM1827.6 221.5h20v14.1h-20zM1860.6 221.5h20v14.1h-20z"/>
    <g>
      <path class="st0" d="M1769.8 158.1l.2-48.7c.1-16.6 13.7-30.2 30.3-30.2h38.2c16.6 0 30.2-13.6 30.2-30.2V32.2c0-16.6 13.6-30.2 30.2-30.2h52.5"/>
    </g>
    <g>
      <path id="XMLID_215_" class="st0" d="M1974.1 112.5h18.5v101.8h-18.5z"/>
      <path id="XMLID_214_" class="st0" d="M1974.1 112.5l9.3-22.5 9.2 22.5"/>
      <path id="XMLID_213_" class="st0" d="M1992.6 216.2v6.4c0 2.8-2.3 5-5 5h-8.4c-2.8 0-5-2.3-5-5v-6.4"/>
    </g>
    <g>
      <path class="st0" d="M1690.7 489c-3.7 16.2-20 26.4-36.2 22.7l-5.2-1.2c-16.2-3.7-26.4-20-22.7-36.2l7.4-32.1c3.7-16.2 20-26.4 36.2-22.7l5.2 1.2c16.2 3.7 26.4 20 22.7 36.2l-7.4 32.1z"/>
      <path class="st0" d="M1664.11 432.92l11.11 2.553-3.962 17.25-11.11-2.552zM1665.7 451.4l-2.9 12.5M1630.9 456.5l63.9 14.7M1672.9 420.2l-2.9 12.5"/>
    </g>
    <path class="st0" d="M1379.4 567.7h28.7v51.7h-28.7zM1720.5 484.3h215.1V614h-215.1z"/>
    <path class="st0" d="M1828.3 498.1h94.8v101h-94.8zM1734 498.1h80.3v101.4H1734zM1735.7 499.4l77.3 100M1734 599.4l80.3-101.3"/>
    <g>
      <path class="st0" d="M1720.5 482.3v-10.7c0-4.4 3.6-8 8-8h199.1c4.4 0 8 3.6 8 8v13.2"/>
    </g>
    <circle class="st1" cx="1734.1" cy="474.4" r="4.2"/>
    <circle class="st1" cx="1747.6" cy="474.4" r="4.2"/>
    <circle class="st1" cx="1761" cy="474.4" r="4.2"/>
    <path class="st0" d="M1408.7 127.3L1425 111l-16.7-16.7"/>
    <circle id="XMLID_332_" class="st0" cx="1847.9" cy="116.8" r="26.2"/>
    <path id="XMLID_327_" class="st0" d="M1874.1 116.8c3.6-4.2 9-6.8 15-6.8 5.4 0 10.3 2.2 13.9 5.6"/>
    <circle id="XMLID_324_" class="st0" cx="1929.3" cy="116.8" r="26.2"/>
    <path id="XMLID_314_" class="st0" d="M1847.5 102.8c-7.9 0-14.4 6.4-14.4 14.4"/>
    <path class="st0" d="M1418.1 373.8l36.5 21.9M1451.374 400.03l5.614-9.344 40.803 24.514-5.613 9.343zM1401.2 359.7l-4 6.7 16 13 7.5-12.6zM1385.3 236.5h69.7v93.3h-69.7z"/>
    <g>
      <path class="st0" d="M1454.2 255.6c15.2 0 27.6 12.3 27.6 27.6s-12.3 27.6-27.6 27.6"/>
      <path class="st0" d="M1454.2 265.5c9.5 0 17.1 7.7 17.1 17.1s-7.7 17.1-17.1 17.1"/>
    </g>
    <g>
      <path class="st0" d="M1412.6 158.9c0 8-8 8-8 16s8 8 8 16-8 8-8 16 8 8 8 16"/>
    </g>
    <g>
      <path class="st0" d="M1431.6 139.8c0 9.4-8 9.4-8 18.8s8 9.4 8 18.8-8 9.4-8 18.8 8 9.4 8 18.8"/>
    </g>
    <g id="XMLID_206_">
      <path class="st0" d="M1166 698.9c0 5.5-4.5 10-10 10h-42.6c-5.5 0-10-4.5-10-10v-95.8c0-5.5 4.5-10 10-10h42.6c5.5 0 10 4.5 10 10v95.8z"/>
    </g>
    <path id="XMLID_203_" class="st0" d="M1166 685.5h-62.6"/>
    <circle id="XMLID_202_" class="st0" cx="1134.9" cy="697.5" r="2.8"/>
    <path id="XMLID_195_" class="st0" d="M1132.1 616l14.7 27.3"/>
    <path id="XMLID_193_" class="st0" d="M1116.7 610.5l26.4 48.7"/>
    <path id="XMLID_192_" class="st0" d="M1186.5 595.9c0-10-8.1-18.1-18.1-18.1"/>
    <path id="XMLID_191_" class="st0" d="M1199.8 591.1c0-14.7-11.9-26.6-26.6-26.6"/>
    <g>
      <path id="XMLID_370_" class="st0" d="M2167.4 606.2l3.7 9.8 89.7-34.4-18.6-48.7-8.3 3.2"/>
      <path id="XMLID_369_" class="st0" d="M2233.9 536.1l-81.4 31.3 14.9 38.8"/>
      <circle id="XMLID_368_" class="st0" cx="2206.6" cy="574.5" r="13.5"/>
      <path id="XMLID_367_" class="st0" d="M2244.7 545.4c-5.6 2.1-11.9-.6-14-6.3"/>
      <path id="XMLID_366_" class="st0" d="M2168.4 602.4c5.6-2.1 11.9.6 14 6.3"/>
      <path id="XMLID_365_" class="st0" d="M2233.3 536.4l-3.7-9.8-89.8 34.4 18.7 48.6 8.9-3.4"/>
      <path id="XMLID_364_" class="st0" d="M2219.2 530.4l-3.7-9.8-89.7 34.5 18.6 48.6 8.9-3.4"/>
    </g>
    <path id="XMLID_363_" class="st0" d="M2114.2 280.4l13.1-24c-3.2-6-5-12.7-5-19.7 0-26.5 25.6-48 57.1-48s57.1 21.5 57.1 48-25.6 48-57.1 48c-14.7 0-28.2-4.7-38.3-12.4l-26.9 8.1z"/>
    <g id="XMLID_359_">
      <circle id="XMLID_362_" class="st0" cx="2206.1" cy="237.4" r="5.5"/>
      <circle id="XMLID_361_" class="st0" cx="2181" cy="237.4" r="5.5"/>
      <circle id="XMLID_360_" class="st0" cx="2155.9" cy="237.4" r="5.5"/>
    </g>
    <path class="st0" d="M2253.6 400.4c3-7.7 10-12.6 17.5-13.2l-7.5 19.2c-.6 1.4.2 3.1 1.6 3.6l10.6 4.1c1.4.6 3.1-.2 3.6-1.6l7.5-19.2c5.1 5.5 6.9 13.9 3.9 21.5-3.6 9.3-11.7 15-20.9 13.5l-25.9 66.3-10.1-4 25.9-66.3c-7.8-4.9-9.8-14.6-6.2-23.9zM2208.5 394.5V437M2203.1 436.6h10.9v47.6h-10.9zM2205.2 372.8h7.8l2.8 20.3h-14.6z"/>
    <circle id="XMLID_358_" class="st0" cx="2171.5" cy="338.2" r="26.2"/>
    <path id="XMLID_357_" class="st0" d="M2145.3 338.2c-3.6-4.2-9-6.8-15-6.8-5.4 0-10.3 2.2-13.9 5.6"/>
    <circle id="XMLID_356_" class="st0" cx="2090.1" cy="338.2" r="26.2"/>
    <path id="XMLID_355_" class="st0" d="M2171.9 324.2c7.9 0 14.4 6.4 14.4 14.4"/>
    <path id="XMLID_354_" class="st0" d="M2243.2 342.7v-65.9h3.2c7.2 3 16.3 4.7 26.2 4.7 9.9 0 19-1.8 26.2-4.7h3.2v64.8"/>
    <path id="XMLID_353_" class="st0" d="M2243.2 332.2c-1.9.4-3.9.9-5.9 1.4-.4.1-1.2.3-2.2.7-6.1 2.2-13.9 7.2-13.9 10.7 0 8.7 23.1 15.7 51.5 15.7s51.5-7 51.5-15.7c0-4.2-6.7-8.6-15.5-11.4-2.9-1.1-5.3-1.8-6.5-2.1"/>
    <path id="XMLID_352_" class="st0" d="M2243.2 305.9v-31.4c7.7-3.9 18.1-6.2 29.5-6.2s21.8 2.4 29.5 6.2v31.4"/>
    <path id="XMLID_351_" class="st0" d="M2242.3 295.4c-1.1-.7-2.4-1-3.7-1-5.2 0-9.5 5.8-9.5 12.9 0 7.1 4.2 12.9 9.5 12.9 1.7 0 3.3-.6 4.6-1.6"/>
    <path id="XMLID_350_" class="st0" d="M2302.2 310.2v31.4c-7.7 3.9-18.1 6.2-29.5 6.2s-21.8-2.4-29.5-6.2v-31.4"/>
    <g id="XMLID_348_">
      <path class="st0" d="M2268.3 206.6c0 6.4-12 6.4-12 12.9 0 6.4 12 6.4 12 12.9 0 6.4-12 6.4-12 12.9 0 6.4 12 6.4 12 12.9"/>
    </g>
    <path id="XMLID_347_" class="st0" d="M2291.2 318.7v-28.3"/>
    <g id="XMLID_345_">
      <path class="st0" d="M2293.2 185c0 8.2-12 8.2-12 16.4s12 8.2 12 16.4-12 8.2-12 16.4 12 8.2 12 16.4"/>
    </g>
    <path class="st0" d="M2348.4 126.5l16.3 16.3-16.7 16.7M2336.3 167.8l-24.5-49.6M2300.2 159.5l-16.3-16.3 16.7-16.7M2340.3 245.2h15.4v93.3h-15.4zM2348 232.2l-6 11.4h12zM2355.7 327.9h-15.4M2348 232.2v-7"/>
    <path id="XMLID_344_" class="st0" d="M2363 584.3v115.2h-79v-93.9l24.1-21.3z"/>
    <path id="XMLID_343_" class="st0" d="M2308.1 584.3v23.3H2284"/>
    <path id="XMLID_342_" class="st0" d="M2284 688.3h-10.9v-93.8l24.1-21.4h54.9v13"/>
    <path class="st0" d="M2020.2 44.9h215.1v129.7h-215.1z"/>
    <path class="st0" d="M2032.8 58.6h94.8v101h-94.8zM2141.5 58.6h80.3V160h-80.3zM2220.1 60l-77.3 100M2221.8 160l-80.3-101.4"/>
    <g>
      <path class="st0" d="M2235.3 42.9V32.2c0-4.4-3.6-8-8-8h-199.1c-4.4 0-8 3.6-8 8v13.2"/>
    </g>
    <circle class="st1" cx="2221.7" cy="35" r="4.2"/>
    <circle class="st1" cx="2208.2" cy="35" r="4.2"/>
    <circle class="st1" cx="2194.8" cy="35" r="4.2"/>
    <path id="XMLID_341_" class="st0" d="M2276.4 454.1H2411v102.6h-134.6z"/>
    <path id="XMLID_340_" class="st0" d="M2341.6 467h54.2v74.5h-54.2z"/>
    <path id="XMLID_339_" class="st0" d="M2395.8 467l-54.2 74.5"/>
    <path id="XMLID_338_" class="st0" d="M2341.6 467l54.2 74.5"/>
    <path id="XMLID_337_" class="st0" d="M2288.7 526.4h42.2v14.9h-42.2z"/>
    <path id="XMLID_336_" class="st0" d="M2330.9 467.2h-42.2"/>
    <path id="XMLID_335_" class="st0" d="M2330.9 478.4h-42.2"/>
    <path id="XMLID_334_" class="st0" d="M2330.9 489.5h-42.2"/>
    <path id="XMLID_333_" class="st0" d="M2330.9 500.6h-42.2"/>
    <g>
      <path class="st0" d="M2097.1 462.1c-5.8 15.6 2.3 33 17.8 38.8l5 1.8c15.6 5.8 33-2.3 38.8-17.8l11.4-30.9c5.8-15.6-2.3-33-17.8-38.8l-5-1.8c-15.6-5.8-33 2.3-38.8 17.8l-11.4 30.9z"/>
      <path class="st0" d="M2144.018 446.22l-10.693-3.954 6.14-16.603 10.692 3.954zM2138.7 444.4l-4.4 12M2165 467.7l-61.5-22.7M2149.8 414.3l-4.4 12"/>
    </g>
    <g>
      <path class="st0" d="M487.1 264.1h16.4v99h-16.4zM495.3 250.3l-6.4 12.1h12.8zM503.5 351.9h-16.4M495.3 250.3v-7.4M392.7 234.6c0 16.6 13.6 30.2 30.2 30.2h9.3c16.6 0 30.2-13.6 30.2-30.2v-38.7c0-16.6-13.6-30.2-30.2-30.2h-9.3c-16.6 0-30.2 13.6-30.2 30.2v38.7z"/>
      <path class="st0" d="M421.4 181h12.2v18.8h-12.2zM427.5 199.7v13.6M462.4 213.3h-69.7M427.5 165.7v13.6"/>
      <path id="XMLID_426_" class="st0" d="M291.4 156.5l13.1-24c-3.2-6-5-12.7-5-19.7 0-26.5 25.6-48 57.1-48s57.1 21.5 57.1 48-25.6 48-57.1 48c-14.7 0-28.2-4.7-38.3-12.4l-26.9 8.1z"/>
      <g id="XMLID_422_">
        <circle id="XMLID_425_" class="st0" cx="383.4" cy="113.5" r="5.5"/>
        <circle id="XMLID_424_" class="st0" cx="358.2" cy="113.5" r="5.5"/>
        <circle id="XMLID_423_" class="st0" cx="333.1" cy="113.5" r="5.5"/>
      </g>
      <path id="XMLID_420_" class="st0" d="M537.6 25.9c28.8 2.5 50.4 24.1 48.3 48.2-.4 4.4-1.6 8.6-3.4 12.5l11.8 21.3-24.5-5.6c-10.3 7.9-24.5 12.3-39.8 10.9-28.8-2.5-50.4-24.1-48.3-48.2 2.1-24.1 27.2-41.6 55.9-39.1z"/>
      <path id="XMLID_419_" class="st0" d="M564.2 57.5h-12.6"/>
      <path id="XMLID_418_" class="st0" d="M538 57.5h-30.3"/>
      <path id="XMLID_417_" class="st0" d="M562.1 69.6h-30"/>
      <path id="XMLID_416_" class="st0" d="M504.9 69.6h20.2"/>
      <path id="XMLID_415_" class="st0" d="M557.2 81.3h-34.4"/>
      <path id="XMLID_414_" class="st0" d="M516.2 81.3h-6.8"/>
      <circle id="XMLID_413_" class="st0" cx="408.4" cy="592.3" r="26.2"/>
      <path id="XMLID_412_" class="st0" d="M382.1 592.3c-3.6-4.2-9-6.8-15-6.8-5.4 0-10.3 2.2-13.9 5.6"/>
      <circle id="XMLID_411_" class="st0" cx="327" cy="592.3" r="26.2"/>
      <path id="XMLID_410_" class="st0" d="M408.8 578.3c7.9 0 14.4 6.4 14.4 14.4"/>
      <path id="XMLID_409_" class="st0" d="M379.775 373.7l-64.145-9.208 9.364-65.234 64.146 9.208z"/>
      <path id="XMLID_408_" class="st0" d="M323.5 309.8l-10.2-1.5-9.3 65.2 64.1 9.2 1.5-10.5"/>
      <path id="XMLID_407_" class="st0" d="M375.2 320.2l-40.9-5.9"/>
      <path id="XMLID_406_" class="st0" d="M373.4 332.6l-40.9-5.8"/>
      <path class="st0" d="M8.4 478.4c1.2-8.2 6.8-14.5 14-16.8L19.5 482c-.2 1.5.8 2.9 2.4 3.2l11.3 1.6c1.5.2 3-.8 3.2-2.4l2.9-20.4c6.3 4.2 9.9 11.9 8.7 20.1-1.4 9.9-8 17.3-17.3 17.9l-10.1 70.5L9.8 571 20 500.5c-8.8-3.2-13-12.2-11.6-22.1zM67.3 392.1l16.3 16.3L66.9 425M55.3 433.3l-24.6-49.6M19.1 425L2.8 408.7l16.7-16.6"/>
      <path id="XMLID_405_" class="st0" d="M478.8 165h72.1v53.2h-72.1z"/>
      <path id="XMLID_404_" class="st0" d="M532 165.1v-13.5c0-9.5-7.7-17.1-17.1-17.1-9.5 0-17.1 7.7-17.1 17.1v13.5"/>
      <path id="XMLID_403_" class="st0" d="M508.7 204.4l5-17.4c-1.8-.5-3.1-2.2-3.1-4.1 0-2.4 1.9-4.3 4.3-4.3s4.3 1.9 4.3 4.3c0 2-1.3 3.6-3.1 4.1l5 17.4h-12.4z"/>
      <path id="XMLID_402_" class="st0" d="M456.1 546.6l6.3 26.6c-4.7 4.9-8.2 10.9-10 17.7-7 25.6 12 53 42.4 61.4 30.4 8.3 60.8-5.6 67.8-31.2s-12-53-42.4-61.4c-14.2-3.9-28.4-2.9-40.2 1.8l-23.9-14.9z"/>
      <g id="XMLID_398_">
        <circle id="XMLID_401_" class="st0" cx="533.4" cy="612.3" r="5.5"/>
        <circle id="XMLID_400_" class="st0" cx="509.1" cy="605.6" r="5.5"/>
        <circle id="XMLID_399_" class="st0" cx="484.9" cy="599" r="5.5"/>
      </g>
      <path id="XMLID_397_" class="st0" d="M147.8 364.6h134.6v102.6H147.8z"/>
      <path id="XMLID_396_" class="st0" d="M213 377.6h54.2v74.5H213z"/>
      <path id="XMLID_395_" class="st0" d="M267.2 377.6L213 452.1"/>
      <path id="XMLID_394_" class="st0" d="M213 377.6l54.2 74.5"/>
      <path id="XMLID_393_" class="st0" d="M160.1 437h42.2v14.9h-42.2z"/>
      <path id="XMLID_392_" class="st0" d="M202.3 377.8h-42.2"/>
      <path id="XMLID_391_" class="st0" d="M202.3 388.9h-42.2"/>
      <path id="XMLID_390_" class="st0" d="M202.3 400.1h-42.2"/>
      <path id="XMLID_389_" class="st0" d="M202.3 411.2h-42.2"/>
      <path id="XMLID_388_" class="st0" d="M30.4 338l-3.7 9.7 90.1 33.6 18.2-48.8-8.3-3.1"/>
      <path id="XMLID_387_" class="st0" d="M126.7 329.4l-81.8-30.5L30.4 338"/>
      <circle id="XMLID_386_" class="st0" cx="80.8" cy="340.1" r="13.5"/>
      <path id="XMLID_385_" class="st0" d="M128.6 343.5c-5.6-2.1-8.5-8.3-6.4-14"/>
      <path id="XMLID_384_" class="st0" d="M33.7 335.8c5.6 2.1 8.5 8.3 6.4 14"/>
      <path id="XMLID_383_" class="st0" d="M126 329.2l3.7-9.8-90.1-33.5-18.2 48.7 9 3.4"/>
      <path id="XMLID_382_" class="st0" d="M119.5 315.4l3.6-9.7L33 272.1l-18.1 48.7 8.9 3.4"/>
      <path id="XMLID_381_" class="st0" d="M394.1 388.9h96.3v120.7h-96.3z"/>
      <path id="XMLID_380_" class="st0" d="M407.2 402.6h70v75.8h-70z"/>
      <path id="XMLID_379_" class="st0" d="M477.1 476.5l-19.8-31.7-15.1 13.4-15.9-28.7-19.1 18.7"/>
      <circle id="XMLID_378_" class="st0" cx="459.6" cy="419.7" r="6.4"/>
      <path class="st0" d="M109.2 186.1h244v93.2h-244z"/>
      <path class="st0" d="M320.4 198.6h20v14.1h-20zM287.5 198.6h20v14.1h-20zM254.5 198.6h20v14.1h-20zM221.5 198.6h20v14.1h-20zM188.5 198.6h20v14.1h-20zM155.6 198.6h20v14.1h-20zM122.6 198.6h20v14.1h-20zM320.4 224.1h20v14.1h-20zM287.5 224.1h20v14.1h-20zM254.5 224.1h20v14.1h-20zM221.5 224.1h20v14.1h-20zM188.5 224.1h20v14.1h-20zM155.6 224.1h20v14.1h-20zM122.6 224.1h20v14.1h-20zM254.5 249.5h85.6v14.1h-85.6zM221.2 249.5h20v14.1h-20zM188.2 249.5h20v14.1h-20zM155.2 249.5h20v14.1h-20zM122.3 249.5h20v14.1h-20z"/>
      <g>
        <path class="st0" d="M233.1 186.1l-.2-48.7c-.1-16.6-13.7-30.2-30.3-30.2h-38.2c-16.6 0-30.2-13.6-30.2-30.2V60.1c0-16.6-13.6-30.2-30.2-30.2H51.5"/>
      </g>
      <g>
        <path id="XMLID_377_" class="st0" d="M10.3 140.5h18.5v101.8H10.3z"/>
        <path id="XMLID_376_" class="st0" d="M28.7 140.5L19.5 118l-9.2 22.5"/>
        <path id="XMLID_375_" class="st0" d="M10.3 244.2v6.4c0 2.8 2.3 5 5 5h8.4c2.8 0 5-2.3 5-5v-6.4"/>
      </g>
      <g>
        <path class="st0" d="M312.2 517c3.7 16.2 20 26.4 36.2 22.7l5.2-1.2c16.2-3.7 26.4-20 22.7-36.2l-7.4-32.1c-3.7-16.2-20-26.4-36.2-22.7l-5.2 1.2c-16.2 3.7-26.4 20-22.7 36.2l7.4 32.1z"/>
        <path class="st0" d="M342.736 478.08l-11.11 2.552-3.963-17.25 11.11-2.553zM337.2 479.4l2.8 12.5M372 484.5l-63.9 14.7M330 448.2l2.9 12.4"/>
      </g>
      <path class="st0" d="M67.3 512.3h215.1V642H67.3z"/>
      <path class="st0" d="M79.8 526h94.8v101H79.8zM188.5 526h80.3v101.4h-80.3zM267.2 527.4l-77.3 100M268.9 627.4L188.5 526"/>
      <g>
        <path class="st0" d="M282.4 510.3v-10.7c0-4.4-3.6-8-8-8H75.3c-4.4 0-8 3.6-8 8v13.2"/>
      </g>
      <circle class="st1" cx="268.7" cy="502.4" r="4.2"/>
      <circle class="st1" cx="255.3" cy="502.4" r="4.2"/>
      <circle class="st1" cx="241.9" cy="502.4" r="4.2"/>
      <circle id="XMLID_374_" class="st0" cx="155" cy="144.8" r="26.2"/>
      <path id="XMLID_373_" class="st0" d="M128.8 144.8c-3.6-4.2-9-6.8-15-6.8-5.4 0-10.3 2.2-13.9 5.6"/>
      <circle id="XMLID_372_" class="st0" cx="73.6" cy="144.8" r="26.2"/>
      <path id="XMLID_346_" class="st0" d="M155.4 130.8c7.9 0 14.4 6.4 14.4 14.4"/>
      <path class="st0" d="M584.8 401.8l-36.5 21.9M510.705 452.568l-5.614-9.343 40.804-24.514 5.614 9.344zM601.7 387.7l4 6.7-16 12.9-7.5-12.5zM547.9 264.5h69.7v93.3h-69.7z"/>
      <g>
        <path class="st0" d="M548.7 283.6c-15.2 0-27.6 12.3-27.6 27.6s12.3 27.6 27.6 27.6"/>
        <path class="st0" d="M548.7 293.5c-9.5 0-17.1 7.7-17.1 17.1s7.7 17.1 17.1 17.1"/>
      </g>
      <g>
        <path class="st0" d="M598.3 186.9c0 8-8 8-8 16s8 8 8 16-8 8-8 16 8 8 8 16"/>
      </g>
      <g>
        <path class="st0" d="M579.3 167.7c0 9.4-8 9.4-8 18.8s8 9.4 8 18.8-8 9.4-8 18.8 8 9.4 8 18.8"/>
      </g>
    </g>
    <path id="XMLID_11_" class="st0" d="M1996.7 665.5v-65.9h3.2c7.2 3 16.3 4.7 26.2 4.7 9.9 0 19-1.8 26.2-4.7h3.2v64.8"/>
    <path id="XMLID_10_" class="st0" d="M1996.7 655c-1.9.4-3.9.9-5.9 1.4-.4.1-1.2.3-2.2.7-6.1 2.2-13.9 7.2-13.9 10.7 0 8.7 23.1 15.7 51.5 15.7 28.5 0 51.5-7 51.5-15.7 0-4.2-6.7-8.6-15.5-11.4-2.9-1.1-5.3-1.8-6.5-2.1"/>
    <path id="XMLID_9_" class="st0" d="M1996.7 628.6v-31.4c7.7-3.9 18.1-6.2 29.5-6.2 11.4 0 21.8 2.4 29.5 6.2v31.4"/>
    <path id="XMLID_8_" class="st0" d="M1995.7 618.2c-1.1-.7-2.4-1-3.7-1-5.2 0-9.5 5.8-9.5 12.9s4.2 12.9 9.5 12.9c1.7 0 3.3-.6 4.6-1.6"/>
    <path id="XMLID_6_" class="st0" d="M2055.6 633v31.4c-7.7 3.9-18.1 6.2-29.5 6.2-11.4 0-21.8-2.4-29.5-6.2V633"/>
    <g id="XMLID_4_">
      <path class="st0" d="M2021.7 529.4c0 6.4-12 6.4-12 12.9 0 6.4 12 6.4 12 12.9 0 6.4-12 6.4-12 12.9 0 6.4 12 6.4 12 12.9"/>
    </g>
    <path id="XMLID_3_" class="st0" d="M2044.7 641.4v-28.2"/>
    <g id="XMLID_1_">
      <path class="st0" d="M2046.6 507.8c0 8.2-12 8.2-12 16.4s12 8.2 12 16.4-12 8.2-12 16.4 12 8.2 12 16.4"/>
    </g>
    <path class="st0" d="M2093.7 568h15.4v93.3h-15.4zM2101.5 555l-6.1 11.4h12.1zM2109.2 650.6h-15.5M2101.5 555v-7M1316.9 642.7l16.3 16.3-16.7 16.7M1304.9 684l-24.5-49.6M1268.8 675.7l-16.3-16.3 16.6-16.7"/>
  </g>
</svg>
