<?xml version="1.0" encoding="utf-8"?>
<!-- Generator: Adobe Illustrator 19.0.0, SVG Export Plug-In . SVG Version: 6.00 Build 0)  -->
<svg version="1.1" id="Layer_1" xmlns="http://www.w3.org/2000/svg" xmlns:xlink="http://www.w3.org/1999/xlink" x="0px" y="0px"
	 viewBox="1060 -447 2513.9 1047.3" style="enable-background:new 1060 -447 2513.9 1047.3;" xml:space="preserve">
<style type="text/css">
	.st0{fill:none;stroke:#F15F5F;stroke-width:4;stroke-miterlimit:10;}
	.st1{fill:#F15F5F;}
</style>
<g id="Layer_1_1_">
	<path class="st0" d="M2366.3,240.8h-245.2v-93.6h245.2L2366.3,240.8z"/>
	<path class="st0" d="M2133.9,159.8h20.1V174h-20.1V159.8z M2167,159.8h20.1V174H2167V159.8z M2200.2,159.8h20.1V174h-20.1V159.8z
		 M2233.3,159.8h20.1V174h-20.1V159.8z M2266.4,159.8h20.1V174h-20.1V159.8z M2299.6,159.8h20.1V174h-20.1V159.8z M2332.7,159.8
		h20.1V174h-20.1V159.8z M2133.9,185.4h20.1v14.2h-20.1V185.4z M2167,185.4h20.1v14.2H2167V185.4z M2200.2,185.4h20.1v14.2h-20.1
		V185.4z M2233.3,185.4h20.1v14.2h-20.1V185.4z M2266.4,185.4h20.1v14.2h-20.1V185.4z M2299.6,185.4h20.1v14.2h-20.1V185.4z
		 M2332.7,185.4h20.1v14.2h-20.1V185.4z M2134.2,210.9h86.1v14.2h-86.1L2134.2,210.9z M2233.7,210.9h20.1v14.2h-20.1V210.9z
		 M2266.8,210.9h20.1v14.2h-20.1V210.9z M2299.9,210.9h20.1v14.2h-20.1V210.9z M2333.1,210.9h20.1v14.2h-20.1V210.9z"/>
	<path id="XMLID_71_" class="st0" d="M2165.2-133.6h96.3v120.7h-96.3V-133.6z"/>
	<path id="XMLID_70_" class="st0" d="M2178.4-119.9h70v75.8h-70L2178.4-119.9z"/>
	<path id="XMLID_69_" class="st0" d="M2178.4-46l19.8-31.7l15.1,13.4l16-28.7l19.1,18.7"/>
	<circle id="XMLID_68_" class="st0" cx="2196" cy="-102.9" r="6.4"/>
	<path id="XMLID_96_" class="st0" d="M2392.3,230.3h42.3"/>
	<path id="XMLID_95_" class="st0" d="M2392.3,241.5h42.3"/>
	<path id="XMLID_94_" class="st0" d="M2392.3,252.6h42.3"/>
	<path id="XMLID_93_" class="st0" d="M2392.3,263.8h42.3"/>
	<path id="XMLID_92_" class="st0" d="M2457.5,230.9h26.7"/>
	<path id="XMLID_91_" class="st0" d="M2457.5,242h26.7"/>
	<path id="XMLID_90_" class="st0" d="M2457.5,253.2h26.7"/>
	<path id="XMLID_89_" class="st0" d="M2457.5,264.3h41"/>
	<path id="XMLID_88_" class="st0" d="M2381.4,208.8h63.4v88.7h-63.4V208.8z"/>
	<path id="XMLID_87_" class="st0" d="M2444.7,208.8h63.4v88.7h-63.4V208.8z"/>
	<path id="XMLID_86_" class="st0" d="M2406,208.8c-13.6,0-24.7,9.5-24.7,21.3"/>
	<path id="XMLID_81_" class="st0" d="M2484.2,209h14.3v46.6h-14.3V209z"/>
	<path id="XMLID_79_" class="st0" d="M2507.4,215.2h11.2v93.7h-133.7v-6.1"/>
	<path id="XMLID_78_" class="st0" d="M2384.9,304.4v-6.9"/>
	<path class="st0" d="M2399.7-8.9l-16.2,16.3l16.6,16.6 M2411.8,32.3l24.5-49.6 M2447.9,24l16.3-16.3l-16.7-16.6"/>
	<path id="XMLID_113_" class="st0" d="M1975.9,303.8l-3.7,9.7l-89.8-34.4l18.7-48.6l8.2,3.2"/>
	<path id="XMLID_112_" class="st0" d="M1909.3,233.7l81.5,31.2l-14.9,38.9"/>
	<circle id="XMLID_111_" class="st0" cx="1936.6" cy="272" r="13.5"/>
	<path id="XMLID_109_" class="st0" d="M1898.5,243c5.6,2.1,11.9-0.6,14-6.3"/>
	<path id="XMLID_108_" class="st0" d="M1974.9,300c-5.6-2.1-11.9,0.6-14,6.3"/>
	<path id="XMLID_107_" class="st0" d="M1910,233.9l3.7-9.7l89.7,34.4l-18.6,48.6l-8.9-3.4"/>
	<path id="XMLID_106_" class="st0" d="M1924,227.9l3.8-9.7l89.7,34.4l-18.6,48.6l-8.9-3.4"/>
	<path id="XMLID_118_" class="st0" d="M2031-18l-13.1-24c3.2-6,5-12.7,5-19.7c0-26.5-25.6-48-57.1-48c-31.6,0-57.1,21.5-57.1,48
		s25.6,48,57.1,48c14.7,0,28.2-4.7,38.3-12.4L2031-18L2031-18z"/>
	<g id="XMLID_114_">
		<circle id="XMLID_117_" class="st0" cx="1939.1" cy="-61" r="5.5"/>
		<circle id="XMLID_116_" class="st0" cx="1964.3" cy="-61" r="5.5"/>
		<circle id="XMLID_115_" class="st0" cx="1989.4" cy="-61" r="5.5"/>
	</g>
	<path id="XMLID_128_" class="st0" d="M2751.8,301.3h77v14h-77V301.3z"/>
	<path id="XMLID_127_" class="st0" d="M2828.8,301.3l16.9,7l-16.9,7"/>
	<path id="XMLID_126_" class="st0" d="M2750.3,315.3h-4.9c-2.1,0-3.8-1.7-3.8-3.8v-6.4c0-2.1,1.7-3.8,3.8-3.8h4.9"/>
	<path class="st0" d="M1901.8,97.9c-3-7.7-10-12.6-17.5-13.2l7.5,19.2c0.6,1.4-0.2,3.1-1.6,3.6l-10.6,4.1c-1.4,0.6-3.1-0.2-3.6-1.6
		l-7.5-19.2c-5.1,5.5-6.9,13.9-3.9,21.5c3.6,9.3,11.7,15,20.9,13.5l25.9,66.3l10.1-4l-25.9-66.1
		C1903.4,116.9,1905.4,107.2,1901.8,97.9L1901.8,97.9z M1946.9,92v42.5 M1941.4,134.1h10.9v47.6h-10.9V134.1z M1950.2,70.2h-7.8
		l-2.9,20.4h14.7L1950.2,70.2z"/>
	<path id="XMLID_174_" class="st0" d="M2240.7-243c-28.8-1.7-53.3,16.6-54.7,40.7c-0.3,4.4,0.3,8.8,1.5,12.9l-14.7,19.3l25.1-2
		c9,9.3,22.5,15.6,37.8,16.5c28.8,1.7,53.3-16.6,54.7-40.7C2291.8-220.4,2269.6-241.3,2240.7-243L2240.7-243z"/>
	<path id="XMLID_173_" class="st0" d="M2216.9-214.6l12.4,1.8"/>
	<path id="XMLID_172_" class="st0" d="M2235.9-211.8l29.9,4.3"/>
	<path id="XMLID_171_" class="st0" d="M2210.3-203.3l29.7,4.3"/>
	<path id="XMLID_169_" class="st0" d="M2266.9-195.1l-20-2.9"/>
	<path id="XMLID_168_" class="st0" d="M2213.4-191l34,4.9"/>
	<path id="XMLID_167_" class="st0" d="M2254-185.1l6.8,1"/>
	<path id="XMLID_176_" class="st0" d="M2111.6,53.6h100.9v64.3h-100.9V53.6z"/>
	<path id="XMLID_175_" class="st0" d="M2111.6,53.6l50.5,26.2l50.4-26.2"/>
	<circle id="XMLID_180_" class="st0" cx="1973.8" cy="39.8" r="26.2"/>
	<path id="XMLID_179_" class="st0" d="M2000,39.8c3.6-4.2,9-6.8,15-6.8c5.4,0,10.3,2.2,13.9,5.6"/>
	<circle id="XMLID_178_" class="st0" cx="2055.1" cy="39.8" r="26.2"/>
	<path id="XMLID_177_" class="st0" d="M1973.4,25.8c-7.9,0-14.4,6.4-14.4,14.4"/>
	<path id="XMLID_190_" class="st0" d="M1902.1,44.3v-65.9h-3.2c-7.2,3-16.3,4.7-26.2,4.7s-19-1.8-26.2-4.7h-3.2v64.8"/>
	<path id="XMLID_189_" class="st0" d="M1902.1,33.8c1.9,0.4,3.9,0.9,5.9,1.4c0.4,0.1,1.2,0.3,2.2,0.7c6.1,2.2,13.9,7.2,13.9,10.7
		c0,8.7-23.1,15.7-51.5,15.7c-28.4,0-51.5-7-51.5-15.7c0-4.2,6.7-8.6,15.5-11.4c2.9-1.1,5.3-1.8,6.5-2.1"/>
	<path id="XMLID_188_" class="st0" d="M1902.1,7.4V-24c-7.7-3.9-18.1-6.2-29.5-6.2s-21.8,2.4-29.5,6.2V7.4"/>
	<path id="XMLID_187_" class="st0" d="M1903-3c1.1-0.7,2.4-1,3.7-1c5.2,0,9.5,5.8,9.5,12.9s-4.2,12.9-9.5,12.9
		c-1.7,0-3.3-0.6-4.6-1.6"/>
	<path id="XMLID_186_" class="st0" d="M1843.1,11.8v31.4c7.7,3.9,18.1,6.2,29.5,6.2s21.8-2.4,29.5-6.2V11.8"/>
	<path id="XMLID_184_" class="st0" d="M1889-91.8c0,6.4-12,6.4-12,12.9c0,6.4,12,6.4,12,12.9c0,6.4-12,6.4-12,12.9
		c0,6.4,12,6.4,12,12.9"/>
	<path id="XMLID_183_" class="st0" d="M1854.1,20.2V-8"/>
	<path id="XMLID_181_" class="st0" d="M1864.1-113.4c0,8.2-12,8.2-12,16.4s12,8.2,12,16.4s-12,8.2-12,16.4s12,8.2,12,16.4"/>
	<path class="st0" d="M1796.9-171.9l-16.3,16.3l16.7,16.6 M1808.9-130.7l24.5-49.6 M1845.1-139l16.3-16.3l-16.7-16.6 M1789.6-53.2
		h15.4v93.3h-15.4V-53.2z M1797.3-66.2l6,11.4h-12L1797.3-66.2z M1789.6,29.4h15.4 M1797.3-66.2v-7"/>
	<path id="XMLID_212_" class="st0" d="M2131,289.6h72.1v53.2H2131V289.6z"/>
	<path id="XMLID_209_" class="st0" d="M2149.9,289.8v-13.5c0-9.5,7.7-17.1,17.1-17.1s17.1,7.7,17.1,17.1v13.5"/>
	<path id="XMLID_208_" class="st0" d="M2173.2,329.1l-5-17.4c1.8-0.5,3.1-2.2,3.1-4.1c0-2.4-1.9-4.3-4.3-4.3s-4.3,1.9-4.3,4.3
		c0,2,1.3,3.6,3.1,4.1l-5,17.4H2173.2z"/>
	<path class="st0" d="M2054.4-88.7h89.6V0.9h-89.6V-88.7z M2068.6-70.4h61.1 M2068.6-54.8h61.1 M2068.6-39.1h61.1 M2560.8,261.8
		h-18.2v-16.9h18.2V261.8z M2552,256.4v-11.5"/>
	<path id="XMLID_218_" class="st0" d="M1780.3,281.9v115.2h79v-93.9l-24.2-21.3H1780.3z"/>
	<path id="XMLID_217_" class="st0" d="M1835.1,281.9v23.3h24.2"/>
	<path id="XMLID_216_" class="st0" d="M1859.3,385.9h10.9V292l-24.1-21.3h-54.9v13"/>
	<path class="st0" d="M1910-253.6h215.1v129.7H1910V-253.6z"/>
	<path class="st0" d="M2017.8-239.8h94.8v101h-94.8V-239.8z M1923.5-239.8h80.3v101.4h-80.3V-239.8z M1925.2-238.5l77.2,100.1
		 M1923.5-138.4l80.3-101.4"/>
	<g>
		<path class="st0" d="M1910-255.5v-10.7c0-4.4,3.6-8,8-8h199c4.4,0,8,3.6,8,8v13.2"/>
	</g>
	<circle class="st1" cx="1923.6" cy="-263.4" r="4.2"/>
	<circle class="st1" cx="1937" cy="-263.4" r="4.2"/>
	<circle class="st1" cx="1950.4" cy="-263.4" r="4.2"/>
	<path class="st0" d="M2088.6,172.2h15.4v93.3h-15.4V172.2z M2088.5,254.8h15.4"/>
	<g>
		<path class="st0" d="M2096,159.8l6.3,12.5h-11.8L2096,159.8z M2096,159.1v-7"/>
	</g>
	<g>
		<path class="st0" d="M2248.9,147.2V41.1c0-4.4,3.6-8,8-8h61.5c4.4,0,8-3.6,8-8v-61c0-4.4,3.6-8,8-8h23.9c4.4,0,8-3.6,8-8v-93
			c0-4.4-3.6-8-8-8h-19.1c-4.4,0-8-3.6-8-8v-15.6c0-4.4,3.6-8,8-8h5.9c4.4,0,8,3.6,8,8v38.3c0,4.4-3.6,8-8,8h-37.3c-4.4,0-8-3.6-8-8
			v-152.3v-83.7v-32V-447"/>
	</g>
	<path id="XMLID_312_" class="st0" d="M1732.3,151.6h134.6v102.6h-134.6V151.6z"/>
	<path id="XMLID_286_" class="st0" d="M1747.5,164.6h54.2v74.5h-54.2V164.6z"/>
	<path id="XMLID_239_" class="st0" d="M1747.5,164.6l54.2,74.5"/>
	<path id="XMLID_235_" class="st0" d="M1801.7,164.6l-54.2,74.5"/>
	<path id="XMLID_227_" class="st0" d="M1812.4,224h42.2v14.9h-42.2V224z"/>
	<path id="XMLID_225_" class="st0" d="M1812.4,164.8h42.2"/>
	<path id="XMLID_222_" class="st0" d="M1812.4,175.9h42.2"/>
	<path id="XMLID_221_" class="st0" d="M1812.4,187.1h42.2"/>
	<path id="XMLID_48_" class="st0" d="M1812.4,198.2h42.2"/>
	<g>
		<path class="st0" d="M2046.1,159.7c5.8,15.6-2.3,33-17.8,38.8l-5,1.8c-15.6,5.8-33-2.3-38.8-17.8l-11.4-30.9
			c-5.8-15.6,2.3-33,17.8-38.8l5-1.8c15.6-5.8,33,2.3,38.8,17.8L2046.1,159.7z"/>
		<path class="st0" d="M1993.1,127.3l10.7-4l6.1,16.6l-10.7,4L1993.1,127.3z M2004.6,141.9l4.4,12 M1978.2,165.3l61.6-22.7
			 M1993.5,111.9l4.4,12"/>
	</g>
	<path class="st0" d="M2518.5-211.6l-16.3,16.3l16.7,16.7 M2530.5-170.3l24.6-49.6"/>
	<g>
		<path class="st0" d="M2289.7-39.2l-4.5-19.1c-1.6-7,1.1-13.6,6.2-14.8c5-1.2,10.2,2.4,11.5,7.9s2.4,10.1,2.4,10.1 M2307.5-45.6
			c0,0,0.9,3.8,1.9,8.4s-2.2,9.3-7.2,10.5s-9.9-1.2-10.8-5.2c-0.9-4-1.7-7.3-1.7-7.3"/>
		<path class="st0" d="M2290.2-76.4c0,0-0.7-3-1.6-6.6c-0.9-3.6,2.5-7.6,7.6-8.8c5-1.2,9.9,1.1,10.9,5.2c1,4,2.3,9.6,3,12.3
			s2.2,8.7,3.3,13.3s-2.1,9.4-7.1,10.6s-9.9-1.1-10.9-5.2c-1-4-2-8.3-2.3-9.6c-0.3-1.2-0.5-2.3-0.5-2.3"/>
	</g>
	<path class="st0" d="M2484.1-133.1h28.7v51.7h-28.7V-133.1z M2507.6-133.1h-18.3V-150h18.3V-133.1z M2498.7-138.5V-150
		 M2038.8,278.3h31.1v61.1h-31.1V278.3z M2064.3,278.3h-19.8V260h19.8V278.3z"/>
	<path id="XMLID_32_" class="st0" d="M1372.6,376.3v115.2h79v-93.9l-24.2-21.3H1372.6z"/>
	<path id="XMLID_31_" class="st0" d="M1427.3,376.3v23.3h24.2"/>
	<path id="XMLID_30_" class="st0" d="M1451.6,480.3h10.9v-93.9l-24.1-21.3h-54.9v13"/>
	<path id="XMLID_40_" class="st0" d="M1185.4,362.3h96.3V483h-96.3L1185.4,362.3z"/>
	<path id="XMLID_39_" class="st0" d="M1198.6,376h70v75.8h-70L1198.6,376z"/>
	<path id="XMLID_38_" class="st0" d="M1198.6,449.9l19.8-31.7l15.1,13.4l16-28.7l19.1,18.7"/>
	<circle id="XMLID_33_" class="st0" cx="1216.1" cy="393" r="6.4"/>
	<g>
		<path class="st0" d="M3204,135.4l-4.5-19.1c-1.6-7,1.1-13.6,6.2-14.8c5-1.2,10.2,2.4,11.5,7.9s2.4,10.1,2.4,10.1 M3221.8,129
			c0,0,0.9,3.8,1.9,8.4s-2.2,9.3-7.2,10.5s-9.9-1.2-10.8-5.2c-0.9-4-1.7-7.3-1.7-7.3"/>
		<path class="st0" d="M3204.5,98.2c0,0-0.7-3-1.6-6.6c-0.9-3.6,2.5-7.6,7.6-8.8c5-1.2,9.9,1.1,10.9,5.2c1,4,2.3,9.6,3,12.3
			s2.2,8.7,3.3,13.3s-2.1,9.4-7.1,10.6s-9.9-1.1-10.9-5.2c-1-4-2-8.3-2.3-9.6c-0.3-1.2-0.5-2.3-0.5-2.3"/>
	</g>
	<path id="XMLID_156_" class="st0" d="M2871.5,438.8h96.3v120.7h-96.3L2871.5,438.8z"/>
	<path id="XMLID_149_" class="st0" d="M2884.8,452.5h70v75.8h-70V452.5z"/>
	<path id="XMLID_148_" class="st0" d="M2884.8,526.4l19.8-31.7l15.1,13.4l16-28.7l19.1,18.7"/>
	<circle id="XMLID_141_" class="st0" cx="2902.2" cy="469.5" r="6.4"/>
	<path id="XMLID_137_" class="st0" d="M3569.8,494l-13.1-24c3.2-6,5-12.7,5-19.7c0-26.5-25.6-48-57.1-48c-31.6,0-57.1,21.5-57.1,48
		c0,26.5,25.6,48,57.1,48c14.7,0,28.2-4.7,38.3-12.4L3569.8,494L3569.8,494z"/>
	<g id="XMLID_123_">
		<circle id="XMLID_136_" class="st0" cx="3477.9" cy="451" r="5.5"/>
		<circle id="XMLID_125_" class="st0" cx="3503.1" cy="451" r="5.5"/>
		<circle id="XMLID_124_" class="st0" cx="3528.2" cy="451" r="5.5"/>
	</g>
	<g>
		<path id="XMLID_110_" class="st0" d="M3013.6,335.9c-28.8-1.7-53.3,16.6-54.7,40.7c-0.3,4.4,0.3,8.8,1.5,12.9l-14.7,19.3l25.1-2
			c9,9.3,22.5,15.6,37.8,16.5c28.8,1.7,53.3-16.6,54.7-40.7C3064.7,358.5,3042.5,337.6,3013.6,335.9L3013.6,335.9z"/>
		<path id="XMLID_105_" class="st0" d="M2989.8,364.3l12.4,1.8"/>
		<path id="XMLID_104_" class="st0" d="M3008.8,367.1l29.9,4.3"/>
		<path id="XMLID_103_" class="st0" d="M2983.2,375.6l29.7,4.3"/>
		<path id="XMLID_102_" class="st0" d="M3039.8,383.8l-20-2.9"/>
		<path id="XMLID_101_" class="st0" d="M2986.3,387.9l34,4.9"/>
		<path id="XMLID_100_" class="st0" d="M3026.9,393.8l6.8,1"/>
	</g>
	<path id="XMLID_99_" class="st0" d="M3440.9,556.3v-65.9h-3.2c-7.2,3-16.3,4.7-26.2,4.7c-9.9,0-19-1.8-26.2-4.7h-3.2v64.8"/>
	<path id="XMLID_98_" class="st0" d="M3440.9,519.4V488c-7.7-3.9-18.1-6.2-29.5-6.2c-11.4,0-21.8,2.4-29.5,6.2v31.4"/>
	<path id="XMLID_97_" class="st0" d="M3441.8,509c1.1-0.7,2.4-1,3.7-1c5.2,0,9.5,5.8,9.5,12.9c0,7.1-4.2,12.9-9.5,12.9
		c-1.7,0-3.3-0.6-4.6-1.6"/>
	<path id="XMLID_85_" class="st0" d="M3427.8,420.2c0,6.4-12,6.4-12,12.9c0,6.4,12,6.4,12,12.9c0,6.4-12,6.4-12,12.9
		c0,6.4,12,6.4,12,12.9"/>
	<path id="XMLID_84_" class="st0" d="M3392.9,532.2V504"/>
	<path id="XMLID_83_" class="st0" d="M3402.9,398.6c0,8.2-12,8.2-12,16.4c0,8.2,12,8.2,12,16.4c0,8.2-12,8.2-12,16.4
		c0,8.2,12,8.2,12,16.4"/>
	<path class="st0" d="M3335.7,340.1l-16.3,16.3l16.7,16.6 M3347.7,381.3l24.5-49.6 M3383.9,373l16.3-16.3l-16.7-16.6 M3328.4,458.8
		h15.4v93.3h-15.4V458.8z M3336.1,445.8l6,11.4h-12L3336.1,445.8z M3328.4,541.4h15.4 M3336.1,445.8v-7"/>
	<path class="st0" d="M2465.4,435.3h89.6v89.6h-89.6V435.3z M2479.6,453.6h61.1 M2479.6,469.2h61.1 M2479.6,484.9h61.1"/>
	<path class="st0" d="M3192.4,413.5h94.8v101h-94.8V413.5z M3098.1,413.5h80.3v101.4h-80.3V413.5z M3099.8,414.8l77.2,100.1
		 M3098.1,514.9l80.3-101.4"/>
	<path id="XMLID_158_" class="st0" d="M3441,556.3c1.9,0.4,3.9,0.9,5.9,1.4c0.4,0.1,1.2,0.3,2.2,0.7c6.1,2.2,13.9,7.2,13.9,10.7
		c0,8.7-23.1,15.7-51.5,15.7c-28.4,0-51.5-7-51.5-15.7c0-4.2,6.7-8.6,15.5-11.4c2.9-1.1,5.3-1.8,6.5-2.1"/>
	<path id="XMLID_157_" class="st0" d="M3382,534.3v31.4c7.7,3.9,18.1,6.2,29.5,6.2s21.8-2.4,29.5-6.2v-31.4"/>
	<g>
		<path class="st0" d="M2723.4,8.7l-4.5-19.1c-1.6-7,1.1-13.6,6.2-14.8c5-1.2,10.2,2.4,11.5,7.9s2.4,10.1,2.4,10.1 M2741.2,2.3
			c0,0,0.9,3.8,1.9,8.4s-2.2,9.3-7.2,10.5s-9.9-1.2-10.8-5.2c-0.9-4-1.7-7.3-1.7-7.3"/>
		<path class="st0" d="M2723.9-28.5c0,0-0.7-3-1.6-6.6c-0.9-3.6,2.5-7.6,7.6-8.8c5-1.2,9.9,1.1,10.9,5.2c1,4,2.3,9.6,3,12.3
			s2.2,8.7,3.3,13.3s-2.1,9.4-7.1,10.6s-9.9-1.1-10.9-5.2c-1-4-2-8.3-2.3-9.6c-0.3-1.2-0.5-2.3-0.5-2.3"/>
	</g>
	<path class="st0" d="M2905.6-287.3l-16.3,16.3l16.7,16.6 M2917.6-246.1l24.5-49.6 M2953.8-254.4l16.3-16.3l-16.7-16.6"/>
	<path id="XMLID_162_" class="st0" d="M2591.3,475.9h100.9v64.3h-100.9V475.9z"/>
	<path id="XMLID_161_" class="st0" d="M2591.3,475.9l50.5,26.2l50.4-26.2"/>
	<path id="XMLID_198_" class="st0" d="M2692.6-248.5v-65.9h-3.2c-7.2,3-16.3,4.7-26.2,4.7c-9.9,0-19-1.8-26.2-4.7h-3.2v64.8"/>
	<path id="XMLID_197_" class="st0" d="M2692.6-259c1.9,0.4,3.9,0.9,5.9,1.4c0.4,0.1,1.2,0.3,2.2,0.7c6.1,2.2,13.9,7.2,13.9,10.7
		c0,8.7-23.1,15.7-51.5,15.7c-28.4,0-51.5-7-51.5-15.7c0-4.2,6.7-8.6,15.5-11.4c2.9-1.1,5.3-1.8,6.5-2.1"/>
	<path id="XMLID_196_" class="st0" d="M2692.6-285.4v-31.4c-7.7-3.9-18.1-6.2-29.5-6.2c-11.4,0-21.8,2.4-29.5,6.2v31.4"/>
	<path id="XMLID_194_" class="st0" d="M2633.6-281v31.4c7.7,3.9,18.1,6.2,29.5,6.2c11.4,0,21.8-2.4,29.5-6.2V-281"/>
	<path id="XMLID_185_" class="st0" d="M2679.5-384.6c0,6.4-12,6.4-12,12.9c0,6.4,12,6.4,12,12.9c0,6.4-12,6.4-12,12.9
		c0,6.4,12,6.4,12,12.9"/>
	<path id="XMLID_182_" class="st0" d="M2644.6-272.6v-28.2"/>
	<path id="XMLID_170_" class="st0" d="M2654.6-406.2c0,8.2-12,8.2-12,16.4c0,8.2,12,8.2,12,16.4c0,8.2-12,8.2-12,16.4
		c0,8.2,12,8.2,12,16.4"/>
	<path id="XMLID_245_" class="st0" d="M2815.4-445h96.3v120.7h-96.3L2815.4-445z"/>
	<path id="XMLID_244_" class="st0" d="M2828.6-431.3h70v75.8h-70L2828.6-431.3z"/>
	<path id="XMLID_243_" class="st0" d="M2828.6-357.4l19.8-31.7l15.1,13.4l16-28.7l19.1,18.7"/>
	<circle id="XMLID_242_" class="st0" cx="2846.2" cy="-414.3" r="6.4"/>
</g>
<path id="XMLID_34_" class="st0" d="M2453-112.2c0,5.5-4.5,10-10,10h-42.6c-5.5,0-10-4.5-10-10v-95.9c0-5.5,4.5-10,10-10h42.6
	c5.5,0,10,4.5,10,10V-112.2L2453-112.2z"/>
<path id="XMLID_29_" class="st0" d="M2453-125.6h-62.6"/>
<circle id="XMLID_28_" class="st0" cx="2421.8" cy="-113.6" r="2.8"/>
<path id="XMLID_27_" class="st0" d="M2416.8-101.4h10v16.7h-10V-101.4z"/>
<path id="XMLID_24_" class="st0" d="M2419.1-196.1l14.7,27.3"/>
<path id="XMLID_22_" class="st0" d="M2403.7-201.6l26.3,48.7"/>
<path id="XMLID_21_" class="st0" d="M2470.5-218.2c0-10-8.1-18.1-18.1-18.1"/>
<path id="XMLID_7_" class="st0" d="M2483.8-223c0-14.7-11.9-26.6-26.6-26.6"/>
<path class="st0" d="M2421.8-85.7v13.4c0,7.4,9,13.4,20,13.4h61.1c11,0,20,9,20,20v180c0,11-9,20-20,20h-136 M2657.4-69.8h16.4v99
	h-16.4V-69.8z M2665.6-83.6l6.4,12.2h-12.8L2665.6-83.6z M2657.4,18h16.4 M2665.6-83.6V-91 M2768.2-99.3c0,16.6-13.6,30.2-30.2,30.2
	h-9.3c-16.6,0-30.2-13.6-30.2-30.2V-138c0-16.6,13.6-30.2,30.2-30.2h9.3c16.6,0,30.2,13.6,30.2,30.2V-99.3z"/>
<path class="st0" d="M2727.3-152.9h12.2v18.8h-12.2V-152.9z M2733.4-134.1v13.5 M2698.5-120.6h69.7 M2733.4-168.2v13.6"/>
<path id="XMLID_49_" class="st0" d="M2869.4-177.4l-13.1-24c3.2-6,5-12.7,5-19.7c0-26.5-25.6-48-57.1-48c-31.6,0-57.1,21.5-57.1,48
	s25.6,48,57.1,48c14.7,0,28.2-4.7,38.3-12.4L2869.4-177.4L2869.4-177.4z"/>
<g id="XMLID_35_">
	<circle id="XMLID_42_" class="st0" cx="2777.5" cy="-220.4" r="5.5"/>
	<circle id="XMLID_37_" class="st0" cx="2802.7" cy="-220.4" r="5.5"/>
	<circle id="XMLID_36_" class="st0" cx="2827.8" cy="-220.4" r="5.5"/>
</g>
<path id="XMLID_62_" class="st0" d="M2593,136.8c-28.8,2.5-50.4,24.1-48.3,48.2c0.4,4.4,1.6,8.6,3.4,12.5l-11.8,21.3l24.5-5.6
	c10.3,7.9,24.5,12.3,39.8,10.9c28.8-2.5,50.4-24.1,48.3-48.2C2646.8,151.8,2621.7,134.3,2593,136.8L2593,136.8z"/>
<path id="XMLID_61_" class="st0" d="M2566.4,168.3h12.6"/>
<path id="XMLID_60_" class="st0" d="M2592.6,168.3h30.3"/>
<path id="XMLID_55_" class="st0" d="M2568.5,180.4h30"/>
<path id="XMLID_52_" class="st0" d="M2625.7,180.4h-20.2"/>
<path id="XMLID_51_" class="st0" d="M2573.4,192.1h34.4"/>
<path id="XMLID_50_" class="st0" d="M2614.5,192.1h6.8"/>
<circle id="XMLID_67_" class="st0" cx="2752.5" cy="258.5" r="26.2"/>
<path id="XMLID_65_" class="st0" d="M2778.7,258.5c3.6-4.2,9-6.8,15-6.8c5.4,0,10.3,2.2,13.9,5.6"/>
<circle id="XMLID_64_" class="st0" cx="2833.9" cy="258.5" r="26.2"/>
<path id="XMLID_63_" class="st0" d="M2752.1,244.5c-7.9,0-14.4,6.4-14.4,14.4"/>
<path id="XMLID_122_" class="st0" d="M2771.8-25.3l64.1-9.2l9.4,65.2l-64.1,9.2L2771.8-25.3z"/>
<path id="XMLID_121_" class="st0" d="M2837.4-24.1l10.1-1.4l9.4,65.2l-64.1,9.2l-1.5-10.6"/>
<path id="XMLID_120_" class="st0" d="M2785.7-13.7l40.9-5.8"/>
<path id="XMLID_119_" class="st0" d="M2787.4-1.2l41-5.9"/>
<path class="st0" d="M3152.5,144.6c-1.2-8.2-6.8-14.5-14-16.8l2.9,20.4c0.2,1.5-0.8,2.9-2.4,3.2l-11.3,1.6c-1.5,0.2-3-0.8-3.2-2.4
	l-2.9-20.4c-6.3,4.2-9.9,11.9-8.7,20.1c1.4,9.9,8,17.3,17.3,17.9l10.1,70.5l10.7-1.5l-10.1-70.5
	C3149.7,163.4,3153.9,154.4,3152.5,144.6L3152.5,144.6z M3093.6,58.2l-16.3,16.3l16.7,16.7 M3105.6,99.5l24.5-49.6 M3141.8,91.2
	l16.3-16.3l-16.7-16.7"/>
<path id="XMLID_131_" class="st0" d="M2609.9-168.9h72.1v53.2h-72.1V-168.9z"/>
<path id="XMLID_130_" class="st0" d="M2628.9-168.8v-13.5c0-9.5,7.7-17.1,17.1-17.1c9.5,0,17.1,7.7,17.1,17.1v13.5"/>
<path id="XMLID_129_" class="st0" d="M2652.2-129.4l-5-17.4c1.8-0.5,3.1-2.2,3.1-4.1c0-2.4-1.9-4.3-4.3-4.3c-2.4,0-4.3,1.9-4.3,4.3
	c0,2,1.3,3.6,3.1,4.1l-5,17.4H2652.2L2652.2-129.4z"/>
<path id="XMLID_138_" class="st0" d="M2704.8,212.7l-6.3,26.6c4.7,4.9,8.2,10.9,10,17.7c7,25.6-12,53-42.4,61.4
	c-30.4,8.3-60.8-5.6-67.8-31.2s12-53,42.4-61.4c14.2-3.9,28.4-2.9,40.2,1.8L2704.8,212.7L2704.8,212.7z"/>
<g id="XMLID_132_">
	<circle id="XMLID_135_" class="st0" cx="2627.5" cy="278.4" r="5.5"/>
	<circle id="XMLID_134_" class="st0" cx="2651.7" cy="271.8" r="5.5"/>
	<circle id="XMLID_133_" class="st0" cx="2676" cy="265.1" r="5.5"/>
</g>
<path id="XMLID_150_" class="st0" d="M2878.5,30.8h134.6v102.6h-134.6V30.8z"/>
<path id="XMLID_147_" class="st0" d="M2893.7,43.7h54.2v74.5h-54.2V43.7z"/>
<path id="XMLID_146_" class="st0" d="M2893.7,43.7l54.2,74.5"/>
<path id="XMLID_145_" class="st0" d="M2947.9,43.7l-54.2,74.5"/>
<path id="XMLID_144_" class="st0" d="M2958.6,103.1h42.2V118h-42.2V103.1z"/>
<path id="XMLID_143_" class="st0" d="M2958.6,43.9h42.2"/>
<path id="XMLID_142_" class="st0" d="M2958.6,55.1h42.2"/>
<path id="XMLID_140_" class="st0" d="M2958.6,66.2h42.2"/>
<path id="XMLID_139_" class="st0" d="M2958.6,77.4h42.2"/>
<path id="XMLID_160_" class="st0" d="M3130.5,4.1l3.7,9.7l-90.1,33.6l-18.2-48.7l8.3-3.1"/>
<path id="XMLID_159_" class="st0" d="M3034.2-4.4l81.8-30.5l14.5,39"/>
<circle id="XMLID_155_" class="st0" cx="3080" cy="6.3" r="13.5"/>
<path id="XMLID_154_" class="st0" d="M3032.3,9.7c5.6-2.1,8.5-8.3,6.4-14"/>
<path id="XMLID_153_" class="st0" d="M3127.2,1.9c-5.6,2.1-8.5,8.3-6.4,14"/>
<path id="XMLID_152_" class="st0" d="M3034.8-4.7l-3.6-9.7l90.1-33.6l18.1,48.8l-8.9,3.3"/>
<path id="XMLID_151_" class="st0" d="M3041.4-18.5l-3.6-9.7l90-33.6L3146-13l-8.9,3.3"/>
<path id="XMLID_166_" class="st0" d="M2670.5,55h96.3v120.7h-96.3V55z"/>
<path id="XMLID_165_" class="st0" d="M2683.8,68.7h70v75.8h-70V68.7z"/>
<path id="XMLID_164_" class="st0" d="M2683.8,142.6l19.7-31.6l15.2,13.3l15.9-28.7l19.1,18.7"/>
<circle id="XMLID_163_" class="st0" cx="2701.3" cy="85.8" r="6.4"/>
<path class="st0" d="M2807.7-147.8h244v93.2h-244V-147.8z"/>
<path class="st0" d="M2820.4-135.2h20v14.1h-20V-135.2z M2853.4-135.2h20v14.1h-20V-135.2z M2886.4-135.2h20v14.1h-20V-135.2z
	 M2919.4-135.2h20v14.1h-20V-135.2z M2952.3-135.2h20v14.1h-20V-135.2z M2985.3-135.2h20v14.1h-20V-135.2z M3018.3-135.2h20v14.1
	h-20V-135.2z M2820.4-109.7h20v14.1h-20V-109.7z M2853.4-109.7h20v14.1h-20V-109.7z M2886.4-109.7h20v14.1h-20V-109.7z
	 M2919.4-109.7h20v14.1h-20V-109.7z M2952.3-109.7h20v14.1h-20V-109.7z M2985.3-109.7h20v14.1h-20V-109.7z M3018.3-109.7h20v14.1
	h-20V-109.7z M2820.8-84.4h85.6v14.1h-85.6V-84.4z M2919.7-84.4h20v14.1h-20V-84.4z M2952.7-84.4h20v14.1h-20V-84.4z M2985.6-84.4
	h20v14.1h-20V-84.4z M3018.6-84.4h20v14.1h-20V-84.4z"/>
<g>
	<path class="st0" d="M2927.8-147.8l0.2-48.7c0.1-16.6,13.7-30.2,30.3-30.2h38.2c16.6,0,30.2-13.6,30.2-30.2v-16.8
		c0-16.6,13.6-30.2,30.2-30.2h52.5h464.5"/>
</g>
<g>
	<path id="XMLID_215_" class="st0" d="M3132.1-193.4h18.5v101.8h-18.5V-193.4z"/>
	<path id="XMLID_214_" class="st0" d="M3132.1-193.4l9.3-22.5l9.2,22.5"/>
	<path id="XMLID_213_" class="st0" d="M3150.6-89.7v6.4c0,2.8-2.3,5-5,5h-8.4c-2.8,0-5-2.3-5-5v-6.4"/>
</g>
<g>
	<path class="st0" d="M2848.7,183.1c-3.7,16.2-20,26.4-36.2,22.7l-5.2-1.2c-16.2-3.7-26.4-20-22.7-36.2l7.4-32.1
		c3.7-16.2,20-26.4,36.2-22.7l5.2,1.2c16.2,3.7,26.4,20,22.7,36.2L2848.7,183.1z"/>
	<path class="st0" d="M2822.1,127l11.1,2.6l-4,17.2l-11.1-2.6L2822.1,127z M2823.7,145.5l-2.9,12.5 M2788.9,150.6l63.9,14.7
		 M2830.9,114.3l-2.9,12.5"/>
</g>
<path class="st0" d="M2537.4,261.8h28.7v51.7h-28.7V261.8z M2878.5,178.4h215.1v129.7h-215.1V178.4z"/>
<path class="st0" d="M2986.3,192.2h94.8v101h-94.8V192.2z M2892,192.2h80.3v101.4H2892V192.2z M2893.7,193.5l77.3,100 M2892,293.5
	l80.3-101.3"/>
<g>
	<path class="st0" d="M2878.5,176.4v-10.7c0-4.4,3.6-8,8-8h199.1c4.4,0,8,3.6,8,8v13.2"/>
</g>
<circle class="st1" cx="2892.1" cy="168.5" r="4.2"/>
<circle class="st1" cx="2905.6" cy="168.5" r="4.2"/>
<circle class="st1" cx="2919" cy="168.5" r="4.2"/>
<path class="st0" d="M2566.7-178.6l16.3-16.3l-16.7-16.7"/>
<circle id="XMLID_332_" class="st0" cx="3005.9" cy="-189.1" r="26.2"/>
<path id="XMLID_327_" class="st0" d="M3032.1-189.1c3.6-4.2,9-6.8,15-6.8c5.4,0,10.3,2.2,13.9,5.6"/>
<circle id="XMLID_324_" class="st0" cx="3087.3" cy="-189.1" r="26.2"/>
<path id="XMLID_314_" class="st0" d="M3005.5-203.1c-7.9,0-14.4,6.4-14.4,14.4"/>
<path class="st0" d="M2576.1,67.9l36.5,21.9 M2609.4,94.1l5.6-9.3l40.8,24.5l-5.6,9.3L2609.4,94.1z M2559.2,53.8l-4,6.7l16,13
	l7.5-12.6L2559.2,53.8z M2543.3-69.4h69.7v93.3h-69.7V-69.4z M1784.9-298.5l7.4,41.9 M1786.9-256.2l10.7-1.9l8.2,46.9l-10.7,1.9
	L1786.9-256.2z M1784.4-320.5l-7.7,1.4l0.7,20.6l14.4-2.6L1784.4-320.5z"/>
<g>
	<path class="st0" d="M2612.2-50.3c15.2,0,27.6,12.3,27.6,27.6s-12.3,27.6-27.6,27.6"/>
	<path class="st0" d="M2612.2-40.4c9.5,0,17.1,7.7,17.1,17.1s-7.7,17.1-17.1,17.1"/>
</g>
<g>
	<path class="st0" d="M2570.6-147c0,8-8,8-8,16s8,8,8,16s-8,8-8,16s8,8,8,16"/>
</g>
<g>
	<path class="st0" d="M2589.6-166.1c0,9.4-8,9.4-8,18.8s8,9.4,8,18.8s-8,9.4-8,18.8s8,9.4,8,18.8"/>
</g>
<g id="XMLID_206_">
	<path class="st0" d="M2324,393c0,5.5-4.5,10-10,10h-42.6c-5.5,0-10-4.5-10-10v-95.8c0-5.5,4.5-10,10-10h42.6c5.5,0,10,4.5,10,10
		V393z"/>
</g>
<path id="XMLID_203_" class="st0" d="M2324,379.6h-62.6"/>
<circle id="XMLID_202_" class="st0" cx="2292.9" cy="391.6" r="2.8"/>
<path id="XMLID_195_" class="st0" d="M2290.1,310.1l14.7,27.3"/>
<path id="XMLID_193_" class="st0" d="M2274.7,304.6l26.4,48.7"/>
<path id="XMLID_192_" class="st0" d="M2344.5,290c0-10-8.1-18.1-18.1-18.1"/>
<path id="XMLID_191_" class="st0" d="M2357.8,285.2c0-14.7-11.9-26.6-26.6-26.6"/>
<g>
	<path id="XMLID_370_" class="st0" d="M3325.4,300.3l3.7,9.8l89.7-34.4l-18.6-48.7l-8.3,3.2"/>
	<path id="XMLID_369_" class="st0" d="M3391.9,230.2l-81.4,31.3l14.9,38.8"/>
	<circle id="XMLID_368_" class="st0" cx="3364.6" cy="268.6" r="13.5"/>
	<path id="XMLID_367_" class="st0" d="M3402.7,239.5c-5.6,2.1-11.9-0.6-14-6.3"/>
	<path id="XMLID_366_" class="st0" d="M3326.4,296.5c5.6-2.1,11.9,0.6,14,6.3"/>
	<path id="XMLID_365_" class="st0" d="M3391.3,230.5l-3.7-9.8l-89.8,34.4l18.7,48.6l8.9-3.4"/>
	<path id="XMLID_364_" class="st0" d="M3377.2,224.5l-3.7-9.8l-89.7,34.5l18.6,48.6l8.9-3.4"/>
</g>
<path id="XMLID_363_" class="st0" d="M3238.6-22.3l13.1-24c-3.2-6-5-12.7-5-19.7c0-26.5,25.6-48,57.1-48s57.1,21.5,57.1,48
	s-25.6,48-57.1,48c-14.7,0-28.2-4.7-38.3-12.4L3238.6-22.3L3238.6-22.3z"/>
<g id="XMLID_359_">
	<circle id="XMLID_362_" class="st0" cx="3330.5" cy="-65.3" r="5.5"/>
	<circle id="XMLID_361_" class="st0" cx="3305.4" cy="-65.3" r="5.5"/>
	<circle id="XMLID_360_" class="st0" cx="3280.3" cy="-65.3" r="5.5"/>
</g>
<path class="st0" d="M3411.6,94.5c3-7.7,10-12.6,17.5-13.2l-7.5,19.2c-0.6,1.4,0.2,3.1,1.6,3.6l10.6,4.1c1.4,0.6,3.1-0.2,3.6-1.6
	l7.5-19.2c5.1,5.5,6.9,13.9,3.9,21.5c-3.6,9.3-11.7,15-20.9,13.5l-25.9,66.3l-10.1-4l25.9-66.3C3410,113.5,3408,103.8,3411.6,94.5
	L3411.6,94.5z M3366.5,88.6v42.5 M3361.1,130.7h10.9v47.6h-10.9V130.7z M3363.2,66.9h7.8l2.8,20.3h-14.6L3363.2,66.9z M2744.2-363.5
	c3-7.7,10-12.6,17.5-13.2l-7.5,19.2c-0.6,1.4,0.2,3.1,1.6,3.6l10.6,4.1c1.4,0.6,3.1-0.2,3.6-1.6l7.5-19.2c5.1,5.5,6.9,13.9,3.9,21.5
	c-3.6,9.3-11.7,15-20.9,13.5l-25.9,66.3l-10.1-4l25.9-66.3C2742.6-344.5,2740.6-354.2,2744.2-363.5L2744.2-363.5z"/>
<circle id="XMLID_358_" class="st0" cx="3329.5" cy="32.3" r="26.2"/>
<path id="XMLID_357_" class="st0" d="M3303.3,32.3c-3.6-4.2-9-6.8-15-6.8c-5.4,0-10.3,2.2-13.9,5.6"/>
<circle id="XMLID_356_" class="st0" cx="3248.1" cy="32.3" r="26.2"/>
<path id="XMLID_355_" class="st0" d="M3329.9,18.3c7.9,0,14.4,6.4,14.4,14.4"/>
<path id="XMLID_354_" class="st0" d="M3401.2,36.8v-65.9h3.2c7.2,3,16.3,4.7,26.2,4.7s19-1.8,26.2-4.7h3.2v64.8"/>
<path id="XMLID_353_" class="st0" d="M3401.2,26.3c-1.9,0.4-3.9,0.9-5.9,1.4c-0.4,0.1-1.2,0.3-2.2,0.7c-6.1,2.2-13.9,7.2-13.9,10.7
	c0,8.7,23.1,15.7,51.5,15.7s51.5-7,51.5-15.7c0-4.2-6.7-8.6-15.5-11.4c-2.9-1.1-5.3-1.8-6.5-2.1"/>
<path id="XMLID_352_" class="st0" d="M3401.2,0v-31.4c7.7-3.9,18.1-6.2,29.5-6.2s21.8,2.4,29.5,6.2V0"/>
<path id="XMLID_351_" class="st0" d="M3400.3-10.5c-1.1-0.7-2.4-1-3.7-1c-5.2,0-9.5,5.8-9.5,12.9s4.2,12.9,9.5,12.9
	c1.7,0,3.3-0.6,4.6-1.6"/>
<path id="XMLID_350_" class="st0" d="M3460.2,4.3v31.4c-7.7,3.9-18.1,6.2-29.5,6.2s-21.8-2.4-29.5-6.2V4.3"/>
<g id="XMLID_348_">
	<path class="st0" d="M3426.3-99.3c0,6.4-12,6.4-12,12.9c0,6.4,12,6.4,12,12.9c0,6.4-12,6.4-12,12.9c0,6.4,12,6.4,12,12.9"/>
</g>
<path id="XMLID_347_" class="st0" d="M3449.2,12.8v-28.3"/>
<g id="XMLID_345_">
	<path class="st0" d="M3451.2-120.9c0,8.2-12,8.2-12,16.4s12,8.2,12,16.4s-12,8.2-12,16.4s12,8.2,12,16.4"/>
</g>
<path class="st0" d="M3506.4-179.4l16.3,16.3l-16.7,16.7 M3494.3-138.1l-24.5-49.6 M3458.2-146.4l-16.3-16.3l16.7-16.7 M3498.3-60.7
	h15.4v93.3h-15.4V-60.7z M3506-73.7l-6,11.4h12L3506-73.7z M3513.7,22h-15.4 M3506-73.7v-7 M2984.6-17.4V-2h-93.3v-15.4H2984.6z
	 M2997.6-9.7l-11.4-6v12L2997.6-9.7z M2901.9-2v-15.4 M2997.6-9.7h7"/>
<path id="XMLID_344_" class="st0" d="M3521,278.4v115.2h-79v-93.9l24.1-21.3H3521z"/>
<path id="XMLID_343_" class="st0" d="M3466.1,278.4v23.3H3442"/>
<path id="XMLID_342_" class="st0" d="M3442,382.4h-10.9v-93.8l24.1-21.4h54.9v13"/>
<g>
	<path class="st0" d="M3178.2-261h215.1v129.7h-215.1L3178.2-261z"/>
	<path class="st0" d="M3190.8-247.3h94.8v101h-94.8V-247.3z M3299.5-247.3h80.3v101.4h-80.3V-247.3z M3378.1-245.9l-77.3,100
		 M3379.8-145.9l-80.3-101.4"/>
	<g>
		<path class="st0" d="M3393.3-263v-10.7c0-4.4-3.6-8-8-8h-199.1c-4.4,0-8,3.6-8,8v13.2"/>
	</g>
	<circle class="st1" cx="3379.7" cy="-270.9" r="4.2"/>
	<circle class="st1" cx="3366.2" cy="-270.9" r="4.2"/>
	<circle class="st1" cx="3352.8" cy="-270.9" r="4.2"/>
</g>
<path id="XMLID_341_" class="st0" d="M3434.4,148.2H3569v102.6h-134.6V148.2z"/>
<path id="XMLID_340_" class="st0" d="M3499.6,161.1h54.2v74.5h-54.2V161.1z"/>
<path id="XMLID_339_" class="st0" d="M3553.8,161.1l-54.2,74.5"/>
<path id="XMLID_338_" class="st0" d="M3499.6,161.1l54.2,74.5"/>
<path id="XMLID_337_" class="st0" d="M3446.7,220.5h42.2v14.9h-42.2V220.5z"/>
<path id="XMLID_336_" class="st0" d="M3488.9,161.3h-42.2"/>
<path id="XMLID_335_" class="st0" d="M3488.9,172.5h-42.2"/>
<path id="XMLID_334_" class="st0" d="M3488.9,183.6h-42.2"/>
<path id="XMLID_333_" class="st0" d="M3488.9,194.7h-42.2"/>
<g>
	<path class="st0" d="M3255.1,156.2c-5.8,15.6,2.3,33,17.8,38.8l5,1.8c15.6,5.8,33-2.3,38.8-17.8l11.4-30.9
		c5.8-15.6-2.3-33-17.8-38.8l-5-1.8c-15.6-5.8-33,2.3-38.8,17.8L3255.1,156.2z"/>
	<path class="st0" d="M3302,140.3l-10.7-4l6.1-16.6l10.7,4L3302,140.3z M3296.7,138.5l-4.4,12 M3323,161.8l-61.5-22.7 M3307.8,108.4
		l-4.4,12"/>
</g>
<g>
	<path class="st0" d="M1645.1-41.8h16.4v99h-16.4V-41.8z M1653.3-55.6l-6.4,12.1h12.8L1653.3-55.6z M1661.5,46h-16.4 M1653.3-55.6
		V-63 M1550.7-71.3c0,16.6,13.6,30.2,30.2,30.2h9.3c16.6,0,30.2-13.6,30.2-30.2V-110c0-16.6-13.6-30.2-30.2-30.2h-9.3
		c-16.6,0-30.2,13.6-30.2,30.2V-71.3L1550.7-71.3z"/>
	<path class="st0" d="M1579.4-124.9h12.2v18.8h-12.2V-124.9z M1585.5-106.2v13.6 M1620.4-92.6h-69.7 M1585.5-140.2v13.6"/>
	<path id="XMLID_426_" class="st0" d="M1449.4-149.4l13.1-24c-3.2-6-5-12.7-5-19.7c0-26.5,25.6-48,57.1-48s57.1,21.5,57.1,48
		s-25.6,48-57.1,48c-14.7,0-28.2-4.7-38.3-12.4L1449.4-149.4L1449.4-149.4z"/>
	<g id="XMLID_422_">
		<circle id="XMLID_425_" class="st0" cx="1541.4" cy="-192.4" r="5.5"/>
		<circle id="XMLID_424_" class="st0" cx="1516.2" cy="-192.4" r="5.5"/>
		<circle id="XMLID_423_" class="st0" cx="1491.1" cy="-192.4" r="5.5"/>
	</g>
	<path id="XMLID_420_" class="st0" d="M1695.6-280c28.8,2.5,50.4,24.1,48.3,48.2c-0.4,4.4-1.6,8.6-3.4,12.5l11.8,21.3l-24.5-5.6
		c-10.3,7.9-24.5,12.3-39.8,10.9c-28.8-2.5-50.4-24.1-48.3-48.2S1666.9-282.5,1695.6-280z"/>
	<path id="XMLID_419_" class="st0" d="M1722.2-248.4h-12.6"/>
	<path id="XMLID_418_" class="st0" d="M1696-248.4h-30.3"/>
	<path id="XMLID_417_" class="st0" d="M1720.1-236.3h-30"/>
	<path id="XMLID_416_" class="st0" d="M1662.9-236.3h20.2"/>
	<path id="XMLID_415_" class="st0" d="M1715.2-224.6h-34.4"/>
	<path id="XMLID_414_" class="st0" d="M1674.2-224.6h-6.8"/>
	<circle id="XMLID_413_" class="st0" cx="1566.4" cy="286.4" r="26.2"/>
	<path id="XMLID_412_" class="st0" d="M1540.1,286.4c-3.6-4.2-9-6.8-15-6.8c-5.4,0-10.3,2.2-13.9,5.6"/>
	<circle id="XMLID_411_" class="st0" cx="1485" cy="286.4" r="26.2"/>
	<path id="XMLID_410_" class="st0" d="M1566.8,272.4c7.9,0,14.4,6.4,14.4,14.4"/>
	<path id="XMLID_409_" class="st0" d="M1537.8,67.8l-64.1-9.2l9.4-65.2l64.1,9.2L1537.8,67.8z"/>
	<path id="XMLID_408_" class="st0" d="M1481.5,3.9l-10.2-1.5l-9.3,65.2l64.1,9.2l1.5-10.5"/>
	<path id="XMLID_407_" class="st0" d="M1533.2,14.3l-40.9-5.9"/>
	<path id="XMLID_406_" class="st0" d="M1531.4,26.7l-40.9-5.8"/>
	<path class="st0" d="M1166.4,172.5c1.2-8.2,6.8-14.5,14-16.8l-2.9,20.4c-0.2,1.5,0.8,2.9,2.4,3.2l11.3,1.6c1.5,0.2,3-0.8,3.2-2.4
		l2.9-20.4c6.3,4.2,9.9,11.9,8.7,20.1c-1.4,9.9-8,17.3-17.3,17.9l-10.1,70.5l-10.8-1.5l10.2-70.5
		C1169.2,191.4,1165,182.4,1166.4,172.5z M1225.3,86.2l16.3,16.3l-16.7,16.6 M1213.3,127.4l-24.6-49.6 M1177.1,119.1l-16.3-16.3
		l16.7-16.6"/>
	<path id="XMLID_405_" class="st0" d="M1636.8-140.9h72.1v53.2h-72.1L1636.8-140.9z"/>
	<path id="XMLID_404_" class="st0" d="M1690-140.8v-13.5c0-9.5-7.7-17.1-17.1-17.1c-9.5,0-17.1,7.7-17.1,17.1v13.5"/>
	<path id="XMLID_403_" class="st0" d="M1666.7-101.5l5-17.4c-1.8-0.5-3.1-2.2-3.1-4.1c0-2.4,1.9-4.3,4.3-4.3s4.3,1.9,4.3,4.3
		c0,2-1.3,3.6-3.1,4.1l5,17.4H1666.7L1666.7-101.5z"/>
	<path id="XMLID_402_" class="st0" d="M1614.1,240.7l6.3,26.6c-4.7,4.9-8.2,10.9-10,17.7c-7,25.6,12,53,42.4,61.4
		c30.4,8.3,60.8-5.6,67.8-31.2s-12-53-42.4-61.4c-14.2-3.9-28.4-2.9-40.2,1.8L1614.1,240.7L1614.1,240.7z"/>
	<g id="XMLID_398_">
		<circle id="XMLID_401_" class="st0" cx="1691.4" cy="306.4" r="5.5"/>
		<circle id="XMLID_400_" class="st0" cx="1667.1" cy="299.7" r="5.5"/>
		<circle id="XMLID_399_" class="st0" cx="1642.9" cy="293.1" r="5.5"/>
	</g>
	<path id="XMLID_397_" class="st0" d="M1305.8,58.7h134.6v102.6h-134.6V58.7z"/>
	<path id="XMLID_396_" class="st0" d="M1371,71.7h54.2v74.5H1371V71.7z"/>
	<path id="XMLID_395_" class="st0" d="M1425.2,71.7l-54.2,74.5"/>
	<path id="XMLID_394_" class="st0" d="M1371,71.7l54.2,74.5"/>
	<path id="XMLID_393_" class="st0" d="M1318.1,131.1h42.2V146h-42.2V131.1z"/>
	<path id="XMLID_392_" class="st0" d="M1360.3,71.9h-42.2"/>
	<path id="XMLID_391_" class="st0" d="M1360.3,83h-42.2"/>
	<path id="XMLID_390_" class="st0" d="M1360.3,94.2h-42.2"/>
	<path id="XMLID_389_" class="st0" d="M1360.3,105.3h-42.2"/>
	<path id="XMLID_388_" class="st0" d="M1188.4,32.1l-3.7,9.7l90.1,33.6l18.2-48.8l-8.3-3.1"/>
	<path id="XMLID_387_" class="st0" d="M1284.7,23.5L1202.9-7l-14.5,39.1"/>
	<circle id="XMLID_386_" class="st0" cx="1238.8" cy="34.2" r="13.5"/>
	<path id="XMLID_385_" class="st0" d="M1286.6,37.6c-5.6-2.1-8.5-8.3-6.4-14"/>
	<path id="XMLID_384_" class="st0" d="M1191.7,29.9c5.6,2.1,8.5,8.3,6.4,14"/>
	<path id="XMLID_383_" class="st0" d="M1284,23.3l3.7-9.8L1197.6-20l-18.2,48.7l9,3.4"/>
	<path id="XMLID_382_" class="st0" d="M1277.5,9.5l3.6-9.7L1191-33.8l-18.1,48.7l8.9,3.4"/>
	<path id="XMLID_381_" class="st0" d="M1552.1,83h96.3v120.7h-96.3L1552.1,83z"/>
	<path id="XMLID_380_" class="st0" d="M1565.2,96.7h70v75.8h-70V96.7z"/>
	<path id="XMLID_379_" class="st0" d="M1635.1,170.6l-19.8-31.7l-15.1,13.4l-15.9-28.7l-19.1,18.7"/>
	<circle id="XMLID_378_" class="st0" cx="1617.6" cy="113.8" r="6.4"/>
	<path class="st0" d="M1267.2-119.8h244v93.2h-244V-119.8z"/>
	<path class="st0" d="M1478.4-107.3h20v14.1h-20V-107.3z M1445.5-107.3h20v14.1h-20V-107.3z M1412.5-107.3h20v14.1h-20V-107.3z
		 M1379.5-107.3h20v14.1h-20V-107.3z M1346.5-107.3h20v14.1h-20V-107.3z M1313.6-107.3h20v14.1h-20V-107.3z M1280.6-107.3h20v14.1
		h-20V-107.3z M1478.4-81.8h20v14.1h-20V-81.8z M1445.5-81.8h20v14.1h-20V-81.8z M1412.5-81.8h20v14.1h-20V-81.8z M1379.5-81.8h20
		v14.1h-20V-81.8z M1346.5-81.8h20v14.1h-20V-81.8z M1313.6-81.8h20v14.1h-20V-81.8z M1280.6-81.8h20v14.1h-20V-81.8z M1412.5-56.4
		h85.6v14.1h-85.6V-56.4z M1379.2-56.4h20v14.1h-20V-56.4z M1346.2-56.4h20v14.1h-20V-56.4z M1313.2-56.4h20v14.1h-20V-56.4z
		 M1280.3-56.4h20v14.1h-20V-56.4z"/>
	<g>
		<path class="st0" d="M1391.1-119.8l-0.2-48.7c-0.1-16.6-13.7-30.2-30.3-30.2h-38.2c-16.6,0-30.2-13.6-30.2-30.2v-16.9
			c0-16.6-13.6-30.2-30.2-30.2h-52.5H1060"/>
	</g>
	<g>
		<path id="XMLID_377_" class="st0" d="M1168.3-165.4h18.5v101.8h-18.5V-165.4z"/>
		<path id="XMLID_376_" class="st0" d="M1186.7-165.4l-9.2-22.5l-9.2,22.5"/>
		<path id="XMLID_375_" class="st0" d="M1168.3-61.7v6.4c0,2.8,2.3,5,5,5h8.4c2.8,0,5-2.3,5-5v-6.4"/>
	</g>
	<g>
		<path class="st0" d="M1470.2,211.1c3.7,16.2,20,26.4,36.2,22.7l5.2-1.2c16.2-3.7,26.4-20,22.7-36.2l-7.4-32.1
			c-3.7-16.2-20-26.4-36.2-22.7l-5.2,1.2c-16.2,3.7-26.4,20-22.7,36.2L1470.2,211.1z"/>
		<path class="st0" d="M1500.7,172.2l-11.1,2.6l-4-17.2l11.1-2.6L1500.7,172.2z M1495.2,173.5l2.8,12.5 M1530,178.6l-63.9,14.7
			 M1488,142.3l2.9,12.4"/>
	</g>
	<path class="st0" d="M1225.3,206.4h215.1v129.7h-215.1V206.4z"/>
	<path class="st0" d="M1237.8,220.1h94.8v101h-94.8V220.1z M1346.5,220.1h80.3v101.4h-80.3V220.1z M1425.2,221.5l-77.3,100
		 M1426.9,321.5l-80.4-101.4"/>
	<g>
		<path class="st0" d="M1440.4,204.4v-10.7c0-4.4-3.6-8-8-8h-199.1c-4.4,0-8,3.6-8,8v13.2"/>
	</g>
	<circle class="st1" cx="1426.7" cy="196.5" r="4.2"/>
	<circle class="st1" cx="1413.3" cy="196.5" r="4.2"/>
	<circle class="st1" cx="1399.9" cy="196.5" r="4.2"/>
	<circle id="XMLID_374_" class="st0" cx="1313" cy="-161.1" r="26.2"/>
	<path id="XMLID_373_" class="st0" d="M1286.8-161.1c-3.6-4.2-9-6.8-15-6.8c-5.4,0-10.3,2.2-13.9,5.6"/>
	<circle id="XMLID_372_" class="st0" cx="1231.6" cy="-161.1" r="26.2"/>
	<path id="XMLID_346_" class="st0" d="M1313.4-175.1c7.9,0,14.4,6.4,14.4,14.4"/>
	<path class="st0" d="M1742.8,95.9l-36.5,21.9 M1668.7,146.7l-5.6-9.3l40.8-24.5l5.6,9.3L1668.7,146.7z M1759.7,81.8l4,6.7l-16,12.9
		l-7.5-12.5L1759.7,81.8z M1705.9-41.4h69.7v93.3h-69.7V-41.4z"/>
	<g>
		<path class="st0" d="M1706.7-22.3c-15.2,0-27.6,12.3-27.6,27.6s12.3,27.6,27.6,27.6"/>
		<path class="st0" d="M1706.7-12.4c-9.5,0-17.1,7.7-17.1,17.1s7.7,17.1,17.1,17.1"/>
	</g>
	<g>
		<path class="st0" d="M1756.3-119c0,8-8,8-8,16s8,8,8,16s-8,8-8,16s8,8,8,16"/>
	</g>
	<g>
		<path class="st0" d="M1737.3-138.2c0,9.4-8,9.4-8,18.8s8,9.4,8,18.8s-8,9.4-8,18.8s8,9.4,8,18.8"/>
	</g>
	<path id="XMLID_26_" class="st0" d="M1539.8,333.5c28.8,2.5,50.4,24.1,48.3,48.2c-0.4,4.4-1.6,8.6-3.4,12.5l11.8,21.3l-24.5-5.6
		c-10.3,7.9-24.5,12.3-39.8,10.9c-28.8-2.5-50.4-24.1-48.3-48.2C1486,348.5,1511.1,331,1539.8,333.5z"/>
	<path id="XMLID_25_" class="st0" d="M1566.4,365.1h-12.6"/>
	<path id="XMLID_23_" class="st0" d="M1540.2,365.1h-30.3"/>
	<path id="XMLID_20_" class="st0" d="M1564.3,377.2h-30"/>
	<path id="XMLID_19_" class="st0" d="M1507.1,377.2h20.2"/>
	<path id="XMLID_18_" class="st0" d="M1559.4,388.9H1525"/>
	<path id="XMLID_17_" class="st0" d="M1518.4,388.9h-6.8"/>
	<path class="st0" d="M1680.4,454.8c1.2-8.2,6.8-14.5,14-16.8l-2.9,20.4c-0.2,1.5,0.8,2.9,2.4,3.2l11.3,1.6c1.5,0.2,3-0.8,3.2-2.4
		l2.9-20.4c6.3,4.2,9.9,11.9,8.7,20.1c-1.4,9.9-8,17.3-17.3,17.9l-10.1,70.5l-10.8-1.5l10.2-70.5
		C1683.2,473.7,1679,464.7,1680.4,454.8z M1739.3,368.5l16.3,16.3l-16.7,16.6 M1727.3,409.7l-24.6-49.6 M1691.1,401.4l-16.3-16.3
		l16.7-16.6"/>
	<path id="XMLID_232_" class="st0" d="M1528-269.2l-64.1-9.2l9.4-65.2l64.1,9.2L1528-269.2z"/>
	<path id="XMLID_231_" class="st0" d="M1471.7-333.1l-10.2-1.5l-9.3,65.2l64.1,9.2l1.5-10.5"/>
	<path id="XMLID_230_" class="st0" d="M1523.4-322.7l-40.9-5.9"/>
	<path id="XMLID_229_" class="st0" d="M1521.6-310.3l-40.9-5.8"/>
</g>
<g>
	<path id="XMLID_11_" class="st0" d="M3154.7,359.6v-65.9h3.2c7.2,3,16.3,4.7,26.2,4.7c9.9,0,19-1.8,26.2-4.7h3.2v64.8"/>
	<path id="XMLID_10_" class="st0" d="M3154.7,349.1c-1.9,0.4-3.9,0.9-5.9,1.4c-0.4,0.1-1.2,0.3-2.2,0.7c-6.1,2.2-13.9,7.2-13.9,10.7
		c0,8.7,23.1,15.7,51.5,15.7c28.5,0,51.5-7,51.5-15.7c0-4.2-6.7-8.6-15.5-11.4c-2.9-1.1-5.3-1.8-6.5-2.1"/>
	<path id="XMLID_9_" class="st0" d="M3154.7,322.7v-31.4c7.7-3.9,18.1-6.2,29.5-6.2s21.8,2.4,29.5,6.2v31.4"/>
	<path id="XMLID_8_" class="st0" d="M3153.7,312.3c-1.1-0.7-2.4-1-3.7-1c-5.2,0-9.5,5.8-9.5,12.9s4.2,12.9,9.5,12.9
		c1.7,0,3.3-0.6,4.6-1.6"/>
	<path id="XMLID_6_" class="st0" d="M3213.6,327.1v31.4c-7.7,3.9-18.1,6.2-29.5,6.2s-21.8-2.4-29.5-6.2v-31.4"/>
	<g id="XMLID_4_">
		<path class="st0" d="M3179.7,223.5c0,6.4-12,6.4-12,12.9c0,6.4,12,6.4,12,12.9c0,6.4-12,6.4-12,12.9c0,6.4,12,6.4,12,12.9"/>
	</g>
	<path id="XMLID_3_" class="st0" d="M3202.7,335.5v-28.2"/>
	<g id="XMLID_1_">
		<path class="st0" d="M3204.6,201.9c0,8.2-12,8.2-12,16.4s12,8.2,12,16.4s-12,8.2-12,16.4c0,8.2,12,8.2,12,16.4"/>
	</g>
</g>
<path class="st0" d="M3251.7,262.1h15.4v93.3h-15.4V262.1z M3259.5,249.1l-6.1,11.4h12.1L3259.5,249.1z M3267.2,344.7h-15.5
	 M3259.5,249.1v-7 M2474.9,336.8l16.3,16.3l-16.7,16.7 M2462.9,378.1l-24.5-49.6 M2426.8,369.8l-16.3-16.3l16.6-16.7"/>
<g>
	<path id="XMLID_16_" class="st0" d="M2551.1,397l-3.1,10l91.8,28.3l15.4-49.8l-8.5-2.6"/>
	<path id="XMLID_15_" class="st0" d="M2646.6,382.9l-83.4-25.6l-12.2,39.7"/>
	<circle id="XMLID_14_" class="st0" cx="2601.5" cy="396.2" r="13.5"/>
	<path id="XMLID_13_" class="st0" d="M2649.4,396.8c-5.7-1.8-9-7.8-7.1-13.6"/>
	<path id="XMLID_12_" class="st0" d="M2554.2,394.6c5.7,1.8,9,7.8,7.1,13.6"/>
	<path id="XMLID_5_" class="st0" d="M2646,382.7l3.1-10l-91.9-28.3l-15.3,49.8l9.1,2.8"/>
	<path id="XMLID_2_" class="st0" d="M2638.6,369.3l3.1-10l-91.9-28.2l-15.3,49.7l9.1,2.8"/>
</g>
<g>
	<path class="st0" d="M1994.8,380.8h215.1v129.7h-215.1V380.8z"/>
	<path class="st0" d="M2007.4,394.5h94.8v101h-94.8V394.5z M2116.1,394.5h80.3v101.4h-80.3V394.5z M2194.7,395.9l-77.3,100
		 M2196.4,495.9l-80.3-101.4"/>
	<g>
		<path class="st0" d="M2209.9,378.8v-10.7c0-4.4-3.6-8-8-8h-199.1c-4.4,0-8,3.6-8,8v13.2"/>
	</g>
	<circle class="st1" cx="2196.2" cy="370.9" r="4.2"/>
	<circle class="st1" cx="2182.8" cy="370.9" r="4.2"/>
	<circle class="st1" cx="2169.4" cy="370.9" r="4.2"/>
</g>
<circle id="XMLID_45_" class="st0" cx="2303.8" cy="460.1" r="26.2"/>
<path id="XMLID_44_" class="st0" d="M2330,460.1c3.6-4.2,9-6.8,15-6.8c5.4,0,10.3,2.2,13.9,5.6"/>
<circle id="XMLID_43_" class="st0" cx="2385.2" cy="460.1" r="26.2"/>
<path id="XMLID_41_" class="st0" d="M2303.4,446.1c-7.9,0-14.4,6.4-14.4,14.4"/>
<g>
	<path class="st0" d="M1957.5,432.5c-3.7,16.2-20,26.4-36.2,22.7l-5.2-1.2c-16.2-3.7-26.4-20-22.7-36.2l7.4-32.1
		c3.7-16.2,20-26.4,36.2-22.7l5.2,1.2c16.2,3.7,26.4,20,22.7,36.2L1957.5,432.5z"/>
	<path class="st0" d="M1930.9,376.4l11.1,2.6l-4,17.2l-11.1-2.6L1930.9,376.4z M1932.5,394.9l-2.9,12.5 M1897.7,400l63.9,14.7
		 M1939.7,363.7l-2.9,12.5"/>
</g>
<path id="XMLID_66_" class="st0" d="M2699.5,350.1h134.6v102.6h-134.6V350.1z"/>
<path id="XMLID_59_" class="st0" d="M2764.7,363h54.2v74.5h-54.2V363z"/>
<path id="XMLID_58_" class="st0" d="M2818.9,363l-54.2,74.5"/>
<path id="XMLID_57_" class="st0" d="M2764.7,363l54.2,74.5"/>
<path id="XMLID_56_" class="st0" d="M2711.8,422.4h42.2v14.9h-42.2V422.4z"/>
<path id="XMLID_54_" class="st0" d="M2754,363.2h-42.2"/>
<path id="XMLID_53_" class="st0" d="M2754,374.4h-42.2"/>
<path id="XMLID_47_" class="st0" d="M2754,385.5h-42.2"/>
<path id="XMLID_46_" class="st0" d="M2754,396.6h-42.2"/>
<g>
	<path id="XMLID_82_" class="st0" d="M1775.5,580.3v-65.9h3.2c7.2,3,16.3,4.7,26.2,4.7c9.9,0,19-1.8,26.2-4.7h3.2v64.8"/>
	<path id="XMLID_80_" class="st0" d="M1775.5,569.8c-1.9,0.4-3.9,0.9-5.9,1.4c-0.4,0.1-1.2,0.3-2.2,0.7c-6.1,2.2-13.9,7.2-13.9,10.7
		c0,8.7,23.1,15.7,51.5,15.7c28.5,0,51.5-7,51.5-15.7c0-4.2-6.7-8.6-15.5-11.4c-2.9-1.1-5.3-1.8-6.5-2.1"/>
	<path id="XMLID_77_" class="st0" d="M1775.5,543.4V512c7.7-3.9,18.1-6.2,29.5-6.2s21.8,2.4,29.5,6.2v31.4"/>
	<path id="XMLID_76_" class="st0" d="M1774.5,533c-1.1-0.7-2.4-1-3.7-1c-5.2,0-9.5,5.8-9.5,12.9s4.2,12.9,9.5,12.9
		c1.7,0,3.3-0.6,4.6-1.6"/>
	<path id="XMLID_75_" class="st0" d="M1834.4,547.8v31.4c-7.7,3.9-18.1,6.2-29.5,6.2s-21.8-2.4-29.5-6.2v-31.4"/>
	<g id="XMLID_74_">
		<path class="st0" d="M1800.5,444.2c0,6.4-12,6.4-12,12.9c0,6.4,12,6.4,12,12.9c0,6.4-12,6.4-12,12.9c0,6.4,12,6.4,12,12.9"/>
	</g>
	<path id="XMLID_73_" class="st0" d="M1823.5,556.2V528"/>
	<g id="XMLID_72_">
		<path class="st0" d="M1825.4,422.6c0,8.2-12,8.2-12,16.4s12,8.2,12,16.4s-12,8.2-12,16.4s12,8.2,12,16.4"/>
	</g>
</g>
<circle id="XMLID_204_" class="st0" cx="2161.8" cy="-333" r="26.2"/>
<path id="XMLID_201_" class="st0" d="M2135.6-333c-3.6-4.2-9-6.8-15-6.8c-5.4,0-10.3,2.2-13.9,5.6"/>
<circle id="XMLID_200_" class="st0" cx="2080.4" cy="-333" r="26.2"/>
<path id="XMLID_199_" class="st0" d="M2162.2-347c7.9,0,14.4,6.4,14.4,14.4"/>
<g>
	<path class="st0" d="M1419.4-252.6c-3.7,16.2-20,26.4-36.2,22.7l-5.2-1.2c-16.2-3.7-26.4-20-22.7-36.2l7.4-32.1
		c3.7-16.2,20-26.4,36.2-22.7l5.2,1.2c16.2,3.7,26.4,20,22.7,36.2L1419.4-252.6z"/>
	<path class="st0" d="M1392.9-308.7l11.1,2.6l-4,17.2l-11.1-2.6L1392.9-308.7z M1394.4-290.2l-2.9,12.5 M1359.7-285.1l63.9,14.7
		 M1401.7-321.4l-2.9,12.5"/>
</g>
<g>
	<path id="XMLID_223_" class="st0" d="M1866.5-301.9l3.7,9.8l89.7-34.4l-18.6-48.7l-8.3,3.2"/>
	<path id="XMLID_220_" class="st0" d="M1933-372l-81.4,31.3l14.9,38.8"/>
	<circle id="XMLID_219_" class="st0" cx="1905.7" cy="-333.6" r="13.5"/>
	<path id="XMLID_211_" class="st0" d="M1943.8-362.7c-5.6,2.1-11.9-0.6-14-6.3"/>
	<path id="XMLID_210_" class="st0" d="M1867.5-305.7c5.6-2.1,11.9,0.6,14,6.3"/>
	<path id="XMLID_207_" class="st0" d="M1932.4-371.7l-3.7-9.8l-89.8,34.4l18.7,48.6l8.9-3.4"/>
	<path id="XMLID_205_" class="st0" d="M1918.3-377.7l-3.7-9.8l-89.7,34.5l18.6,48.6l8.9-3.4"/>
</g>
<path id="XMLID_228_" class="st0" d="M2494.4-309.9h72.1v53.2h-72.1V-309.9z"/>
<path id="XMLID_226_" class="st0" d="M2513.4-309.8v-13.5c0-9.5,7.7-17.1,17.1-17.1c9.5,0,17.1,7.7,17.1,17.1v13.5"/>
<path id="XMLID_224_" class="st0" d="M2536.8-270.4l-5-17.4c1.8-0.5,3.1-2.2,3.1-4.1c0-2.4-1.9-4.3-4.3-4.3c-2.4,0-4.3,1.9-4.3,4.3
	c0,2,1.3,3.6,3.1,4.1l-5,17.4H2536.8L2536.8-270.4z"/>
<g id="XMLID_241_">
	<path class="st0" d="M1638.4-309.8c0,5.5-4.5,10-10,10h-42.6c-5.5,0-10-4.5-10-10v-95.8c0-5.5,4.5-10,10-10h42.6
		c5.5,0,10,4.5,10,10V-309.8z"/>
</g>
<path id="XMLID_240_" class="st0" d="M1638.4-323.2h-62.6"/>
<circle id="XMLID_238_" class="st0" cx="1607.3" cy="-311.2" r="2.8"/>
<path id="XMLID_237_" class="st0" d="M1604.5-392.7l14.7,27.3"/>
<path id="XMLID_236_" class="st0" d="M1589.1-398.2l26.4,48.7"/>
<path id="XMLID_234_" class="st0" d="M1658.9-412.8c0-10-8.1-18.1-18.1-18.1"/>
<path id="XMLID_233_" class="st0" d="M1672.2-417.6c0-14.7-11.9-26.6-26.6-26.6"/>
</svg>
