<?xml version="1.0" encoding="utf-8"?>
<!-- Generator: Adobe Illustrator 19.0.0, SVG Export Plug-In . SVG Version: 6.00 Build 0)  -->
<svg version="1.1" id="Layer_1" xmlns="http://www.w3.org/2000/svg" xmlns:xlink="http://www.w3.org/1999/xlink" x="0px" y="0px"
	 viewBox="0 0 50 50" style="enable-background:new 0 0 50 50;" xml:space="preserve">
<style type="text/css">
	.st0{fill:#FFFFFF;}
</style>
<path id="XMLID_6_" class="st0" d="M35.1,8.5H14.9c-3.5,0-6.4,2.9-6.4,6.4v6.7v13.5c0,3.5,2.9,6.4,6.4,6.4h20.2
	c3.5,0,6.4-2.9,6.4-6.4V21.6v-6.7C41.5,11.4,38.6,8.5,35.1,8.5z M37,12.3l0.7,0V13v4.9l-5.6,0l0-5.6L37,12.3z M20.3,21.6
	c1.1-1.5,2.8-2.4,4.7-2.4s3.7,1,4.7,2.4c0.7,1,1.1,2.1,1.1,3.4c0,3.2-2.6,5.8-5.8,5.8s-5.8-2.6-5.8-5.8
	C19.2,23.7,19.6,22.6,20.3,21.6z M38.3,35.1c0,1.7-1.4,3.2-3.2,3.2H14.9c-1.7,0-3.2-1.4-3.2-3.2V21.6h4.9c-0.4,1-0.7,2.2-0.7,3.4
	c0,5,4,9,9,9c5,0,9-4,9-9c0-1.2-0.2-2.3-0.7-3.4h4.9V35.1z"/>
</svg>
