<?xml version="1.0" encoding="utf-8"?>
<!-- Generator: Adobe Illustrator 19.0.0, SVG Export Plug-In . SVG Version: 6.00 Build 0)  -->
<svg version="1.1" id="Layer_1" xmlns="http://www.w3.org/2000/svg" xmlns:xlink="http://www.w3.org/1999/xlink" x="0px" y="0px"
	 viewBox="-524 -26.5 350.8 302.5" style="enable-background:new -524 -26.5 350.8 302.5;" xml:space="preserve">
<style type="text/css">
	.st0{opacity:0.65;}
	.st1{fill:#68637E;}
</style>
<g id="XMLID_51_" class="st0">
	<g id="XMLID_78_">
		<g id="XMLID_17_">
			<path id="XMLID_30_" class="st1" d="M-193.7,172.8H-459c-11.3,0-20.5-9.2-20.5-20.5V-6c-0.1-11.3,9.2-20.5,20.5-20.5h265.3
				c11.3,0,20.5,9.2,20.5,20.5v158.3C-173.2,163.6-182.4,172.8-193.7,172.8z M-459-15.5c-5.2,0-9.5,4.4-9.5,9.5v158.3
				c0,5.2,4.4,9.5,9.5,9.5h265.3c5.2,0,9.5-4.4,9.5-9.5V-6c0-5.2-4.4-9.5-9.5-9.5H-459z"/>
		</g>
	</g>
	<g id="XMLID_75_">
		<g id="XMLID_15_">
			<path id="XMLID_27_" class="st1" d="M-241.2,276h-267.4c-5.9,0-10.8-2.4-13.4-6.6s-2.6-9.6-0.1-14.8l36.6-75.8
				c4.5-9.3,16.2-16.6,26.5-16.6h265.3c5.9,0,10.8,2.4,13.4,6.6c2.7,4.2,2.8,9.6,0.3,14.9l-34.9,75.6
				C-219.3,268.6-230.8,276-241.2,276z M-459,173.1c-6.1,0-13.9,4.9-16.6,10.4l-36.6,75.8c-0.9,1.8-1,3.3-0.5,4.2
				c0.6,0.9,2.1,1.4,4.1,1.4h267.4c6.1,0,13.8-4.9,16.4-10.5l34.9-75.6c0.8-1.8,1-3.4,0.4-4.3c-0.6-0.9-2.1-1.5-4.1-1.5H-459V173.1z
				"/>
		</g>
	</g>
	<g id="XMLID_74_">
		<path id="XMLID_24_" class="st1" d="M-197.9,146.9h-258.5V-3.4h258.5V146.9z M-445.4,135.9h236.5V7.6h-236.5V135.9z"/>
	</g>
	<g id="XMLID_68_">
		<path id="XMLID_21_" class="st1" d="M-400.3,77.1v-0.3c0-0.4,0.3-0.9,0.7-1.2l23.8-14.4c0.9-0.5,1.9,0,1.9,1.1v5.9
			c0,0.3-0.3,0.8-0.5,0.9l-12.9,7.6l12.9,7.4c0.3,0.1,0.5,0.7,0.5,0.9v5.9c0,1.1-1,1.6-1.9,1.1l-23.8-13.9
			C-399.9,78-400.3,77.5-400.3,77.1z"/>
	</g>
	<g id="XMLID_61_">
		<path id="XMLID_18_" class="st1" d="M-295.6,45.9c0.1-0.5,0.7-0.9,1.2-0.9h6.6c0.9,0,1.5,0.7,1.2,1.7l-13.1,44.9
			c-0.1,0.5-0.7,0.9-1.2,0.9h-6.7c-0.9,0-1.5-0.7-1.2-1.7L-295.6,45.9z"/>
	</g>
	<g id="XMLID_59_">
		<path id="XMLID_16_" class="st1" d="M-283.3,85.1c0-0.3,0.3-0.8,0.5-0.9l12.9-7.4l-12.9-7.6c-0.3-0.1-0.5-0.7-0.5-0.9v-5.9
			c0-1.1,1-1.6,1.9-1.1l23.8,14.4c0.3,0.2,0.7,0.7,0.7,1.2v0.3c0,0.4-0.3,0.9-0.7,1.1l-23.8,13.9c-0.9,0.5-1.9,0-1.9-1.1V85.1z"/>
	</g>
</g>
</svg>
