<?xml version="1.0" encoding="utf-8"?>
<!-- Generator: Adobe Illustrator 16.0.0, SVG Export Plug-In . SVG Version: 6.00 Build 0)  -->
<!DOCTYPE svg PUBLIC "-//W3C//DTD SVG 1.1//EN" "http://www.w3.org/Graphics/SVG/1.1/DTD/svg11.dtd">
<svg version="1.1" id="Layer_1" xmlns="http://www.w3.org/2000/svg" xmlns:xlink="http://www.w3.org/1999/xlink" x="0px" y="0px"
	 width="411.234px" height="409.203px" viewBox="188.253 419.49 411.234 409.203"
	 enable-background="new 188.253 419.49 411.234 409.203" xml:space="preserve">
<g id="XMLID_51_">
	<g id="XMLID_78_">
		<path id="XMLID_17_" fill="none" stroke="#67627E" stroke-width="8" stroke-miterlimit="10" d="M322.113,496.601h256.45
			c9.251,0,16.924,7.672,16.924,16.923v178.15c0,9.251-7.673,16.924-16.924,16.924H279.917c-9.252,0-16.924-7.673-16.924-16.924
			v-178.15c0-9.251,7.672-16.923,16.924-16.923H322.113"/>
	</g>
	<g id="XMLID_75_">
		<path id="XMLID_15_" fill="none" stroke="#67627E" stroke-width="8" stroke-miterlimit="10" d="M322.113,708.936h256.45
			c9.251,0,13.765,6.883,9.815,15.344l-39.263,85.07c-3.949,8.462-14.667,15.344-24.031,15.344H224.069
			c-9.252,0-13.652-6.882-9.59-15.231l41.181-85.295c4.062-8.349,15.005-15.231,24.257-15.231H322.113"/>
	</g>
	
		<rect id="XMLID_74_" x="289.056" y="522.55" fill="none" stroke="#67627E" stroke-width="8" stroke-miterlimit="10" width="278.563" height="156.826"/>
	<g id="XMLID_58_">
		<path id="XMLID_68_" fill="#67627E" d="M346.032,607.056v-0.339c0-0.451,0.339-1.016,0.79-1.354l26.739-16.247
			c1.016-0.564,2.144,0,2.144,1.241v6.656c0,0.339-0.338,0.902-0.564,1.016l-14.554,8.574l14.554,8.35
			c0.339,0.112,0.564,0.79,0.564,1.016v6.656c0,1.241-1.128,1.806-2.144,1.241l-26.739-15.683
			C346.483,608.07,346.032,607.507,346.032,607.056z"/>
		<path id="XMLID_66_" fill="#67627E" d="M382.136,572.306c0-0.79,0.678-1.467,1.467-1.467h8.462c0.79,0,1.467,0.677,1.467,1.467
			v22.452c2.257-1.129,4.852-1.806,7.108-1.806c9.59,0,14.554,7.56,14.554,16.021v13.877c0,0.79-0.677,1.467-1.467,1.467h-8.123
			c-0.79,0-1.467-0.677-1.467-1.467v-13.99c0-3.385-2.256-5.979-5.528-5.979c-2.482,0-5.077,1.354-5.077,5.979v13.99
			c0,1.016-0.338,1.467-1.692,1.467h-8.236c-0.789,0-1.467-0.677-1.467-1.467V572.306z"/>
		<path id="XMLID_63_" fill="#67627E" d="M429.071,588.552h-7.334c-0.79,0-1.354-0.677-1.354-1.467v-4.851
			c0-0.339,0.226-0.903,0.451-1.129l11.17-8.688H439c0.789,0,1.354,0.677,1.354,1.467v49.079c0,0.789-0.564,1.467-1.354,1.467
			h-8.462c-0.79,0-1.467-0.678-1.467-1.467V588.552z"/>
		<path id="XMLID_61_" fill="#67627E" d="M463.821,571.854c0.112-0.564,0.789-1.016,1.354-1.016h7.446
			c1.016,0,1.692,0.79,1.354,1.918l-14.78,50.545c-0.113,0.564-0.79,1.016-1.354,1.016h-7.559c-1.016,0-1.692-0.79-1.354-1.918
			L463.821,571.854z"/>
		<path id="XMLID_59_" fill="#67627E" d="M477.698,616.081c0-0.338,0.339-0.902,0.564-1.016l14.554-8.349l-14.554-8.574
			c-0.339-0.113-0.564-0.79-0.564-1.016v-6.657c0-1.24,1.128-1.805,2.144-1.24l26.739,16.246c0.339,0.226,0.79,0.79,0.79,1.354
			v0.338c0,0.451-0.338,1.016-0.79,1.241l-26.739,15.683c-1.016,0.564-2.144,0-2.144-1.241V616.081z"/>
	</g>
	<path id="XMLID_55_" fill="none" stroke="#67627E" stroke-width="8" stroke-miterlimit="10" d="M225.31,509.801
		c0-29.561,21.888-53.479,48.966-53.479"/>
	<path id="XMLID_52_" fill="none" stroke="#67627E" stroke-width="8" stroke-miterlimit="10" d="M192.253,509.801
		c0-47.612,35.314-86.311,78.977-86.311"/>
</g>
</svg>
