<?xml version="1.0" encoding="utf-8"?>
<!-- Generator: Adobe Illustrator 19.0.0, SVG Export Plug-In . SVG Version: 6.00 Build 0)  -->
<svg version="1.1" id="Layer_1" xmlns="http://www.w3.org/2000/svg" xmlns:xlink="http://www.w3.org/1999/xlink" x="0px" y="0px"
	 viewBox="-535 -63.7 328.8 376.7" style="enable-background:new -535 -63.7 328.8 376.7;" xml:space="preserve">
<style type="text/css">
	.st0{opacity:0.8;}
	.st1{fill:#EE8081;}
</style>
<g id="XMLID_37_" class="st0">
	<path id="XMLID_12_" class="st1" d="M-376,80.7c-39.8,0-72.2-32.4-72.2-72.2s32.4-72.2,72.2-72.2s72.2,32.4,72.2,72.2
		S-336.2,80.7-376,80.7z M-376-53.7c-34.3,0-62.2,27.9-62.2,62.2s27.9,62.2,62.2,62.2s62.2-27.9,62.2-62.2S-341.7-53.7-376-53.7z"/>
</g>
<g id="XMLID_34_" class="st0">
	<g id="XMLID_45_">
		<path id="XMLID_9_" class="st1" d="M-261,313h-254c-11,0-20-9-20-20V141.9c0-11,9-20,20-20h254c11,0,20,9,20,20V293
			C-241,304-250,313-261,313z M-515,131.9c-5.4,0-10,4.6-10,10V293c0,5.4,4.6,10,10,10h254c5.4,0,10-4.6,10-10V141.9
			c0-5.4-4.6-10-10-10H-515z"/>
	</g>
</g>
<g id="XMLID_31_" class="st0">
	<g id="XMLID_48_">
		<path id="XMLID_8_" class="st1" d="M-248,307.2c-1.2,0-2.5-0.5-3.4-1.4c-2-1.9-2.1-5.1-0.2-7.1l33.6-35.4c0.9-0.9,1.4-1.7,1.6-2.1
			c-0.5-0.2-1.4-0.3-2.7-0.3H-246c-2.8,0-5-2.2-5-5s2.2-5,5-5h26.9c8.3,0,11.2,3.9,12.2,6.2c1,2.3,1.8,7.1-3.9,13.1l-33.6,35.4
			C-245.4,306.7-246.7,307.2-248,307.2z"/>
	</g>
</g>
<g id="XMLID_28_" class="st0">
	<path id="XMLID_7_" class="st1" d="M-476.4,131.9c-0.9,0-1.8-0.2-2.6-0.7c-2.4-1.4-3.1-4.5-1.7-6.9c15.6-25.9,43.9-41.9,73.9-41.9
		h59.5c30,0,58.3,16.1,73.9,41.9c1.4,2.4,0.7,5.4-1.7,6.9c-2.4,1.4-5.4,0.7-6.9-1.7c-13.8-22.9-38.8-37.1-65.3-37.1h-59.5
		c-26.5,0-51.6,14.2-65.3,37.1C-473.1,131-474.7,131.9-476.4,131.9z"/>
</g>
<g id="XMLID_18_" class="st0">
	<g id="XMLID_62_">
		<g id="XMLID_63_">
			<path id="XMLID_1_" class="st1" d="M-418.2,239.1l24.7-53c0.2-0.5,0.8-0.9,1.3-0.9h0.8c0.6,0,1.1,0.4,1.3,0.9l24.7,53
				c0.5,1-0.2,2-1.3,2h-8.7c-1.4,0-2-0.5-2.8-2l-2.8-6.2h-21.4l-2.8,6.3c-0.4,0.9-1.3,1.9-2.8,1.9h-8.7
				C-418.1,241.2-418.7,240.2-418.2,239.1z M-385.9,222.3l-6-13h-0.1l-5.9,13H-385.9z"/>
		</g>
	</g>
</g>
<g id="XMLID_21_" class="st0">
	<path id="XMLID_3_" class="st1" d="M-377,51.4c-16,0-29-13-29-29c0-2.8,2.2-5,5-5s5,2.2,5,5c0,10.5,8.5,19,19,19s19-8.5,19-19
		c0-2.8,2.2-5,5-5s5,2.2,5,5C-348,38.4-361,51.4-377,51.4z"/>
</g>
</svg>
