<?xml version="1.0" encoding="utf-8"?>
<!-- Generator: Adobe Illustrator 16.0.0, SVG Export Plug-In . SVG Version: 6.00 Build 0)  -->
<!DOCTYPE svg PUBLIC "-//W3C//DTD SVG 1.1//EN" "http://www.w3.org/Graphics/SVG/1.1/DTD/svg11.dtd">
<svg version="1.1" id="Layer_1" xmlns="http://www.w3.org/2000/svg" xmlns:xlink="http://www.w3.org/1999/xlink" x="0px" y="0px"
	 width="641.93px" height="391.671px" viewBox="0 0 641.93 391.671" enable-background="new 0 0 641.93 391.671"
	 xml:space="preserve">
<path fill="#FFF200" d="M110.596,11.921l71.526,56.199l15.327-52.793l50.238,69.823L280.896,0l22.139,57.902l21.288-26.396
	l26.396,42.574L424.798,0L403.51,101.328l69.823-59.604l-5.108,43.426l88.556-29.802l-54.496,78.338l81.743-14.476l-45.13,45.98
	l103.032,34.061l-95.367,13.623l50.237,45.98l-91.11-19.584l74.933,100.477l-91.111-42.574l-4.257,32.355l-37.466-22.989
	l-11.069,66.416l-62.159-94.516l-6.886,113.231l-41.649-71.508l-28.1,34.911c0,0-17.881-33.208-17.881-35.764
	c0-2.554-39.169,58.753-39.169,58.753l8.515-88.555l-43.426,45.129l0.852-40.02l-80.892,51.941l22.99-77.487l-94.063,30.896
	l53.994-79.706L0,212.549l100.274-47.138l-65.136-39.424l80.563-7.713l-25.542-42.49h34.06L110.596,11.921z"/>
<path fill="#FFF200" d="M110.596,11.921l71.526,56.199l15.327-52.793l50.238,69.823L280.896,0l22.139,57.902l21.288-26.396
	l26.396,42.574L424.798,0L403.51,101.328l69.823-59.604l-5.108,43.426l88.556-29.802l-54.496,78.338l81.743-14.476l-45.13,45.98
	l103.032,34.061l-95.367,13.623l50.237,45.98l-91.11-19.584l74.933,100.477l-91.111-42.574l-4.257,32.355l-37.466-22.989
	l-11.069,66.416l-62.159-94.516l-6.886,113.231l-41.649-71.508l-28.1,34.911c0,0-17.881-33.208-17.881-35.764
	c0-2.554-39.169,58.753-39.169,58.753l8.515-88.555l-43.426,45.129l0.852-40.02l-80.892,51.941l22.99-77.487l-94.063,30.896
	l53.994-79.706L0,212.549l100.274-47.138l-65.136-39.424l80.563-7.713l-25.542-42.49h34.06L110.596,11.921z"/>
<path fill="#FBEE23" d="M110.596,11.921l71.526,56.199l15.327-52.793l50.238,69.823L280.896,0l22.139,57.902l21.288-26.396
	l26.396,42.574L424.798,0L403.51,101.328l69.823-59.604l-5.108,43.426l88.556-29.802l-54.496,78.338l81.743-14.476l-45.13,45.98
	l103.032,34.061l-95.367,13.623l50.237,45.98l-91.11-19.584l74.933,100.477l-91.111-42.574l-4.257,32.355l-37.466-22.989
	l-11.069,66.416l-62.159-94.516l-6.886,113.231l-41.649-71.508l-28.1,34.911c0,0-17.881-33.208-17.881-35.764
	c0-2.554-39.169,58.753-39.169,58.753l8.515-88.555l-43.426,45.129l0.852-40.02l-80.892,51.941l22.99-77.487l-94.063,30.896
	l53.994-79.706L0,212.549l100.274-47.138l-65.136-39.424l80.563-7.713l-25.542-42.49h34.06L110.596,11.921z"/>
<path opacity="0.5" d="M567.441,261.543c-8.166-16.855-22.568-31.31-40.669-40.859c0.607-4.299,0.915-8.584,0.915-12.763
	c0-57.452-53.53-104.192-119.328-104.192c-14.16,0-28.045,2.165-41.294,6.435c-7.224-7.088-19.026-11.279-31.976-11.279
	c-7.947,0-15.529,1.586-22.032,4.598c-21.981-14.689-49.574-22.763-77.878-22.763c-68.468,0-124.173,46.197-124.173,102.981
	c0,23.62,9.375,45.832,27.109,64.231c16.886,17.52,40.493,30.137,66.576,35.599c14.911,24.304,38.91,38.779,64.399,38.779
	c24.37,0,46.825-12.725,61.982-35.015c21.566,16.021,48.898,24.817,77.288,24.817c37.318,0,72.802-15.484,95.292-41.497
	c1.312,0.454,2.527,0.911,3.686,1.386c25.922,10.624,43.576,34.537,44.979,60.918l0.287,5.414l3.89-3.777
	c6.004-5.832,10.623-12.63,13.734-20.207C576.963,297.91,575.975,279.156,567.441,261.543z"/>
<path fill="#EE2725" d="M115.855,177.581l-44.357,20.571l52.071,10.929l-3.857,32.143c0,0,56.571-23.143,58.5-23.785
	c1.928-0.644-25.072,95.784-25.072,95.784l72.642-50.785l-9.643,43.714c0,0,29.571-28.929,30.857-30.856
	c1.286-1.929,8.357,58.499,8.357,58.499l31.5-60.428l12.214,50.143l28.929-65.571l26.999,79.713l9-91.927l62.356,87.428
	l10.285-58.499l33.429,28.285v-28.285l53.356,20.57c0,0-29.57-55.285-32.142-56.57c-2.572-1.285,57.214-0.643,57.214-0.643
	l-39.857-29.571l72.642-12.857l-78.427-30.214l35.356-14.786l-53.356,1.286l39.213-71.357l-77.784,28.928l10.286-29.571
	l-79.714,59.785l23.785-91.928l-59.142,61.713l-18-50.785l-22.5,52.714L281.71,33.582l-21.214,89.356l-57.857-79.071l-3.214,73.927
	L132.569,44.51l13.5,41.143l-32.143,0.643l30.857,41.143l-56.571,7.714l47.571,32.143L115.855,177.581z"/>
<path opacity="0.5" fill="#F5851F" d="M115.855,177.581l-44.357,20.571l52.071,10.929l-3.857,32.143c0,0,56.571-23.143,58.5-23.785
	c1.928-0.644-25.072,95.784-25.072,95.784l72.642-50.785l-9.643,43.714c0,0,29.571-28.929,30.857-30.856
	c1.286-1.929,8.357,58.499,8.357,58.499l31.5-60.428l12.214,50.143l28.929-65.571l26.999,79.713l9-91.927l62.356,87.428
	l10.285-58.499l33.429,28.285v-28.285l53.356,20.57c0,0-29.57-55.285-32.142-56.57c-2.572-1.285,57.214-0.643,57.214-0.643
	l-39.857-29.571l72.642-12.857l-78.427-30.214l35.356-14.786l-53.356,1.286l39.213-71.357l-77.784,28.928l10.286-29.571
	l-79.714,59.785l23.785-91.928l-59.142,61.713l-18-50.785l-22.5,52.714L281.71,33.582l-21.214,89.356l-57.857-79.071l-3.214,73.927
	L132.569,44.51l13.5,41.143l-32.143,0.643l30.857,41.143l-56.571,7.714l47.571,32.143L115.855,177.581z"/>
<path fill="#FFFFFF" d="M524.074,207.064c0.74-4.625,1.149-9.341,1.149-14.143c0-56.182-52.321-101.728-116.864-101.728
	c-14.807,0-28.96,2.422-41.994,6.794c-6.322-6.958-17.943-11.638-31.275-11.638c-8.387,0-16.088,1.867-22.238,4.969
	c-21.075-14.446-48.144-23.135-77.673-23.135c-67.217,0-121.708,45.002-121.708,100.517c0,47.274,39.526,86.905,92.77,97.632
	c13.922,23.289,36.873,38.513,62.849,38.513c25.075,0,47.337-14.178,61.377-36.106c20.675,16.105,47.964,25.909,77.893,25.909
	c38.848,0,73.246-16.512,94.495-41.898c1.813,0.591,3.622,1.237,5.417,1.973c27.672,11.342,45.097,36.581,46.504,63.066
	c5.606-5.445,10.117-11.934,13.171-19.375C581.381,265.641,561.876,226.186,524.074,207.064"/>
<path d="M552.602,323.335l-0.287-5.415c-1.402-26.382-19.057-50.293-44.979-60.918c-1.158-0.475-2.374-0.933-3.686-1.386
	c-22.49,26.013-57.974,41.496-95.292,41.496c-28.39,0-55.722-8.795-77.288-24.816c-15.157,22.289-37.612,35.015-61.982,35.015
	c-25.489,0-49.488-14.476-64.399-38.779c-26.083-5.464-49.689-18.078-66.576-35.599c-17.734-18.401-27.109-40.611-27.109-64.231
	c0-56.784,55.705-102.981,124.173-102.981c28.305,0,55.897,8.075,77.878,22.764c6.503-3.012,14.085-4.598,22.032-4.598
	c12.949,0,24.752,4.19,31.976,11.278c13.249-4.271,27.134-6.434,41.294-6.434c65.798,0,119.328,46.74,119.328,104.191
	c0,4.179-0.308,8.464-0.915,12.764c18.101,9.55,32.503,24.005,40.669,40.859c8.534,17.613,9.522,36.366,2.785,52.805
	c-3.111,7.576-7.73,14.375-13.734,20.207L552.602,323.335z M502.035,249.891l1.584,0.517c2.04,0.665,3.867,1.331,5.586,2.034
	c25.856,10.599,44.012,33.64,47.513,59.679c3.764-4.412,6.765-9.32,8.948-14.641c12.896-31.455-5.464-69.38-42.703-88.218
	l-1.606-0.812l0.286-1.776c0.74-4.634,1.117-9.261,1.117-13.752c0-54.734-51.32-99.264-114.4-99.264
	c-14.158,0-28.022,2.243-41.212,6.667l-1.523,0.512l-1.082-1.19c-6.071-6.681-17.356-10.832-29.452-10.832
	c-7.722,0-15.027,1.627-21.128,4.706l-1.301,0.656l-1.202-0.824c-21.358-14.641-48.448-22.704-76.28-22.704
	c-65.752,0-119.245,43.986-119.245,98.053c0,45.293,37.334,84.447,90.792,95.218l1.069,0.215l0.56,0.936
	c13.966,23.363,36.671,37.313,60.734,37.313c23.458,0,45.072-12.747,59.302-34.972l1.458-2.275l2.132,1.66
	c21.018,16.372,48.142,25.39,76.378,25.39c36.489,0,71.108-15.333,92.606-41.016L502.035,249.891z"/>
<path fill="#0079C1" d="M179.76,180.994l2.128-16.598c0.271-1.74,0.507-3.026,0.713-3.859c0.474,0.832,2.05,4.276,4.729,10.335
	c2.678,6.06,5.113,10.286,7.306,12.678c5.499,1.018,8.984,1.64,10.459,1.87c1.472,0.229,3.113,0.35,4.922,0.361l-14.525-31.014
	c1.678-2.06,5.456-5.739,11.333-11.036c5.875-5.295,9.737-9.502,11.579-12.617c-1.743-0.433-3.537-0.794-5.376-1.08l-6.751-0.969
	c-1.326-0.207-2.28-0.38-2.86-0.525c-2.137,1.612-5.101,4.297-8.889,8.054c-3.792,3.758-6.946,6.467-9.467,8.127l-0.625,0.388
	c0.123-1.277,0.389-3.232,0.798-5.87l1.132-7.276c0.41-2.636,0.675-4.593,0.799-5.869l-12.68-2.134
	c-1.104-0.172-1.766-0.179-1.977-0.024c-0.213,0.157-0.335,0.447-0.362,0.875c-0.029,0.429-0.051,0.695-0.067,0.8l-6.48,37.306
	c-0.894,5.748-1.549,10.938-1.969,15.57c2.374,0.747,5.198,1.375,8.477,1.884C175.382,180.88,177.935,181.089,179.76,180.994"/>
<path d="M211.377,186.65l-1.365-0.008c-1.837-0.011-3.536-0.135-5.049-0.371c-1.486-0.231-5.012-0.861-10.483-1.874l-0.284-0.052
	L194,184.133c-2.247-2.451-4.757-6.796-7.459-12.912c-1.751-3.96-2.875-6.448-3.59-7.994c-0.068,0.401-0.138,0.835-0.211,1.302
	l-2.217,17.29l-0.719,0.038c-1.871,0.096-4.502-0.115-7.832-0.633c-3.306-0.514-6.2-1.158-8.602-1.914l-0.663-0.208l0.063-0.692
	c0.418-4.623,1.082-9.88,1.975-15.625l6.482-37.32c0.013-0.083,0.03-0.324,0.057-0.71c0.044-0.689,0.285-1.199,0.713-1.513
	c0.457-0.336,1.153-0.361,2.62-0.132l13.483,2.269l-0.079,0.8c-0.127,1.312-0.398,3.303-0.805,5.918l-1.132,7.276
	c-0.245,1.575-0.439,2.911-0.58,3.997c2.295-1.644,5.124-4.126,8.415-7.388c3.798-3.766,6.819-6.501,8.977-8.13l0.329-0.249
	l0.399,0.1c0.545,0.136,1.481,0.308,2.784,0.511l6.741,0.967c1.864,0.29,3.698,0.658,5.462,1.096l1.124,0.279l-0.589,0.997
	c-1.877,3.174-5.829,7.487-11.744,12.819c-5.44,4.902-9.101,8.439-10.896,10.527L211.377,186.65z M195.082,182.755
	c5.29,0.978,8.703,1.587,10.146,1.812c1.047,0.163,2.192,0.27,3.418,0.319l-14.165-30.245l0.342-0.42
	c1.724-2.117,5.46-5.758,11.424-11.132c5.174-4.663,8.792-8.497,10.778-11.417c-1.349-0.306-2.733-0.569-4.13-0.786l-6.741-0.968
	c-1.103-0.171-1.937-0.318-2.536-0.447c-2.074,1.607-4.926,4.207-8.484,7.734c-3.816,3.783-7.045,6.554-9.6,8.235l-2.125,1.321
	l0.166-1.735c0.125-1.296,0.388-3.233,0.806-5.92l1.131-7.276c0.326-2.094,0.563-3.778,0.707-5.021l-11.878-1.999
	c-0.582-0.091-1.073-0.133-1.314-0.122c-0.006,0.04-0.015,0.099-0.021,0.177c-0.032,0.473-0.058,0.765-0.076,0.88l-6.481,37.318
	c-0.84,5.407-1.478,10.386-1.895,14.802c2.186,0.644,4.767,1.2,7.685,1.653c2.79,0.434,5.061,0.652,6.76,0.635l2.034-15.867
	c0.282-1.813,0.52-3.1,0.732-3.955l0.517-2.095l1.069,1.874c0.496,0.867,2.056,4.273,4.77,10.413
	C190.668,176.291,193.008,180.403,195.082,182.755z"/>
<path fill="#0079C1" d="M262.47,149.689c0.526-3.385,0.959-5.937,1.301-7.655l0.168-1.08c0.089-0.575,0.151-1.452,0.186-2.627
	c-1.994-0.457-5.497-1.187-10.504-2.187l-1.188-0.185l-2.901-0.562c-1.009-0.157-1.782,1.494-2.318,4.952l-0.085,0.54
	c-0.401-1.685-1.138-2.999-2.209-3.94c-1.071-0.941-2.121-1.547-3.147-1.818c-1.029-0.271-2.66-0.579-4.892-0.926
	c-5.138-0.65-9.816,1.093-14.037,5.231c-4.223,4.14-6.887,9.773-7.996,16.905c-1.546,9.94-0.484,18.295,3.186,25.062
	c2.005,3.707,4.737,5.827,8.195,6.365c2.447,0.381,5.08,0.181,7.895-0.599c2.814-0.78,5.26-1.93,7.342-3.451l-1.02,3.715
	c-0.19,1.226,0.118,2.084,0.926,2.578l4.697,0.398l6.973,1.417l1.296,0.202c0.968-0.071,1.589-0.971,1.858-2.699l0.234-1.513
	c0.948-4.204,1.827-8.9,2.634-14.087L262.47,149.689z M243.95,164.184c-0.594,3.819-1.396,6.478-2.403,7.981
	c-1.009,1.503-2.99,2.024-5.943,1.566c-2.955-0.46-5.12-1.939-6.502-4.442c-1.382-2.501-1.851-5.174-1.409-8.021
	c0.444-2.845,1.012-5.08,1.708-6.706c0.695-1.625,2.011-2.97,3.947-4.034c1.936-1.063,3.984-1.428,6.145-1.092
	c2.162,0.336,3.575,0.611,4.244,0.826c0.666,0.214,1.12,0.856,1.36,1.926c0.238,1.071,0.309,2.04,0.211,2.911
	c-0.099,0.87-0.315,2.386-0.651,4.546L243.95,164.184z"/>
<path d="M254.303,192.893l-1.394-0.217l-6.963-1.413l-4.849-0.412l-0.174-0.106c-0.777-0.474-1.638-1.458-1.329-3.446l0.021-0.096
	l0.421-1.535c-1.704,0.974-3.606,1.755-5.681,2.331c-2.92,0.808-5.701,1.017-8.258,0.62c-3.722-0.579-6.69-2.87-8.821-6.806
	c-3.744-6.905-4.847-15.52-3.279-25.605c1.133-7.287,3.907-13.137,8.244-17.389c4.393-4.307,9.367-6.151,14.749-5.471
	c2.311,0.358,3.939,0.667,5.003,0.947c1.154,0.304,2.33,0.979,3.498,2.004c0.513,0.45,0.958,0.977,1.335,1.576
	c0.593-2.326,1.405-3.353,2.578-3.353c0.087,0,0.175,0.007,0.263,0.021l2.932,0.568l1.157,0.179
	c5.029,1.004,8.571,1.742,10.565,2.198l0.69,0.158l-0.021,0.708c-0.037,1.225-0.102,2.119-0.196,2.733l-0.168,1.082
	c-0.341,1.715-0.776,4.279-1.301,7.654l-3.404,24.025c-0.804,5.171-1.693,9.93-2.645,14.156l-0.224,1.455
	c-0.421,2.703-1.673,3.355-2.648,3.426L254.303,192.893z M241.673,189.169l4.567,0.394l6.973,1.416l1.139,0.176
	c0.584-0.12,0.861-1.122,0.992-1.96l0.235-1.512c0.955-4.246,1.837-8.966,2.633-14.088l3.403-24.025
	c0.538-3.458,0.966-5.974,1.309-7.702l0.162-1.045c0.064-0.417,0.115-1.024,0.15-1.81c-2.061-0.458-5.346-1.138-9.785-2.025
	l-1.152-0.178l-2.931-0.567c0.034,0.01-0.702,0.363-1.303,4.236l-0.763,4.859l-1.014-4.251c-0.358-1.5-1.01-2.675-1.939-3.492
	c-0.964-0.848-1.905-1.396-2.798-1.631c-0.991-0.261-2.608-0.566-4.804-0.908c-0.635-0.081-1.294-0.122-1.936-0.122
	c-4.078,0-7.902,1.722-11.365,5.117c-4.066,3.985-6.673,9.51-7.747,16.421c-1.509,9.704-0.469,17.953,3.091,24.519
	c1.888,3.487,4.363,5.424,7.57,5.924c2.313,0.36,4.847,0.166,7.531-0.578c2.699-0.749,5.076-1.864,7.063-3.316l1.994-1.458
	l-1.66,6.047C241.157,188.536,241.395,188.943,241.673,189.169z M237.517,174.754c-0.626,0-1.314-0.058-2.045-0.171
	c-3.217-0.5-5.614-2.142-7.125-4.876c-1.47-2.661-1.976-5.544-1.506-8.571c0.453-2.904,1.047-5.23,1.767-6.913
	c0.77-1.798,2.224-3.296,4.324-4.451c2.096-1.15,4.356-1.55,6.693-1.188c2.226,0.346,3.657,0.626,4.375,0.857
	c0.975,0.313,1.626,1.174,1.938,2.558c0.257,1.163,0.334,2.237,0.228,3.196c-0.102,0.892-0.323,2.433-0.657,4.583l-0.706,4.538
	c-0.618,3.979-1.449,6.704-2.539,8.329C241.324,174.045,239.727,174.754,237.517,174.754z M237.956,150.178
	c-1.446,0-2.857,0.372-4.193,1.107c-1.754,0.964-2.955,2.181-3.569,3.617c-0.664,1.551-1.218,3.737-1.647,6.499
	c-0.411,2.641,0.031,5.153,1.311,7.471c1.257,2.276,3.18,3.587,5.879,4.006c2.588,0.402,4.286,0.01,5.095-1.194
	c0.933-1.392,1.696-3.96,2.267-7.633l0.706-4.538c0.331-2.127,0.548-3.645,0.647-4.512c0.086-0.768,0.02-1.652-0.196-2.626
	c-0.115-0.51-0.344-1.151-0.783-1.292c-0.621-0.2-2.005-0.467-4.111-0.795C238.887,150.215,238.415,150.178,237.956,150.178z"/>
<path fill="#0079C1" d="M285.134,147.485l0.544-2.792c0.347-2.231-0.019-3.433-1.099-3.602c-1.945-0.302-3.875-0.473-5.786-0.511
	c-1.914-0.039-3.374-0.138-4.381-0.294c-1.01-0.158-1.899-0.368-2.668-0.637c-0.538,2.5-1.459,7.962-2.771,16.39l-5.538,37.758
	c0.875,0.063,2.033,0.206,3.474,0.43l5.17,0.915c1.512,0.235,3.129,0.266,4.854,0.091l0.067-0.432
	c0.656-2.333,1.216-4.975,1.676-7.928l2.121-16.49c0.672-4.322,1.668-7.172,2.99-8.555c1.321-1.38,3.17-1.886,5.547-1.516
	c1.872,0.291,3.301,1.067,4.287,2.327c0.629,0.688,0.947,1.734,0.951,3.135c0.021,3.176-0.083,5.52-0.319,7.032
	c-0.047,1.249-0.439,4.248-1.179,9.001l-1.243,7.996c-0.684,4.396-1.032,7.107-1.044,8.138l6.25,1.082
	c2.594,0.404,5.033,0.598,7.323,0.586c0.235-2.471,0.479-4.499,0.725-6.085l4.128-23.703l0.738-4.754
	c1.525-0.795,2.991-1.084,4.396-0.865c1.404,0.217,2.457,0.566,3.158,1.043c0.7,0.479,1.236,0.949,1.606,1.412
	c0.37,0.464,0.602,1.22,0.699,2.267c0.094,1.048,0.144,1.792,0.15,2.237c0.024,2.216-0.082,4.081-0.316,5.594
	c-0.048,1.248-0.439,4.248-1.178,9.001l-1.244,7.996c-0.683,4.395-1.032,7.108-1.044,8.137l6.25,1.083
	c2.594,0.403,5.034,0.598,7.323,0.585c0.28-2.76,0.563-5.039,0.844-6.84l4.345-25.107c1.625-10.444,1.726-16.553,0.304-18.324
	c-2.102-2.611-5.277-4.251-9.526-4.911c-3.242-0.504-6.541-0.167-9.895,1.006c-0.943,0.371-2.668,1.024-5.174,1.962
	c-0.453-1.84-1.709-3.364-3.771-4.57c-2.064-1.206-3.869-1.93-5.417-2.17c-1.55-0.241-2.707-0.383-3.475-0.43
	c-0.767-0.045-1.567-0.004-2.398,0.125c-0.833,0.13-1.494,0.23-1.983,0.301c-0.492,0.072-1.225,0.271-2.197,0.599
	c-0.974,0.329-1.615,0.542-1.925,0.641C287.776,146.385,286.327,146.934,285.134,147.485"/>
<path d="M329.546,204.419c-2.265,0-4.703-0.2-7.249-0.596l-6.988-1.211l0.008-0.735c0.013-1.07,0.356-3.773,1.054-8.259l1.244-7.996
	c0.729-4.694,1.123-7.689,1.168-8.901l0.01-0.1c0.227-1.456,0.329-3.291,0.306-5.452c-0.005-0.415-0.054-1.146-0.146-2.169
	c-0.101-1.085-0.335-1.582-0.514-1.806c-0.313-0.392-0.792-0.809-1.419-1.237c-0.59-0.403-1.534-0.707-2.803-0.904
	c-1.102-0.169-2.264,0.027-3.479,0.589l-0.67,4.311l-4.131,23.718c-0.243,1.567-0.485,3.597-0.716,6.019l-0.074,0.777l-0.98,0.004
	c-2.273,0-4.716-0.199-7.259-0.596l-6.988-1.211l0.007-0.734c0.013-1.077,0.357-3.778,1.055-8.259l1.243-7.996
	c0.73-4.688,1.123-7.684,1.169-8.902l0.01-0.1c0.226-1.453,0.33-3.773,0.308-6.895c-0.002-1.176-0.247-2.036-0.726-2.56
	c-0.895-1.142-2.118-1.797-3.781-2.056c-2.093-0.326-3.666,0.085-4.792,1.261c-1.191,1.246-2.119,3.968-2.76,8.09l-2.118,16.468
	c-0.46,2.96-1.026,5.645-1.686,8.002l-0.162,1.039l-0.663,0.067c-1.789,0.181-3.496,0.148-5.074-0.097l-5.189-0.917
	c-1.396-0.217-2.541-0.359-3.384-0.419l-0.927-0.066l5.673-38.679c1.33-8.548,2.238-13.925,2.78-16.445l0.205-0.956l0.922,0.321
	c0.709,0.248,1.557,0.449,2.516,0.599c0.972,0.15,2.407,0.246,4.266,0.284c1.946,0.039,3.932,0.215,5.9,0.521
	c1.127,0.176,2.359,1.115,1.818,4.586l-0.239,1.229c0.88-0.348,1.859-0.695,2.931-1.038c0.309-0.099,0.945-0.311,1.913-0.637
	c1.027-0.347,1.794-0.555,2.346-0.636c0.49-0.07,1.147-0.17,1.976-0.299c0.89-0.138,1.76-0.181,2.582-0.134
	c0.807,0.049,2.004,0.196,3.558,0.439c1.647,0.255,3.571,1.021,5.719,2.278c1.918,1.121,3.219,2.527,3.879,4.189
	c2.046-0.767,3.484-1.313,4.315-1.639c3.516-1.233,6.976-1.58,10.342-1.057c4.446,0.69,7.834,2.448,10.066,5.224
	c1.019,1.269,2.113,4.617-0.123,18.996l-4.349,25.123c-0.276,1.778-0.558,4.063-0.834,6.781l-0.079,0.771L329.546,204.419z
	 M317.084,201.169l5.494,0.952c2.231,0.347,4.383,0.538,6.398,0.569c0.253-2.409,0.513-4.461,0.768-6.108l4.349-25.122
	c2.067-13.29,1.188-16.754,0.482-17.636c-1.955-2.428-4.979-3.976-8.988-4.6c-3.086-0.479-6.272-0.153-9.477,0.969
	c-0.916,0.36-2.645,1.015-5.157,1.956l-0.909,0.34l-0.231-0.942c-0.397-1.62-1.5-2.938-3.369-4.031
	c-1.96-1.146-3.681-1.84-5.114-2.063c-1.5-0.234-2.643-0.375-3.395-0.421c-0.697-0.04-1.446-0.002-2.214,0.116
	c-0.836,0.13-1.5,0.231-1.992,0.301c-0.301,0.044-0.903,0.178-2.044,0.563c-0.98,0.331-1.627,0.546-1.939,0.646
	c-1.666,0.534-3.096,1.075-4.25,1.608l-1.531,0.708l0.868-4.449c0.085-0.553,0.326-2.473-0.386-2.584
	c-1.893-0.295-3.8-0.464-5.67-0.502c-1.934-0.039-3.447-0.141-4.495-0.304c-0.675-0.105-1.304-0.235-1.881-0.388
	c-0.548,2.777-1.411,7.954-2.572,15.422l-5.406,36.85c0.736,0.079,1.603,0.196,2.621,0.354l5.188,0.917
	c1.22,0.189,2.567,0.239,3.979,0.137c0.632-2.27,1.175-4.856,1.616-7.69l2.117-16.467c0.709-4.563,1.762-7.513,3.222-9.041
	c1.518-1.584,3.646-2.187,6.304-1.772c2.087,0.324,3.713,1.214,4.833,2.647c0.734,0.8,1.13,2.05,1.134,3.665
	c0.022,3.222-0.083,5.552-0.321,7.118c-0.057,1.329-0.445,4.291-1.186,9.051l-1.244,7.995c-0.548,3.528-0.881,5.97-0.992,7.287
	l5.493,0.951c2.226,0.346,4.377,0.537,6.395,0.569c0.211-2.114,0.431-3.911,0.654-5.352l4.131-23.719l0.804-5.169l0.386-0.202
	c1.684-0.877,3.347-1.199,4.927-0.953c1.545,0.239,2.694,0.626,3.51,1.184c0.781,0.534,1.368,1.052,1.793,1.585
	c0.482,0.604,0.771,1.495,0.885,2.726c0.097,1.085,0.147,1.838,0.154,2.305c0.023,2.234-0.084,4.147-0.32,5.689
	c-0.057,1.323-0.445,4.285-1.186,9.05l-1.243,7.996C317.528,197.412,317.195,199.854,317.084,201.169z"/>
<path fill="#0079C1" d="M384.159,181.782c0.117-1.714,0.202-3.786,0.247-6.214c0.045-2.427-0.085-4.439-0.391-6.036
	c-0.305-1.597-0.83-3.32-1.574-5.169c-0.746-1.849-1.73-3.349-2.952-4.499c-2.813-2.797-6.631-4.572-11.457-5.323
	c-3.816-0.593-6.729,0.578-8.733,3.512c-0.261,0.254-0.429,0.375-0.501,0.365c-0.503-0.079-0.599-1.604-0.282-4.582l0.225-0.739
	c-0.771-0.267-2.596-0.625-5.477-1.073l-9.092-1.304c-0.477,2.583-1.128,6.54-1.957,11.869l-8.098,57.059l-1.108,7.132
	c1.468,0.521,4.093,1.078,7.875,1.666c3.78,0.588,5.7,0.701,5.757,0.342l0.184-1.188c1.083-5.07,1.76-8.469,2.029-10.197
	l0.771-4.971c0.494-3.17,0.876-5.875,1.152-8.12c0.021,0.816,1.07,1.661,3.147,2.537c2.076,0.876,4.845,1.582,8.302,2.12
	s6.487,0.494,9.096-0.135c3.192-0.609,5.806-2.821,7.838-6.638c2.03-3.814,3.341-7.742,3.934-11.782
	C383.684,186.375,384.038,183.498,384.159,181.782 M369.905,189.47c-1.588,4.992-5.406,7.016-11.457,6.076
	c-3.025-0.47-4.775-1.424-5.255-2.864c-0.477-1.439-0.39-4.247,0.26-8.425c0.65-4.176,1.167-7.029,1.552-8.556
	c0.385-1.526,0.917-3.048,1.595-4.566c1.406-2.879,3.731-4.068,6.974-3.563c3.241,0.504,5.542,2.3,6.908,5.39
	c1.362,3.088,1.789,6.292,1.272,9.604C371.239,185.878,370.622,188.181,369.905,189.47"/>
<path d="M345.769,229.856c-0.967,0-2.61-0.183-5.02-0.557c-3.864-0.602-6.49-1.16-8.03-1.707l-0.673-0.239l1.219-7.838l8.095-57.047
	c0.844-5.427,1.486-9.317,1.964-11.904l0.149-0.816l9.913,1.422c2.967,0.461,4.808,0.824,5.636,1.112l0.785,0.272l-0.443,1.455
	c-0.137,1.312-0.175,2.179-0.169,2.748c2.164-2.614,5.188-3.655,8.969-3.068c4.988,0.776,9.002,2.647,11.933,5.563
	c1.29,1.212,2.354,2.829,3.145,4.787c0.764,1.897,1.309,3.69,1.622,5.33c0.315,1.65,0.451,3.741,0.404,6.214
	c-0.044,2.394-0.127,4.499-0.248,6.256c-0.121,1.73-0.482,4.656-1.072,8.698c-0.604,4.119-1.959,8.177-4.026,12.063
	c-2.149,4.039-4.989,6.421-8.438,7.08c-1.422,0.345-3.031,0.523-4.742,0.523l0,0c-1.452,0-3.016-0.13-4.647-0.384
	c-3.511-0.546-6.372-1.279-8.505-2.179c-0.917-0.387-1.653-0.773-2.22-1.171c-0.246,1.819-0.544,3.859-0.892,6.094l-0.772,4.97
	c-0.273,1.753-0.939,5.104-2.036,10.244l-0.177,1.142C347.345,229.856,346.241,229.856,345.769,229.856z M333.974,226.185
	c1.501,0.443,3.864,0.916,7.042,1.41c2.287,0.355,3.888,0.536,4.753,0.536c0.036,0,0.068,0,0.1-0.001l0.103-0.661
	c1.086-5.088,1.765-8.502,2.029-10.198l0.771-4.97c0.483-3.101,0.869-5.824,1.149-8.095l1.718,0.084
	c0,0.006,0.047,0.678,2.619,1.764c2.003,0.846,4.729,1.539,8.1,2.063c1.545,0.24,3.02,0.362,4.383,0.362l0,0
	c1.574,0,3.048-0.162,4.378-0.483c2.951-0.565,5.386-2.649,7.28-6.205c1.974-3.709,3.267-7.579,3.84-11.502
	c0.585-3.999,0.941-6.882,1.06-8.567c0.118-1.728,0.2-3.804,0.244-6.169c0.045-2.354-0.081-4.325-0.373-5.859
	c-0.294-1.53-0.807-3.215-1.528-5.009c-0.695-1.724-1.62-3.135-2.744-4.192c-2.684-2.67-6.379-4.38-10.998-5.099
	c-3.491-0.542-6.066,0.481-7.89,3.146l-0.11,0.131c-0.395,0.387-0.7,0.61-1.092,0.61l-0.137-0.01
	c-1.178-0.184-1.432-1.577-1.014-5.525l0.006-0.051c-0.795-0.187-2.168-0.451-4.532-0.818l-8.259-1.184
	c-0.457,2.55-1.049,6.173-1.806,11.03l-8.095,57.047L333.974,226.185z M361.158,196.631c-0.886,0-1.844-0.078-2.843-0.233
	c-3.404-0.529-5.348-1.656-5.939-3.445c-0.527-1.582-0.452-4.47,0.226-8.829c0.661-4.255,1.175-7.08,1.568-8.635
	c0.391-1.557,0.943-3.141,1.643-4.706c1.59-3.257,4.259-4.63,7.892-4.064c3.535,0.55,6.081,2.532,7.564,5.894
	c1.428,3.23,1.877,6.624,1.338,10.085c-0.526,3.384-1.149,5.713-1.904,7.115C369.233,194.337,366.022,196.631,361.158,196.631z
	 M362.184,168.32c-2.188,0-3.762,1.044-4.81,3.193c-0.646,1.448-1.167,2.936-1.533,4.397c-0.374,1.483-0.891,4.335-1.537,8.479
	c-0.778,5.012-0.589,7.128-0.291,8.02c0.454,1.372,2.734,1.999,4.567,2.284c5.603,0.871,9.046-0.906,10.503-5.485l0.067-0.157
	c0.664-1.195,1.253-3.422,1.751-6.62c0.486-3.129,0.079-6.2-1.211-9.123c-1.249-2.828-3.294-4.426-6.251-4.886
	C363.002,168.354,362.581,168.32,362.184,168.32z"/>
<path fill="#0079C1" d="M413.148,210.896l-0.545,2.792c-0.348,2.234-0.019,3.428,0.992,3.585c2.016,0.313,3.979,0.49,5.892,0.529
	c1.912,0.04,2.995,0.078,3.247,0.117s1.518,0.311,3.803,0.813c1.309-7.469,2.231-12.934,2.77-16.39l5.539-37.759
	c-0.876-0.062-2.033-0.206-3.474-0.429l-5.277-0.932c-1.442-0.224-3.024-0.249-4.748-0.074l-0.067,0.432
	c-0.708,2.177-1.313,4.887-1.816,8.127l-2.063,16.832c-0.629,4.035-1.618,6.72-2.97,8.06c-1.354,1.339-3.072,1.846-5.161,1.522
	c-2.09-0.325-3.561-1.18-4.414-2.568c-0.854-1.386-1.275-2.595-1.262-3.626c0.008-2.433,0.154-4.55,0.435-6.351
	c0.045-1.247,0.433-4.211,1.161-8.894l1.26-8.103c0.683-4.393,1.03-7.106,1.044-8.138l-6.249-1.082
	c-2.595-0.404-5.037-0.598-7.324-0.586c-0.143,1.38-0.457,3.656-0.951,6.824l-4.363,25.215c-1.624,10.446-1.685,16.523-0.179,18.231
	c2.102,2.615,5.241,4.246,9.419,4.896c3.242,0.503,6.574,0.176,10.004-0.99C408.935,212.603,410.701,211.917,413.148,210.896"/>
<path d="M427.231,219.767l-0.88-0.193c-2.266-0.498-3.527-0.768-3.748-0.802c-0.101-0.015-0.605-0.056-3.134-0.107
	c-1.944-0.041-3.965-0.222-6.008-0.539c-0.488-0.075-1.358-0.39-1.703-1.637c-0.2-0.724-0.203-1.683-0.007-2.933l0.243-1.252
	c-1.726,0.703-3.005,1.186-3.884,1.467c-2.453,0.833-4.914,1.259-7.298,1.259c-0.001,0,0,0-0.001,0c-1.036,0-2.079-0.08-3.099-0.238
	c-4.378-0.681-7.729-2.434-9.959-5.207c-1.059-1.201-2.241-4.504,0-18.904l4.364-25.231c0.482-3.097,0.8-5.379,0.942-6.766
	l0.079-0.77l0.986-0.004c2.265,0,4.704,0.2,7.249,0.596l6.989,1.211l-0.01,0.736c-0.014,1.088-0.358,3.79-1.055,8.259l-1.26,8.103
	c-0.721,4.636-1.108,7.594-1.151,8.792l-0.01,0.102c-0.273,1.756-0.416,3.849-0.426,6.221c-0.01,0.868,0.372,1.933,1.136,3.171
	c0.721,1.172,1.967,1.88,3.813,2.168c1.818,0.283,3.262-0.134,4.422-1.283c1.211-1.201,2.128-3.751,2.723-7.578l2.061-16.804
	c0.507-3.271,1.123-6.028,1.83-8.224l0.16-1.022l0.662-0.066c1.787-0.183,3.456-0.156,4.966,0.079l5.297,0.935
	c1.399,0.217,2.544,0.359,3.384,0.418l0.928,0.066l-5.673,38.678c-0.539,3.459-1.472,8.979-2.774,16.414L427.231,219.767z
	 M414.303,209.478l-0.854,4.376c-0.186,1.2-0.119,1.85-0.028,2.176c0.1,0.359,0.224,0.378,0.305,0.392
	c1.967,0.305,3.911,0.479,5.779,0.518c2.582,0.055,3.147,0.096,3.36,0.129c0.171,0.025,0.677,0.126,2.977,0.629
	c1.22-6.977,2.099-12.185,2.612-15.487l5.404-36.85c-0.734-0.078-1.6-0.195-2.619-0.354l-5.297-0.935
	c-1.158-0.18-2.475-0.223-3.877-0.12c-0.676,2.102-1.265,4.755-1.751,7.889l-2.061,16.804c-0.665,4.285-1.716,7.079-3.217,8.566
	c-1.547,1.53-3.54,2.129-5.901,1.762c-2.342-0.365-4.03-1.363-5.017-2.969c-0.95-1.541-1.405-2.878-1.389-4.088
	c0.008-2.429,0.154-4.591,0.436-6.423c0.056-1.311,0.438-4.238,1.17-8.943l1.26-8.104c0.639-4.108,0.9-6.215,0.991-7.286
	l-5.492-0.952c-2.232-0.347-4.388-0.539-6.405-0.569c-0.169,1.427-0.462,3.47-0.868,6.09l-4.366,25.23
	c-2.063,13.271-1.125,16.67-0.383,17.515c1.978,2.458,4.965,4,8.905,4.613c3.092,0.479,6.316,0.158,9.594-0.956
	c1.067-0.341,2.826-1.021,5.244-2.032L414.303,209.478z"/>
<path fill="#0079C1" d="M450.577,205.118l-9.815-1.637c-3.315-0.516-5.379-0.762-6.191-0.741l-0.085,0.541
	c-0.862,5.547,0.54,10.283,4.209,14.21c3.666,3.926,8.923,6.422,15.767,7.486c14.911,2.317,23.296-2.501,25.154-14.459
	c0.852-5.474-0.313-9.619-3.487-12.438c-3.179-2.818-8.495-5.396-15.949-7.736c-3.208-1.679-4.592-3.923-4.155-6.732
	c0.191-1.225,0.858-2.319,2.004-3.286c1.147-0.964,2.565-1.315,4.259-1.053c1.692,0.263,3.2,1.125,4.522,2.584
	c1.322,1.461,1.871,2.911,1.647,4.351c-0.066,0.433-0.148,0.716-0.242,0.848c2.166,0.779,4.653,1.388,7.462,1.825
	c2.811,0.436,5.473,0.628,7.99,0.578c1.388-8.931-0.844-15.217-6.696-18.857c-3.755-1.47-8.118-2.59-13.089-3.363
	c-14.767-2.296-22.967,1.815-24.603,12.332c-0.505,3.241,0.007,6.363,1.531,9.367c1.525,3.003,4.059,5.444,7.604,7.323
	c1.677,1.074,4.053,2.163,7.127,3.267c3.075,1.105,5.341,2.178,6.804,3.216c1.461,1.04,2.053,2.46,1.773,4.26
	c-0.639,4.105-2.795,5.873-6.468,5.301c-2.02-0.313-3.735-1.133-5.151-2.46C451.081,208.517,450.441,206.942,450.577,205.118"/>
<path d="M461.208,226.405c-2.11,0-4.426-0.194-6.88-0.576c-7.008-1.088-12.479-3.696-16.266-7.75
	c-3.841-4.11-5.332-9.135-4.431-14.932l0.196-1.252l0.838-0.019c0.933,0,2.97,0.245,6.227,0.752l10.604,1.769l-0.06,0.786
	c-0.117,1.563,0.423,2.881,1.65,4.03c1.281,1.201,2.859,1.953,4.692,2.238c0.403,0.063,0.789,0.094,1.147,0.094
	c1.549,0,3.686-0.484,4.337-4.676c0.231-1.482-0.221-2.57-1.421-3.424c-1.391-0.988-3.61-2.034-6.596-3.107
	c-3.122-1.121-5.578-2.249-7.3-3.352c-3.626-1.918-6.308-4.507-7.907-7.66c-1.603-3.155-2.145-6.482-1.614-9.89
	c1.71-11.004,10.302-15.428,25.587-13.052c5.008,0.779,9.473,1.927,13.271,3.412l0.141,0.071c6.147,3.824,8.532,10.459,7.092,19.723
	l-0.112,0.715l-0.724,0.015c-2.553,0.052-5.291-0.146-8.138-0.588c-2.849-0.443-5.413-1.071-7.621-1.865l-1.07-0.384l0.654-0.921
	c-0.006,0.002,0.035-0.088,0.097-0.486c0.184-1.18-0.286-2.371-1.434-3.64c-1.197-1.321-2.511-2.077-4.017-2.312
	c-1.445-0.224-2.612,0.055-3.569,0.861c-0.991,0.835-1.549,1.737-1.707,2.758c-0.375,2.407,0.813,4.305,3.634,5.801
	c7.5,2.359,12.945,5.014,16.189,7.89c3.395,3.014,4.663,7.46,3.769,13.216C478.843,221.104,472.363,226.405,461.208,226.405z
	 M435.303,203.631c-0.758,5.223,0.559,9.566,4.021,13.271c3.517,3.765,8.652,6.195,15.27,7.224c2.366,0.368,4.593,0.554,6.615,0.554
	c10.318,0,16.059-4.675,17.555-14.293c0.811-5.211-0.24-9.024-3.209-11.659c-3.07-2.725-8.331-5.267-15.635-7.559l-0.143-0.059
	c-3.555-1.86-5.104-4.427-4.605-7.629c0.222-1.429,0.996-2.711,2.301-3.812c1.336-1.125,3.009-1.548,4.946-1.246
	c1.884,0.293,3.576,1.254,5.029,2.858c1.499,1.657,2.125,3.36,1.859,5.063c-0.009,0.058-0.018,0.115-0.026,0.169
	c1.924,0.633,4.116,1.143,6.527,1.518c2.461,0.382,4.836,0.576,7.063,0.576c0.016,0,0.03,0,0.047,0
	c1.114-8.208-0.963-13.851-6.337-17.23c-3.662-1.425-7.98-2.53-12.832-3.285c-2.59-0.402-5.004-0.606-7.173-0.606
	c-9.788,0-15.167,3.997-16.445,12.218c-0.474,3.043,0.014,6.019,1.446,8.845c1.438,2.829,3.874,5.167,7.239,6.952
	c1.675,1.069,4.014,2.139,7.016,3.216c3.177,1.144,5.47,2.23,7.012,3.325c1.719,1.224,2.454,2.985,2.125,5.095
	c-0.788,5.072-3.72,6.138-6.041,6.138c-0.447,0-0.921-0.04-1.412-0.116c-2.182-0.339-4.068-1.242-5.606-2.683
	c-1.404-1.314-2.145-2.867-2.208-4.626l-9.081-1.515C437.72,203.881,436.151,203.697,435.303,203.631z"/>
<path fill="#E31837" d="M162.083,200.703c0.531,0.799,1.697,1.696,2.845,1.872c2.008,0.308,3.748-0.827,4.565-4.877
	c-1.188,1.155-3.017,1.592-4.101,1.426c-3.442-0.53-5.825-2.853-5.16-7.188c0.667-4.335,4.246-6.395,8.071-5.806
	c3.888,0.596,7.473,4.018,6.346,11.349c-1.126,7.33-5.68,10.218-10.015,9.553c-2.869-0.441-4.786-1.975-5.918-3.519L162.083,200.703
	z M169.911,194.141c-0.011-2.905-1.12-3.761-2.107-3.912c-1.148-0.176-2.271,0.336-2.599,2.472
	c-0.299,1.944,0.712,2.588,1.859,2.765C167.988,195.607,168.987,195.271,169.911,194.141"/>
<path d="M165.842,207.741c-0.432,0-0.869-0.033-1.301-0.1c-3.494-0.537-5.46-2.589-6.322-3.765l-0.341-0.466l4.339-3.622l0.38,0.573
	c0.448,0.674,1.477,1.459,2.424,1.603c0.172,0.028,0.342,0.042,0.509,0.042c0.528,0,1.986,0,2.949-2.865
	c-0.931,0.452-1.899,0.632-2.607,0.632c-0.205,0-0.397-0.014-0.573-0.041c-4.212-0.647-6.334-3.598-5.675-7.89
	c0.6-3.904,3.508-6.427,7.409-6.427c0.449,0,0.908,0.036,1.364,0.106c2.284,0.35,4.228,1.563,5.472,3.415
	c1.448,2.152,1.928,5.139,1.391,8.636C174.107,205.07,169.639,207.741,165.842,207.741z M159.571,203.603
	c0.975,1.151,2.599,2.427,5.158,2.82c0.37,0.058,0.744,0.086,1.114,0.086c3.285,0,7.165-2.396,8.199-9.123
	c0.49-3.187,0.076-5.871-1.196-7.762c-1.05-1.563-2.696-2.587-4.636-2.885c-0.394-0.061-0.79-0.091-1.177-0.091
	c-3.258,0-5.688,2.113-6.191,5.383c-0.549,3.582,1.144,5.946,4.645,6.485c0.915,0.14,2.529-0.239,3.578-1.259l1.427-1.388
	l-0.394,1.951c-0.797,3.946-2.598,5.773-5.264,5.363c-1.086-0.167-2.151-0.865-2.838-1.605L159.571,203.603z M167.461,196.112
	L167.461,196.112c-0.165,0-0.328-0.012-0.489-0.037c-1.833-0.282-2.676-1.513-2.375-3.468c0.403-2.633,1.928-3.025,2.801-3.025
	c0.165,0,0.332,0.013,0.5,0.039c0.976,0.15,2.616,0.937,2.629,4.519l0.001,0.221l-0.141,0.171
	C169.319,195.837,168.207,196.112,167.461,196.112z M167.398,190.812c-0.317,0-1.279,0-1.583,1.982
	c-0.198,1.288,0.191,1.886,1.344,2.063c0.728,0.109,1.47-0.199,2.132-0.939c-0.034-1.35-0.349-2.891-1.581-3.08
	C167.606,190.821,167.5,190.812,167.398,190.812z"/>
<path fill="#E31837" d="M185.993,193.937l-8.669-1.332l0.705-4.589l14.469,2.223l-0.519,3.378c-5.491,4.735-6.54,8.162-8.131,15.976
	l-5.482-0.841C179.729,202.436,181.434,198.554,185.993,193.937"/>
<path d="M184.334,210.291l-6.709-1.03l0.138-0.64c1.217-5.645,2.728-9.685,6.966-14.255l-8.107-1.246l0.892-5.807l15.687,2.41
	l-0.647,4.211l-0.172,0.148c-5.284,4.559-6.32,7.729-7.93,15.634L184.334,210.291z M179.109,208.241l4.253,0.654
	c1.562-7.556,2.772-11,8.042-15.596l0.391-2.545l-13.251-2.037l-0.519,3.372l9.253,1.422l-0.848,0.859
	C181.916,198.943,180.354,202.696,179.109,208.241z"/>
<path fill="#E31837" d="M189.646,210.84c1.72-0.281,2.708-1.115,2.861-2.118c-0.041-0.005-0.103-0.015-0.143-0.021
	c-1.065-0.163-1.94-1.011-1.752-2.239c0.177-1.146,1.237-1.779,2.425-1.597c1.515,0.232,2.151,1.546,1.843,3.552
	c-0.372,2.416-2.047,4.046-4.822,4.372L189.646,210.84z"/>
<path d="M189.573,213.467l-0.663-3.132l0.637-0.104c1.028-0.167,1.782-0.553,2.138-1.072c-0.448-0.163-0.839-0.431-1.136-0.779
	c-0.467-0.548-0.661-1.263-0.545-2.011c0.221-1.438,1.537-2.359,3.127-2.112c1.843,0.283,2.725,1.873,2.358,4.254
	c-0.422,2.756-2.376,4.539-5.358,4.891L189.573,213.467z M190.377,211.314l0.164,0.774c2.103-0.418,3.42-1.739,3.731-3.766
	c0.181-1.18,0.097-2.631-1.328-2.851c-0.884-0.135-1.605,0.321-1.722,1.083c-0.062,0.4,0.027,0.746,0.266,1.024
	c0.229,0.27,0.573,0.45,0.971,0.511l0.753,0.107l-0.095,0.617C192.936,209.999,191.927,210.905,190.377,211.314z"/>
<path fill="#E31837" d="M200.523,207.653l4.334,0.667l1.606-10.455l-3.825-0.587l0.52-3.379c2.362-0.094,3.917-0.442,5.594-1.163
	l4.016,0.617l-2.429,15.809l3.634,0.559l-0.676,4.397l-13.451-2.065L200.523,207.653z"/>
<path d="M213.813,214.82l-14.667-2.252l0.862-5.617l4.335,0.666l1.419-9.236l-3.825-0.588l0.691-4.489l0.508-0.02
	c2.208-0.087,3.714-0.4,5.375-1.114l0.163-0.069l4.799,0.737l-2.429,15.808l3.634,0.559L213.813,214.82z M200.55,211.536
	l12.232,1.879l0.489-3.179l-3.635-0.559l2.43-15.809l-3.234-0.497c-1.615,0.675-3.106,1.002-5.141,1.119l-0.35,2.272l3.824,0.588
	l-1.793,11.672l-4.335-0.667L200.55,211.536z"/>
<polygon fill="#0079C1" points="226.01,194.866 239.524,196.943 238.818,201.532 230.787,200.298 230.18,204.251 237.063,205.308 
	236.359,209.898 229.474,208.84 228.309,216.426 222.827,215.583 "/>
<path d="M228.824,217.127l-6.7-1.028l3.37-21.935l14.731,2.264l-0.891,5.807l-8.032-1.233l-0.42,2.733l6.884,1.058l-0.893,5.809
	l-6.885-1.059L228.824,217.127z M223.529,215.066l4.264,0.656l1.165-7.585l6.885,1.058l0.518-3.371l-6.885-1.059l0.795-5.171
	l8.032,1.234l0.518-3.371l-12.296-1.89L223.529,215.066z"/>
<path fill="#0079C1" d="M242.774,197.442l5.672,0.872l1.929,9.104l0.629,3.555l0.127,0.02l1.667-3.203l4.446-8.125l5.672,0.872
	l-3.183,20.717l-5.1-0.783l0.94-6.119c0.323-2.104,1.264-5.255,1.837-7.286l-0.128-0.02l-2.465,4.579l-3.94,6.54l-2.04-0.314
	l-1.795-7.421l-0.913-5.099l-0.127-0.02c-0.063,2.11-0.112,5.397-0.436,7.501l-0.94,6.12l-5.036-0.773L242.774,197.442z"/>
<path d="M260.25,221.956l-6.318-0.971l1.035-6.728c0.119-0.775,0.32-1.692,0.556-2.639l-0.161,0.298l-4.169,6.919l-2.856-0.438
	l-1.914-7.94c-0.059,0.889-0.138,1.737-0.247,2.449l-1.033,6.729l-6.254-0.96l3.371-21.935l6.703,1.03l2.017,9.521l0.352,1.987
	l0.922-1.771l4.659-8.516l6.709,1.031L260.25,221.956z M255.337,219.955l3.881,0.597l2.997-19.499l-4.637-0.711l-4.239,7.745
	l-1.865,3.584l-1-0.156l-0.705-3.988l-1.836-8.668l-4.643-0.714l-2.996,19.499l3.818,0.587l0.846-5.512
	c0.275-1.785,0.349-4.524,0.403-6.525l0.046-1.597l1.252,0.192l0.99,5.532l1.692,6.984l1.224,0.187l3.727-6.186l2.657-4.937
	l1.247,0.191l-0.43,1.52c-0.551,1.929-1.306,4.572-1.581,6.364L255.337,219.955z"/>
</svg>
