<?xml version="1.0" encoding="utf-8"?>
<!-- Generator: Adobe Illustrator 16.0.0, SVG Export Plug-In . SVG Version: 6.00 Build 0)  -->
<!DOCTYPE svg PUBLIC "-//W3C//DTD SVG 1.1//EN" "http://www.w3.org/Graphics/SVG/1.1/DTD/svg11.dtd">
<svg version="1.1" id="Layer_1" xmlns="http://www.w3.org/2000/svg" xmlns:xlink="http://www.w3.org/1999/xlink" x="0px" y="0px"
	 width="50px" height="50px" viewBox="276.067 615 50 50" enable-background="new 276.067 615 50 50" xml:space="preserve">
<path fill="#151D46" d="M325.721,624.891c-1.74,0.87-3.771,1.45-5.801,1.74c2.03-1.16,3.77-3.19,4.351-5.511
	c-2.03,1.16-4.061,2.03-6.381,2.32c-1.74-2.03-4.351-3.19-7.541-3.19c-5.511,0-10.152,4.641-10.152,10.151
	c0,0.87,0,1.45,0.291,2.321c-8.412-0.581-15.953-4.641-20.883-10.732c-0.87,1.45-1.45,3.19-1.45,4.931
	c0,3.48,1.74,6.671,4.641,8.411c-1.74,0-3.19-0.58-4.641-1.16l0,0c0,4.931,3.48,8.991,8.121,9.861
	c-0.87,0.291-1.74,0.291-2.61,0.291c-0.58,0-1.16,0-2.03-0.291c1.16,4.061,4.931,6.961,9.571,6.961
	c-3.48,2.61-7.831,4.352-12.472,4.352c-0.87,0-1.74,0-2.32,0c4.351,2.9,9.861,4.64,15.662,4.64
	c18.563,0,28.714-15.372,28.714-28.714c0-0.58,0-0.87,0-1.45C322.53,628.661,324.271,626.921,325.721,624.891"/>
</svg>
