<?xml version="1.0" encoding="utf-8"?>
<!-- Generator: Adobe Illustrator 16.0.0, SVG Export Plug-In . SVG Version: 6.00 Build 0)  -->
<!DOCTYPE svg PUBLIC "-//W3C//DTD SVG 1.1//EN" "http://www.w3.org/Graphics/SVG/1.1/DTD/svg11.dtd">
<svg version="1.1" id="Layer_1" xmlns="http://www.w3.org/2000/svg" xmlns:xlink="http://www.w3.org/1999/xlink" x="0px" y="0px"
	 width="50px" height="50px" viewBox="-13 -13 50 50" enable-background="new -13 -13 50 50" xml:space="preserve">
<g>
	<path fill="#151D46" d="M22.146,1.778c-0.821-0.82-2.049-0.82-2.87,0L2.06,18.995c-0.82,0.82-0.82,2.049,0,2.869
		c0.82,0.819,2.049,0.819,2.869,0L22.146,4.647C22.965,3.828,22.965,2.598,22.146,1.778z"/>
	<path fill="#151D46" d="M4.929,33.342l7.174-7.174c2.87-2.869,3.689-7.173,2.253-10.862l-3.484,3.485
		c0,1.638-0.409,3.277-1.844,4.713l-7.174,7.174c-2.46,2.461-6.354,2.461-8.608,0c-2.459-2.46-2.459-6.354,0-8.609l7.174-7.174
		c1.229-1.229,3.074-1.846,4.714-1.846l3.483-3.483C4.929,8.132,0.625,8.747-2.245,11.821l-7.173,7.174
		c-3.894,3.894-3.894,10.45,0,14.347C-5.524,37.44,1.035,37.44,4.929,33.342z"/>
	<path fill="#151D46" d="M14.973,0.343l7.174-7.173c2.458-2.459,6.353-2.459,8.606,0c2.256,2.459,2.461,6.354,0,8.608l-7.174,7.174
		c-1.229,1.229-3.073,1.844-4.713,1.844l-3.485,3.485c3.691,1.435,7.995,0.613,10.864-2.255l7.174-7.174
		c3.893-3.895,3.893-10.454,0-14.347c-3.895-3.895-10.454-3.895-14.347,0l-6.969,6.968C9.233,0.343,8.414,4.647,9.848,8.336
		l3.484-3.483C13.127,3.212,13.742,1.573,14.973,0.343z"/>
</g>
</svg>
