<?xml version="1.0" encoding="utf-8"?>
<!-- Generator: Adobe Illustrator 16.0.0, SVG Export Plug-In . SVG Version: 6.00 Build 0)  -->
<!DOCTYPE svg PUBLIC "-//W3C//DTD SVG 1.1//EN" "http://www.w3.org/Graphics/SVG/1.1/DTD/svg11.dtd">
<svg version="1.1" id="Layer_1" xmlns="http://www.w3.org/2000/svg" xmlns:xlink="http://www.w3.org/1999/xlink" x="0px" y="0px"
	 width="250.428px" height="286.546px" viewBox="350.807 480.324 250.428 286.546"
	 enable-background="new 350.807 480.324 250.428 286.546" xml:space="preserve">
<circle id="XMLID_37_" fill="none" stroke="#F26F68" stroke-width="10" stroke-linecap="round" stroke-linejoin="round" stroke-miterlimit="10" cx="471.945" cy="536.003" r="50.679"/>
<g id="XMLID_34_">
	
		<path id="XMLID_45_" fill="none" stroke="#F26F68" stroke-width="10" stroke-linecap="round" stroke-linejoin="round" stroke-miterlimit="10" d="
		M393.892,625.294h164.781c6.184,0,11.313,5.128,11.313,11.313v113.951c0,6.185-5.129,11.313-11.313,11.313H367.119
		c-6.184,0-11.313-5.128-11.313-11.313V636.606c0-6.185,5.129-11.313,11.313-11.313H393.892"/>
</g>
<g id="XMLID_31_">
	
		<path id="XMLID_48_" fill="none" stroke="#F26F68" stroke-width="10" stroke-linecap="round" stroke-linejoin="round" stroke-miterlimit="10" d="
		M568.477,757.496l25.34-26.696c4.298-4.525,2.715-8.221-3.545-8.221h-20.287"/>
</g>
<path id="XMLID_28_" fill="none" stroke="#F26F68" stroke-width="10" stroke-linecap="round" stroke-linejoin="round" stroke-miterlimit="10" d="
	M396.229,625.294c10.709-17.798,30.241-29.789,52.488-29.789h44.872c22.172,0,41.779,11.991,52.488,29.789"/>
<g id="XMLID_18_">
	<g id="XMLID_62_">
		<path id="XMLID_63_" fill="#F26F68" d="M440.121,709.909l18.627-39.97c0.151-0.377,0.604-0.679,0.98-0.679h0.604
			c0.452,0,0.829,0.302,0.98,0.679l18.627,39.97c0.377,0.755-0.15,1.509-0.98,1.509h-6.561c-1.056,0-1.509-0.377-2.112-1.509
			l-2.111-4.676h-16.139l-2.111,4.751c-0.302,0.68-0.98,1.434-2.112,1.434h-6.561C440.196,711.493,439.743,710.739,440.121,709.909z
			 M464.479,697.24l-4.524-9.805h-0.076l-4.449,9.805H464.479z"/>
	</g>
</g>
<path id="XMLID_21_" fill="none" stroke="#F26F68" stroke-width="10" stroke-linecap="round" stroke-linejoin="round" stroke-miterlimit="10" d="
	M489.291,546.485c0,10.03-8.069,18.1-18.1,18.1s-18.1-8.069-18.1-18.1"/>
</svg>
